<?xml version="1.0" standalone="no"?>
<!DOCTYPE svg PUBLIC "-//W3C//DTD SVG 1.1//EN" "http://www.w3.org/Graphics/SVG/1.1/DTD/svg11.dtd" >
<svg xmlns="http://www.w3.org/2000/svg" xmlns:xlink="http://www.w3.org/1999/xlink" version="1.1">
<metadata>
Created by FontForge 20170910 at Mon Mar 11 17:23:36 2019
 By Jimmy Wärting
(c) 1999-2011 Typodermic Fonts. Only for distribution through The Ultimate Font Download. If you find this font elsewhere it is being illegally distributed.
</metadata>
<defs>
<font id="KenyanCoffee-Regular" horiz-adv-x="401" >
  <font-face 
    font-family="Kenyan Coffee Rg"
    font-weight="400"
    font-stretch="normal"
    units-per-em="1000"
    panose-1="2 0 6 8 2 2 0 1 1 4"
    ascent="847"
    descent="-153"
    x-height="599"
    cap-height="790"
    bbox="-327 -203 977 996"
    underline-thickness="20"
    underline-position="-143"
    unicode-range="U+0017-FB02"
  />
<missing-glyph horiz-adv-x="635" 
d="M121 -185q-96 0 -96 83v879q0 85 96 85h390q97 0 97 -85v-879q0 -83 -97 -83h-390zM302 490l25 96q4 18 15 18q13 0 19 -5t6 -10q0 -3 -2 -13l-27 -98q-5 -16 -10 -25.5t-16 -18.5l-68 -60q-15 -13 -24.5 -25.5t-16.5 -26t-12.5 -30.5t-11.5 -39l-22 -80l132 -36l16 62
q5 17 10 25.5t15 18.5l102 98q15 14 25.5 26t18 24.5t13.5 28.5t12 38l21 77q8 28 12 50.5t4 40.5q0 24 -8.5 41t-26.5 30.5t-46 24t-68 21.5q-32 8 -57.5 13t-45.5 5q-23 0 -39.5 -7t-29 -23t-22.5 -41t-20 -62l-26 -97zM284 88l-141 38l-37 -136l141 -38z" />
    <glyph glyph-name="copyright" unicode="&#x28;C&#x29;" horiz-adv-x="597" 
d="M297 800q80 0 131.5 -6t81 -26.5t40.5 -58.5t11 -101v-426q0 -63 -11 -101t-40 -58.5t-80.5 -26.5t-132.5 -6t-131.5 6t-79.5 26.5t-39.5 58.5t-10.5 101v426q0 63 11 101t40 58.5t79.5 26.5t130.5 6zM297 730q-59 0 -94 -5t-53.5 -18.5t-24.5 -37.5t-6 -61v-425
q0 -38 5.5 -61.5t24 -37t53.5 -18.5t95 -5t95.5 5t54 18.5t24.5 37t6 61.5v425q0 36 -5.5 60t-24.5 37.5t-54.5 19t-95.5 5.5zM330 452v60q0 16 -6 21.5t-23 5.5t-23.5 -5.5t-6.5 -21.5v-222q0 -17 5.5 -22.5t24.5 -5.5q18 0 23.5 5.5t5.5 22.5v95h59v-102q0 -29 -4 -45.5
t-14.5 -25t-27.5 -11t-42 -2.5q-29 0 -47 3t-28.5 12t-14 25.5t-3.5 43.5v237q0 27 4 43.5t14 25t28 11t47 2.5q27 0 44.5 -3t27 -12t13 -25t3.5 -42v-68h-59z" />
    <glyph glyph-name="registered" unicode="&#x28;R&#x29;" horiz-adv-x="597" 
d="M297 800q80 0 131.5 -6t81 -26.5t40.5 -58.5t11 -101v-426q0 -63 -11 -101t-40 -58.5t-80.5 -26.5t-132.5 -6t-131.5 6t-79.5 26.5t-39.5 58.5t-10.5 101v426q0 63 11 101t40 58.5t79.5 26.5t130.5 6zM297 730q-59 0 -94 -5t-53.5 -18.5t-24.5 -37.5t-6 -61v-425
q0 -38 5.5 -61.5t24 -37t53.5 -18.5t95 -5t95.5 5t54 18.5t24.5 37t6 61.5v425q0 36 -5.5 60t-24.5 37.5t-54.5 19t-95.5 5.5zM331 191v148q0 26 -4 32.5t-17 6.5h-42v-187h-69v431h100q32 0 52 -3.5t31 -14t15 -30t4 -51.5v-56q0 -33 -14 -44t-26 -14v-4q19 -4 29.5 -19
t10.5 -53v-142h-70zM268 434h42q14 0 17.5 6.5t3.5 20.5v62q0 23 -5 29.5t-24 6.5h-34v-125z" />
    <glyph glyph-name="uni2117" unicode="&#x28;P&#x29;" horiz-adv-x="597" 
d="M297 800q80 0 131.5 -6t81 -26.5t40.5 -58.5t11 -101v-426q0 -63 -11 -101t-40 -58.5t-80.5 -26.5t-132.5 -6t-131.5 6t-79.5 26.5t-39.5 58.5t-10.5 101v426q0 63 11 101t40 58.5t79.5 26.5t130.5 6zM297 730q-59 0 -94 -5t-53.5 -18.5t-24.5 -37.5t-6 -61v-425
q0 -38 5.5 -61.5t24 -37t53.5 -18.5t95 -5t95.5 5t54 18.5t24.5 37t6 61.5v425q0 36 -5.5 60t-24.5 37.5t-54.5 19t-95.5 5.5zM199 191v431h100q32 0 52 -4t31 -15t15 -30t4 -50v-101q0 -28 -4 -48t-15 -32.5t-31 -18.5t-52 -6h-31v-126h-69zM268 375h34q19 0 24 6.5t5 30.5
v111q0 23 -5 29.5t-24 6.5h-34v-184z" />
    <glyph glyph-name=".notdef" horiz-adv-x="635" 
d="M121 -185q-96 0 -96 83v879q0 85 96 85h390q97 0 97 -85v-879q0 -83 -97 -83h-390zM302 490l25 96q4 18 15 18q13 0 19 -5t6 -10q0 -3 -2 -13l-27 -98q-5 -16 -10 -25.5t-16 -18.5l-68 -60q-15 -13 -24.5 -25.5t-16.5 -26t-12.5 -30.5t-11.5 -39l-22 -80l132 -36l16 62
q5 17 10 25.5t15 18.5l102 98q15 14 25.5 26t18 24.5t13.5 28.5t12 38l21 77q8 28 12 50.5t4 40.5q0 24 -8.5 41t-26.5 30.5t-46 24t-68 21.5q-32 8 -57.5 13t-45.5 5q-23 0 -39.5 -7t-29 -23t-22.5 -41t-20 -62l-26 -97zM284 88l-141 38l-37 -136l141 -38z" />
    <glyph glyph-name=".null" horiz-adv-x="0" 
 />
    <glyph glyph-name="nonmarkingreturn" horiz-adv-x="161" 
 />
    <glyph glyph-name="space" unicode=" " horiz-adv-x="172" 
 />
    <glyph glyph-name="uni0017" horiz-adv-x="172" 
 />
    <glyph glyph-name="exclam" unicode="!" horiz-adv-x="181" 
d="M149 790l-19 -601h-79l-20 601h118zM143 0h-105v132h105v-132z" />
    <glyph glyph-name="quotedbl" unicode="&#x22;" horiz-adv-x="321" 
d="M120 790l-15 -284h-59l-15 284h89zM280 790l-15 -284h-59l-15 284h89z" />
    <glyph glyph-name="numbersign" unicode="#" horiz-adv-x="436" 
d="M94 324l15 140h-69l12 98h69l27 228h70l-27 -228h91l26 228h71l-27 -228h60l-13 -98h-58l-16 -140h68l-11 -99h-69l-26 -225h-71l26 225h-90l-26 -225h-70l26 225h-60l13 99h59zM164 324h90l16 140h-90z" />
    <glyph glyph-name="dollar" unicode="$" 
d="M245 862v-64q36 -2 58.5 -10t35 -26.5t17.5 -49.5t5 -80v-98h-112v98q0 21 -2 34t-7 20t-15 9t-25 2q-16 0 -25.5 -2.5t-15 -9.5t-7 -20t-1.5 -33v-73q0 -17 2 -28.5t9 -20t19.5 -16t33.5 -16.5q52 -24 82 -41.5t45 -38t19 -48.5t4 -71v-122q0 -49 -5 -80t-18 -49
t-36.5 -26t-60.5 -10v-64h-89v64q-35 2 -57.5 10t-35.5 26t-18 49t-5 80v157h112v-157q0 -21 1.5 -33.5t7 -19.5t15 -9.5t24.5 -2.5q32 0 40.5 12t8.5 53v108q0 23 -1 38.5t-6.5 26.5t-16.5 19t-31 17q-54 24 -85.5 42t-47.5 38.5t-20.5 46.5t-4.5 67v72q0 49 5 80
t18.5 49.5t36.5 26.5t60 10v64h89z" />
    <glyph glyph-name="percent" unicode="%" horiz-adv-x="718" 
d="M259 443q0 -32 -4.5 -50.5t-16.5 -28.5t-33.5 -13t-55.5 -3t-55.5 3t-33.5 13t-16 28.5t-4 50.5v259q0 31 4 49.5t16 28.5t33.5 13t55.5 3t55.5 -3t33.5 -13t16.5 -28.5t4.5 -49.5v-259zM179 702q0 20 -5 25t-25 5t-25 -5.5t-5 -24.5v-259q0 -20 5 -25.5t25 -5.5t25 5.5
t5 25.5v259zM563 790l-330 -790h-78l330 790h78zM676 89q0 -32 -4.5 -50.5t-16.5 -28.5t-33.5 -13t-55.5 -3t-55.5 3t-33.5 13t-16 28.5t-4 50.5v259q0 31 4 49.5t16 28.5t33.5 13t55.5 3t55.5 -3t33.5 -13t16.5 -28.5t4.5 -49.5v-259zM596 348q0 20 -5 25t-25 5t-25 -5.5
t-5 -24.5v-259q0 -20 5 -25.5t25 -5.5t25 5.5t5 25.5v259z" />
    <glyph glyph-name="ampersand" unicode="&#x26;" horiz-adv-x="397" 
d="M349 413v-413h-149q-51 0 -83 5.5t-50 22.5t-24.5 49t-6.5 85v174q0 34 5.5 55.5t15 34.5t22.5 20t28 13v4q-12 2 -24.5 7.5t-23 17t-17 31.5t-6.5 51v59q0 53 6.5 84.5t24.5 48.5t50 22.5t83 5.5h17v-100h-17q-16 0 -25.5 -2.5t-15 -9t-7 -18.5t-1.5 -31v-69
q0 -31 8.5 -43.5t38.5 -12.5h44v112h107v-112h37v-91h-37zM242 413h-44q-30 0 -38.5 -12.5t-8.5 -44.5v-194q0 -21 1.5 -33t7 -19t15 -9t25.5 -2h42v314z" />
    <glyph glyph-name="quotesingle" unicode="'" horiz-adv-x="152" 
d="M120 790l-15 -284h-59l-15 284h89z" />
    <glyph glyph-name="parenleft" unicode="(" horiz-adv-x="257" 
d="M232 845h-18q-21 0 -34.5 -4t-21 -16t-10 -32.5t-2.5 -53.5v-744q0 -34 2.5 -55t10 -32t21 -15t34.5 -4h18v-74h-18q-46 0 -75.5 10t-46 31.5t-22.5 55.5t-6 83v744q0 49 7 83t24.5 55.5t46 31.5t72.5 10h18v-74z" />
    <glyph glyph-name="parenright" unicode=")" horiz-adv-x="257" 
d="M25 919h18q43 0 72 -10t46.5 -31.5t24.5 -55.5t7 -83v-744q0 -49 -6 -83t-22.5 -55.5t-46 -31.5t-75.5 -10h-18v74h18q21 0 34 4t20.5 15t10.5 32t3 55v744q0 33 -2.5 53.5t-10 32.5t-21 16t-34.5 4h-18v74z" />
    <glyph glyph-name="asterisk" unicode="*" horiz-adv-x="438" 
d="M90 708l107 -78l-12 134l34 36l33 -36l-11 -134l107 78l46 -13l-13 -48l-118 -57l118 -56l13 -48l-46 -13l-107 78l11 -134l-33 -36l-34 36l12 134l-107 -78l-46 13l14 48l117 56l-117 57l-14 48z" />
    <glyph glyph-name="plus" unicode="+" horiz-adv-x="496" 
d="M202 354h-158v91h158v157h90v-157h159v-91h-159v-158h-90v158z" />
    <glyph glyph-name="comma" unicode="," horiz-adv-x="193" 
d="M149 -19q0 -42 -21 -64.5t-73 -22.5h-11v47h13q16 0 24 8t8 29v22h-45v132h105v-151z" />
    <glyph glyph-name="hyphen" unicode="-" horiz-adv-x="206" 
d="M184 288h-163v90h163v-90z" />
    <glyph glyph-name="period" unicode="." horiz-adv-x="193" 
d="M149 0h-105v132h105v-132z" />
    <glyph glyph-name="slash" unicode="/" horiz-adv-x="274" 
d="M269 864l-181 -936h-84l180 936h85z" />
    <glyph glyph-name="zero" unicode="0" 
d="M365 157q0 -55 -6.5 -88t-25 -50.5t-50.5 -23t-83 -5.5t-83 5.5t-50 23t-24.5 50.5t-6.5 88v477q0 55 6.5 87.5t24.5 50t50 23t83 5.5t83 -5.5t50.5 -23t25 -50t6.5 -87.5v-477zM249 634q0 40 -9 51.5t-40 11.5q-16 0 -25.5 -2.5t-15 -9.5t-7 -19.5t-1.5 -31.5v-477
q0 -21 1.5 -33.5t7 -19.5t15 -9.5t25.5 -2.5t25.5 2.5t15 10t7 20t1.5 32.5v477z" />
    <glyph glyph-name="one" unicode="1" horiz-adv-x="247" 
d="M18 790h185v-790h-116v691h-69v99z" />
    <glyph glyph-name="two" unicode="2" horiz-adv-x="415" 
d="M42 0v238q0 50 3 81t12 51.5t25.5 34.5t42.5 30l89 54q25 16 33.5 29t8.5 41v78q0 19 -1.5 30.5t-7 18t-15 9t-24.5 2.5q-32 0 -41 -12.5t-9 -50.5v-98h-112v98q0 55 6.5 87.5t24.5 50t49.5 23t82.5 5.5t83 -5.5t50 -22.5t24 -49t6 -86v-83q0 -31 -3 -52.5t-12 -38
t-24.5 -29.5t-39.5 -27l-96 -57q-12 -8 -20 -14.5t-12 -15t-5.5 -19.5t-1.5 -27v-172h97v191h117v-293h-330z" />
    <glyph glyph-name="three" unicode="3" horiz-adv-x="393" 
d="M143 308v-153q0 -38 10 -50t39 -12q30 0 39 13.5t9 48.5v135q0 25 -1 41.5t-5.5 26.5t-14 14t-26.5 4h-66v104h66q31 0 39 11.5t8 40.5v103q0 20 -2 32t-7.5 19t-15 9t-24.5 2q-18 0 -27.5 -3t-14 -10.5t-5.5 -19.5t-1 -29v-93h-110v93q0 54 6.5 87t24 50t48.5 22.5
t79 5.5q51 0 83 -5.5t50.5 -23t25 -49.5t6.5 -85v-99q0 -31 -6.5 -50.5t-17 -31.5t-23 -17.5t-24.5 -8.5v-4q16 -3 29 -10t22.5 -22t14.5 -39.5t5 -63.5v-138q0 -53 -6.5 -85.5t-25 -49.5t-50.5 -22.5t-83 -5.5q-48 0 -79 5.5t-48.5 22.5t-24 50t-6.5 87v153h110z" />
    <glyph glyph-name="four" unicode="4" horiz-adv-x="420" 
d="M397 324v-98h-47v-226h-117v226h-194l3 569h106l-3 -471h88v346h117v-346h47z" />
    <glyph glyph-name="five" unicode="5" horiz-adv-x="405" 
d="M249 537v167h-96l-1 -229h88q35 0 59 -8t38.5 -26.5t21 -48.5t6.5 -75v-160q0 -55 -7 -88t-25 -50.5t-50 -23t-83 -5.5q-48 0 -79 5.5t-48.5 23t-24 50t-6.5 87.5v142h110v-142q0 -21 1.5 -33.5t6 -19t14 -9t26.5 -2.5q16 0 25.5 2.5t15 9t7 19t1.5 33.5v143
q0 25 -1.5 43t-7.5 28.5t-17.5 15.5t-31.5 5h-149l3 399h320v-253h-116z" />
    <glyph glyph-name="six" unicode="6" 
d="M365 157q0 -55 -6.5 -88t-25 -50.5t-50.5 -23t-83 -5.5t-83 5.5t-50 23t-24.5 50.5t-6.5 88v477q0 55 6.5 87.5t24.5 50t50 23t83 5.5q48 0 79 -5.5t49 -23t24.5 -50t6.5 -87.5v-79h-111v79q0 20 -1.5 32.5t-7 19t-15 9t-24.5 2.5q-31 0 -40 -12.5t-9 -50.5v-210
q22 44 100 44q36 0 58.5 -8.5t35 -28t16.5 -51.5t4 -79v-144zM249 299q0 26 -2 41.5t-7 24t-13.5 11t-21.5 2.5q-26 0 -37.5 -11t-16.5 -35v-166q0 -24 2 -39t7.5 -22.5t15 -10t24.5 -2.5q30 0 39.5 11.5t9.5 53.5v142z" />
    <glyph glyph-name="seven" unicode="7" horiz-adv-x="330" 
d="M301 702l-148 -702h-119l153 694h-161v96h275v-88z" />
    <glyph glyph-name="eight" unicode="8" horiz-adv-x="403" 
d="M201 800q51 0 83 -5.5t50.5 -22.5t25 -49t6.5 -84v-101q0 -31 -6.5 -50.5t-17 -31.5t-24 -17.5t-26.5 -8.5v-4q17 -3 31 -10t23.5 -22t14.5 -39.5t5 -63.5v-139q0 -53 -6.5 -85t-25 -49t-50.5 -22.5t-83 -5.5t-83 5.5t-50.5 22.5t-25 49t-6.5 85v139q0 39 5 63.5t15 39.5
t23.5 22t30.5 10v4q-13 3 -26.5 8.5t-24 17.5t-17 31.5t-6.5 50.5v101q0 52 6.5 84t25 49t50.5 22.5t83 5.5zM250 313q0 22 -2 35.5t-7 21t-15 10t-25 2.5q-16 0 -25.5 -2.5t-15 -11t-7 -25.5t-1.5 -45v-145q0 -19 2 -31t7 -18.5t15 -9t25 -2.5q31 0 40 11.5t9 49.5v160z
M201 697q-17 0 -26.5 -3t-14.5 -10.5t-6.5 -21t-1.5 -35.5v-98q0 -31 8.5 -43t40.5 -12q33 0 41 11.5t8 43.5v98q0 22 -1.5 36t-6.5 21.5t-15 10t-26 2.5z" />
    <glyph glyph-name="nine" unicode="9" 
d="M36 633q0 55 6.5 88t24.5 50.5t50 23t83 5.5t83 -5.5t50.5 -23t25 -50.5t6.5 -88v-477q0 -55 -6.5 -87.5t-25 -50t-50.5 -23t-83 -5.5q-48 0 -79 5.5t-48.5 23t-24 50t-6.5 87.5v61h110v-61q0 -20 2 -32.5t7.5 -19.5t14.5 -9.5t24 -2.5q32 0 40.5 13t8.5 51v186
q-22 -43 -99 -43q-36 0 -58.5 8.5t-34.5 28t-16.5 51.5t-4.5 79v167zM151 489q0 -31 0.5 -50.5t5 -31t13.5 -15.5t26 -4q26 0 37.5 10t15.5 36v199q0 21 -1.5 33.5t-7 19.5t-15 9t-25.5 2t-25.5 -2t-15 -9t-7 -19.5t-1.5 -33.5v-144z" />
    <glyph glyph-name="colon" unicode=":" horiz-adv-x="193" 
d="M149 0h-105v132h105v-132zM149 397h-105v132h105v-132z" />
    <glyph glyph-name="semicolon" unicode=";" horiz-adv-x="193" 
d="M149 -19q0 -42 -21 -64.5t-73 -22.5h-11v47h13q16 0 24 8t8 29v22h-45v132h105v-151zM149 397h-105v132h105v-132z" />
    <glyph glyph-name="less" unicode="&#x3c;" horiz-adv-x="496" 
d="M451 613v-91l-308 -122l308 -123v-91l-407 165v97z" />
    <glyph glyph-name="equal" unicode="=" horiz-adv-x="496" 
d="M44 247v90h408v-90h-408zM44 465v90h408v-90h-408z" />
    <glyph glyph-name="greater" unicode="&#x3e;" horiz-adv-x="496" 
d="M452 448v-97l-407 -165v91l308 123l-308 122v91z" />
    <glyph glyph-name="question" unicode="?" horiz-adv-x="387" 
d="M236 0h-105v131h105v-131zM133 253q0 24 1.5 41t5 32t9.5 28.5t16 29.5l55 87q12 19 15.5 35.5t3.5 47.5v80q0 20 -2 32.5t-7 19t-14.5 9t-25.5 2.5q-17 0 -26.5 -2.5t-14.5 -9.5t-6.5 -19.5t-1.5 -31.5v-100h-112v100q0 55 6.5 87.5t24.5 50t49.5 23t80.5 5.5
q51 0 83 -5.5t50 -23t25 -50t7 -87.5v-71q0 -26 -1.5 -44t-5.5 -33t-11 -29.5t-19 -32.5l-69 -110q-6 -9 -9.5 -16t-5.5 -14t-2.5 -15.5t-0.5 -20.5v-59h-98v64z" />
    <glyph glyph-name="at" unicode="@" horiz-adv-x="423" 
d="M253 453q47 0 63 -24v100q0 27 -3 44.5t-13.5 27t-31 13.5t-55.5 4t-56 -3t-32 -13t-14 -27.5t-3 -45.5v-495q0 -26 3 -42t14 -25t32 -12t56 -3t55.5 3t31 12t13.5 25t3 42v28h71v-21q0 -53 -7 -85t-26.5 -49t-54 -22.5t-88.5 -5.5t-88.5 5.5t-53.5 22.5t-26 49t-7 85
v482q0 55 7 87.5t26 50t53.5 23t88.5 5.5t88.5 -5.5t54 -23t26.5 -50t7 -87.5v-390h-66v24q-9 -14 -25 -21t-43 -7q-45 0 -59 18.5t-14 68.5v146q0 27 3 44.5t11 28t22 14.5t37 4zM246 223q0 -22 6.5 -30t26.5 -8q14 0 23 8t14 19v156q-9 23 -37 23q-19 0 -26 -9t-7 -29
v-130z" />
    <glyph glyph-name="A" unicode="A" 
d="M247 0v176h-97v-176h-112v634q0 55 6.5 87.5t24.5 50t49.5 23t80.5 5.5t80.5 -6t50 -24t25.5 -50.5t7 -85.5v-634h-115zM198 697q-15 0 -24.5 -2.5t-15 -9t-7 -19t-1.5 -32.5v-364h97v364q0 20 -2 32.5t-7 19t-15 9t-25 2.5z" />
    <glyph glyph-name="B" unicode="B" horiz-adv-x="407" 
d="M302 458q16 -4 29 -11t22.5 -21.5t14.5 -37.5t5 -59v-167q0 -53 -6.5 -85t-25 -49t-50.5 -22.5t-83 -5.5h-164v790h164q51 0 83 -5.5t50.5 -22.5t25 -48.5t6.5 -84.5v-59q0 -31 -7.5 -51t-18 -32t-23 -18t-22.5 -7v-4zM159 99h49q16 0 25.5 2.5t14.5 9t7 19t2 32.5v193
q0 33 -8 45.5t-38 12.5h-52v-314zM159 504h52q28 0 37 11t9 40v74q0 18 -1.5 30t-6.5 19t-15 9.5t-26 2.5h-49v-186z" />
    <glyph glyph-name="C" unicode="C" horiz-adv-x="395" 
d="M248 455v179q0 20 -1.5 32.5t-7 19t-15 9t-24.5 2.5q-16 0 -25.5 -2.5t-15 -9.5t-7 -19.5t-1.5 -31.5v-477q0 -21 1.5 -33.5t7 -19.5t15 -9.5t25.5 -2.5q15 0 24.5 2.5t15 9.5t7 19.5t1.5 33.5v183h111v-183q0 -55 -6.5 -88t-24.5 -50.5t-49 -23t-79 -5.5q-51 0 -83 5.5
t-50 23t-24.5 50.5t-6.5 88v477q0 54 7 87t25.5 50.5t50.5 23t81 5.5q48 0 79 -5.5t49 -23t24.5 -50t6.5 -87.5v-179h-111z" />
    <glyph glyph-name="D" unicode="D" horiz-adv-x="409" 
d="M373 162q0 -53 -6.5 -85t-25 -49t-50.5 -22.5t-83 -5.5h-164v790h164q51 0 83 -5.5t50.5 -22.5t25 -48.5t6.5 -84.5v-467zM257 629q0 19 -2 31t-7 19t-14.5 9t-25.5 2h-49v-591h49q16 0 25.5 2.5t14.5 9t7 19t2 32.5v467z" />
    <glyph glyph-name="E" unicode="E" horiz-adv-x="294" 
d="M270 0h-226v790h225v-95h-110v-115h107v-91h-107v-390h111v-99z" />
    <glyph glyph-name="F" unicode="F" horiz-adv-x="288" 
d="M44 0v790h230v-95h-115v-117h111v-95h-111v-483h-115z" />
    <glyph glyph-name="G" unicode="G" horiz-adv-x="399" 
d="M248 562v72q0 20 -1.5 32.5t-7 19t-15 9t-24.5 2.5q-16 0 -25.5 -2.5t-15 -9.5t-7 -19.5t-1.5 -31.5v-477q0 -20 1.5 -32.5t7 -19.5t15 -10t25.5 -3q20 0 32.5 1t18.5 3v363h108v-459q-14 -3 -53.5 -6.5t-105.5 -3.5q-51 0 -83 6.5t-50 25t-24.5 51t-6.5 84.5v477
q0 54 7 87t25.5 50.5t50.5 23t81 5.5q48 0 79 -5.5t49 -23t24.5 -50t6.5 -87.5v-72h-111z" />
    <glyph glyph-name="H" unicode="H" horiz-adv-x="419" 
d="M375 0h-116v432h-100v-432h-115v790h115v-261h100v261h116v-790z" />
    <glyph glyph-name="I" unicode="I" horiz-adv-x="208" 
d="M161 0h-115v790h115v-790z" />
    <glyph glyph-name="J" unicode="J" horiz-adv-x="374" 
d="M14 340h105v-183q0 -41 9 -53t38 -12q30 0 38.5 12.5t8.5 52.5v633h116v-633q0 -55 -6.5 -88t-24 -50.5t-49 -23t-81.5 -5.5q-47 0 -77 5.5t-47 23t-23.5 50.5t-6.5 88v183z" />
    <glyph glyph-name="K" unicode="K" horiz-adv-x="406" 
d="M383 790l-118 -328l134 -462h-125l-109 415h-5v-415h-116v789h116v-298h5l97 299h121z" />
    <glyph glyph-name="L" unicode="L" horiz-adv-x="290" 
d="M277 0h-233v790h115v-690h118v-100z" />
    <glyph glyph-name="M" unicode="M" horiz-adv-x="535" 
d="M490 790v-790h-94v558h-4l-73 -558h-103l-73 562h-4v-562h-95v790h161l60 -531h4l61 531h160z" />
    <glyph glyph-name="N" unicode="N" horiz-adv-x="434" 
d="M266 0l-119 493h-4v-493h-99v790h127l114 -507h4v507h100v-790h-123z" />
    <glyph glyph-name="O" unicode="O" 
d="M365 157q0 -55 -6.5 -88t-25 -50.5t-50.5 -23t-83 -5.5t-83 5.5t-50 23t-24.5 50.5t-6.5 88v477q0 55 6.5 87.5t24.5 50t50 23t83 5.5t83 -5.5t50.5 -23t25 -50t6.5 -87.5v-477zM249 634q0 40 -9 51.5t-40 11.5q-16 0 -25.5 -2.5t-15 -9.5t-7 -19.5t-1.5 -31.5v-477
q0 -21 1.5 -33.5t7 -19.5t15 -9.5t25.5 -2.5t25.5 2.5t15 10t7 20t1.5 32.5v477z" />
    <glyph glyph-name="P" unicode="P" horiz-adv-x="397" 
d="M159 299v-299h-115v790h164q51 0 83 -5.5t50.5 -22.5t25 -48.5t6.5 -84.5v-169q0 -53 -7 -85t-25.5 -49t-50.5 -22t-82 -5h-49zM159 690v-298h49q15 0 25 2.5t15 9.5t7 19.5t2 32.5v173q0 19 -1.5 31t-6.5 18.5t-14.5 9t-26.5 2.5h-49z" />
    <glyph glyph-name="Q" unicode="Q" 
d="M265 -76l-53 85q-57 0 -92 5t-53.5 21t-24.5 46.5t-6 81.5v471q0 55 6.5 87.5t24.5 50t50 23t83 5.5t83 -5.5t50.5 -23t25 -50t6.5 -87.5v-471q0 -68 -12 -101t-47 -44l59 -94h-100zM249 634q0 40 -9 51.5t-40 11.5q-16 0 -25.5 -2.5t-15 -9.5t-7 -19.5t-1.5 -31.5v-471
q0 -21 1.5 -33t7 -19t15 -9t25.5 -2t25.5 2.5t15 9t7 19t1.5 32.5v471z" />
    <glyph glyph-name="R" unicode="R" horiz-adv-x="411" 
d="M159 0h-115v790h164q51 0 83 -5.5t50.5 -23t25 -49t6.5 -83.5v-83q0 -31 -6.5 -50.5t-17 -31.5t-23 -17.5t-24.5 -8.5v-4q16 -4 29 -10.5t22.5 -20t14.5 -34.5t5 -54v-315h-116v333q0 32 -8 44.5t-38 12.5h-52v-390zM159 481h52q28 0 37 11t9 40v97q0 19 -1.5 30.5
t-6.5 18.5t-15 9.5t-26 2.5h-49v-209z" />
    <glyph glyph-name="S" unicode="S" horiz-adv-x="397" 
d="M247 534v98q0 21 -1.5 34t-6.5 19.5t-15 9t-26 2.5q-17 0 -26.5 -2.5t-14.5 -9t-6.5 -19.5t-1.5 -34v-78q0 -15 2 -25t8.5 -18t19 -16t34.5 -19q52 -27 82 -46t45 -38.5t19 -44t4 -63.5v-127q0 -55 -6.5 -88t-24.5 -50.5t-50.5 -23t-83.5 -5.5q-48 0 -79 5.5t-49 23
t-25 50.5t-7 88v157h112v-157q0 -21 1.5 -33.5t6.5 -19.5t14.5 -9.5t25.5 -2.5q32 0 40.5 12t8.5 53v119q0 20 -1.5 33t-8 23t-19.5 18.5t-35 20.5q-52 27 -81.5 46t-44.5 38.5t-19 43t-4 57.5v76q0 55 6.5 88t24.5 51t50 23.5t83 5.5q50 0 81.5 -5.5t49 -23.5t24 -51
t6.5 -88v-98h-112z" />
    <glyph glyph-name="T" unicode="T" horiz-adv-x="313" 
d="M300 694h-86v-694h-115v694h-87v96h288v-96z" />
    <glyph glyph-name="U" unicode="U" horiz-adv-x="405" 
d="M203 -10q-50 0 -81.5 5.5t-49.5 23t-25 50.5t-7 88v633h115v-633q0 -21 2 -33.5t7.5 -19t15 -9t25.5 -2.5q15 0 24.5 2.5t14.5 9t7 19t2 33.5v633h112v-633q0 -55 -7 -88t-25 -50.5t-49.5 -23t-80.5 -5.5z" />
    <glyph glyph-name="V" unicode="V" horiz-adv-x="374" 
d="M97 0l-89 790h118l55 -647h4l61 647h119l-100 -790h-168z" />
    <glyph glyph-name="W" unicode="W" horiz-adv-x="579" 
d="M124 790l33 -621h4l53 621h147l45 -621h4l43 621h116l-92 -790h-146l-42 627h-4l-55 -627h-148l-73 790h115z" />
    <glyph glyph-name="X" unicode="X" horiz-adv-x="378" 
d="M356 790l-80 -376l94 -414h-119l-66 353l-64 -353h-115l90 414l-84 376h118l63 -303l56 303h107z" />
    <glyph glyph-name="Y" unicode="Y" horiz-adv-x="354" 
d="M350 790l-118 -511v-279h-115v279l-114 511h114l57 -357h4l60 357h112z" />
    <glyph glyph-name="Z" unicode="Z" horiz-adv-x="314" 
d="M295 0h-277v100l159 594h-143v96h259v-78l-155 -613h157v-99z" />
    <glyph glyph-name="bracketleft" unicode="[" horiz-adv-x="257" 
d="M242 845h-87v-956h87v-74h-169v1104h169v-74z" />
    <glyph glyph-name="backslash" unicode="\" horiz-adv-x="274" 
d="M88 864l181 -936h-85l-180 936h84z" />
    <glyph glyph-name="bracketright" unicode="]" horiz-adv-x="257" 
d="M15 919h169v-1104h-169v74h87v956h-87v74z" />
    <glyph glyph-name="asciicircum" unicode="^" horiz-adv-x="455" 
d="M428 341h-90l-112 342l-110 -342h-90l153 449h96z" />
    <glyph glyph-name="underscore" unicode="_" horiz-adv-x="396" 
d="M398 -136h-399v90h399v-90z" />
    <glyph glyph-name="grave" unicode="`" horiz-adv-x="202" 
d="M187 639h-77l-96 166h110z" />
    <glyph glyph-name="a" unicode="a" horiz-adv-x="355" 
d="M162 -10q-38 0 -62.5 4t-38.5 16t-19.5 35t-5.5 61v145q0 54 20.5 79t70.5 25h19q34 0 48 -2.5t21 -6.5v124q0 33 -8.5 42.5t-36.5 9.5q-27 0 -34 -11t-7 -41v-59h-93v71q0 42 5.5 67t20.5 38.5t41 17.5t67 4q45 0 73 -4t43.5 -17.5t21.5 -38.5t6 -67v-482
q-18 -5 -55 -7.5t-97 -2.5zM170 74q22 0 32 0.5t13 1.5v196q-7 4 -17 5t-27 1q-29 0 -35.5 -11t-6.5 -42v-94q0 -17 1 -28t5 -17.5t12.5 -9t22.5 -2.5z" />
    <glyph glyph-name="b" unicode="b" horiz-adv-x="367" 
d="M330 117q0 -36 -4 -59.5t-15 -37.5t-30 -19.5t-49 -5.5q-36 0 -58 11t-35 37v-43h-95v790h102v-228q11 20 31.5 31t55.5 11q29 0 48 -6.5t30 -21t15 -37.5t4 -57v-365zM143 117q13 -31 45 -31q26 0 34.5 10t8.5 40v326q0 30 -8.5 40t-34.5 10q-32 0 -45 -31v-364z" />
    <glyph glyph-name="c" unicode="c" horiz-adv-x="349" 
d="M221 377v94q0 26 -8 34t-34 8q-29 0 -36.5 -8t-7.5 -34v-344q0 -26 8 -34.5t36 -8.5q26 0 34 9.5t8 33.5v155h93v-165q0 -42 -6 -67.5t-21.5 -38.5t-41.5 -17t-66 -4q-45 0 -72.5 4.5t-43.5 18t-21.5 38.5t-5.5 66v365q0 42 6 67t21.5 38.5t43.5 17.5t72 4q42 0 68.5 -5
t41.5 -18.5t20 -38.5t5 -65v-105h-93z" />
    <glyph glyph-name="d" unicode="d" horiz-adv-x="367" 
d="M36 482q0 35 4 58.5t15 37.5t29.5 20t48.5 6q34 0 54.5 -11t31.5 -31v228h103v-790h-95v43q-14 -26 -35.5 -37t-57.5 -11q-30 0 -49 5.5t-30 19.5t-15 37.5t-4 59.5v365zM222 481q-13 31 -45 31q-26 0 -34 -10t-8 -40v-326q0 -30 8 -40t34 -10q32 0 45 31v364z" />
    <glyph glyph-name="e" unicode="e" horiz-adv-x="351" 
d="M136 264v-141q0 -29 7.5 -37.5t35.5 -8.5q27 0 35 8.5t8 37.5v81h92v-87q0 -42 -5.5 -67t-20.5 -38.5t-41 -17.5t-68 -4q-44 0 -72 4t-44 17.5t-21.5 38.5t-5.5 67v365q0 42 5.5 67t21.5 38.5t44 17.5t72 4q42 0 68 -4t41 -17.5t20.5 -38.5t5.5 -67v-218h-178zM136 346
h86v128q0 29 -8 37t-35 8q-28 0 -35.5 -8t-7.5 -37v-128z" />
    <glyph glyph-name="f" unicode="f" horiz-adv-x="242" 
d="M228 516h-76v-516h-102v516h-37v83h37v64q0 66 33 96.5t112 30.5h32v-76h-25q-50 0 -50 -56v-59h76v-83z" />
    <glyph glyph-name="g" unicode="g" horiz-adv-x="367" 
d="M159 -67q34 0 47 11.5t13 45.5v77q-11 -20 -31.5 -30.5t-54.5 -10.5q-30 0 -49 6.5t-29.5 20.5t-14.5 37.5t-4 57.5v334q0 35 4 58.5t15 37.5t30 20t49 6q36 0 57.5 -11.5t35.5 -37.5v44h95v-609q0 -73 -31.5 -108t-107.5 -35h-131v86h107zM222 481q-13 31 -45 31
q-26 0 -34 -10t-8 -40v-295q0 -30 8 -40t34 -10q32 0 45 31v333z" />
    <glyph glyph-name="h" unicode="h" horiz-adv-x="380" 
d="M146 0h-102v790h102v-229q22 43 88 43q30 0 50 -6t32.5 -20t17.5 -37.5t5 -58.5v-482h-102v471q0 23 -9 32t-35 9q-20 0 -30.5 -8.5t-16.5 -22.5v-481z" />
    <glyph glyph-name="i" unicode="i" horiz-adv-x="194" 
d="M147 686h-101v104h101v-104zM147 0h-101v599h101v-599z" />
    <glyph glyph-name="j" unicode="j" horiz-adv-x="194" 
d="M48 599h102v-609q0 -72 -32.5 -107.5t-109.5 -35.5h-56v86h48q26 0 37 12.5t11 44.5v609zM150 686h-102v104h102v-104z" />
    <glyph glyph-name="k" unicode="k" horiz-adv-x="365" 
d="M243 0l-94 308h-4v-308h-101v790h101v-412h4l84 221h111l-109 -250l122 -349h-114z" />
    <glyph glyph-name="l" unicode="l" horiz-adv-x="191" 
d="M146 0h-102v790h102v-790z" />
    <glyph glyph-name="m" unicode="m" horiz-adv-x="573" 
d="M146 0h-102v599h95v-40q11 22 33.5 33.5t60.5 11.5q40 0 62.5 -11t33.5 -38q13 24 35.5 36.5t60.5 12.5q30 0 50.5 -6t33 -20t17.5 -37.5t5 -58.5v-482h-102v471q0 23 -9 32t-35 9q-19 0 -29.5 -8t-16.5 -22v-482h-102v471q0 23 -9 32t-35 9q-20 0 -30.5 -8.5
t-16.5 -22.5v-481z" />
    <glyph glyph-name="n" unicode="n" horiz-adv-x="380" 
d="M146 0h-102v599h95v-40q11 22 33.5 33.5t60.5 11.5q30 0 50.5 -6t33 -20t17.5 -37.5t5 -58.5v-482h-102v471q0 23 -9 32t-35 9q-20 0 -30.5 -8.5t-16.5 -22.5v-481z" />
    <glyph glyph-name="o" unicode="o" horiz-adv-x="359" 
d="M322 117q0 -42 -6 -67t-21.5 -38.5t-43.5 -17.5t-72 -4t-72 4t-44 17.5t-21.5 38.5t-5.5 67v365q0 42 5.5 67t21.5 38.5t44 17.5t72 4t72 -4t43.5 -17.5t21.5 -38.5t6 -67v-365zM223 471q0 26 -8 34t-36 8t-36 -8.5t-8 -33.5v-344q0 -26 8 -34.5t36 -8.5q29 0 36.5 9.5
t7.5 33.5v344z" />
    <glyph glyph-name="p" unicode="p" horiz-adv-x="367" 
d="M330 117q0 -36 -4 -59.5t-15 -37.5t-29.5 -19.5t-48.5 -5.5q-35 0 -55.5 10.5t-31.5 30.5v-189h-102v752h95v-44q13 26 35 37.5t58 11.5q30 0 49 -6t30 -20t15 -37.5t4 -58.5v-365zM143 117q13 -31 45 -31q26 0 34.5 10t8.5 40v326q0 30 -8.5 40t-34.5 10q-32 0 -45 -31
v-364z" />
    <glyph glyph-name="q" unicode="q" horiz-adv-x="367" 
d="M36 482q0 35 4 58.5t15 37.5t30 20t49 6q36 0 57.5 -11.5t35.5 -37.5v44h95v-752h-103v189q-11 -20 -31.5 -30.5t-54.5 -10.5q-30 0 -48.5 6t-29.5 20.5t-15 37.5t-4 58v365zM222 481q-13 31 -45 31q-26 0 -34 -10t-8 -40v-326q0 -30 8 -40t34 -10q32 0 45 31v364z" />
    <glyph glyph-name="r" unicode="r" horiz-adv-x="338" 
d="M146 0h-102v599h95v-40q11 20 33.5 32.5t59.5 12.5q52 0 72.5 -26t20.5 -96v-149h-92v137q0 24 -8 33t-34 9q-34 0 -45 -33v-479z" />
    <glyph glyph-name="s" unicode="s" horiz-adv-x="355" 
d="M221 426v45q0 26 -7.5 34.5t-35.5 8.5q-29 0 -36.5 -8.5t-7.5 -34.5v-48q0 -12 1.5 -20t6.5 -15t15.5 -13t27.5 -13q22 -9 38.5 -17t30.5 -15q22 -11 35 -21.5t20 -22.5t9 -25.5t2 -31.5v-111q0 -42 -5.5 -67.5t-21 -39t-43 -17.5t-72.5 -4q-44 0 -72 4t-44 17.5t-22 39
t-6 67.5v92h100v-81q0 -27 8 -35.5t36 -8.5q29 0 36 9t7 35v73q0 13 -2 22t-8.5 16t-18.5 13.5t-33 14.5q-20 8 -35.5 15t-27.5 13q-19 10 -31 20t-19 23t-9.5 29.5t-2.5 39.5v73q0 42 6 67.5t21.5 39t43.5 17.5t73 4q44 0 72 -4t43.5 -17.5t21 -39t5.5 -67.5v-55h-99z" />
    <glyph glyph-name="t" unicode="t" horiz-adv-x="241" 
d="M218 516h-70v-376q0 -31 10 -42t40 -11h19v-87h-26q-41 0 -69 7.5t-45 23t-24 39.5t-7 57v389h-37v83h37v182h102v-182h70v-83z" />
    <glyph glyph-name="u" unicode="u" horiz-adv-x="377" 
d="M230 599h103v-599h-96v39q-11 -22 -33 -33t-59 -11q-30 0 -50.5 5.5t-32.5 19.5t-17 37.5t-5 59.5v482h102v-472q0 -22 8 -31.5t34 -9.5q20 0 30 8.5t16 22.5v482z" />
    <glyph glyph-name="v" unicode="v" horiz-adv-x="326" 
d="M78 0l-72 599h107l46 -455h4l50 455h106l-81 -599h-160z" />
    <glyph glyph-name="w" unicode="w" horiz-adv-x="536" 
d="M114 599l31 -448h4l51 448h133l46 -448h4l37 448h109l-83 -599h-138l-40 455h-4l-51 -455h-139l-69 599h109z" />
    <glyph glyph-name="x" unicode="x" horiz-adv-x="339" 
d="M319 599l-71 -285l83 -314h-107l-58 266l-57 -266h-103l83 316l-78 283h106l55 -229l51 229h96z" />
    <glyph glyph-name="y" unicode="y" horiz-adv-x="380" 
d="M233 599h102v-609q0 -73 -32 -108t-108 -35h-134v86h109q34 0 47.5 11.5t13.5 45.5v77q-11 -20 -32.5 -30.5t-55.5 -10.5q-30 0 -49.5 5.5t-31.5 19.5t-17 37.5t-5 59.5v451h102v-432q0 -30 10 -40t36 -10q17 0 27.5 8.5t17.5 22.5v451z" />
    <glyph glyph-name="z" unicode="z" horiz-adv-x="301" 
d="M284 0h-269v87l165 429h-147v83h248v-77l-160 -436h163v-86z" />
    <glyph glyph-name="braceleft" unicode="{" horiz-adv-x="267" 
d="M174 452q0 -37 -11 -60t-28 -34q17 -11 28 -34.5t11 -59.5v-303q0 -27 3 -44.5t10.5 -28t20.5 -15t33 -4.5h11v-72h-11q-45 0 -73.5 8.5t-45 28t-23 50.5t-6.5 77v308q0 55 -51 55h-15v68h15q51 0 51 55v307q0 46 6.5 77.5t23 51t45 28t73.5 8.5h11v-73h-11
q-20 0 -33 -4.5t-20.5 -15t-10.5 -28t-3 -44.5v-302v0z" />
    <glyph glyph-name="bar" unicode="|" horiz-adv-x="228" 
d="M154 -185h-82v1104h82v-1104z" />
    <glyph glyph-name="braceright" unicode="}" horiz-adv-x="267" 
d="M93 754q0 53 -13.5 72.5t-53.5 19.5h-11v73h11q45 0 73.5 -8.5t45 -28t23 -51t6.5 -77.5v-307q0 -55 51 -55h15v-68h-15q-51 0 -51 -55v-308q0 -46 -6.5 -77t-23 -50.5t-45 -28t-73.5 -8.5h-11v72h11q40 0 53.5 19.5t13.5 72.5v303q0 36 11 59.5t28 34.5q-17 11 -28 34
t-11 60v302z" />
    <glyph glyph-name="asciitilde" unicode="~" horiz-adv-x="512" 
d="M44 403q8 27 36.5 44.5t68.5 17.5q25 0 50.5 -9t50.5 -20.5t49.5 -20.5t48.5 -9q43 0 66 19t37 51v-86q-7 -26 -36.5 -43.5t-68.5 -17.5q-27 0 -53.5 9t-51.5 20t-48.5 20t-45.5 9q-44 0 -66 -19.5t-37 -49.5v85z" />
    <glyph glyph-name="uni00A0" unicode="&#xa0;" horiz-adv-x="172" 
 />
    <glyph glyph-name="exclamdown" unicode="&#xa1;" horiz-adv-x="181" 
d="M30.998 0l18.999 600.963h78.9951l19.999 -600.963h-117.993zM36.998 789.952h104.993v-131.992h-104.993v131.992z" />
    <glyph glyph-name="cent" unicode="&#xa2;" horiz-adv-x="356" 
d="M221 810v-97q28 -2 46.5 -8t29.5 -20t15 -37.5t4 -59.5v-121h-93v110q0 27 -7.5 35t-34.5 8q-29 0 -36.5 -8t-7.5 -35v-365q0 -26 8 -34t36 -8q27 0 34.5 8t7.5 34v160h93v-170q0 -37 -4 -60.5t-15 -37.5t-29.5 -20.5t-46.5 -7.5v-96h-89v96q-29 2 -47 8.5t-28.5 21
t-14.5 37.5t-4 59v386q0 35 4 58.5t14.5 37.5t28.5 20.5t47 8.5v97h89z" />
    <glyph glyph-name="sterling" unicode="&#xa3;" horiz-adv-x="400" 
d="M21 0v96h34v190h-34v83h34v265q0 55 6.5 87.5t24 50t48.5 23t81 5.5q47 0 77 -5.5t47.5 -23t24 -50t6.5 -87.5v-196h-105v196q0 20 -1.5 32.5t-7 19.5t-14.5 9.5t-24 2.5t-24.5 -2.5t-15 -9.5t-7 -19.5t-1.5 -32.5v-265h178v-83h-178v-190h202v-96h-351z" />
    <glyph glyph-name="currency" unicode="&#xa4;" horiz-adv-x="518" 
d="M347 255q-14 -7 -35 -9t-52 -2q-32 0 -53.5 2t-35.5 10l-95 -95l-51 51l85 85q-4 11 -5 27t-1 36v69q0 19 1 35.5t5 28.5l-84 84l51 51l94 -95q15 7 36 9.5t53 2.5q31 0 51.5 -2.5t34.5 -9.5l95 95l51 -51l-83 -82q4 -12 5.5 -29t1.5 -37v-69q0 -43 -7 -65l83 -83
l-51 -51zM172 360q0 -17 2.5 -27.5t11.5 -16.5t26.5 -8.5t47.5 -2.5t47.5 2.5t26.5 8.5t11.5 16.5t2.5 27.5v70q0 16 -2.5 26.5t-11.5 17t-26.5 9t-47.5 2.5t-47.5 -2.5t-26.5 -9t-11.5 -17t-2.5 -26.5v-70z" />
    <glyph glyph-name="yen" unicode="&#xa5;" horiz-adv-x="396" 
d="M33 352h99l-108 438h112l59 -327h4l59 327h113l-106 -438h88v-70h-94v-83h94v-71h-94v-128h-121v128h-105v71h105v83h-105v70z" />
    <glyph glyph-name="brokenbar" unicode="&#xa6;" horiz-adv-x="228" 
d="M72 -185v444h82v-444h-82zM154 501h-82v418h82v-418z" />
    <glyph glyph-name="section" unicode="&#xa7;" horiz-adv-x="355" 
d="M221 624v40q0 26 -7.5 34.5t-36.5 8.5t-36.5 -9t-7.5 -34v-38q0 -12 1.5 -20.5t7 -16t16 -15t29.5 -15.5q44 -19 70.5 -35t40.5 -33t18 -37.5t4 -48.5v-75q0 -41 -8 -62t-25 -33q22 -16 27.5 -42.5t5.5 -67.5v-62q0 -43 -5.5 -68.5t-21 -39t-43.5 -17.5t-73 -4
q-44 0 -72 4t-43.5 17.5t-21.5 39t-6 68.5v75h99v-64q0 -29 8.5 -37.5t35.5 -8.5q29 0 36.5 9.5t7.5 36.5v52q0 15 -2 25.5t-9 18t-20 14t-34 15.5q-36 14 -59.5 26t-37.5 26t-19.5 32.5t-5.5 46.5v75q0 50 8.5 73t35.5 34q-27 15 -35.5 34.5t-8.5 61.5v66q0 42 5.5 67.5
t21.5 39t44 17.5t72 4t72 -4t43.5 -17.5t21.5 -39t6 -67.5v-50h-99zM221 392q0 29 -9 43.5t-35 19.5q-16 -2 -24.5 -6t-13 -13t-5.5 -23.5t-1 -37.5v-30q0 -14 2 -22.5t9 -14.5t19.5 -11t33.5 -10q17 3 20.5 19t3.5 42v44z" />
    <glyph glyph-name="dieresis" unicode="&#xa8;" horiz-adv-x="374" 
d="M328 686h-102v104h102v-104zM147 686h-101v104h101v-104z" />
    <glyph glyph-name="ordfeminine" unicode="&#xaa;" horiz-adv-x="270" 
d="M124 389q-26 0 -42 2.5t-25.5 9.5t-13 20.5t-3.5 34.5v79q0 32 14.5 46t47.5 14h11q21 0 30 -1t14 -3v62q0 17 -5 21t-22 4t-21.5 -5.5t-4.5 -19.5v-35h-64v42q0 24 3.5 38.5t13.5 22t27.5 10t45.5 2.5q30 0 48.5 -2.5t29 -10t14.5 -22t4 -38.5v-265q-13 -2 -36.5 -4
t-65.5 -2zM130 443q23 0 27 1v99q-9 3 -27 3q-17 0 -21.5 -5.5t-4.5 -19.5v-51q0 -17 4.5 -22t21.5 -5z" />
    <glyph glyph-name="guillemotleft" unicode="&#xab;" horiz-adv-x="468" 
d="M194 514v-78l-98 -68l98 -69v-78l-156 105v83zM428 514v-78l-98 -68l98 -69v-78l-156 105v83z" />
    <glyph glyph-name="logicalnot" unicode="&#xac;" horiz-adv-x="496" 
d="M362 22v339h-318v90h408v-429h-90z" />
    <glyph glyph-name="macron" unicode="&#xaf;" horiz-adv-x="385" 
d="M338 708h-292v61h292v-61z" />
    <glyph glyph-name="degree" unicode="&#xb0;" horiz-adv-x="337" 
d="M315 644q0 -32 -11.5 -60t-31 -49t-46.5 -33t-57 -12q-31 0 -58 12t-46.5 33t-31 49t-11.5 60t11.5 60.5t31 49.5t46.5 33.5t58 12.5q30 0 57 -12.5t46.5 -33.5t31 -49.5t11.5 -60.5zM260 644q0 41 -26.5 69.5t-64.5 28.5q-20 0 -36.5 -7.5t-29.5 -21t-20 -31.5t-7 -38
t7 -37.5t20 -31t29.5 -21t36.5 -7.5q19 0 35.5 7.5t29 21t19.5 31t7 37.5z" />
    <glyph glyph-name="plusminus" unicode="&#xb1;" horiz-adv-x="496" 
d="M202 354h-158v91h158v157h90v-157h159v-91h-159v-158h-90v158zM44 1v91h407v-91h-407z" />
    <glyph glyph-name="uni00B2" unicode="&#xb2;" horiz-adv-x="310" 
d="M44 354v152q0 21 2 34.5t8 23t17 17.5t29 17l58 29q15 8 20.5 15t5.5 19v42q0 19 -5.5 24t-24.5 5q-20 0 -25.5 -6t-5.5 -24v-57h-77v57q0 31 4.5 49.5t16.5 28.5t33 13t55 3t55.5 -3t33.5 -13t16 -28t4 -49v-44q0 -18 -2.5 -30.5t-8.5 -21.5t-16.5 -16.5t-26.5 -15.5
l-62 -31q-15 -8 -20 -15t-5 -22v-90h60v104h81v-167h-220z" />
    <glyph glyph-name="uni00B3" unicode="&#xb3;" horiz-adv-x="295" 
d="M114 529v-87q0 -19 6 -24.5t24 -5.5q19 0 24 6.5t5 23.5v73q0 25 -4 34t-25 9h-44v64h44q20 0 24.5 5.5t4.5 19.5v55q0 20 -6 25t-24 5q-22 0 -25.5 -6.5t-3.5 -23.5v-54h-76v54q0 31 4.5 49.5t16 28.5t32 13t52.5 3q34 0 55.5 -3.5t33.5 -13t16.5 -28t4.5 -48.5v-53
q0 -30 -10 -43t-24 -18q17 -5 25.5 -20.5t8.5 -52.5v-75q0 -30 -4.5 -48.5t-16.5 -28t-33.5 -13t-55.5 -3.5q-32 0 -52.5 3t-32 13t-16 28.5t-4.5 49.5v87h76z" />
    <glyph glyph-name="acute" unicode="&#xb4;" horiz-adv-x="202" 
d="M77 805h110l-95 -166h-78z" />
    <glyph glyph-name="paragraph" unicode="&#xb6;" horiz-adv-x="587" 
d="M232 -153v473h-35q-51 0 -83 5.5t-50 22.5t-24.5 48.5t-6.5 84.5v148q0 53 6.5 84.5t24.5 48.5t50 22.5t83 5.5h344v-943h-115v847h-79v-847h-115zM148 476q0 -20 1.5 -32.5t7 -19t15 -9t25.5 -2.5h35v277h-35q-16 0 -25.5 -2.5t-15 -9.5t-7 -19t-1.5 -31v-152z" />
    <glyph glyph-name="periodcentered" unicode="&#xb7;" horiz-adv-x="193" 
d="M149 330h-105v132h105v-132z" />
    <glyph glyph-name="cedilla" unicode="&#xb8;" horiz-adv-x="179" 
d="M63 -20h102l-82 -165h-71z" />
    <glyph glyph-name="uni00B9" unicode="&#xb9;" horiz-adv-x="199" 
d="M28 791h125v-437h-79v375h-46v62z" />
    <glyph glyph-name="ordmasculine" unicode="&#xba;" horiz-adv-x="272" 
d="M230 462q0 -24 -3.5 -38t-14 -22t-29 -10.5t-48.5 -2.5q-29 0 -47.5 2.5t-29 10.5t-14.5 22t-4 38v198q0 24 4 38.5t14.5 22t29 10t47.5 2.5q30 0 48.5 -2.5t29 -10t14 -22t3.5 -38.5v-198zM163 654q0 12 -5.5 15.5t-22.5 3.5t-22 -4t-5 -15v-186q0 -12 5 -16t22 -4
t22.5 4.5t5.5 15.5v186z" />
    <glyph glyph-name="guillemotright" unicode="&#xbb;" horiz-adv-x="468" 
d="M196 409v-83l-156 -105v78l98 69l-98 68v78zM430 409v-83l-156 -105v78l98 69l-98 68v78z" />
    <glyph glyph-name="onequarter" unicode="&#xbc;" horiz-adv-x="628" 
d="M28 791h125v-437h-79v375h-46v62zM461 790l-330 -790h-78l330 790h78zM594 184v-62h-29v-122h-81v122h-125v317h72v-255h53v188h81v-188h29z" />
    <glyph glyph-name="onehalf" unicode="&#xbd;" horiz-adv-x="625" 
d="M28 791h125v-437h-79v375h-46v62zM461 790l-330 -790h-78l330 790h78zM359 0v152q0 21 2 34.5t8 23t17 17.5t29 17l58 29q15 8 20.5 15t5.5 19v42q0 19 -5.5 24t-24.5 5q-20 0 -25.5 -6t-5.5 -24v-57h-77v57q0 31 4.5 49.5t16.5 28.5t33 13t55 3t55.5 -3t33.5 -13t16 -28
t4 -49v-44q0 -18 -2.5 -30.5t-8.5 -21.5t-16.5 -16.5t-26.5 -15.5l-62 -31q-15 -8 -20 -15t-5 -22v-90h60v104h81v-167h-220z" />
    <glyph glyph-name="threequarters" unicode="&#xbe;" horiz-adv-x="724" 
d="M114 529v-87q0 -19 6 -24.5t24 -5.5q19 0 24 6.5t5 23.5v73q0 25 -4 34t-25 9h-44v64h44q20 0 24.5 5.5t4.5 19.5v55q0 20 -6 25t-24 5q-22 0 -25.5 -6.5t-3.5 -23.5v-54h-76v54q0 31 4.5 49.5t16 28.5t32 13t52.5 3q34 0 55.5 -3.5t33.5 -13t16.5 -28t4.5 -48.5v-53
q0 -30 -10 -43t-24 -18q17 -5 25.5 -20.5t8.5 -52.5v-75q0 -30 -4.5 -48.5t-16.5 -28t-33.5 -13t-55.5 -3.5q-32 0 -52.5 3t-32 13t-16 28.5t-4.5 49.5v87h76zM557 790l-330 -790h-78l330 790h78zM690 184v-62h-29v-122h-81v122h-125v317h72v-255h53v188h81v-188h29z" />
    <glyph glyph-name="questiondown" unicode="&#xbf;" horiz-adv-x="387" 
d="M147.991 789.952h104.993v-130.992h-104.993v130.992zM250.984 536.967q0 -23.998 -1.5 -40.9971t-4.99902 -31.998q-3.5 -14.999 -9.5 -28.498q-5.99902 -13.499 -15.999 -29.498l-54.9961 -86.9951q-12 -18.999 -15.499 -35.498q-3.5 -16.499 -3.5 -47.4971v-79.9951
q0 -19.998 2 -32.498q2 -12.499 6.99902 -18.999q5 -6.49902 14.499 -8.99902q9.5 -2.5 25.499 -2.5q16.999 0 26.498 2.5q9.5 2.5 14.499 9.49902q5 7 6.5 19.499t1.5 31.498v99.9941h111.993v-99.9941q0 -54.9961 -6.5 -87.4941q-6.49902 -32.498 -24.498 -49.9971
t-49.4971 -22.999q-31.498 -5.49902 -80.4951 -5.49902q-50.9971 0 -82.9951 5.49902q-31.998 5.5 -49.9971 22.999t-24.998 49.9971q-7 32.498 -7 87.4941v70.9961q0 25.998 1.5 43.9971t5.5 32.998t10.999 29.498q7 14.499 18.999 32.498l68.9961 109.993
q5.99902 9 9.49902 15.999q3.5 7 5.5 13.999q1.99902 7 2.49902 15.499q0.5 8.5 0.5 20.499v58.9961h97.9941v-63.9961z" />
    <glyph glyph-name="Agrave" unicode="&#xc0;" 
d="M247 0v176h-97v-176h-112v634q0 55 6.5 87.5t24.5 50t49.5 23t80.5 5.5t80.5 -6t50 -24t25.5 -50.5t7 -85.5v-634h-115zM198 697q-15 0 -24.5 -2.5t-15 -9t-7 -19t-1.5 -32.5v-364h97v364q0 20 -2 32.5t-7 19t-15 9t-25 2.5zM257 830h-77l-96 166h110z" />
    <glyph glyph-name="Aacute" unicode="&#xc1;" 
d="M247 0v176h-97v-176h-112v634q0 55 6.5 87.5t24.5 50t49.5 23t80.5 5.5t80.5 -6t50 -24t25.5 -50.5t7 -85.5v-634h-115zM198 697q-15 0 -24.5 -2.5t-15 -9t-7 -19t-1.5 -32.5v-364h97v364q0 20 -2 32.5t-7 19t-15 9t-25 2.5zM207 996h110l-95 -166h-78z" />
    <glyph glyph-name="Acircumflex" unicode="&#xc2;" 
d="M247 0v176h-97v-176h-112v634q0 55 6.5 87.5t24.5 50t49.5 23t80.5 5.5t80.5 -6t50 -24t25.5 -50.5t7 -85.5v-634h-115zM198 697q-15 0 -24.5 -2.5t-15 -9t-7 -19t-1.5 -32.5v-364h97v364q0 20 -2 32.5t-7 19t-15 9t-25 2.5zM345 830h-72l-73 109l-73 -109h-72l102 166
h87z" />
    <glyph glyph-name="Atilde" unicode="&#xc3;" 
d="M247 0v176h-97v-176h-112v634q0 55 6.5 87.5t24.5 50t49.5 23t80.5 5.5t80.5 -6t50 -24t25.5 -50.5t7 -85.5v-634h-115zM198 697q-15 0 -24.5 -2.5t-15 -9t-7 -19t-1.5 -32.5v-364h97v364q0 20 -2 32.5t-7 19t-15 9t-25 2.5zM121 914q-25 0 -40.5 -10t-26.5 -26v73
q11 11 29 18.5t39 7.5t40 -5t37.5 -10.5t37.5 -10.5t40 -5q46 0 69 36v-72q-11 -13 -29 -21t-41 -8q-21 0 -40 5t-37.5 11.5t-37.5 11.5t-40 5z" />
    <glyph glyph-name="Adieresis" unicode="&#xc4;" 
d="M247 0v176h-97v-176h-112v634q0 55 6.5 87.5t24.5 50t49.5 23t80.5 5.5t80.5 -6t50 -24t25.5 -50.5t7 -85.5v-634h-115zM198 697q-15 0 -24.5 -2.5t-15 -9t-7 -19t-1.5 -32.5v-364h97v364q0 20 -2 32.5t-7 19t-15 9t-25 2.5zM341 877h-102v104h102v-104zM160 877h-101
v104h101v-104z" />
    <glyph glyph-name="Aring" unicode="&#xc5;" 
d="M247 0v176h-97v-176h-112v634q0 55 6.5 87.5t24.5 50t49.5 23t80.5 5.5t80.5 -6t50 -24t25.5 -50.5t7 -85.5v-634h-115zM198 697q-15 0 -24.5 -2.5t-15 -9t-7 -19t-1.5 -32.5v-364h97v364q0 20 -2 32.5t-7 19t-15 9t-25 2.5zM282 888q0 -23 -3.5 -36t-12.5 -20.5
t-25 -9.5t-41 -2t-40.5 2t-24.5 9.5t-12.5 20.5t-3.5 36v40q0 22 3.5 35.5t12.5 21t24.5 9.5t40.5 2t41 -2t25 -9.5t12.5 -21t3.5 -35.5v-40zM240 924q0 20 -7.5 24.5t-32.5 4.5q-24 0 -31.5 -4.5t-7.5 -24.5v-32q0 -20 7.5 -24.5t31.5 -4.5q25 0 32.5 4.5t7.5 24.5v32z" />
    <glyph glyph-name="AE" unicode="&#xc6;" horiz-adv-x="488" 
d="M222 0v176h-72v-176h-112v629q0 55 6.5 87t24.5 48.5t49.5 21t80.5 4.5h242v-96h-107v-114h104v-92h-104v-390h108v-98h-220zM150 270h72v424h-24q-15 0 -24.5 -2t-15 -8.5t-7 -18.5t-1.5 -32v-363z" />
    <glyph glyph-name="Ccedilla" unicode="&#xc7;" horiz-adv-x="395" 
d="M248 455v179q0 20 -1.5 32.5t-7 19t-15 9t-24.5 2.5q-16 0 -25.5 -2.5t-15 -9.5t-7 -19.5t-1.5 -31.5v-477q0 -21 1.5 -33.5t7 -19.5t15 -9.5t25.5 -2.5q15 0 24.5 2.5t15 9.5t7 19.5t1.5 33.5v183h111v-183q0 -55 -6.5 -88t-24.5 -50.5t-49 -23t-79 -5.5q-51 0 -83 5.5
t-50 23t-24.5 50.5t-6.5 88v477q0 54 7 87t25.5 50.5t50.5 23t81 5.5q48 0 79 -5.5t49 -23t24.5 -50t6.5 -87.5v-179h-111zM152 -20h102l-82 -165h-71z" />
    <glyph glyph-name="Egrave" unicode="&#xc8;" horiz-adv-x="294" 
d="M270 0h-226v790h225v-95h-110v-115h107v-91h-107v-390h111v-99zM213 830h-77l-96 166h110z" />
    <glyph glyph-name="Eacute" unicode="&#xc9;" horiz-adv-x="294" 
d="M270 0h-226v790h225v-95h-110v-115h107v-91h-107v-390h111v-99zM163 996h110l-95 -166h-78z" />
    <glyph glyph-name="Ecircumflex" unicode="&#xca;" horiz-adv-x="294" 
d="M270 0h-226v790h225v-95h-110v-115h107v-91h-107v-390h111v-99zM303 830h-72l-73 109l-73 -109h-72l102 166h87z" />
    <glyph glyph-name="Edieresis" unicode="&#xcb;" horiz-adv-x="294" 
d="M270 0h-226v790h225v-95h-110v-115h107v-91h-107v-390h111v-99zM299 877h-102v104h102v-104zM118 877h-101v104h101v-104z" />
    <glyph glyph-name="Igrave" unicode="&#xcc;" horiz-adv-x="208" 
d="M161 0h-115v790h115v-790zM162 830h-77l-96 166h110z" />
    <glyph glyph-name="Iacute" unicode="&#xcd;" horiz-adv-x="208" 
d="M161 0h-115v790h115v-790zM110 996h110l-95 -166h-78z" />
    <glyph glyph-name="Icircumflex" unicode="&#xce;" horiz-adv-x="208" 
d="M161 0h-115v790h115v-790zM250 830h-72l-73 109l-73 -109h-72l102 166h87z" />
    <glyph glyph-name="Idieresis" unicode="&#xcf;" horiz-adv-x="208" 
d="M161 0h-115v790h115v-790zM246 877h-102v104h102v-104zM65 877h-101v104h101v-104z" />
    <glyph glyph-name="Eth" unicode="&#xd0;" horiz-adv-x="431" 
d="M38 580h27v210h165q51 0 83 -5.5t50 -22.5t24.5 -48.5t6.5 -84.5v-467q0 -53 -6.5 -85t-24.5 -49t-50 -22.5t-83 -5.5h-165v489h-27v91zM177 580h54v-91h-54v-389h56q16 0 25.5 2t15 9t7.5 19t2 32v467q0 39 -9.5 50.5t-40.5 11.5h-56v-111z" />
    <glyph glyph-name="Ntilde" unicode="&#xd1;" horiz-adv-x="434" 
d="M266 0l-119 493h-4v-493h-99v790h127l114 -507h4v507h100v-790h-123zM138 914q-25 0 -40.5 -10t-26.5 -26v73q11 11 29 18.5t39 7.5t40 -5t37.5 -10.5t37.5 -10.5t40 -5q46 0 69 36v-72q-11 -13 -29 -21t-41 -8q-21 0 -40 5t-37.5 11.5t-37.5 11.5t-40 5z" />
    <glyph glyph-name="Ograve" unicode="&#xd2;" 
d="M365 157q0 -55 -6.5 -88t-25 -50.5t-50.5 -23t-83 -5.5t-83 5.5t-50 23t-24.5 50.5t-6.5 88v477q0 55 6.5 87.5t24.5 50t50 23t83 5.5t83 -5.5t50.5 -23t25 -50t6.5 -87.5v-477zM249 634q0 40 -9 51.5t-40 11.5q-16 0 -25.5 -2.5t-15 -9.5t-7 -19.5t-1.5 -31.5v-477
q0 -21 1.5 -33.5t7 -19.5t15 -9.5t25.5 -2.5t25.5 2.5t15 10t7 20t1.5 32.5v477zM257 830h-77l-96 166h110z" />
    <glyph glyph-name="Oacute" unicode="&#xd3;" 
d="M365 157q0 -55 -6.5 -88t-25 -50.5t-50.5 -23t-83 -5.5t-83 5.5t-50 23t-24.5 50.5t-6.5 88v477q0 55 6.5 87.5t24.5 50t50 23t83 5.5t83 -5.5t50.5 -23t25 -50t6.5 -87.5v-477zM249 634q0 40 -9 51.5t-40 11.5q-16 0 -25.5 -2.5t-15 -9.5t-7 -19.5t-1.5 -31.5v-477
q0 -21 1.5 -33.5t7 -19.5t15 -9.5t25.5 -2.5t25.5 2.5t15 10t7 20t1.5 32.5v477zM207 996h110l-95 -166h-78z" />
    <glyph glyph-name="Ocircumflex" unicode="&#xd4;" 
d="M365 157q0 -55 -6.5 -88t-25 -50.5t-50.5 -23t-83 -5.5t-83 5.5t-50 23t-24.5 50.5t-6.5 88v477q0 55 6.5 87.5t24.5 50t50 23t83 5.5t83 -5.5t50.5 -23t25 -50t6.5 -87.5v-477zM249 634q0 40 -9 51.5t-40 11.5q-16 0 -25.5 -2.5t-15 -9.5t-7 -19.5t-1.5 -31.5v-477
q0 -21 1.5 -33.5t7 -19.5t15 -9.5t25.5 -2.5t25.5 2.5t15 10t7 20t1.5 32.5v477zM345 830h-72l-73 109l-73 -109h-72l102 166h87z" />
    <glyph glyph-name="Otilde" unicode="&#xd5;" 
d="M365 157q0 -55 -6.5 -88t-25 -50.5t-50.5 -23t-83 -5.5t-83 5.5t-50 23t-24.5 50.5t-6.5 88v477q0 55 6.5 87.5t24.5 50t50 23t83 5.5t83 -5.5t50.5 -23t25 -50t6.5 -87.5v-477zM249 634q0 40 -9 51.5t-40 11.5q-16 0 -25.5 -2.5t-15 -9.5t-7 -19.5t-1.5 -31.5v-477
q0 -21 1.5 -33.5t7 -19.5t15 -9.5t25.5 -2.5t25.5 2.5t15 10t7 20t1.5 32.5v477zM121 914q-25 0 -40.5 -10t-26.5 -26v73q11 11 29 18.5t39 7.5t40 -5t37.5 -10.5t37.5 -10.5t40 -5q46 0 69 36v-72q-11 -13 -29 -21t-41 -8q-21 0 -40 5t-37.5 11.5t-37.5 11.5t-40 5z" />
    <glyph glyph-name="Odieresis" unicode="&#xd6;" 
d="M365 157q0 -55 -6.5 -88t-25 -50.5t-50.5 -23t-83 -5.5t-83 5.5t-50 23t-24.5 50.5t-6.5 88v477q0 55 6.5 87.5t24.5 50t50 23t83 5.5t83 -5.5t50.5 -23t25 -50t6.5 -87.5v-477zM249 634q0 40 -9 51.5t-40 11.5q-16 0 -25.5 -2.5t-15 -9.5t-7 -19.5t-1.5 -31.5v-477
q0 -21 1.5 -33.5t7 -19.5t15 -9.5t25.5 -2.5t25.5 2.5t15 10t7 20t1.5 32.5v477zM341 877h-102v104h102v-104zM160 877h-101v104h101v-104z" />
    <glyph glyph-name="multiply" unicode="&#xd7;" horiz-adv-x="483" 
d="M242 336l-113 -113l-64 64l113 113l-112 111l63 64l113 -112l111 112l64 -64l-112 -111l112 -113l-64 -64z" />
    <glyph glyph-name="Oslash" unicode="&#xd8;" 
d="M365 157q0 -55 -6.5 -88t-25 -50.5t-50.5 -23t-83 -5.5q-23 0 -42 1.5t-35 3.5l-17 -64h-70l26 93q-15 18 -20.5 50t-5.5 83v477q0 55 6.5 87.5t24.5 50t50 23t83 5.5q23 0 42 -1t35 -3l18 64h70l-26 -94q15 -18 20.5 -49.5t5.5 -82.5v-477zM151 343l93 335
q-5 11 -14.5 15t-29.5 4q-16 0 -25.5 -2.5t-15 -9.5t-7 -19.5t-1.5 -31.5v-291zM249 444l-93 -334q5 -11 15 -14.5t29 -3.5q16 0 25.5 2.5t15 10t7 20t1.5 32.5v287z" />
    <glyph glyph-name="Ugrave" unicode="&#xd9;" horiz-adv-x="405" 
d="M203 -10q-50 0 -81.5 5.5t-49.5 23t-25 50.5t-7 88v633h115v-633q0 -21 2 -33.5t7.5 -19t15 -9t25.5 -2.5q15 0 24.5 2.5t14.5 9t7 19t2 33.5v633h112v-633q0 -55 -7 -88t-25 -50.5t-49.5 -23t-80.5 -5.5zM259 830h-77l-96 166h110z" />
    <glyph glyph-name="Uacute" unicode="&#xda;" horiz-adv-x="405" 
d="M203 -10q-50 0 -81.5 5.5t-49.5 23t-25 50.5t-7 88v633h115v-633q0 -21 2 -33.5t7.5 -19t15 -9t25.5 -2.5q15 0 24.5 2.5t14.5 9t7 19t2 33.5v633h112v-633q0 -55 -7 -88t-25 -50.5t-49.5 -23t-80.5 -5.5zM209 996h110l-95 -166h-78z" />
    <glyph glyph-name="Ucircumflex" unicode="&#xdb;" horiz-adv-x="405" 
d="M203 -10q-50 0 -81.5 5.5t-49.5 23t-25 50.5t-7 88v633h115v-633q0 -21 2 -33.5t7.5 -19t15 -9t25.5 -2.5q15 0 24.5 2.5t14.5 9t7 19t2 33.5v633h112v-633q0 -55 -7 -88t-25 -50.5t-49.5 -23t-80.5 -5.5zM347 830h-72l-73 109l-73 -109h-72l102 166h87z" />
    <glyph glyph-name="Udieresis" unicode="&#xdc;" horiz-adv-x="405" 
d="M203 -10q-50 0 -81.5 5.5t-49.5 23t-25 50.5t-7 88v633h115v-633q0 -21 2 -33.5t7.5 -19t15 -9t25.5 -2.5q15 0 24.5 2.5t14.5 9t7 19t2 33.5v633h112v-633q0 -55 -7 -88t-25 -50.5t-49.5 -23t-80.5 -5.5zM343 877h-102v104h102v-104zM162 877h-101v104h101v-104z" />
    <glyph glyph-name="Yacute" unicode="&#xdd;" horiz-adv-x="354" 
d="M350 790l-118 -511v-279h-115v279l-114 511h114l57 -357h4l60 357h112zM183 996h110l-95 -166h-78z" />
    <glyph glyph-name="Thorn" unicode="&#xde;" horiz-adv-x="397" 
d="M44 790h115v-115h49q51 0 83 -5.5t50.5 -22.5t25 -48.5t6.5 -84.5v-169q0 -53 -6.5 -84.5t-25 -48.5t-50.5 -22.5t-83 -5.5h-49v-184h-115v790zM159 575v-298h49q16 0 25.5 2t14.5 9t7 19.5t2 33.5v173q0 20 -2 32t-7 18.5t-15 8.5t-25 2h-49z" />
    <glyph glyph-name="germandbls" unicode="&#xdf;" horiz-adv-x="395" 
d="M350 538q0 -31 -5.5 -50.5t-15 -31.5t-21 -17.5t-23.5 -8.5v-4q16 -3 30 -10t24 -20.5t16 -36t6 -56.5v-148q0 -48 -6 -78t-22 -47t-44 -23.5t-72 -6.5h-52v102h39q24 0 34.5 11t10.5 42v168q0 33 -10.5 43.5t-40.5 10.5h-37v102h29q30 0 39 11.5t9 37.5v136
q0 30 -8.5 40t-39.5 10q-32 0 -41 -10t-9 -40v-664h-102v669q0 39 9 64.5t27 40.5t46 20.5t66 5.5q44 0 75.5 -5.5t51 -19.5t28.5 -40t9 -66v-131z" />
    <glyph glyph-name="agrave" unicode="&#xe0;" horiz-adv-x="355" 
d="M162 -10q-38 0 -62.5 4t-38.5 16t-19.5 35t-5.5 61v145q0 54 20.5 79t70.5 25h19q34 0 48 -2.5t21 -6.5v124q0 33 -8.5 42.5t-36.5 9.5q-27 0 -34 -11t-7 -41v-59h-93v71q0 42 5.5 67t20.5 38.5t41 17.5t67 4q45 0 73 -4t43.5 -17.5t21.5 -38.5t6 -67v-482
q-18 -5 -55 -7.5t-97 -2.5zM170 74q22 0 32 0.5t13 1.5v196q-7 4 -17 5t-27 1q-29 0 -35.5 -11t-6.5 -42v-94q0 -17 1 -28t5 -17.5t12.5 -9t22.5 -2.5zM234 639h-77l-96 166h110z" />
    <glyph glyph-name="aacute" unicode="&#xe1;" horiz-adv-x="355" 
d="M162 -10q-38 0 -62.5 4t-38.5 16t-19.5 35t-5.5 61v145q0 54 20.5 79t70.5 25h19q34 0 48 -2.5t21 -6.5v124q0 33 -8.5 42.5t-36.5 9.5q-27 0 -34 -11t-7 -41v-59h-93v71q0 42 5.5 67t20.5 38.5t41 17.5t67 4q45 0 73 -4t43.5 -17.5t21.5 -38.5t6 -67v-482
q-18 -5 -55 -7.5t-97 -2.5zM170 74q22 0 32 0.5t13 1.5v196q-7 4 -17 5t-27 1q-29 0 -35.5 -11t-6.5 -42v-94q0 -17 1 -28t5 -17.5t12.5 -9t22.5 -2.5zM184 805h110l-95 -166h-78z" />
    <glyph glyph-name="acircumflex" unicode="&#xe2;" horiz-adv-x="355" 
d="M162 -10q-38 0 -62.5 4t-38.5 16t-19.5 35t-5.5 61v145q0 54 20.5 79t70.5 25h19q34 0 48 -2.5t21 -6.5v124q0 33 -8.5 42.5t-36.5 9.5q-27 0 -34 -11t-7 -41v-59h-93v71q0 42 5.5 67t20.5 38.5t41 17.5t67 4q45 0 73 -4t43.5 -17.5t21.5 -38.5t6 -67v-482
q-18 -5 -55 -7.5t-97 -2.5zM170 74q22 0 32 0.5t13 1.5v196q-7 4 -17 5t-27 1q-29 0 -35.5 -11t-6.5 -42v-94q0 -17 1 -28t5 -17.5t12.5 -9t22.5 -2.5zM322 639h-72l-73 109l-73 -109h-72l102 166h87z" />
    <glyph glyph-name="atilde" unicode="&#xe3;" horiz-adv-x="355" 
d="M162 -10q-38 0 -62.5 4t-38.5 16t-19.5 35t-5.5 61v145q0 54 20.5 79t70.5 25h19q34 0 48 -2.5t21 -6.5v124q0 33 -8.5 42.5t-36.5 9.5q-27 0 -34 -11t-7 -41v-59h-93v71q0 42 5.5 67t20.5 38.5t41 17.5t67 4q45 0 73 -4t43.5 -17.5t21.5 -38.5t6 -67v-482
q-18 -5 -55 -7.5t-97 -2.5zM170 74q22 0 32 0.5t13 1.5v196q-7 4 -17 5t-27 1q-29 0 -35.5 -11t-6.5 -42v-94q0 -17 1 -28t5 -17.5t12.5 -9t22.5 -2.5zM100 723q-25 0 -40.5 -10t-26.5 -26v73q11 11 29 18.5t39 7.5t40 -5t37.5 -10.5t37.5 -10.5t40 -5q46 0 69 36v-72
q-11 -13 -29 -21t-41 -8q-21 0 -40 5t-37.5 11.5t-37.5 11.5t-40 5z" />
    <glyph glyph-name="adieresis" unicode="&#xe4;" horiz-adv-x="355" 
d="M162 -10q-38 0 -62.5 4t-38.5 16t-19.5 35t-5.5 61v145q0 54 20.5 79t70.5 25h19q34 0 48 -2.5t21 -6.5v124q0 33 -8.5 42.5t-36.5 9.5q-27 0 -34 -11t-7 -41v-59h-93v71q0 42 5.5 67t20.5 38.5t41 17.5t67 4q45 0 73 -4t43.5 -17.5t21.5 -38.5t6 -67v-482
q-18 -5 -55 -7.5t-97 -2.5zM170 74q22 0 32 0.5t13 1.5v196q-7 4 -17 5t-27 1q-29 0 -35.5 -11t-6.5 -42v-94q0 -17 1 -28t5 -17.5t12.5 -9t22.5 -2.5zM320 686h-102v104h102v-104zM139 686h-101v104h101v-104z" />
    <glyph glyph-name="aring" unicode="&#xe5;" horiz-adv-x="355" 
d="M162 -10q-38 0 -62.5 4t-38.5 16t-19.5 35t-5.5 61v145q0 54 20.5 79t70.5 25h19q34 0 48 -2.5t21 -6.5v124q0 33 -8.5 42.5t-36.5 9.5q-27 0 -34 -11t-7 -41v-59h-93v71q0 42 5.5 67t20.5 38.5t41 17.5t67 4q45 0 73 -4t43.5 -17.5t21.5 -38.5t6 -67v-482
q-18 -5 -55 -7.5t-97 -2.5zM170 74q22 0 32 0.5t13 1.5v196q-7 4 -17 5t-27 1q-29 0 -35.5 -11t-6.5 -42v-94q0 -17 1 -28t5 -17.5t12.5 -9t22.5 -2.5zM259 697q0 -23 -3.5 -36t-12.5 -20.5t-25 -9.5t-41 -2t-40.5 2t-24.5 9.5t-12.5 20.5t-3.5 36v40q0 22 3.5 35.5t12.5 21
t24.5 9.5t40.5 2t41 -2t25 -9.5t12.5 -21t3.5 -35.5v-40zM217 733q0 20 -7.5 24.5t-32.5 4.5q-24 0 -31.5 -4.5t-7.5 -24.5v-32q0 -20 7.5 -24.5t31.5 -4.5q25 0 32.5 4.5t7.5 24.5v32z" />
    <glyph glyph-name="ae" unicode="&#xe6;" horiz-adv-x="531" 
d="M358 -10q-42 2 -63.5 9.5t-31.5 20.5q-12 -14 -34.5 -22t-64.5 -8q-39 0 -64 4t-39 16t-19.5 35t-5.5 61v145q0 54 20.5 79t70.5 25h19q34 0 48 -2.5t21 -6.5v124q0 33 -8.5 42.5t-36.5 9.5q-27 0 -34 -11t-7 -41v-59h-93v71q0 42 5.5 67t20.5 38.5t41 17.5t67 4t62 -8.5
t32 -22.5q11 14 32.5 22.5t61.5 8.5q42 0 68 -4t41 -17.5t20.5 -38.5t5.5 -67v-218h-179v-144q0 -23 7.5 -33t36.5 -10q28 0 35 9t7 37v81h93v-87q0 -42 -5.5 -67t-20.5 -38.5t-41 -17.5t-68 -4zM215 272q-7 4 -17 5t-27 1q-29 0 -35.5 -11t-6.5 -42v-94q0 -17 1 -28
t5.5 -17.5t12.5 -9t23 -2.5q29 0 36.5 9.5t7.5 33.5v155zM314 345h86v129q0 28 -8 36.5t-34 8.5q-29 0 -36.5 -8.5t-7.5 -36.5v-129z" />
    <glyph glyph-name="ccedilla" unicode="&#xe7;" horiz-adv-x="349" 
d="M221 377v94q0 26 -8 34t-34 8q-29 0 -36.5 -8t-7.5 -34v-344q0 -26 8 -34.5t36 -8.5q26 0 34 9.5t8 33.5v155h93v-165q0 -42 -6 -67.5t-21.5 -38.5t-41.5 -17t-66 -4q-45 0 -72.5 4.5t-43.5 18t-21.5 38.5t-5.5 66v365q0 42 6 67t21.5 38.5t43.5 17.5t72 4q42 0 68.5 -5
t41.5 -18.5t20 -38.5t5 -65v-105h-93zM121 -20h102l-82 -165h-71z" />
    <glyph glyph-name="egrave" unicode="&#xe8;" horiz-adv-x="351" 
d="M136 264v-141q0 -29 7.5 -37.5t35.5 -8.5q27 0 35 8.5t8 37.5v81h92v-87q0 -42 -5.5 -67t-20.5 -38.5t-41 -17.5t-68 -4q-44 0 -72 4t-44 17.5t-21.5 38.5t-5.5 67v365q0 42 5.5 67t21.5 38.5t44 17.5t72 4q42 0 68 -4t41 -17.5t20.5 -38.5t5.5 -67v-218h-178zM136 346
h86v128q0 29 -8 37t-35 8q-28 0 -35.5 -8t-7.5 -37v-128zM232 639h-77l-96 166h110z" />
    <glyph glyph-name="eacute" unicode="&#xe9;" horiz-adv-x="351" 
d="M136 264v-141q0 -29 7.5 -37.5t35.5 -8.5q27 0 35 8.5t8 37.5v81h92v-87q0 -42 -5.5 -67t-20.5 -38.5t-41 -17.5t-68 -4q-44 0 -72 4t-44 17.5t-21.5 38.5t-5.5 67v365q0 42 5.5 67t21.5 38.5t44 17.5t72 4q42 0 68 -4t41 -17.5t20.5 -38.5t5.5 -67v-218h-178zM136 346
h86v128q0 29 -8 37t-35 8q-28 0 -35.5 -8t-7.5 -37v-128zM182 805h110l-95 -166h-78z" />
    <glyph glyph-name="ecircumflex" unicode="&#xea;" horiz-adv-x="351" 
d="M136 264v-141q0 -29 7.5 -37.5t35.5 -8.5q27 0 35 8.5t8 37.5v81h92v-87q0 -42 -5.5 -67t-20.5 -38.5t-41 -17.5t-68 -4q-44 0 -72 4t-44 17.5t-21.5 38.5t-5.5 67v365q0 42 5.5 67t21.5 38.5t44 17.5t72 4q42 0 68 -4t41 -17.5t20.5 -38.5t5.5 -67v-218h-178zM136 346
h86v128q0 29 -8 37t-35 8q-28 0 -35.5 -8t-7.5 -37v-128zM320 639h-72l-73 109l-73 -109h-72l102 166h87z" />
    <glyph glyph-name="edieresis" unicode="&#xeb;" horiz-adv-x="351" 
d="M136 264v-141q0 -29 7.5 -37.5t35.5 -8.5q27 0 35 8.5t8 37.5v81h92v-87q0 -42 -5.5 -67t-20.5 -38.5t-41 -17.5t-68 -4q-44 0 -72 4t-44 17.5t-21.5 38.5t-5.5 67v365q0 42 5.5 67t21.5 38.5t44 17.5t72 4q42 0 68 -4t41 -17.5t20.5 -38.5t5.5 -67v-218h-178zM136 346
h86v128q0 29 -8 37t-35 8q-28 0 -35.5 -8t-7.5 -37v-128zM318 686h-102v104h102v-104zM137 686h-101v104h101v-104z" />
    <glyph glyph-name="igrave" unicode="&#xec;" horiz-adv-x="201" 
d="M154 0h-101v599h101v-599zM162 639h-77l-96 166h110z" />
    <glyph glyph-name="iacute" unicode="&#xed;" horiz-adv-x="211" 
d="M147 0h-101v599h101v-599zM103 805h110l-95 -166h-78z" />
    <glyph glyph-name="icircumflex" unicode="&#xee;" horiz-adv-x="266" 
d="M183 0h-101v599h101v-599zM279 639h-72l-73 109l-73 -109h-72l102 166h87z" />
    <glyph glyph-name="idieresis" unicode="&#xef;" horiz-adv-x="283" 
d="M191 0h-101v599h101v-599zM283 686h-102v104h102v-104zM102 686h-101v104h101v-104z" />
    <glyph glyph-name="eth" unicode="&#xf0;" horiz-adv-x="360" 
d="M42 623l71 39l-73 128h112l45 -81l68 38l25 -47l-67 -37l36 -63q21 -38 33.5 -65t19.5 -50.5t9 -47.5t2 -54v-266q0 -42 -6 -67t-21.5 -38.5t-43.5 -17.5t-72 -4t-72 4t-44 17.5t-21.5 38.5t-5.5 67v301q0 60 16.5 87.5t61.5 27.5q30 0 48 -8t41 -28q-2 6 -4.5 11l-6 12
t-9 17t-14.5 26l-30 53l-73 -41zM173 457q-27 0 -31.5 -17t-4.5 -51v-233q0 -22 0.5 -36t4.5 -22t13 -11t25 -3q14 0 23 3t13.5 11t6 22t1.5 35v249q-7 26 -16 39.5t-35 13.5z" />
    <glyph glyph-name="ntilde" unicode="&#xf1;" horiz-adv-x="380" 
d="M146 0h-102v599h95v-40q11 22 33.5 33.5t60.5 11.5q30 0 50.5 -6t33 -20t17.5 -37.5t5 -58.5v-482h-102v471q0 23 -9 32t-35 9q-20 0 -30.5 -8.5t-16.5 -22.5v-481zM112 723q-25 0 -40.5 -10t-26.5 -26v73q11 11 29 18.5t39 7.5t40 -5t37.5 -10.5t37.5 -10.5t40 -5
q46 0 69 36v-72q-11 -13 -29 -21t-41 -8q-21 0 -40 5t-37.5 11.5t-37.5 11.5t-40 5z" />
    <glyph glyph-name="ograve" unicode="&#xf2;" horiz-adv-x="359" 
d="M322 117q0 -42 -6 -67t-21.5 -38.5t-43.5 -17.5t-72 -4t-72 4t-44 17.5t-21.5 38.5t-5.5 67v365q0 42 5.5 67t21.5 38.5t44 17.5t72 4t72 -4t43.5 -17.5t21.5 -38.5t6 -67v-365zM223 471q0 26 -8 34t-36 8t-36 -8.5t-8 -33.5v-344q0 -26 8 -34.5t36 -8.5q29 0 36.5 9.5
t7.5 33.5v344zM236 639h-77l-96 166h110z" />
    <glyph glyph-name="oacute" unicode="&#xf3;" horiz-adv-x="359" 
d="M322 117q0 -42 -6 -67t-21.5 -38.5t-43.5 -17.5t-72 -4t-72 4t-44 17.5t-21.5 38.5t-5.5 67v365q0 42 5.5 67t21.5 38.5t44 17.5t72 4t72 -4t43.5 -17.5t21.5 -38.5t6 -67v-365zM223 471q0 26 -8 34t-36 8t-36 -8.5t-8 -33.5v-344q0 -26 8 -34.5t36 -8.5q29 0 36.5 9.5
t7.5 33.5v344zM186 805h110l-95 -166h-78z" />
    <glyph glyph-name="ocircumflex" unicode="&#xf4;" horiz-adv-x="359" 
d="M322 117q0 -42 -6 -67t-21.5 -38.5t-43.5 -17.5t-72 -4t-72 4t-44 17.5t-21.5 38.5t-5.5 67v365q0 42 5.5 67t21.5 38.5t44 17.5t72 4t72 -4t43.5 -17.5t21.5 -38.5t6 -67v-365zM223 471q0 26 -8 34t-36 8t-36 -8.5t-8 -33.5v-344q0 -26 8 -34.5t36 -8.5q29 0 36.5 9.5
t7.5 33.5v344zM324 639h-72l-73 109l-73 -109h-72l102 166h87z" />
    <glyph glyph-name="otilde" unicode="&#xf5;" horiz-adv-x="359" 
d="M322 117q0 -42 -6 -67t-21.5 -38.5t-43.5 -17.5t-72 -4t-72 4t-44 17.5t-21.5 38.5t-5.5 67v365q0 42 5.5 67t21.5 38.5t44 17.5t72 4t72 -4t43.5 -17.5t21.5 -38.5t6 -67v-365zM223 471q0 26 -8 34t-36 8t-36 -8.5t-8 -33.5v-344q0 -26 8 -34.5t36 -8.5q29 0 36.5 9.5
t7.5 33.5v344zM102 723q-25 0 -40.5 -10t-26.5 -26v73q11 11 29 18.5t39 7.5t40 -5t37.5 -10.5t37.5 -10.5t40 -5q46 0 69 36v-72q-11 -13 -29 -21t-41 -8q-21 0 -40 5t-37.5 11.5t-37.5 11.5t-40 5z" />
    <glyph glyph-name="odieresis" unicode="&#xf6;" horiz-adv-x="359" 
d="M322 117q0 -42 -6 -67t-21.5 -38.5t-43.5 -17.5t-72 -4t-72 4t-44 17.5t-21.5 38.5t-5.5 67v365q0 42 5.5 67t21.5 38.5t44 17.5t72 4t72 -4t43.5 -17.5t21.5 -38.5t6 -67v-365zM223 471q0 26 -8 34t-36 8t-36 -8.5t-8 -33.5v-344q0 -26 8 -34.5t36 -8.5q29 0 36.5 9.5
t7.5 33.5v344zM322 686h-102v104h102v-104zM141 686h-101v104h101v-104z" />
    <glyph glyph-name="divide" unicode="&#xf7;" horiz-adv-x="496" 
d="M44 354v91h407v-91h-407zM300 122h-105v132h105v-132zM300 545h-105v132h105v-132z" />
    <glyph glyph-name="oslash" unicode="&#xf8;" horiz-adv-x="359" 
d="M322 117q0 -42 -6 -67t-21.5 -38.5t-43.5 -17.5t-72 -4q-16 0 -29.5 0.5t-24.5 1.5l-18 -61h-71l24 83q-14 14 -19 38t-5 65v365q0 42 5.5 67t21.5 38.5t44 17.5t72 4q15 0 28.5 -0.5t25.5 -1.5l18 61h71l-25 -84q14 -14 19.5 -38t5.5 -64v-365zM223 328l-71 -242
q5 -2 11.5 -2h15.5q29 0 36.5 9.5t7.5 33.5v201zM135 270l70 240q-11 3 -26 3q-28 0 -36 -8.5t-8 -33.5v-201z" />
    <glyph glyph-name="ugrave" unicode="&#xf9;" horiz-adv-x="377" 
d="M230 599h103v-599h-96v39q-11 -22 -33 -33t-59 -11q-30 0 -50.5 5.5t-32.5 19.5t-17 37.5t-5 59.5v482h102v-472q0 -22 8 -31.5t34 -9.5q20 0 30 8.5t16 22.5v482zM245 639h-77l-96 166h110z" />
    <glyph glyph-name="uacute" unicode="&#xfa;" horiz-adv-x="377" 
d="M230 599h103v-599h-96v39q-11 -22 -33 -33t-59 -11q-30 0 -50.5 5.5t-32.5 19.5t-17 37.5t-5 59.5v482h102v-472q0 -22 8 -31.5t34 -9.5q20 0 30 8.5t16 22.5v482zM195 805h110l-95 -166h-78z" />
    <glyph glyph-name="ucircumflex" unicode="&#xfb;" horiz-adv-x="377" 
d="M230 599h103v-599h-96v39q-11 -22 -33 -33t-59 -11q-30 0 -50.5 5.5t-32.5 19.5t-17 37.5t-5 59.5v482h102v-472q0 -22 8 -31.5t34 -9.5q20 0 30 8.5t16 22.5v482zM333 639h-72l-73 109l-73 -109h-72l102 166h87z" />
    <glyph glyph-name="udieresis" unicode="&#xfc;" horiz-adv-x="377" 
d="M230 599h103v-599h-96v39q-11 -22 -33 -33t-59 -11q-30 0 -50.5 5.5t-32.5 19.5t-17 37.5t-5 59.5v482h102v-472q0 -22 8 -31.5t34 -9.5q20 0 30 8.5t16 22.5v482zM329 686h-102v104h102v-104zM148 686h-101v104h101v-104z" />
    <glyph glyph-name="yacute" unicode="&#xfd;" horiz-adv-x="380" 
d="M233 599h102v-609q0 -73 -32 -108t-108 -35h-134v86h109q34 0 47.5 11.5t13.5 45.5v77q-11 -20 -32.5 -30.5t-55.5 -10.5q-30 0 -49.5 5.5t-31.5 19.5t-17 37.5t-5 59.5v451h102v-432q0 -30 10 -40t36 -10q17 0 27.5 8.5t17.5 22.5v451zM196 805h110l-95 -166h-78z" />
    <glyph glyph-name="thorn" unicode="&#xfe;" horiz-adv-x="367" 
d="M330 117q0 -36 -4 -59.5t-15 -37.5t-29.5 -19.5t-48.5 -5.5q-35 0 -55.5 10.5t-31.5 30.5v-189h-102v943h102v-228q11 20 31.5 31t55.5 11q30 0 48.5 -6t29.5 -20t15 -37.5t4 -58.5v-365zM143 117q13 -31 45 -31q26 0 34.5 10t8.5 40v326q0 30 -8.5 40t-34.5 10
q-32 0 -45 -31v-364z" />
    <glyph glyph-name="ydieresis" unicode="&#xff;" horiz-adv-x="380" 
d="M233 599h102v-609q0 -73 -32 -108t-108 -35h-134v86h109q34 0 47.5 11.5t13.5 45.5v77q-11 -20 -32.5 -30.5t-55.5 -10.5q-30 0 -49.5 5.5t-31.5 19.5t-17 37.5t-5 59.5v451h102v-432q0 -30 10 -40t36 -10q17 0 27.5 8.5t17.5 22.5v451zM331 686h-102v104h102v-104z
M150 686h-101v104h101v-104z" />
    <glyph glyph-name="Amacron" unicode="&#x100;" 
d="M247 0v176h-97v-176h-112v634q0 55 6.5 87.5t24.5 50t49.5 23t80.5 5.5t80.5 -6t50 -24t25.5 -50.5t7 -85.5v-634h-115zM198 697q-15 0 -24.5 -2.5t-15 -9t-7 -19t-1.5 -32.5v-364h97v364q0 20 -2 32.5t-7 19t-15 9t-25 2.5zM346 899h-292v61h292v-61z" />
    <glyph glyph-name="amacron" unicode="&#x101;" horiz-adv-x="355" 
d="M162 -10q-38 0 -62.5 4t-38.5 16t-19.5 35t-5.5 61v145q0 54 20.5 79t70.5 25h19q34 0 48 -2.5t21 -6.5v124q0 33 -8.5 42.5t-36.5 9.5q-27 0 -34 -11t-7 -41v-59h-93v71q0 42 5.5 67t20.5 38.5t41 17.5t67 4q45 0 73 -4t43.5 -17.5t21.5 -38.5t6 -67v-482
q-18 -5 -55 -7.5t-97 -2.5zM170 74q22 0 32 0.5t13 1.5v196q-7 4 -17 5t-27 1q-29 0 -35.5 -11t-6.5 -42v-94q0 -17 1 -28t5 -17.5t12.5 -9t22.5 -2.5zM325 708h-292v61h292v-61z" />
    <glyph glyph-name="Abreve" unicode="&#x102;" 
d="M247 0v176h-97v-176h-112v634q0 55 6.5 87.5t24.5 50t49.5 23t80.5 5.5t80.5 -6t50 -24t25.5 -50.5t7 -85.5v-634h-115zM198 697q-15 0 -24.5 -2.5t-15 -9t-7 -19t-1.5 -32.5v-364h97v364q0 20 -2 32.5t-7 19t-15 9t-25 2.5zM200 833q-65 0 -106 38t-41 125h64
q1 -32 7.5 -52t17.5 -31.5t25.5 -15.5t32.5 -4t33 4t25.5 15.5t17 31.5t7.5 52h64q0 -87 -41 -125t-106 -38z" />
    <glyph glyph-name="abreve" unicode="&#x103;" horiz-adv-x="355" 
d="M162 -10q-38 0 -62.5 4t-38.5 16t-19.5 35t-5.5 61v145q0 54 20.5 79t70.5 25h19q34 0 48 -2.5t21 -6.5v124q0 33 -8.5 42.5t-36.5 9.5q-27 0 -34 -11t-7 -41v-59h-93v71q0 42 5.5 67t20.5 38.5t41 17.5t67 4q45 0 73 -4t43.5 -17.5t21.5 -38.5t6 -67v-482
q-18 -5 -55 -7.5t-97 -2.5zM170 74q22 0 32 0.5t13 1.5v196q-7 4 -17 5t-27 1q-29 0 -35.5 -11t-6.5 -42v-94q0 -17 1 -28t5 -17.5t12.5 -9t22.5 -2.5zM177 642q-65 0 -106 38t-41 125h64q1 -32 7.5 -52t17.5 -31.5t25.5 -15.5t32.5 -4t33 4t25.5 15.5t17 31.5t7.5 52h64
q0 -87 -41 -125t-106 -38z" />
    <glyph glyph-name="Aogonek" unicode="&#x104;" 
d="M362 0q-34 -16 -47.5 -31t-13.5 -41q0 -17 9 -24.5t30 -7.5h36v-81h-78q-26 0 -42 6.5t-26 18t-13.5 26t-3.5 31.5q0 50 34 74v205h-97v-176h-112v634q0 55 6.5 87.5t24.5 50t49.5 23t80.5 5.5t80.5 -6t50 -24t25.5 -50.5t7 -85.5v-634zM198 697q-15 0 -24.5 -2.5t-15 -9
t-7 -19t-1.5 -32.5v-364h97v364q0 20 -2 32.5t-7 19t-15 9t-25 2.5z" />
    <glyph glyph-name="aogonek" unicode="&#x105;" horiz-adv-x="355" 
d="M162 -10q-38 0 -62.5 4t-38.5 16t-19.5 35t-5.5 61v145q0 54 20.5 79t70.5 25h19q34 0 48 -2.5t21 -6.5v124q0 33 -8.5 42.5t-36.5 9.5q-27 0 -34 -11t-7 -41v-59h-93v71q0 42 5.5 67t20.5 38.5t41 17.5t67 4q45 0 73 -4t43.5 -17.5t21.5 -38.5t6 -67v-482
q-34 -16 -47.5 -31t-13.5 -41q0 -17 9 -24.5t30 -7.5h36v-81h-78q-26 0 -42 6.5t-26 18t-13.5 26t-3.5 31.5q0 38 17.5 58.5t57.5 36.5q-17 -1 -36 -1.5t-42 -0.5zM170 74q22 0 32 0.5t13 1.5v196q-7 4 -17 5t-27 1q-29 0 -35.5 -11t-6.5 -42v-94q0 -17 1 -28t5 -17.5
t12.5 -9t22.5 -2.5z" />
    <glyph glyph-name="Cacute" unicode="&#x106;" horiz-adv-x="395" 
d="M248 455v179q0 20 -1.5 32.5t-7 19t-15 9t-24.5 2.5q-16 0 -25.5 -2.5t-15 -9.5t-7 -19.5t-1.5 -31.5v-477q0 -21 1.5 -33.5t7 -19.5t15 -9.5t25.5 -2.5q15 0 24.5 2.5t15 9.5t7 19.5t1.5 33.5v183h111v-183q0 -55 -6.5 -88t-24.5 -50.5t-49 -23t-79 -5.5q-51 0 -83 5.5
t-50 23t-24.5 50.5t-6.5 88v477q0 54 7 87t25.5 50.5t50.5 23t81 5.5q48 0 79 -5.5t49 -23t24.5 -50t6.5 -87.5v-179h-111zM204 996h110l-95 -166h-78z" />
    <glyph glyph-name="cacute" unicode="&#x107;" horiz-adv-x="349" 
d="M221 377v94q0 26 -8 34t-34 8q-29 0 -36.5 -8t-7.5 -34v-344q0 -26 8 -34.5t36 -8.5q26 0 34 9.5t8 33.5v155h93v-165q0 -42 -6 -67.5t-21.5 -38.5t-41.5 -17t-66 -4q-45 0 -72.5 4.5t-43.5 18t-21.5 38.5t-5.5 66v365q0 42 6 67t21.5 38.5t43.5 17.5t72 4q42 0 68.5 -5
t41.5 -18.5t20 -38.5t5 -65v-105h-93zM181 805h110l-95 -166h-78z" />
    <glyph glyph-name="Ccircumflex" unicode="&#x108;" horiz-adv-x="395" 
d="M248 455v179q0 20 -1.5 32.5t-7 19t-15 9t-24.5 2.5q-16 0 -25.5 -2.5t-15 -9.5t-7 -19.5t-1.5 -31.5v-477q0 -21 1.5 -33.5t7 -19.5t15 -9.5t25.5 -2.5q15 0 24.5 2.5t15 9.5t7 19.5t1.5 33.5v183h111v-183q0 -55 -6.5 -88t-24.5 -50.5t-49 -23t-79 -5.5q-51 0 -83 5.5
t-50 23t-24.5 50.5t-6.5 88v477q0 54 7 87t25.5 50.5t50.5 23t81 5.5q48 0 79 -5.5t49 -23t24.5 -50t6.5 -87.5v-179h-111zM342 830h-72l-73 109l-73 -109h-72l102 166h87z" />
    <glyph glyph-name="ccircumflex" unicode="&#x109;" horiz-adv-x="349" 
d="M221 377v94q0 26 -8 34t-34 8q-29 0 -36.5 -8t-7.5 -34v-344q0 -26 8 -34.5t36 -8.5q26 0 34 9.5t8 33.5v155h93v-165q0 -42 -6 -67.5t-21.5 -38.5t-41.5 -17t-66 -4q-45 0 -72.5 4.5t-43.5 18t-21.5 38.5t-5.5 66v365q0 42 6 67t21.5 38.5t43.5 17.5t72 4q42 0 68.5 -5
t41.5 -18.5t20 -38.5t5 -65v-105h-93zM319 639h-72l-73 109l-73 -109h-72l102 166h87z" />
    <glyph glyph-name="Cdotaccent" unicode="&#x10a;" horiz-adv-x="395" 
d="M248 455v179q0 20 -1.5 32.5t-7 19t-15 9t-24.5 2.5q-16 0 -25.5 -2.5t-15 -9.5t-7 -19.5t-1.5 -31.5v-477q0 -21 1.5 -33.5t7 -19.5t15 -9.5t25.5 -2.5q15 0 24.5 2.5t15 9.5t7 19.5t1.5 33.5v183h111v-183q0 -55 -6.5 -88t-24.5 -50.5t-49 -23t-79 -5.5q-51 0 -83 5.5
t-50 23t-24.5 50.5t-6.5 88v477q0 54 7 87t25.5 50.5t50.5 23t81 5.5q48 0 79 -5.5t49 -23t24.5 -50t6.5 -87.5v-179h-111zM248 877h-101v104h101v-104z" />
    <glyph glyph-name="cdotaccent" unicode="&#x10b;" horiz-adv-x="349" 
d="M221 377v94q0 26 -8 34t-34 8q-29 0 -36.5 -8t-7.5 -34v-344q0 -26 8 -34.5t36 -8.5q26 0 34 9.5t8 33.5v155h93v-165q0 -42 -6 -67.5t-21.5 -38.5t-41.5 -17t-66 -4q-45 0 -72.5 4.5t-43.5 18t-21.5 38.5t-5.5 66v365q0 42 6 67t21.5 38.5t43.5 17.5t72 4q42 0 68.5 -5
t41.5 -18.5t20 -38.5t5 -65v-105h-93zM225 686h-101v104h101v-104z" />
    <glyph glyph-name="Ccaron" unicode="&#x10c;" horiz-adv-x="395" 
d="M248 455v179q0 20 -1.5 32.5t-7 19t-15 9t-24.5 2.5q-16 0 -25.5 -2.5t-15 -9.5t-7 -19.5t-1.5 -31.5v-477q0 -21 1.5 -33.5t7 -19.5t15 -9.5t25.5 -2.5q15 0 24.5 2.5t15 9.5t7 19.5t1.5 33.5v183h111v-183q0 -55 -6.5 -88t-24.5 -50.5t-49 -23t-79 -5.5q-51 0 -83 5.5
t-50 23t-24.5 50.5t-6.5 88v477q0 54 7 87t25.5 50.5t50.5 23t81 5.5q48 0 79 -5.5t49 -23t24.5 -50t6.5 -87.5v-179h-111zM52 996h72l73 -109l73 109h72l-102 -166h-86z" />
    <glyph glyph-name="ccaron" unicode="&#x10d;" horiz-adv-x="349" 
d="M221 377v94q0 26 -8 34t-34 8q-29 0 -36.5 -8t-7.5 -34v-344q0 -26 8 -34.5t36 -8.5q26 0 34 9.5t8 33.5v155h93v-165q0 -42 -6 -67.5t-21.5 -38.5t-41.5 -17t-66 -4q-45 0 -72.5 4.5t-43.5 18t-21.5 38.5t-5.5 66v365q0 42 6 67t21.5 38.5t43.5 17.5t72 4q42 0 68.5 -5
t41.5 -18.5t20 -38.5t5 -65v-105h-93zM29 805h72l73 -109l73 109h72l-102 -166h-86z" />
    <glyph glyph-name="Dcaron" unicode="&#x10e;" horiz-adv-x="409" 
d="M373 162q0 -53 -6.5 -85t-25 -49t-50.5 -22.5t-83 -5.5h-164v790h164q51 0 83 -5.5t50.5 -22.5t25 -48.5t6.5 -84.5v-467zM257 629q0 19 -2 31t-7 19t-14.5 9t-25.5 2h-49v-591h49q16 0 25.5 2.5t14.5 9t7 19t2 32.5v467zM49 996h72l73 -109l73 109h72l-102 -166h-86z
" />
    <glyph glyph-name="dcaron" unicode="&#x10f;" horiz-adv-x="469" 
d="M36 482q0 35 4 58.5t15 37.5t29.5 20t48.5 6q34 0 54.5 -11t31.5 -31v228h103v-790h-95v43q-14 -26 -35.5 -37t-57.5 -11q-30 0 -49 5.5t-30 19.5t-15 37.5t-4 59.5v365zM222 481q-13 31 -45 31q-26 0 -34 -10t-8 -40v-326q0 -30 8 -40t34 -10q32 0 45 31v364zM403 790
h102l-82 -165h-71z" />
    <glyph glyph-name="Dcroat" unicode="&#x110;" horiz-adv-x="431" 
d="M38 580h27v210h165q51 0 83 -5.5t50 -22.5t24.5 -48.5t6.5 -84.5v-467q0 -53 -6.5 -85t-24.5 -49t-50 -22.5t-83 -5.5h-165v489h-27v91zM177 580h54v-91h-54v-389h56q16 0 25.5 2t15 9t7.5 19t2 32v467q0 39 -9.5 50.5t-40.5 11.5h-56v-111z" />
    <glyph glyph-name="dcroat" unicode="&#x111;" horiz-adv-x="367" 
d="M367 688h-45v-688h-95v43q-14 -26 -35.5 -37t-57.5 -11q-30 0 -49 5.5t-30 19.5t-15 37.5t-4 59.5v365q0 35 4 58.5t15 37.5t29.5 20t48.5 6q34 0 54.5 -11t31.5 -31v126h-144v61h144v41h103v-41h45v-61zM222 481q-13 31 -45 31q-26 0 -34 -10t-8 -40v-326q0 -30 8 -40
t34 -10q32 0 45 31v364z" />
    <glyph glyph-name="Emacron" unicode="&#x112;" horiz-adv-x="294" 
d="M270 0h-226v790h225v-95h-110v-115h107v-91h-107v-390h111v-99zM304 899h-292v61h292v-61z" />
    <glyph glyph-name="emacron" unicode="&#x113;" horiz-adv-x="351" 
d="M136 264v-141q0 -29 7.5 -37.5t35.5 -8.5q27 0 35 8.5t8 37.5v81h92v-87q0 -42 -5.5 -67t-20.5 -38.5t-41 -17.5t-68 -4q-44 0 -72 4t-44 17.5t-21.5 38.5t-5.5 67v365q0 42 5.5 67t21.5 38.5t44 17.5t72 4q42 0 68 -4t41 -17.5t20.5 -38.5t5.5 -67v-218h-178zM136 346
h86v128q0 29 -8 37t-35 8q-28 0 -35.5 -8t-7.5 -37v-128zM323 708h-292v61h292v-61z" />
    <glyph glyph-name="Ebreve" unicode="&#x114;" horiz-adv-x="294" 
d="M270 0h-226v790h225v-95h-110v-115h107v-91h-107v-390h111v-99zM158 833q-65 0 -106 38t-41 125h64q1 -32 7.5 -52t17.5 -31.5t25.5 -15.5t32.5 -4t33 4t25.5 15.5t17 31.5t7.5 52h64q0 -87 -41 -125t-106 -38z" />
    <glyph glyph-name="ebreve" unicode="&#x115;" horiz-adv-x="351" 
d="M136 264v-141q0 -29 7.5 -37.5t35.5 -8.5q27 0 35 8.5t8 37.5v81h92v-87q0 -42 -5.5 -67t-20.5 -38.5t-41 -17.5t-68 -4q-44 0 -72 4t-44 17.5t-21.5 38.5t-5.5 67v365q0 42 5.5 67t21.5 38.5t44 17.5t72 4q42 0 68 -4t41 -17.5t20.5 -38.5t5.5 -67v-218h-178zM136 346
h86v128q0 29 -8 37t-35 8q-28 0 -35.5 -8t-7.5 -37v-128zM175 642q-65 0 -106 38t-41 125h64q1 -32 7.5 -52t17.5 -31.5t25.5 -15.5t32.5 -4t33 4t25.5 15.5t17 31.5t7.5 52h64q0 -87 -41 -125t-106 -38z" />
    <glyph glyph-name="Edotaccent" unicode="&#x116;" horiz-adv-x="294" 
d="M270 0h-226v790h225v-95h-110v-115h107v-91h-107v-390h111v-99zM207 877h-101v104h101v-104z" />
    <glyph glyph-name="edotaccent" unicode="&#x117;" horiz-adv-x="351" 
d="M136 264v-141q0 -29 7.5 -37.5t35.5 -8.5q27 0 35 8.5t8 37.5v81h92v-87q0 -42 -5.5 -67t-20.5 -38.5t-41 -17.5t-68 -4q-44 0 -72 4t-44 17.5t-21.5 38.5t-5.5 67v365q0 42 5.5 67t21.5 38.5t44 17.5t72 4q42 0 68 -4t41 -17.5t20.5 -38.5t5.5 -67v-218h-178zM136 346
h86v128q0 29 -8 37t-35 8q-28 0 -35.5 -8t-7.5 -37v-128zM226 686h-101v104h101v-104z" />
    <glyph glyph-name="Eogonek" unicode="&#x118;" horiz-adv-x="294" 
d="M44 0v790h225v-95h-110v-115h107v-91h-107v-390h111v-99q-34 -16 -47.5 -31t-13.5 -41q0 -17 9 -24.5t30 -7.5h36v-81h-78q-26 0 -42 6.5t-26 18t-13.5 26t-3.5 31.5q0 43 23 64.5t77 38.5h-177z" />
    <glyph glyph-name="eogonek" unicode="&#x119;" horiz-adv-x="351" 
d="M136 264v-141q0 -29 7.5 -37.5t35.5 -8.5q27 0 35 8.5t8 37.5v81h92v-87q0 -53 -9.5 -79.5t-35.5 -37.5q-35 -15 -48 -30.5t-13 -41.5q0 -17 9 -24.5t30 -7.5h36v-81h-78q-26 0 -42 6.5t-26 18t-13.5 26t-3.5 31.5q0 37 17 57.5t55 35.5h-13q-44 0 -72 4t-44 17.5
t-21.5 38.5t-5.5 67v365q0 42 5.5 67t21.5 38.5t44 17.5t72 4q42 0 68 -4t41 -17.5t20.5 -38.5t5.5 -67v-218h-178zM136 346h86v128q0 29 -8 37t-35 8q-28 0 -35.5 -8t-7.5 -37v-128z" />
    <glyph glyph-name="Ecaron" unicode="&#x11a;" horiz-adv-x="294" 
d="M270 0h-226v790h225v-95h-110v-115h107v-91h-107v-390h111v-99zM13 996h72l73 -109l73 109h72l-102 -166h-86z" />
    <glyph glyph-name="ecaron" unicode="&#x11b;" horiz-adv-x="351" 
d="M136 264v-141q0 -29 7.5 -37.5t35.5 -8.5q27 0 35 8.5t8 37.5v81h92v-87q0 -42 -5.5 -67t-20.5 -38.5t-41 -17.5t-68 -4q-44 0 -72 4t-44 17.5t-21.5 38.5t-5.5 67v365q0 42 5.5 67t21.5 38.5t44 17.5t72 4q42 0 68 -4t41 -17.5t20.5 -38.5t5.5 -67v-218h-178zM136 346
h86v128q0 29 -8 37t-35 8q-28 0 -35.5 -8t-7.5 -37v-128zM30 805h72l73 -109l73 109h72l-102 -166h-86z" />
    <glyph glyph-name="Gcircumflex" unicode="&#x11c;" horiz-adv-x="399" 
d="M248 562v72q0 20 -1.5 32.5t-7 19t-15 9t-24.5 2.5q-16 0 -25.5 -2.5t-15 -9.5t-7 -19.5t-1.5 -31.5v-477q0 -20 1.5 -32.5t7 -19.5t15 -10t25.5 -3q20 0 32.5 1t18.5 3v363h108v-459q-14 -3 -53.5 -6.5t-105.5 -3.5q-51 0 -83 6.5t-50 25t-24.5 51t-6.5 84.5v477
q0 54 7 87t25.5 50.5t50.5 23t81 5.5q48 0 79 -5.5t49 -23t24.5 -50t6.5 -87.5v-72h-111zM344 830h-72l-73 109l-73 -109h-72l102 166h87z" />
    <glyph glyph-name="gcircumflex" unicode="&#x11d;" horiz-adv-x="367" 
d="M159 -67q34 0 47 11.5t13 45.5v77q-11 -20 -31.5 -30.5t-54.5 -10.5q-30 0 -49 6.5t-29.5 20.5t-14.5 37.5t-4 57.5v334q0 35 4 58.5t15 37.5t30 20t49 6q36 0 57.5 -11.5t35.5 -37.5v44h95v-609q0 -73 -31.5 -108t-107.5 -35h-131v86h107zM222 481q-13 31 -45 31
q-26 0 -34 -10t-8 -40v-295q0 -30 8 -40t34 -10q32 0 45 31v333zM328 639h-72l-73 109l-73 -109h-72l102 166h87z" />
    <glyph glyph-name="Gbreve" unicode="&#x11e;" horiz-adv-x="399" 
d="M248 562v72q0 20 -1.5 32.5t-7 19t-15 9t-24.5 2.5q-16 0 -25.5 -2.5t-15 -9.5t-7 -19.5t-1.5 -31.5v-477q0 -20 1.5 -32.5t7 -19.5t15 -10t25.5 -3q20 0 32.5 1t18.5 3v363h108v-459q-14 -3 -53.5 -6.5t-105.5 -3.5q-51 0 -83 6.5t-50 25t-24.5 51t-6.5 84.5v477
q0 54 7 87t25.5 50.5t50.5 23t81 5.5q48 0 79 -5.5t49 -23t24.5 -50t6.5 -87.5v-72h-111zM199 833q-65 0 -106 38t-41 125h64q1 -32 7.5 -52t17.5 -31.5t25.5 -15.5t32.5 -4t33 4t25.5 15.5t17 31.5t7.5 52h64q0 -87 -41 -125t-106 -38z" />
    <glyph glyph-name="gbreve" unicode="&#x11f;" horiz-adv-x="367" 
d="M159 -67q34 0 47 11.5t13 45.5v77q-11 -20 -31.5 -30.5t-54.5 -10.5q-30 0 -49 6.5t-29.5 20.5t-14.5 37.5t-4 57.5v334q0 35 4 58.5t15 37.5t30 20t49 6q36 0 57.5 -11.5t35.5 -37.5v44h95v-609q0 -73 -31.5 -108t-107.5 -35h-131v86h107zM222 481q-13 31 -45 31
q-26 0 -34 -10t-8 -40v-295q0 -30 8 -40t34 -10q32 0 45 31v333zM183 642q-65 0 -106 38t-41 125h64q1 -32 7.5 -52t17.5 -31.5t25.5 -15.5t32.5 -4t33 4t25.5 15.5t17 31.5t7.5 52h64q0 -87 -41 -125t-106 -38z" />
    <glyph glyph-name="Gdotaccent" unicode="&#x120;" horiz-adv-x="399" 
d="M248 562v72q0 20 -1.5 32.5t-7 19t-15 9t-24.5 2.5q-16 0 -25.5 -2.5t-15 -9.5t-7 -19.5t-1.5 -31.5v-477q0 -20 1.5 -32.5t7 -19.5t15 -10t25.5 -3q20 0 32.5 1t18.5 3v363h108v-459q-14 -3 -53.5 -6.5t-105.5 -3.5q-51 0 -83 6.5t-50 25t-24.5 51t-6.5 84.5v477
q0 54 7 87t25.5 50.5t50.5 23t81 5.5q48 0 79 -5.5t49 -23t24.5 -50t6.5 -87.5v-72h-111zM250 877h-101v104h101v-104z" />
    <glyph glyph-name="gdotaccent" unicode="&#x121;" horiz-adv-x="367" 
d="M159 -67q34 0 47 11.5t13 45.5v77q-11 -20 -31.5 -30.5t-54.5 -10.5q-30 0 -49 6.5t-29.5 20.5t-14.5 37.5t-4 57.5v334q0 35 4 58.5t15 37.5t30 20t49 6q36 0 57.5 -11.5t35.5 -37.5v44h95v-609q0 -73 -31.5 -108t-107.5 -35h-131v86h107zM222 481q-13 31 -45 31
q-26 0 -34 -10t-8 -40v-295q0 -30 8 -40t34 -10q32 0 45 31v333zM234 686h-101v104h101v-104z" />
    <glyph glyph-name="uni0122" unicode="&#x122;" horiz-adv-x="399" 
d="M248 562v72q0 20 -1.5 32.5t-7 19t-15 9t-24.5 2.5q-16 0 -25.5 -2.5t-15 -9.5t-7 -19.5t-1.5 -31.5v-477q0 -20 1.5 -32.5t7 -19.5t15 -10t25.5 -3q20 0 32.5 1t18.5 3v363h108v-459q-14 -3 -53.5 -6.5t-105.5 -3.5q-51 0 -83 6.5t-50 25t-24.5 51t-6.5 84.5v477
q0 54 7 87t25.5 50.5t50.5 23t81 5.5q48 0 79 -5.5t49 -23t24.5 -50t6.5 -87.5v-72h-111zM144 -20h102l-82 -165h-71z" />
    <glyph glyph-name="uni0123" unicode="&#x123;" horiz-adv-x="367" 
d="M159 -67q34 0 47 11.5t13 45.5v77q-11 -20 -31.5 -30.5t-54.5 -10.5q-30 0 -49 6.5t-29.5 20.5t-14.5 37.5t-4 57.5v334q0 35 4 58.5t15 37.5t30 20t49 6q36 0 57.5 -11.5t35.5 -37.5v44h95v-609q0 -73 -31.5 -108t-107.5 -35h-131v86h107zM222 481q-13 31 -45 31
q-26 0 -34 -10t-8 -40v-295q0 -30 8 -40t34 -10q32 0 45 31v333zM223.986 624.962h-101.994l81.9951 164.99h70.9961z" />
    <glyph glyph-name="Hcircumflex" unicode="&#x124;" horiz-adv-x="419" 
d="M375 0h-116v432h-100v-432h-115v790h115v-261h100v261h116v-790zM354 830h-72l-73 109l-73 -109h-72l102 166h87z" />
    <glyph glyph-name="hcircumflex" unicode="&#x125;" horiz-adv-x="380" 
d="M146 0h-102v790h102v-229q22 43 88 43q30 0 50 -6t32.5 -20t17.5 -37.5t5 -58.5v-482h-102v471q0 23 -9 32t-35 9q-20 0 -30.5 -8.5t-16.5 -22.5v-481zM257 830h-72l-73 109l-73 -109h-72l102 166h87z" />
    <glyph glyph-name="Hbar" unicode="&#x126;" horiz-adv-x="419" 
d="M375 0h-116v432h-100v-432h-115v790h115v-95h100v95h116v-790zM259 529v105h-100v-105h100z" />
    <glyph glyph-name="hbar" unicode="&#x127;" horiz-adv-x="380" 
d="M292 688h-146v-127q22 43 88 43q30 0 50 -6t32.5 -20t17.5 -37.5t5 -58.5v-482h-102v471q0 23 -9 32t-35 9q-20 0 -30.5 -8.5t-16.5 -22.5v-481h-102v688h-44v61h44v41h102v-41h146v-61z" />
    <glyph glyph-name="Itilde" unicode="&#x128;" horiz-adv-x="208" 
d="M161 0h-115v790h115v-790zM26 914q-25 0 -40.5 -10t-26.5 -26v73q11 11 29 18.5t39 7.5t40 -5t37.5 -10.5t37.5 -10.5t40 -5q46 0 69 36v-72q-11 -13 -29 -21t-41 -8q-21 0 -40 5t-37.5 11.5t-37.5 11.5t-40 5z" />
    <glyph glyph-name="itilde" unicode="&#x129;" horiz-adv-x="294" 
d="M197 0h-101v599h101v-599zM69 723q-25 0 -40.5 -10t-26.5 -26v73q11 11 29 18.5t39 7.5t40 -5t37.5 -10.5t37.5 -10.5t40 -5q46 0 69 36v-72q-11 -13 -29 -21t-41 -8q-21 0 -40 5t-37.5 11.5t-37.5 11.5t-40 5z" />
    <glyph glyph-name="Imacron" unicode="&#x12a;" horiz-adv-x="208" 
d="M161 0h-115v790h115v-790zM251 899h-292v61h292v-61z" />
    <glyph glyph-name="imacron" unicode="&#x12b;" horiz-adv-x="290" 
d="M195 0h-101v599h101v-599zM292 708h-292v61h292v-61z" />
    <glyph glyph-name="Ibreve" unicode="&#x12c;" horiz-adv-x="208" 
d="M161 0h-115v790h115v-790zM105 833q-65 0 -106 38t-41 125h64q1 -32 7.5 -52t17.5 -31.5t25.5 -15.5t32.5 -4t33 4t25.5 15.5t17 31.5t7.5 52h64q0 -87 -41 -125t-106 -38z" />
    <glyph glyph-name="ibreve" unicode="&#x12d;" horiz-adv-x="283" 
d="M192 0h-101v599h101v-599zM143 642q-65 0 -106 38t-41 125h64q1 -32 7.5 -52t17.5 -31.5t25.5 -15.5t32.5 -4t33 4t25.5 15.5t17 31.5t7.5 52h64q0 -87 -41 -125t-106 -38z" />
    <glyph glyph-name="Iogonek" unicode="&#x12e;" horiz-adv-x="208" 
d="M12 -103q0 49 34 73v820h115v-790q-34 -16 -47.5 -31t-13.5 -41q0 -17 9 -24.5t30 -7.5h36v-81h-78q-26 0 -42 6.5t-26 18t-13.5 26t-3.5 31.5z" />
    <glyph glyph-name="iogonek" unicode="&#x12f;" horiz-adv-x="194" 
d="M147 0q-34 -16 -47.5 -31t-13.5 -41q0 -17 9 -24.5t30 -7.5h36v-81h-78q-26 0 -42 6.5t-26 18t-13.5 26t-3.5 31.5q0 31 11 49.5t37 32.5v620h101v-599zM147 686h-101v104h101v-104z" />
    <glyph glyph-name="Idotaccent" unicode="&#x130;" horiz-adv-x="208" 
d="M161 0h-115v790h115v-790zM154 877h-101v104h101v-104z" />
    <glyph glyph-name="dotlessi" unicode="&#x131;" horiz-adv-x="194" 
d="M147 0h-101v599h101v-599z" />
    <glyph glyph-name="IJ" unicode="&#x132;" horiz-adv-x="582" 
d="M161 0h-115v790h115v-790zM222 340h105v-183q0 -41 9 -53t38 -12q30 0 38.5 12.5t8.5 52.5v633h116v-633q0 -55 -6.5 -88t-24 -50.5t-49 -23t-81.5 -5.5q-47 0 -77 5.5t-47 23t-23.5 50.5t-6.5 88v183z" />
    <glyph glyph-name="ij" unicode="&#x133;" horiz-adv-x="388" 
d="M147 686h-101v104h101v-104zM147 0h-101v599h101v-599zM242 599h102v-609q0 -72 -32.5 -107.5t-109.5 -35.5h-56v86h48q26 0 37 12.5t11 44.5v609zM344 686h-102v104h102v-104z" />
    <glyph glyph-name="Jcircumflex" unicode="&#x134;" horiz-adv-x="374" 
d="M14 340h105v-183q0 -41 9 -53t38 -12q30 0 38.5 12.5t8.5 52.5v633h116v-633q0 -55 -6.5 -88t-24 -50.5t-49 -23t-81.5 -5.5q-47 0 -77 5.5t-47 23t-23.5 50.5t-6.5 88v183zM402 830h-72l-73 109l-73 -109h-72l102 166h87z" />
    <glyph glyph-name="jcircumflex" unicode="&#x135;" horiz-adv-x="231" 
d="M65 599h102v-609q0 -72 -32.5 -107.5t-109.5 -35.5h-56v86h48q26 0 37 12.5t11 44.5v609zM260 639h-72l-73 109l-73 -109h-72l102 166h87z" />
    <glyph glyph-name="uni0136" unicode="&#x136;" horiz-adv-x="406" 
d="M383 790l-118 -328l134 -462h-125l-109 415h-5v-415h-116v789h116v-298h5l97 299h121zM164 -20h102l-82 -165h-71z" />
    <glyph glyph-name="uni0137" unicode="&#x137;" horiz-adv-x="365" 
d="M243 0l-94 308h-4v-308h-101v790h101v-412h4l84 221h111l-109 -250l122 -349h-114zM139 -20h102l-82 -165h-71z" />
    <glyph glyph-name="Lacute" unicode="&#x139;" horiz-adv-x="290" 
d="M277 0h-233v790h115v-690h118v-100zM112 996h110l-95 -166h-78z" />
    <glyph glyph-name="lacute" unicode="&#x13a;" horiz-adv-x="191" 
d="M146 0h-102v790h102v-790zM104 996h110l-95 -166h-78z" />
    <glyph glyph-name="uni013B" unicode="&#x13b;" horiz-adv-x="290" 
d="M277 0h-233v790h115v-690h118v-100zM107 -20h102l-82 -165h-71z" />
    <glyph glyph-name="uni013C" unicode="&#x13c;" horiz-adv-x="191" 
d="M146 0h-102v790h102v-790zM44 -20h102l-82 -165h-71z" />
    <glyph glyph-name="Lcaron" unicode="&#x13d;" horiz-adv-x="307" 
d="M277 0h-233v790h115v-690h118v-100zM240 790h102l-82 -165h-71z" />
    <glyph glyph-name="lcaron" unicode="&#x13e;" horiz-adv-x="292" 
d="M146 0h-102v790h102v-790zM227 790h102l-82 -165h-71z" />
    <glyph glyph-name="Ldot" unicode="&#x13f;" horiz-adv-x="290" 
d="M277 0h-233v790h115v-690h118v-100zM297 355h-101v104h101v-104z" />
    <glyph glyph-name="ldot" unicode="&#x140;" horiz-adv-x="284" 
d="M146 0h-102v790h102v-790zM284 347h-101v104h101v-104z" />
    <glyph glyph-name="Lslash" unicode="&#x141;" horiz-adv-x="289" 
d="M241 538l-83 -38v-400h118v-100h-232v454l-37 -15v91l37 15v245h114v-199l83 38v-91z" />
    <glyph glyph-name="lslash" unicode="&#x142;" horiz-adv-x="229" 
d="M225 527l-59 -26v-501h-102v463l-60 -25v91l60 25v236h102v-198l59 26v-91z" />
    <glyph glyph-name="Nacute" unicode="&#x143;" horiz-adv-x="434" 
d="M266 0l-119 493h-4v-493h-99v790h127l114 -507h4v507h100v-790h-123zM223 996h110l-95 -166h-78z" />
    <glyph glyph-name="nacute" unicode="&#x144;" horiz-adv-x="380" 
d="M146 0h-102v599h95v-40q11 22 33.5 33.5t60.5 11.5q30 0 50.5 -6t33 -20t17.5 -37.5t5 -58.5v-482h-102v471q0 23 -9 32t-35 9q-20 0 -30.5 -8.5t-16.5 -22.5v-481zM196 805h110l-95 -166h-78z" />
    <glyph glyph-name="uni0145" unicode="&#x145;" horiz-adv-x="434" 
d="M266 0l-119 493h-4v-493h-99v790h127l114 -507h4v507h100v-790h-123zM154 -20h102l-82 -165h-71z" />
    <glyph glyph-name="uni0146" unicode="&#x146;" horiz-adv-x="380" 
d="M146 0h-102v599h95v-40q11 22 33.5 33.5t60.5 11.5q30 0 50.5 -6t33 -20t17.5 -37.5t5 -58.5v-482h-102v471q0 23 -9 32t-35 9q-20 0 -30.5 -8.5t-16.5 -22.5v-481zM145 -20h102l-82 -165h-71z" />
    <glyph glyph-name="Ncaron" unicode="&#x147;" horiz-adv-x="434" 
d="M266 0l-119 493h-4v-493h-99v790h127l114 -507h4v507h100v-790h-123zM72 996h72l73 -109l73 109h72l-102 -166h-86z" />
    <glyph glyph-name="ncaron" unicode="&#x148;" horiz-adv-x="380" 
d="M146 0h-102v599h95v-40q11 22 33.5 33.5t60.5 11.5q30 0 50.5 -6t33 -20t17.5 -37.5t5 -58.5v-482h-102v471q0 23 -9 32t-35 9q-20 0 -30.5 -8.5t-16.5 -22.5v-481zM45 805h72l73 -109l73 109h72l-102 -166h-86z" />
    <glyph glyph-name="Eng" unicode="&#x14a;" horiz-adv-x="434" 
d="M389 -10q0 -72 -32.5 -107.5t-109.5 -35.5h-56v86h48q21 0 32.5 8.5t15.5 28.5l-140 523h-4v-493h-99v790h127l114 -507h4v507h100v-800z" />
    <glyph glyph-name="eng" unicode="&#x14b;" horiz-adv-x="380" 
d="M237 471q0 23 -9 32t-35 9q-20 0 -30.5 -8.5t-16.5 -22.5v-481h-102v599h95v-40q11 22 33.5 33.5t60.5 11.5q30 0 50.5 -6t33 -20t17.5 -37.5t5 -58.5v-492q0 -72 -32.5 -107.5t-109.5 -35.5h-56v86h48q26 0 37 12.5t11 44.5v481z" />
    <glyph glyph-name="Omacron" unicode="&#x14c;" 
d="M365 157q0 -55 -6.5 -88t-25 -50.5t-50.5 -23t-83 -5.5t-83 5.5t-50 23t-24.5 50.5t-6.5 88v477q0 55 6.5 87.5t24.5 50t50 23t83 5.5t83 -5.5t50.5 -23t25 -50t6.5 -87.5v-477zM249 634q0 40 -9 51.5t-40 11.5q-16 0 -25.5 -2.5t-15 -9.5t-7 -19.5t-1.5 -31.5v-477
q0 -21 1.5 -33.5t7 -19.5t15 -9.5t25.5 -2.5t25.5 2.5t15 10t7 20t1.5 32.5v477zM346 899h-292v61h292v-61z" />
    <glyph glyph-name="omacron" unicode="&#x14d;" horiz-adv-x="359" 
d="M322 117q0 -42 -6 -67t-21.5 -38.5t-43.5 -17.5t-72 -4t-72 4t-44 17.5t-21.5 38.5t-5.5 67v365q0 42 5.5 67t21.5 38.5t44 17.5t72 4t72 -4t43.5 -17.5t21.5 -38.5t6 -67v-365zM223 471q0 26 -8 34t-36 8t-36 -8.5t-8 -33.5v-344q0 -26 8 -34.5t36 -8.5q29 0 36.5 9.5
t7.5 33.5v344zM327 708h-292v61h292v-61z" />
    <glyph glyph-name="Obreve" unicode="&#x14e;" 
d="M365 157q0 -55 -6.5 -88t-25 -50.5t-50.5 -23t-83 -5.5t-83 5.5t-50 23t-24.5 50.5t-6.5 88v477q0 55 6.5 87.5t24.5 50t50 23t83 5.5t83 -5.5t50.5 -23t25 -50t6.5 -87.5v-477zM249 634q0 40 -9 51.5t-40 11.5q-16 0 -25.5 -2.5t-15 -9.5t-7 -19.5t-1.5 -31.5v-477
q0 -21 1.5 -33.5t7 -19.5t15 -9.5t25.5 -2.5t25.5 2.5t15 10t7 20t1.5 32.5v477zM200 833q-65 0 -106 38t-41 125h64q1 -32 7.5 -52t17.5 -31.5t25.5 -15.5t32.5 -4t33 4t25.5 15.5t17 31.5t7.5 52h64q0 -87 -41 -125t-106 -38z" />
    <glyph glyph-name="obreve" unicode="&#x14f;" horiz-adv-x="359" 
d="M322 117q0 -42 -6 -67t-21.5 -38.5t-43.5 -17.5t-72 -4t-72 4t-44 17.5t-21.5 38.5t-5.5 67v365q0 42 5.5 67t21.5 38.5t44 17.5t72 4t72 -4t43.5 -17.5t21.5 -38.5t6 -67v-365zM223 471q0 26 -8 34t-36 8t-36 -8.5t-8 -33.5v-344q0 -26 8 -34.5t36 -8.5q29 0 36.5 9.5
t7.5 33.5v344zM179 642q-65 0 -106 38t-41 125h64q1 -32 7.5 -52t17.5 -31.5t25.5 -15.5t32.5 -4t33 4t25.5 15.5t17 31.5t7.5 52h64q0 -87 -41 -125t-106 -38z" />
    <glyph glyph-name="Ohungarumlaut" unicode="&#x150;" 
d="M365 157q0 -55 -6.5 -88t-25 -50.5t-50.5 -23t-83 -5.5t-83 5.5t-50 23t-24.5 50.5t-6.5 88v477q0 55 6.5 87.5t24.5 50t50 23t83 5.5t83 -5.5t50.5 -23t25 -50t6.5 -87.5v-477zM249 634q0 40 -9 51.5t-40 11.5q-16 0 -25.5 -2.5t-15 -9.5t-7 -19.5t-1.5 -31.5v-477
q0 -21 1.5 -33.5t7 -19.5t15 -9.5t25.5 -2.5t25.5 2.5t15 10t7 20t1.5 32.5v477zM305 996h110l-97 -166h-77zM125 996h110l-95 -166h-78z" />
    <glyph glyph-name="ohungarumlaut" unicode="&#x151;" horiz-adv-x="359" 
d="M322 117q0 -42 -6 -67t-21.5 -38.5t-43.5 -17.5t-72 -4t-72 4t-44 17.5t-21.5 38.5t-5.5 67v365q0 42 5.5 67t21.5 38.5t44 17.5t72 4t72 -4t43.5 -17.5t21.5 -38.5t6 -67v-365zM223 471q0 26 -8 34t-36 8t-36 -8.5t-8 -33.5v-344q0 -26 8 -34.5t36 -8.5q29 0 36.5 9.5
t7.5 33.5v344zM284 805h110l-97 -166h-77zM104 805h110l-95 -166h-78z" />
    <glyph glyph-name="OE" unicode="&#x152;" horiz-adv-x="505" 
d="M459 0h-259q-51 0 -83 5.5t-50 22.5t-24.5 49t-6.5 85v467q0 53 6.5 84.5t24.5 48.5t50 22.5t83 5.5h259v-96h-110v-114h106v-92h-106v-390h110v-98zM151 162q0 -20 1.5 -32.5t7 -19t15 -9t25.5 -2.5h37v591h-37q-16 0 -25.5 -2t-15 -9t-7 -19t-1.5 -31v-467z" />
    <glyph glyph-name="oe" unicode="&#x153;" horiz-adv-x="537" 
d="M322 264v-144q0 -27 8.5 -35t35.5 -8t35 8.5t8 37.5v81h92v-87q0 -42 -5.5 -67t-20.5 -38.5t-41 -17.5t-68 -4q-71 0 -95 30q-12 -14 -34 -22t-58 -8q-44 0 -72 4t-44 17.5t-21.5 38.5t-5.5 67v365q0 42 5.5 67t21.5 38.5t44 17.5t72 4q37 0 59.5 -9t33.5 -23
q11 14 32.5 23t61.5 9q42 0 68 -4t41 -17.5t20.5 -38.5t5.5 -67v-218h-179zM322 345h87v129q0 28 -8 36.5t-35 8.5q-26 0 -35 -8.5t-9 -33.5v-132zM223 471q0 26 -8 34t-36 8t-36 -8.5t-8 -33.5v-344q0 -26 8 -34.5t36 -8.5q29 0 36.5 9.5t7.5 33.5v344z" />
    <glyph glyph-name="Racute" unicode="&#x154;" horiz-adv-x="411" 
d="M159 0h-115v790h164q51 0 83 -5.5t50.5 -23t25 -49t6.5 -83.5v-83q0 -31 -6.5 -50.5t-17 -31.5t-23 -17.5t-24.5 -8.5v-4q16 -4 29 -10.5t22.5 -20t14.5 -34.5t5 -54v-315h-116v333q0 32 -8 44.5t-38 12.5h-52v-390zM159 481h52q28 0 37 11t9 40v97q0 19 -1.5 30.5
t-6.5 18.5t-15 9.5t-26 2.5h-49v-209zM202 996h110l-95 -166h-78z" />
    <glyph glyph-name="racute" unicode="&#x155;" horiz-adv-x="338" 
d="M146 0h-102v599h95v-40q11 20 33.5 32.5t59.5 12.5q52 0 72.5 -26t20.5 -96v-149h-92v137q0 24 -8 33t-34 9q-34 0 -45 -33v-479zM195 805h110l-95 -166h-78z" />
    <glyph glyph-name="uni0156" unicode="&#x156;" horiz-adv-x="411" 
d="M159 0h-115v790h164q51 0 83 -5.5t50.5 -23t25 -49t6.5 -83.5v-83q0 -31 -6.5 -50.5t-17 -31.5t-23 -17.5t-24.5 -8.5v-4q16 -4 29 -10.5t22.5 -20t14.5 -34.5t5 -54v-315h-116v333q0 32 -8 44.5t-38 12.5h-52v-390zM159 481h52q28 0 37 11t9 40v97q0 19 -1.5 30.5
t-6.5 18.5t-15 9.5t-26 2.5h-49v-209zM158 -20h102l-82 -165h-71z" />
    <glyph glyph-name="uni0157" unicode="&#x157;" horiz-adv-x="338" 
d="M146 0h-102v599h95v-40q11 20 33.5 32.5t59.5 12.5q52 0 72.5 -26t20.5 -96v-149h-92v137q0 24 -8 33t-34 9q-34 0 -45 -33v-479zM46 -20h102l-82 -165h-71z" />
    <glyph glyph-name="Rcaron" unicode="&#x158;" horiz-adv-x="411" 
d="M159 0h-115v790h164q51 0 83 -5.5t50.5 -23t25 -49t6.5 -83.5v-83q0 -31 -6.5 -50.5t-17 -31.5t-23 -17.5t-24.5 -8.5v-4q16 -4 29 -10.5t22.5 -20t14.5 -34.5t5 -54v-315h-116v333q0 32 -8 44.5t-38 12.5h-52v-390zM159 481h52q28 0 37 11t9 40v97q0 19 -1.5 30.5
t-6.5 18.5t-15 9.5t-26 2.5h-49v-209zM50 996h72l73 -109l73 109h72l-102 -166h-86z" />
    <glyph glyph-name="rcaron" unicode="&#x159;" horiz-adv-x="338" 
d="M146 0h-102v599h95v-40q11 20 33.5 32.5t59.5 12.5q52 0 72.5 -26t20.5 -96v-149h-92v137q0 24 -8 33t-34 9q-34 0 -45 -33v-479zM44 805h72l73 -109l73 109h72l-102 -166h-86z" />
    <glyph glyph-name="Sacute" unicode="&#x15a;" horiz-adv-x="397" 
d="M247 534v98q0 21 -1.5 34t-6.5 19.5t-15 9t-26 2.5q-17 0 -26.5 -2.5t-14.5 -9t-6.5 -19.5t-1.5 -34v-78q0 -15 2 -25t8.5 -18t19 -16t34.5 -19q52 -27 82 -46t45 -38.5t19 -44t4 -63.5v-127q0 -55 -6.5 -88t-24.5 -50.5t-50.5 -23t-83.5 -5.5q-48 0 -79 5.5t-49 23
t-25 50.5t-7 88v157h112v-157q0 -21 1.5 -33.5t6.5 -19.5t14.5 -9.5t25.5 -2.5q32 0 40.5 12t8.5 53v119q0 20 -1.5 33t-8 23t-19.5 18.5t-35 20.5q-52 27 -81.5 46t-44.5 38.5t-19 43t-4 57.5v76q0 55 6.5 88t24.5 51t50 23.5t83 5.5q50 0 81.5 -5.5t49 -23.5t24 -51
t6.5 -88v-98h-112zM205 996h110l-95 -166h-78z" />
    <glyph glyph-name="sacute" unicode="&#x15b;" horiz-adv-x="355" 
d="M221 426v45q0 26 -7.5 34.5t-35.5 8.5q-29 0 -36.5 -8.5t-7.5 -34.5v-48q0 -12 1.5 -20t6.5 -15t15.5 -13t27.5 -13q22 -9 38.5 -17t30.5 -15q22 -11 35 -21.5t20 -22.5t9 -25.5t2 -31.5v-111q0 -42 -5.5 -67.5t-21 -39t-43 -17.5t-72.5 -4q-44 0 -72 4t-44 17.5t-22 39
t-6 67.5v92h100v-81q0 -27 8 -35.5t36 -8.5q29 0 36 9t7 35v73q0 13 -2 22t-8.5 16t-18.5 13.5t-33 14.5q-20 8 -35.5 15t-27.5 13q-19 10 -31 20t-19 23t-9.5 29.5t-2.5 39.5v73q0 42 6 67.5t21.5 39t43.5 17.5t73 4q44 0 72 -4t43.5 -17.5t21 -39t5.5 -67.5v-55h-99z
M184 805h110l-95 -166h-78z" />
    <glyph glyph-name="Scircumflex" unicode="&#x15c;" horiz-adv-x="397" 
d="M247 534v98q0 21 -1.5 34t-6.5 19.5t-15 9t-26 2.5q-17 0 -26.5 -2.5t-14.5 -9t-6.5 -19.5t-1.5 -34v-78q0 -15 2 -25t8.5 -18t19 -16t34.5 -19q52 -27 82 -46t45 -38.5t19 -44t4 -63.5v-127q0 -55 -6.5 -88t-24.5 -50.5t-50.5 -23t-83.5 -5.5q-48 0 -79 5.5t-49 23
t-25 50.5t-7 88v157h112v-157q0 -21 1.5 -33.5t6.5 -19.5t14.5 -9.5t25.5 -2.5q32 0 40.5 12t8.5 53v119q0 20 -1.5 33t-8 23t-19.5 18.5t-35 20.5q-52 27 -81.5 46t-44.5 38.5t-19 43t-4 57.5v76q0 55 6.5 88t24.5 51t50 23.5t83 5.5q50 0 81.5 -5.5t49 -23.5t24 -51
t6.5 -88v-98h-112zM343 830h-72l-73 109l-73 -109h-72l102 166h87z" />
    <glyph glyph-name="scircumflex" unicode="&#x15d;" horiz-adv-x="355" 
d="M221 426v45q0 26 -7.5 34.5t-35.5 8.5q-29 0 -36.5 -8.5t-7.5 -34.5v-48q0 -12 1.5 -20t6.5 -15t15.5 -13t27.5 -13q22 -9 38.5 -17t30.5 -15q22 -11 35 -21.5t20 -22.5t9 -25.5t2 -31.5v-111q0 -42 -5.5 -67.5t-21 -39t-43 -17.5t-72.5 -4q-44 0 -72 4t-44 17.5t-22 39
t-6 67.5v92h100v-81q0 -27 8 -35.5t36 -8.5q29 0 36 9t7 35v73q0 13 -2 22t-8.5 16t-18.5 13.5t-33 14.5q-20 8 -35.5 15t-27.5 13q-19 10 -31 20t-19 23t-9.5 29.5t-2.5 39.5v73q0 42 6 67.5t21.5 39t43.5 17.5t73 4q44 0 72 -4t43.5 -17.5t21 -39t5.5 -67.5v-55h-99z
M322 639h-72l-73 109l-73 -109h-72l102 166h87z" />
    <glyph glyph-name="Scedilla" unicode="&#x15e;" horiz-adv-x="397" 
d="M247 534v98q0 21 -1.5 34t-6.5 19.5t-15 9t-26 2.5q-17 0 -26.5 -2.5t-14.5 -9t-6.5 -19.5t-1.5 -34v-78q0 -15 2 -25t8.5 -18t19 -16t34.5 -19q52 -27 82 -46t45 -38.5t19 -44t4 -63.5v-127q0 -55 -6.5 -88t-24.5 -50.5t-50.5 -23t-83.5 -5.5q-48 0 -79 5.5t-49 23
t-25 50.5t-7 88v157h112v-157q0 -21 1.5 -33.5t6.5 -19.5t14.5 -9.5t25.5 -2.5q32 0 40.5 12t8.5 53v119q0 20 -1.5 33t-8 23t-19.5 18.5t-35 20.5q-52 27 -81.5 46t-44.5 38.5t-19 43t-4 57.5v76q0 55 6.5 88t24.5 51t50 23.5t83 5.5q50 0 81.5 -5.5t49 -23.5t24 -51
t6.5 -88v-98h-112zM151 -20h102l-82 -165h-71z" />
    <glyph glyph-name="scedilla" unicode="&#x15f;" horiz-adv-x="355" 
d="M221 426v45q0 26 -7.5 34.5t-35.5 8.5q-29 0 -36.5 -8.5t-7.5 -34.5v-48q0 -12 1.5 -20t6.5 -15t15.5 -13t27.5 -13q22 -9 38.5 -17t30.5 -15q22 -11 35 -21.5t20 -22.5t9 -25.5t2 -31.5v-111q0 -42 -5.5 -67.5t-21 -39t-43 -17.5t-72.5 -4q-44 0 -72 4t-44 17.5t-22 39
t-6 67.5v92h100v-81q0 -27 8 -35.5t36 -8.5q29 0 36 9t7 35v73q0 13 -2 22t-8.5 16t-18.5 13.5t-33 14.5q-20 8 -35.5 15t-27.5 13q-19 10 -31 20t-19 23t-9.5 29.5t-2.5 39.5v73q0 42 6 67.5t21.5 39t43.5 17.5t73 4q44 0 72 -4t43.5 -17.5t21 -39t5.5 -67.5v-55h-99z
M126 -20h102l-82 -165h-71z" />
    <glyph glyph-name="Scaron" unicode="&#x160;" horiz-adv-x="397" 
d="M247 534v98q0 21 -1.5 34t-6.5 19.5t-15 9t-26 2.5q-17 0 -26.5 -2.5t-14.5 -9t-6.5 -19.5t-1.5 -34v-78q0 -15 2 -25t8.5 -18t19 -16t34.5 -19q52 -27 82 -46t45 -38.5t19 -44t4 -63.5v-127q0 -55 -6.5 -88t-24.5 -50.5t-50.5 -23t-83.5 -5.5q-48 0 -79 5.5t-49 23
t-25 50.5t-7 88v157h112v-157q0 -21 1.5 -33.5t6.5 -19.5t14.5 -9.5t25.5 -2.5q32 0 40.5 12t8.5 53v119q0 20 -1.5 33t-8 23t-19.5 18.5t-35 20.5q-52 27 -81.5 46t-44.5 38.5t-19 43t-4 57.5v76q0 55 6.5 88t24.5 51t50 23.5t83 5.5q50 0 81.5 -5.5t49 -23.5t24 -51
t6.5 -88v-98h-112zM53 996h72l73 -109l73 109h72l-102 -166h-86z" />
    <glyph glyph-name="scaron" unicode="&#x161;" horiz-adv-x="355" 
d="M221 426v45q0 26 -7.5 34.5t-35.5 8.5q-29 0 -36.5 -8.5t-7.5 -34.5v-48q0 -12 1.5 -20t6.5 -15t15.5 -13t27.5 -13q22 -9 38.5 -17t30.5 -15q22 -11 35 -21.5t20 -22.5t9 -25.5t2 -31.5v-111q0 -42 -5.5 -67.5t-21 -39t-43 -17.5t-72.5 -4q-44 0 -72 4t-44 17.5t-22 39
t-6 67.5v92h100v-81q0 -27 8 -35.5t36 -8.5q29 0 36 9t7 35v73q0 13 -2 22t-8.5 16t-18.5 13.5t-33 14.5q-20 8 -35.5 15t-27.5 13q-19 10 -31 20t-19 23t-9.5 29.5t-2.5 39.5v73q0 42 6 67.5t21.5 39t43.5 17.5t73 4q44 0 72 -4t43.5 -17.5t21 -39t5.5 -67.5v-55h-99z
M32 805h72l73 -109l73 109h72l-102 -166h-86z" />
    <glyph glyph-name="uni0162" unicode="&#x162;" horiz-adv-x="313" 
d="M300 694h-86v-694h-115v694h-87v96h288v-96zM106 -20h102l-82 -165h-71z" />
    <glyph glyph-name="uni0163" unicode="&#x163;" horiz-adv-x="241" 
d="M218 516h-70v-376q0 -31 10 -42t40 -11h19v-87h-26q-41 0 -69 7.5t-45 23t-24 39.5t-7 57v389h-37v83h37v182h102v-182h70v-83zM85 -20h102l-82 -165h-71z" />
    <glyph glyph-name="Tcaron" unicode="&#x164;" horiz-adv-x="313" 
d="M300 694h-86v-694h-115v694h-87v96h288v-96zM13 996h72l73 -109l73 109h72l-102 -166h-86z" />
    <glyph glyph-name="tcaron" unicode="&#x165;" horiz-adv-x="282" 
d="M218 516h-70v-376q0 -31 10 -42t40 -11h19v-87h-26q-41 0 -69 7.5t-45 23t-24 39.5t-7 57v389h-37v83h37v182h102v-182h70v-83zM223 790h102l-82 -165h-71z" />
    <glyph glyph-name="Tbar" unicode="&#x166;" horiz-adv-x="313" 
d="M263 468h-49v-468h-115v468h-49v90h49v136h-87v96h288v-96h-86v-136h49v-90z" />
    <glyph glyph-name="tbar" unicode="&#x167;" horiz-adv-x="241" 
d="M213 288h-65v-148q0 -31 10 -42t40 -11h19v-87h-26q-41 0 -69 7.5t-45 23t-24 39.5t-7 57v161h-31v90h31v138h-37v83h37v182h102v-182h70v-83h-70v-138h65v-90z" />
    <glyph glyph-name="Utilde" unicode="&#x168;" horiz-adv-x="405" 
d="M203 -10q-50 0 -81.5 5.5t-49.5 23t-25 50.5t-7 88v633h115v-633q0 -21 2 -33.5t7.5 -19t15 -9t25.5 -2.5q15 0 24.5 2.5t14.5 9t7 19t2 33.5v633h112v-633q0 -55 -7 -88t-25 -50.5t-49.5 -23t-80.5 -5.5zM123 914q-25 0 -40.5 -10t-26.5 -26v73q11 11 29 18.5t39 7.5
t40 -5t37.5 -10.5t37.5 -10.5t40 -5q46 0 69 36v-72q-11 -13 -29 -21t-41 -8q-21 0 -40 5t-37.5 11.5t-37.5 11.5t-40 5z" />
    <glyph glyph-name="utilde" unicode="&#x169;" horiz-adv-x="377" 
d="M230 599h103v-599h-96v39q-11 -22 -33 -33t-59 -11q-30 0 -50.5 5.5t-32.5 19.5t-17 37.5t-5 59.5v482h102v-472q0 -22 8 -31.5t34 -9.5q20 0 30 8.5t16 22.5v482zM111 723q-25 0 -40.5 -10t-26.5 -26v73q11 11 29 18.5t39 7.5t40 -5t37.5 -10.5t37.5 -10.5t40 -5
q46 0 69 36v-72q-11 -13 -29 -21t-41 -8q-21 0 -40 5t-37.5 11.5t-37.5 11.5t-40 5z" />
    <glyph glyph-name="Umacron" unicode="&#x16a;" horiz-adv-x="405" 
d="M203 -10q-50 0 -81.5 5.5t-49.5 23t-25 50.5t-7 88v633h115v-633q0 -21 2 -33.5t7.5 -19t15 -9t25.5 -2.5q15 0 24.5 2.5t14.5 9t7 19t2 33.5v633h112v-633q0 -55 -7 -88t-25 -50.5t-49.5 -23t-80.5 -5.5zM348 899h-292v61h292v-61z" />
    <glyph glyph-name="umacron" unicode="&#x16b;" horiz-adv-x="377" 
d="M230 599h103v-599h-96v39q-11 -22 -33 -33t-59 -11q-30 0 -50.5 5.5t-32.5 19.5t-17 37.5t-5 59.5v482h102v-472q0 -22 8 -31.5t34 -9.5q20 0 30 8.5t16 22.5v482zM336 708h-292v61h292v-61z" />
    <glyph glyph-name="Ubreve" unicode="&#x16c;" horiz-adv-x="405" 
d="M203 -10q-50 0 -81.5 5.5t-49.5 23t-25 50.5t-7 88v633h115v-633q0 -21 2 -33.5t7.5 -19t15 -9t25.5 -2.5q15 0 24.5 2.5t14.5 9t7 19t2 33.5v633h112v-633q0 -55 -7 -88t-25 -50.5t-49.5 -23t-80.5 -5.5zM202 833q-65 0 -106 38t-41 125h64q1 -32 7.5 -52t17.5 -31.5
t25.5 -15.5t32.5 -4t33 4t25.5 15.5t17 31.5t7.5 52h64q0 -87 -41 -125t-106 -38z" />
    <glyph glyph-name="ubreve" unicode="&#x16d;" horiz-adv-x="377" 
d="M230 599h103v-599h-96v39q-11 -22 -33 -33t-59 -11q-30 0 -50.5 5.5t-32.5 19.5t-17 37.5t-5 59.5v482h102v-472q0 -22 8 -31.5t34 -9.5q20 0 30 8.5t16 22.5v482zM188 642q-65 0 -106 38t-41 125h64q1 -32 7.5 -52t17.5 -31.5t25.5 -15.5t32.5 -4t33 4t25.5 15.5
t17 31.5t7.5 52h64q0 -87 -41 -125t-106 -38z" />
    <glyph glyph-name="Uring" unicode="&#x16e;" horiz-adv-x="405" 
d="M203 -10q-50 0 -81.5 5.5t-49.5 23t-25 50.5t-7 88v633h115v-633q0 -21 2 -33.5t7.5 -19t15 -9t25.5 -2.5q15 0 24.5 2.5t14.5 9t7 19t2 33.5v633h112v-633q0 -55 -7 -88t-25 -50.5t-49.5 -23t-80.5 -5.5zM284 888q0 -23 -3.5 -36t-12.5 -20.5t-25 -9.5t-41 -2t-40.5 2
t-24.5 9.5t-12.5 20.5t-3.5 36v40q0 22 3.5 35.5t12.5 21t24.5 9.5t40.5 2t41 -2t25 -9.5t12.5 -21t3.5 -35.5v-40zM242 924q0 20 -7.5 24.5t-32.5 4.5q-24 0 -31.5 -4.5t-7.5 -24.5v-32q0 -20 7.5 -24.5t31.5 -4.5q25 0 32.5 4.5t7.5 24.5v32z" />
    <glyph glyph-name="uring" unicode="&#x16f;" horiz-adv-x="377" 
d="M230 599h103v-599h-96v39q-11 -22 -33 -33t-59 -11q-30 0 -50.5 5.5t-32.5 19.5t-17 37.5t-5 59.5v482h102v-472q0 -22 8 -31.5t34 -9.5q20 0 30 8.5t16 22.5v482zM270 697q0 -23 -3.5 -36t-12.5 -20.5t-25 -9.5t-41 -2t-40.5 2t-24.5 9.5t-12.5 20.5t-3.5 36v40
q0 22 3.5 35.5t12.5 21t24.5 9.5t40.5 2t41 -2t25 -9.5t12.5 -21t3.5 -35.5v-40zM228 733q0 20 -7.5 24.5t-32.5 4.5q-24 0 -31.5 -4.5t-7.5 -24.5v-32q0 -20 7.5 -24.5t31.5 -4.5q25 0 32.5 4.5t7.5 24.5v32z" />
    <glyph glyph-name="Uhungarumlaut" unicode="&#x170;" horiz-adv-x="405" 
d="M203 -10q-50 0 -81.5 5.5t-49.5 23t-25 50.5t-7 88v633h115v-633q0 -21 2 -33.5t7.5 -19t15 -9t25.5 -2.5q15 0 24.5 2.5t14.5 9t7 19t2 33.5v633h112v-633q0 -55 -7 -88t-25 -50.5t-49.5 -23t-80.5 -5.5zM316 996h110l-97 -166h-77zM136 996h110l-95 -166h-78z" />
    <glyph glyph-name="uhungarumlaut" unicode="&#x171;" horiz-adv-x="377" 
d="M230 599h103v-599h-96v39q-11 -22 -33 -33t-59 -11q-30 0 -50.5 5.5t-32.5 19.5t-17 37.5t-5 59.5v482h102v-472q0 -22 8 -31.5t34 -9.5q20 0 30 8.5t16 22.5v482zM292 805h110l-97 -166h-77zM112 805h110l-95 -166h-78z" />
    <glyph glyph-name="Uogonek" unicode="&#x172;" horiz-adv-x="405" 
d="M203 -10q-50 0 -81.5 5.5t-49.5 23t-25 50.5t-7 88v633h115v-633q0 -21 2 -33.5t7.5 -19t15 -9t25.5 -2.5q15 0 24.5 2.5t14.5 9t7 19t2 33.5v633h112v-633q0 -38 -3 -64.5t-10.5 -44.5t-20.5 -29.5t-32 -18.5q-35 -13 -47 -29.5t-12 -42.5q0 -17 9 -24.5t30 -7.5h36v-81
h-78q-26 0 -42 6.5t-26 18t-13.5 26t-3.5 31.5q0 37 17 57.5t55 35.5h-21v0z" />
    <glyph glyph-name="uogonek" unicode="&#x173;" horiz-adv-x="377" 
d="M230 599h103v-599q-34 -16 -47.5 -31t-13.5 -41q0 -17 9 -24.5t30 -7.5h36v-81h-78q-26 0 -42 6.5t-26 18t-13.5 26t-3.5 31.5q0 32 12.5 51.5t40.5 33.5v57q-11 -22 -33 -33t-59 -11q-30 0 -50.5 5.5t-32.5 19.5t-17 37.5t-5 59.5v482h102v-472q0 -22 8 -31.5t34 -9.5
q20 0 30 8.5t16 22.5v482z" />
    <glyph glyph-name="Wcircumflex" unicode="&#x174;" horiz-adv-x="579" 
d="M124 790l33 -621h4l53 621h147l45 -621h4l43 621h116l-92 -790h-146l-42 627h-4l-55 -627h-148l-73 790h115zM434 830h-72l-73 109l-73 -109h-72l102 166h87z" />
    <glyph glyph-name="wcircumflex" unicode="&#x175;" horiz-adv-x="536" 
d="M114 599l31 -448h4l51 448h133l46 -448h4l37 448h109l-83 -599h-138l-40 455h-4l-51 -455h-139l-69 599h109zM413 639h-72l-73 109l-73 -109h-72l102 166h87z" />
    <glyph glyph-name="Ycircumflex" unicode="&#x176;" horiz-adv-x="354" 
d="M350 790l-118 -511v-279h-115v279l-114 511h114l57 -357h4l60 357h112zM322 830h-72l-73 109l-73 -109h-72l102 166h87z" />
    <glyph glyph-name="ycircumflex" unicode="&#x177;" horiz-adv-x="380" 
d="M233 599h102v-609q0 -73 -32 -108t-108 -35h-134v86h109q34 0 47.5 11.5t13.5 45.5v77q-11 -20 -32.5 -30.5t-55.5 -10.5q-30 0 -49.5 5.5t-31.5 19.5t-17 37.5t-5 59.5v451h102v-432q0 -30 10 -40t36 -10q17 0 27.5 8.5t17.5 22.5v451zM335 639h-72l-73 109l-73 -109
h-72l102 166h87z" />
    <glyph glyph-name="Ydieresis" unicode="&#x178;" horiz-adv-x="354" 
d="M350 790l-118 -511v-279h-115v279l-114 511h114l57 -357h4l60 357h112zM319 877h-102v104h102v-104zM138 877h-101v104h101v-104z" />
    <glyph glyph-name="Zacute" unicode="&#x179;" horiz-adv-x="314" 
d="M295 0h-277v100l159 594h-143v96h259v-78l-155 -613h157v-99zM173 996h110l-95 -166h-78z" />
    <glyph glyph-name="zacute" unicode="&#x17a;" horiz-adv-x="301" 
d="M284 0h-269v87l165 429h-147v83h248v-77l-160 -436h163v-86zM167 805h110l-95 -166h-78z" />
    <glyph glyph-name="Zdotaccent" unicode="&#x17b;" horiz-adv-x="314" 
d="M295 0h-277v100l159 594h-143v96h259v-78l-155 -613h157v-99zM217 877h-101v104h101v-104z" />
    <glyph glyph-name="zdotaccent" unicode="&#x17c;" horiz-adv-x="301" 
d="M284 0h-269v87l165 429h-147v83h248v-77l-160 -436h163v-86zM211 686h-101v104h101v-104z" />
    <glyph glyph-name="Zcaron" unicode="&#x17d;" horiz-adv-x="314" 
d="M295 0h-277v100l159 594h-143v96h259v-78l-155 -613h157v-99zM22 996h72l73 -109l73 109h72l-102 -166h-86z" />
    <glyph glyph-name="zcaron" unicode="&#x17e;" horiz-adv-x="301" 
d="M284 0h-269v87l165 429h-147v83h248v-77l-160 -436h163v-86zM16 805h72l73 -109l73 109h72l-102 -166h-86z" />
    <glyph glyph-name="florin" unicode="&#x192;" horiz-adv-x="270" 
d="M78 516h-33v83h33v64q0 66 32.5 96.5t113.5 30.5h32v-76h-20q-31 0 -43 -12t-12 -44v-59h75v-83h-75v-542q0 -66 -32.5 -96.5t-113.5 -30.5h-32v76h20q33 0 44 12.5t11 47.5v533z" />
    <glyph glyph-name="uni0218" unicode="&#x218;" horiz-adv-x="397" 
d="M247 534v98q0 21 -1.5 34t-6.5 19.5t-15 9t-26 2.5q-17 0 -26.5 -2.5t-14.5 -9t-6.5 -19.5t-1.5 -34v-78q0 -15 2 -25t8.5 -18t19 -16t34.5 -19q52 -27 82 -46t45 -38.5t19 -44t4 -63.5v-127q0 -55 -6.5 -88t-24.5 -50.5t-50.5 -23t-83.5 -5.5q-48 0 -79 5.5t-49 23
t-25 50.5t-7 88v157h112v-157q0 -21 1.5 -33.5t6.5 -19.5t14.5 -9.5t25.5 -2.5q32 0 40.5 12t8.5 53v119q0 20 -1.5 33t-8 23t-19.5 18.5t-35 20.5q-52 27 -81.5 46t-44.5 38.5t-19 43t-4 57.5v76q0 55 6.5 88t24.5 51t50 23.5t83 5.5q50 0 81.5 -5.5t49 -23.5t24 -51
t6.5 -88v-98h-112zM151 -20h102l-82 -165h-71z" />
    <glyph glyph-name="uni0219" unicode="&#x219;" horiz-adv-x="355" 
d="M221 426v45q0 26 -7.5 34.5t-35.5 8.5q-29 0 -36.5 -8.5t-7.5 -34.5v-48q0 -12 1.5 -20t6.5 -15t15.5 -13t27.5 -13q22 -9 38.5 -17t30.5 -15q22 -11 35 -21.5t20 -22.5t9 -25.5t2 -31.5v-111q0 -42 -5.5 -67.5t-21 -39t-43 -17.5t-72.5 -4q-44 0 -72 4t-44 17.5t-22 39
t-6 67.5v92h100v-81q0 -27 8 -35.5t36 -8.5q29 0 36 9t7 35v73q0 13 -2 22t-8.5 16t-18.5 13.5t-33 14.5q-20 8 -35.5 15t-27.5 13q-19 10 -31 20t-19 23t-9.5 29.5t-2.5 39.5v73q0 42 6 67.5t21.5 39t43.5 17.5t73 4q44 0 72 -4t43.5 -17.5t21 -39t5.5 -67.5v-55h-99z
M126 -20h102l-82 -165h-71z" />
    <glyph glyph-name="uni021A" unicode="&#x21a;" horiz-adv-x="313" 
d="M300 694h-86v-694h-115v694h-87v96h288v-96zM106 -20h102l-82 -165h-71z" />
    <glyph glyph-name="uni021B" unicode="&#x21b;" horiz-adv-x="241" 
d="M218 516h-70v-376q0 -31 10 -42t40 -11h19v-87h-26q-41 0 -69 7.5t-45 23t-24 39.5t-7 57v389h-37v83h37v182h102v-182h70v-83zM85 -20h102l-82 -165h-71z" />
    <glyph glyph-name="uni0237" unicode="&#x237;" horiz-adv-x="194" 
d="M48 599h102v-609q0 -72 -32.5 -107.5t-109.5 -35.5h-56v86h48q26 0 37 12.5t11 44.5v609z" />
    <glyph glyph-name="circumflex" unicode="&#x2c6;" horiz-adv-x="320" 
d="M304 639h-72l-73 109l-73 -109h-72l102 166h87z" />
    <glyph glyph-name="caron" unicode="&#x2c7;" horiz-adv-x="320" 
d="M14 805h72l73 -109l73 109h72l-102 -166h-86z" />
    <glyph glyph-name="breve" unicode="&#x2d8;" horiz-adv-x="319" 
d="M159 642q-65 0 -106 38t-41 125h64q1 -32 7.5 -52t17.5 -31.5t25.5 -15.5t32.5 -4t33 4t25.5 15.5t17 31.5t7.5 52h64q0 -87 -41 -125t-106 -38z" />
    <glyph glyph-name="dotaccent" unicode="&#x2d9;" horiz-adv-x="194" 
d="M147 686h-101v104h101v-104z" />
    <glyph glyph-name="ring" unicode="&#x2da;" horiz-adv-x="255" 
d="M209 697q0 -23 -3.5 -36t-12.5 -20.5t-25 -9.5t-41 -2t-40.5 2t-24.5 9.5t-12.5 20.5t-3.5 36v40q0 22 3.5 35.5t12.5 21t24.5 9.5t40.5 2t41 -2t25 -9.5t12.5 -21t3.5 -35.5v-40zM167 733q0 20 -7.5 24.5t-32.5 4.5q-24 0 -31.5 -4.5t-7.5 -24.5v-32q0 -20 7.5 -24.5
t31.5 -4.5q25 0 32.5 4.5t7.5 24.5v32z" />
    <glyph glyph-name="ogonek" unicode="&#x2db;" horiz-adv-x="251" 
d="M195 0q-34 -16 -47.5 -31t-13.5 -41q0 -17 9 -24.5t30 -7.5h36v-81h-78q-26 0 -42 6.5t-26 18t-13.5 26t-3.5 31.5q0 43 23 64.5t77 38.5h49z" />
    <glyph glyph-name="tilde" unicode="&#x2dc;" horiz-adv-x="385" 
d="M113 723q-25 0 -40.5 -10t-26.5 -26v73q11 11 29 18.5t39 7.5t40 -5t37.5 -10.5t37.5 -10.5t40 -5q46 0 69 36v-72q-11 -13 -29 -21t-41 -8q-21 0 -40 5t-37.5 11.5t-37.5 11.5t-40 5z" />
    <glyph glyph-name="hungarumlaut" unicode="&#x2dd;" horiz-adv-x="381" 
d="M257 805h110l-97 -166h-77zM77 805h110l-95 -166h-78z" />
    <glyph glyph-name="acutecomb" unicode="&#x301;" horiz-adv-x="0" 
d="M-264 805h110l-95 -166h-78z" />
    <glyph glyph-name="uni0394" unicode="&#x394;" horiz-adv-x="382" 
d="M278 790l90 -790h-356l99 790h167zM135 100h111l-51 546h-4z" />
    <glyph glyph-name="uni03A9" unicode="&#x3a9;" 
d="M36 99h72q-17 16 -30.5 35t-22.5 43t-14 55t-5 70v332q0 55 6.5 87.5t25 50t50.5 23t83 5.5t83 -5.5t50.5 -23t25 -50t6.5 -87.5v-332q0 -39 -4.5 -70t-14 -55t-23 -43t-31.5 -35h73v-99h-152v105q20 20 28 65t8 127v337q0 20 -2 32.5t-7 19.5t-15 9.5t-25 2.5
q-16 0 -25.5 -2.5t-15 -9.5t-7.5 -19.5t-2 -32.5v-337q0 -82 7.5 -127t28.5 -65v-105h-151v99z" />
    <glyph glyph-name="theta" unicode="&#x3b8;" horiz-adv-x="400" 
d="M249 378v256q0 40 -9 51.5t-40 11.5q-16 0 -25.5 -2.5t-15 -9.5t-7 -19.5t-1.5 -31.5v-256h98zM151 288v-131q0 -21 1.5 -33.5t7 -19.5t15 -9.5t25.5 -2.5t25.5 2.5t15 10t7 20t1.5 32.5v131h-98zM365 157q0 -55 -6.5 -88t-25 -50.5t-50.5 -23t-83 -5.5t-83 5.5t-50 23
t-24.5 50.5t-6.5 88v477q0 55 6.5 87.5t24.5 50t50 23t83 5.5t83 -5.5t50.5 -23t25 -50t6.5 -87.5v-477z" />
    <glyph glyph-name="uni03BC" unicode="&#x3bc;" horiz-adv-x="377" 
d="M40 -153v752h102v-472q0 -22 8 -31.5t34 -9.5q20 0 30 8.5t16 22.5v482h103v-599h-96v39q-11 -23 -33.5 -33t-59.5 -10q-13 0 -19 2l9 -151h-94z" />
    <glyph glyph-name="nu" unicode="&#x3bd;" horiz-adv-x="326" 
d="M78 0l-72 599h107l46 -455h4l50 455h106l-81 -599h-160z" />
    <glyph glyph-name="omicron" unicode="&#x3bf;" horiz-adv-x="359" 
d="M322 117q0 -42 -6 -67t-21.5 -38.5t-43.5 -17.5t-72 -4t-72 4t-44 17.5t-21.5 38.5t-5.5 67v365q0 42 5.5 67t21.5 38.5t44 17.5t72 4t72 -4t43.5 -17.5t21.5 -38.5t6 -67v-365zM223 471q0 26 -8 34t-36 8t-36 -8.5t-8 -33.5v-344q0 -26 8 -34.5t36 -8.5q29 0 36.5 9.5
t7.5 33.5v344z" />
    <glyph glyph-name="pi" unicode="&#x3c0;" horiz-adv-x="414" 
d="M329 139q0 -30 9.5 -41t41.5 -11h18v-87h-26q-80 0 -113 30.5t-33 96.5v389h-79v-516h-101v599h283v-460z" />
    <glyph glyph-name="sigma1" unicode="&#x3c2;" horiz-adv-x="355" 
d="M221 426v45q0 26 -7.5 34.5t-35.5 8.5q-29 0 -36.5 -8.5t-7.5 -34.5v-48q0 -12 1.5 -20t6.5 -15t15.5 -13t27.5 -13q22 -9 38.5 -17t30.5 -15q22 -11 35 -21.5t20 -22.5t9 -25.5t2 -31.5v-111q0 -42 -5.5 -67.5t-21 -39t-43 -17.5t-72.5 -4q-44 0 -72 4t-44 17.5t-22 39
t-6 67.5v92h100v-81q0 -27 8 -35.5t36 -8.5q29 0 36 9t7 35v73q0 13 -2 22t-8.5 16t-18.5 13.5t-33 14.5q-20 8 -35.5 15t-27.5 13q-19 10 -31 20t-19 23t-9.5 29.5t-2.5 39.5v73q0 42 6 67.5t21.5 39t43.5 17.5t73 4q44 0 72 -4t43.5 -17.5t21 -39t5.5 -67.5v-55h-99z" />
    <glyph glyph-name="uni0401" unicode="&#x401;" horiz-adv-x="289" 
d="M262 0h-226v790h225v-95h-110v-115h107v-91h-107v-390h111v-99zM290 815h-102v104h102v-104zM109 815h-101v104h101v-104z" />
    <glyph glyph-name="uni0410" unicode="&#x410;" 
d="M247 0v176h-97v-176h-112v634q0 55 6.5 87.5t24.5 50t49.5 23t80.5 5.5t80.5 -6t50 -24t25.5 -50.5t7 -85.5v-634h-115zM198 697q-15 0 -24.5 -2.5t-15 -9t-7 -19t-1.5 -32.5v-364h97v364q0 20 -2 32.5t-7 19t-15 9t-25 2.5z" />
    <glyph glyph-name="uni0411" unicode="&#x411;" horiz-adv-x="411" 
d="M44 0v790h289v-100h-174v-199h49q50 0 82 -5t50.5 -22t25.5 -49t7 -85v-169q0 -53 -6.5 -84.5t-25 -48.5t-50.5 -22.5t-83 -5.5h-164zM159 100h49q17 0 26.5 2.5t14.5 9t6.5 18.5t1.5 31v173q0 20 -2 32.5t-7 19.5t-15 9.5t-25 2.5h-49v-298z" />
    <glyph glyph-name="uni0412" unicode="&#x412;" horiz-adv-x="407" 
d="M302 458q16 -4 29 -11t22.5 -21.5t14.5 -37.5t5 -59v-167q0 -53 -6.5 -85t-25 -49t-50.5 -22.5t-83 -5.5h-164v790h164q51 0 83 -5.5t50.5 -22.5t25 -48.5t6.5 -84.5v-59q0 -31 -7.5 -51t-18 -32t-23 -18t-22.5 -7v-4zM159 99h49q16 0 25.5 2.5t14.5 9t7 19t2 32.5v193
q0 33 -8 45.5t-38 12.5h-52v-314zM159 504h52q28 0 37 11t9 40v74q0 18 -1.5 30t-6.5 19t-15 9.5t-26 2.5h-49v-186z" />
    <glyph glyph-name="uni0413" unicode="&#x413;" horiz-adv-x="320" 
d="M44 0v790h230v-95h-115v-695h-115z" />
    <glyph glyph-name="uni0414" unicode="&#x414;" horiz-adv-x="462" 
d="M162 100h111l-51 546h-4zM384 100h53v-186h-102v86h-213v-86h-102v186h32l86 690h167z" />
    <glyph glyph-name="uni0415" unicode="&#x415;" horiz-adv-x="294" 
d="M270 0h-226v790h225v-95h-110v-115h107v-91h-107v-390h111v-99z" />
    <glyph glyph-name="uni0416" unicode="&#x416;" horiz-adv-x="680" 
d="M283 0v415h-5l-109 -415h-125l134 462l-118 328h121l97 -299h5v298h119v-298h5l97 299h121l-118 -328l134 -462h-125l-109 415h-5v-415h-119z" />
    <glyph glyph-name="uni0417" unicode="&#x417;" horiz-adv-x="398" 
d="M143 308v-153q0 -38 10 -50t39 -12q30 0 39 13.5t9 48.5v135q0 25 -1 41.5t-5.5 26.5t-14 14t-26.5 4h-66v104h66q31 0 39 11.5t8 40.5v103q0 20 -2 32t-7.5 19t-15 9t-24.5 2q-18 0 -27.5 -3t-14 -10.5t-5.5 -19.5t-1 -29v-93h-110v93q0 54 6.5 87t24 50t48.5 22.5
t79 5.5q51 0 83 -5.5t50.5 -23t25 -49.5t6.5 -85v-99q0 -31 -6.5 -50.5t-17 -31.5t-23 -17.5t-24.5 -8.5v-4q16 -3 29 -10t22.5 -22t14.5 -39.5t5 -63.5v-138q0 -53 -6.5 -85.5t-25 -49.5t-50.5 -22.5t-83 -5.5q-48 0 -79 5.5t-48.5 22.5t-24 50t-6.5 87v153h110z" />
    <glyph glyph-name="uni0418" unicode="&#x418;" horiz-adv-x="453" 
d="M44 0v790h100v-507h4l114 507h127v-790h-99v493h-4l-119 -493h-123z" />
    <glyph glyph-name="uni0419" unicode="&#x419;" horiz-adv-x="453" 
d="M44 0v790h100v-507h4l114 507h127v-790h-99v493h-4l-119 -493h-123zM217 833q-65 0 -106 38t-41 125h64q1 -32 7.5 -52t17.5 -31.5t25.5 -15.5t32.5 -4t33 4t25.5 15.5t17 31.5t7.5 52h64q0 -87 -41 -125t-106 -38z" />
    <glyph glyph-name="uni041A" unicode="&#x41a;" horiz-adv-x="406" 
d="M383 790l-118 -328l134 -462h-125l-109 415h-5v-415h-116v789h116v-298h5l97 299h121z" />
    <glyph glyph-name="uni041B" unicode="&#x41b;" horiz-adv-x="426" 
d="M192 690v-533q0 -55 -6.5 -88t-24 -50.5t-49 -23t-81.5 -5.5h-7v102h5q30 0 38.5 12.5t8.5 52.5v633h322v-790h-115v690h-91z" />
    <glyph glyph-name="uni041C" unicode="&#x41c;" horiz-adv-x="535" 
d="M490 790v-790h-94v558h-4l-73 -558h-103l-73 562h-4v-562h-95v790h161l60 -531h4l61 531h160z" />
    <glyph glyph-name="uni041D" unicode="&#x41d;" horiz-adv-x="419" 
d="M375 0h-116v432h-100v-432h-115v790h115v-261h100v261h116v-790z" />
    <glyph glyph-name="uni041E" unicode="&#x41e;" 
d="M365 157q0 -55 -6.5 -88t-25 -50.5t-50.5 -23t-83 -5.5t-83 5.5t-50 23t-24.5 50.5t-6.5 88v477q0 55 6.5 87.5t24.5 50t50 23t83 5.5t83 -5.5t50.5 -23t25 -50t6.5 -87.5v-477zM249 634q0 40 -9 51.5t-40 11.5q-16 0 -25.5 -2.5t-15 -9.5t-7 -19.5t-1.5 -31.5v-477
q0 -21 1.5 -33.5t7 -19.5t15 -9.5t25.5 -2.5t25.5 2.5t15 10t7 20t1.5 32.5v477z" />
    <glyph glyph-name="uni041F" unicode="&#x41f;" horiz-adv-x="419" 
d="M375 0h-116v696h-100v-696h-115v790h331v-790z" />
    <glyph glyph-name="uni0420" unicode="&#x420;" horiz-adv-x="397" 
d="M159 299v-299h-115v790h164q51 0 83 -5.5t50.5 -22.5t25 -48.5t6.5 -84.5v-169q0 -53 -7 -85t-25.5 -49t-50.5 -22t-82 -5h-49zM159 690v-298h49q15 0 25 2.5t15 9.5t7 19.5t2 32.5v173q0 19 -1.5 31t-6.5 18.5t-14.5 9t-26.5 2.5h-49z" />
    <glyph glyph-name="uni0421" unicode="&#x421;" horiz-adv-x="395" 
d="M248 455v179q0 20 -1.5 32.5t-7 19t-15 9t-24.5 2.5q-16 0 -25.5 -2.5t-15 -9.5t-7 -19.5t-1.5 -31.5v-477q0 -21 1.5 -33.5t7 -19.5t15 -9.5t25.5 -2.5q15 0 24.5 2.5t15 9.5t7 19.5t1.5 33.5v183h111v-183q0 -55 -6.5 -88t-24.5 -50.5t-49 -23t-79 -5.5q-51 0 -83 5.5
t-50 23t-24.5 50.5t-6.5 88v477q0 54 7 87t25.5 50.5t50.5 23t81 5.5q48 0 79 -5.5t49 -23t24.5 -50t6.5 -87.5v-179h-111z" />
    <glyph glyph-name="uni0422" unicode="&#x422;" horiz-adv-x="313" 
d="M300 694h-86v-694h-115v694h-87v96h288v-96z" />
    <glyph glyph-name="uni0423" unicode="&#x423;" 
d="M249 790h116v-634q0 -108 -31 -138q-30 -28 -134 -28q-99 0 -127 28q-31 31 -31 138v61h110v-61q0 -40 9 -52t39 -12q31 0 41 13q8 12 8 51v143h-99q-70 0 -93 37q-21 33 -21 130v324h115v-298q0 -66 6 -81q7 -20 39 -20h53v399z" />
    <glyph glyph-name="uni0424" unicode="&#x424;" horiz-adv-x="603" 
d="M365 636v-359h49q32 0 40 11q9 11 9 53v234q0 40 -9 51q-9 10 -40 10h-49zM201 636q-31 0 -40 -10q-9 -11 -9 -51v-234q0 -42 9 -53q8 -11 40 -11h49v359h-49zM365 736h49q104 0 134 -28q31 -29 31 -133v-230q0 -104 -31 -133q-30 -28 -134 -28h-49v-184h-115v184h-49
q-104 0 -134 28q-31 29 -31 133v230q0 104 31 133q30 28 134 28h49v54h115v-54z" />
    <glyph glyph-name="uni0425" unicode="&#x425;" horiz-adv-x="378" 
d="M356 790l-80 -376l94 -414h-119l-66 353l-64 -353h-115l90 414l-84 376h118l63 -303l56 303h107z" />
    <glyph glyph-name="uni0426" unicode="&#x426;" horiz-adv-x="450" 
d="M375 94h40v-255h-98v161h-273v790h115v-696h100v696h116v-696z" />
    <glyph glyph-name="uni0427" unicode="&#x427;" horiz-adv-x="386" 
d="M239 0v320q-22 -2 -49 -2q-50 0 -81.5 5.5t-49.5 23t-25 50.5t-7 88v305h115v-305q0 -21 2 -33.5t7.5 -19t15 -9t25.5 -2.5q15 0 24.5 2.5t14.5 9t7 19.5q1 3 1 8v330h116v-790h-116z" />
    <glyph glyph-name="uni0428" unicode="&#x428;" horiz-adv-x="635" 
d="M375 790v-691h99v691h116v-790h-546v790h115v-691h100v691h116z" />
    <glyph glyph-name="uni0429" unicode="&#x429;" horiz-adv-x="658" 
d="M44 0v790h115v-691h100v691h116v-691h99v691h116v-691h57v-174h-115v75h-488z" />
    <glyph glyph-name="uni042A" unicode="&#x42a;" horiz-adv-x="452" 
d="M263 100q33 0 41 11t8 50v173q0 40 -9 52t-40 12h-49v-298h49zM214 790v-299h49q103 0 133 -27q32 -30 32 -134v-169q0 -104 -31 -133q-30 -28 -134 -28h-164v694h-87v96h202z" />
    <glyph glyph-name="uni042B" unicode="&#x42b;" horiz-adv-x="578" 
d="M209 100q17 0 26.5 2.5t14.5 9t6.5 18.5t1.5 31v173q0 20 -2 32.5t-7 19.5t-15 9.5t-25 2.5h-49v-298h49zM209 491q50 0 82 -5t50.5 -22t25.5 -49t7 -85v-169q0 -53 -6.5 -84.5t-25 -48.5t-50.5 -22.5t-83 -5.5h-164v790h115v-299h49zM529 0h-115v790h115v-790z" />
    <glyph glyph-name="uni042C" unicode="&#x42c;" horiz-adv-x="397" 
d="M208 491q50 0 82 -5t50.5 -22t25.5 -49t7 -85v-169q0 -53 -6.5 -84.5t-25 -48.5t-50.5 -22.5t-83 -5.5h-164v790h115v-299h49zM208 100q17 0 26.5 2.5t14.5 9t6.5 18.5t1.5 31v173q0 20 -2 32.5t-7 19.5t-15 9.5t-25 2.5h-49v-298h49z" />
    <glyph glyph-name="uni042D" unicode="&#x42d;" horiz-adv-x="396" 
d="M145 438v91h107v96q0 46 -6 58q-9 17 -43 17q-30 0 -39 -12q-9 -11 -9 -51v-46h-111v43q0 107 31 138q29 28 128 28q101 0 131 -29q33 -31 33 -137v-477q0 -108 -31 -139q-29 -28 -133 -28q-99 0 -128 28q-31 31 -31 139v150h111v-154q0 -41 8 -52q9 -12 40 -12
q34 0 42 14q7 12 7 62v273h-107z" />
    <glyph glyph-name="uni042E" unicode="&#x42e;" horiz-adv-x="625" 
d="M472 634q0 41 -9 52q-8 11 -40 11q-31 0 -40 -12t-9 -51v-477q0 -41 9 -53t40 -12q32 0 41 13q8 11 8 52v477zM259 432h-100v-432h-115v790h115v-261h100v105q0 108 31 138q29 28 133 28t134 -28q31 -30 31 -138v-477q0 -108 -31 -139q-30 -28 -134 -28t-133 28
q-31 31 -31 139v275z" />
    <glyph glyph-name="uni042F" unicode="&#x42f;" horiz-adv-x="422" 
d="M258 690h-49q-16 0 -26 -2.5t-15 -9.5t-6.5 -18.5t-1.5 -30.5v-97q0 -29 9 -40t37 -11h52v209zM258 390h-52q-30 0 -38 -12.5t-8 -44.5v-333h-116v315q0 33 5 54t14.5 34.5t22.5 20t29 10.5v4q-12 3 -24.5 8.5t-23 17.5t-17 31.5t-6.5 50.5v83q0 52 6.5 83.5t25 49
t50.5 23t83 5.5h164v-790h-115v390z" />
    <glyph glyph-name="uni0430" unicode="&#x430;" horiz-adv-x="355" 
d="M162 -10q-38 0 -62.5 4t-38.5 16t-19.5 35t-5.5 61v145q0 54 20.5 79t70.5 25h19q34 0 48 -2.5t21 -6.5v124q0 33 -8.5 42.5t-36.5 9.5q-27 0 -34 -11t-7 -41v-59h-93v71q0 42 5.5 67t20.5 38.5t41 17.5t67 4q45 0 73 -4t43.5 -17.5t21.5 -38.5t6 -67v-482
q-18 -5 -55 -7.5t-97 -2.5zM170 74q22 0 32 0.5t13 1.5v196q-7 4 -17 5t-27 1q-29 0 -35.5 -11t-6.5 -42v-94q0 -17 1 -28t5 -17.5t12.5 -9t22.5 -2.5z" />
    <glyph glyph-name="uni0431" unicode="&#x431;" horiz-adv-x="367" 
d="M143 127q0 -26 8 -35q9 -8 36 -8t36 10q8 8 8 33v335q0 30 -9 40q-8 10 -34 10q-32 0 -45 -31v-354zM44 640q0 74 32 108q33 35 108 35h134v-86h-111q-34 0 -47 -12q-14 -12 -14 -45v-78q24 42 87 42q57 0 78 -27q19 -26 19 -95v-365q0 -82 -28 -105q-25 -22 -115 -22
t-116 22q-27 23 -27 105v523z" />
    <glyph glyph-name="uni0432" unicode="&#x432;" horiz-adv-x="355" 
d="M180 74q27 0 35 11q6 10 6 46v95q0 33 -6 42q-8 11 -36 11q-33 0 -44 -6v-197q8 -2 45 -2zM135 523v-156q11 -6 44 -6q28 0 36 11q6 9 6 42v54q0 36 -6 46q-8 11 -35 11q-37 0 -45 -2zM314 106q0 -74 -25 -96q-23 -20 -101 -20q-112 0 -152 10v599q40 10 152 10
q78 0 101 -20q25 -22 25 -96v-73q0 -92 -65 -98v-4q65 -6 65 -98v-114z" />
    <glyph glyph-name="uni0433" unicode="&#x433;" horiz-adv-x="285" 
d="M142 0v-1h-100v600h212v-86h-111v-513h-1z" />
    <glyph glyph-name="uni0434" unicode="&#x434;" horiz-adv-x="389" 
d="M152 82h83l-41 373h-4zM339 82h37v-156h-99v74h-162v-74h-99v156h31l62 517h160z" />
    <glyph glyph-name="uni0435" unicode="&#x435;" horiz-adv-x="351" 
d="M136 264v-141q0 -29 7.5 -37.5t35.5 -8.5q27 0 35 8.5t8 37.5v81h92v-87q0 -42 -5.5 -67t-20.5 -38.5t-41 -17.5t-68 -4q-44 0 -72 4t-44 17.5t-21.5 38.5t-5.5 67v365q0 42 5.5 67t21.5 38.5t44 17.5t72 4q42 0 68 -4t41 -17.5t20.5 -38.5t5.5 -67v-218h-178zM136 346
h86v128q0 29 -8 37t-35 8q-28 0 -35.5 -8t-7.5 -37v-128z" />
    <glyph glyph-name="uni0436" unicode="&#x436;" horiz-adv-x="539" 
d="M319 378h4l84 221h111l-109 -250l122 -349h-114l-94 308h-4v-308h-101v308h-4l-94 -308h-114l122 349l-109 250h111l84 -221h4v221h101v-221z" />
    <glyph glyph-name="uni0437" unicode="&#x437;" horiz-adv-x="355" 
d="M221 226q0 33 -6 42q-8 11 -36 11h-79v82h79q28 0 36 11q6 9 6 42v57q0 27 -7 35q-8 8 -37 8q-27 0 -35 -8t-8 -35v-45h-99v55q0 83 27 106q25 22 115 22q91 0 117 -22q27 -23 27 -106v-61q0 -92 -65 -98v-4q65 -6 65 -98v-102q0 -84 -26 -106q-25 -22 -116 -22
q-92 0 -117 22q-28 23 -28 106v92h100v-81q0 -27 8 -35q8 -9 36 -9t36 9q7 8 7 35v97z" />
    <glyph glyph-name="uni0438" unicode="&#x438;" horiz-adv-x="375" 
d="M134 599v-345l105 345h103v-599h-91v345l-115 -345h-103v599h101z" />
    <glyph glyph-name="uni0439" unicode="&#x439;" horiz-adv-x="373" 
d="M185 612q-45 0 -72.5 26t-27.5 85h43q1 -22 5.5 -35.5t12 -21t17 -10.5t22.5 -3q12 0 22 3t17.5 10.5t12 21t4.5 35.5h44q0 -59 -28 -85t-72 -26zM134 599v-345l105 345h103v-599h-91v345l-115 -345h-103v599h101z" />
    <glyph glyph-name="uni043A" unicode="&#x43a;" horiz-adv-x="365" 
d="M243 0l-94 308h-4v-308h-101v599h101v-221h4l84 221h111l-109 -250l122 -349h-114z" />
    <glyph glyph-name="uni043B" unicode="&#x43b;" horiz-adv-x="380" 
d="M243 504h-59l-26 -429l-1 -16q0 -7 -4 -18q-6 -20 -27 -37t-74 -17l-34 -1v87h2q14 0 22 5.5t11 14.5l4 9l1 7l25 490h261v-599h-101v504z" />
    <glyph glyph-name="uni043C" unicode="&#x43c;" horiz-adv-x="573" 
d="M242 0l-92 426h-4v-426h-102v599h156l86 -403h4l86 403h156v-599h-102v426h-4l-92 -426h-92z" />
    <glyph glyph-name="uni043D" unicode="&#x43d;" horiz-adv-x="380" 
d="M146 264v-264h-102v599h102v-253h91v253h102v-599h-102v264h-91z" />
    <glyph glyph-name="uni043E" unicode="&#x43e;" horiz-adv-x="359" 
d="M223 471q0 26 -8 34t-36 8t-36 -8.5t-8 -33.5v-344q0 -26 8 -34.5t36 -8.5q29 0 36.5 9.5t7.5 33.5v344zM322 117q0 -42 -6 -67t-21.5 -38.5t-43.5 -17.5t-72 -4t-72 4t-44 17.5t-21.5 38.5t-5.5 67v365q0 42 5.5 67t21.5 38.5t44 17.5t72 4t72 -4t43.5 -17.5t21.5 -38.5
t6 -67v-365z" />
    <glyph glyph-name="uni043F" unicode="&#x43f;" horiz-adv-x="380" 
d="M146 0h-102v599h95v-40q11 22 33.5 33.5t60.5 11.5q30 0 50.5 -6t33 -20t17.5 -37.5t5 -58.5v-482h-102v471q0 23 -9 32t-35 9q-20 0 -30.5 -8.5t-16.5 -22.5v-481z" />
    <glyph glyph-name="uni0440" unicode="&#x440;" horiz-adv-x="367" 
d="M330 117q0 -36 -4 -59.5t-15 -37.5t-29.5 -19.5t-48.5 -5.5q-35 0 -55.5 10.5t-31.5 30.5v-189h-102v752h95v-44q13 26 35 37.5t58 11.5q30 0 49 -6t30 -20t15 -37.5t4 -58.5v-365zM143 117q13 -31 45 -31q26 0 34.5 10t8.5 40v326q0 30 -8.5 40t-34.5 10q-32 0 -45 -31
v-364z" />
    <glyph glyph-name="uni0441" unicode="&#x441;" horiz-adv-x="349" 
d="M221 377v94q0 26 -8 34t-34 8q-29 0 -36.5 -8t-7.5 -34v-344q0 -26 8 -34.5t36 -8.5q26 0 34 9.5t8 33.5v155h93v-165q0 -42 -6 -67.5t-21.5 -38.5t-41.5 -17t-66 -4q-45 0 -72.5 4.5t-43.5 18t-21.5 38.5t-5.5 66v365q0 42 6 67t21.5 38.5t43.5 17.5t72 4q42 0 68.5 -5
t41.5 -18.5t20 -38.5t5 -65v-105h-93z" />
    <glyph glyph-name="uni0442" unicode="&#x442;" horiz-adv-x="245" 
d="M235 599v-92h-61v-507h-3v-2h-97v2h-1v507h-64v92h226z" />
    <glyph glyph-name="uni0443" unicode="&#x443;" horiz-adv-x="380" 
d="M233 599h102v-609q0 -73 -32 -108t-108 -35h-134v86h109q34 0 47.5 11.5t13.5 45.5v77q-11 -20 -32.5 -30.5t-55.5 -10.5q-30 0 -49.5 5.5t-31.5 19.5t-17 37.5t-5 59.5v451h102v-432q0 -30 10 -40t36 -10q17 0 27.5 8.5t17.5 22.5v451z" />
    <glyph glyph-name="uni0444" unicode="&#x444;" horiz-adv-x="561" 
d="M222 481q-13 31 -45 31q-26 0 -34 -10t-8 -40v-326q0 -30 8 -40t34 -10q32 0 45 31v364zM327 117q13 -31 45 -31q26 0 34.5 10t8.5 40v326q0 30 -8.5 40t-34.5 10q-32 0 -45 -31v-364zM228 0h-1v43q-14 -26 -35.5 -37t-57.5 -11q-30 0 -49 5.5t-30 19.5t-15 37.5t-4 59.5
v365q0 35 4 58.5t15 37.5t29.5 20t48.5 6q34 0 54.5 -11t31.5 -31v228h103v-191h1v-44q13 26 35 37.5t58 11.5q30 0 49 -6t30 -20t15 -37.5t4 -58.5v-365q0 -36 -4 -59.5t-15 -37.5t-29.5 -19.5t-48.5 -5.5q-35 0 -55.5 10.5t-31.5 30.5v-189h-102v153z" />
    <glyph glyph-name="uni0445" unicode="&#x445;" horiz-adv-x="339" 
d="M319 599l-71 -285l83 -314h-107l-58 266l-57 -266h-103l83 316l-78 283h106l55 -229l51 229h96z" />
    <glyph glyph-name="uni0446" unicode="&#x446;" horiz-adv-x="400" 
d="M44 0v599h102v-517h91v517h102v-517h50v-156h-102v74h-243z" />
    <glyph glyph-name="uni0447" unicode="&#x447;" horiz-adv-x="355" 
d="M215 599h99v-599h-99v266h-88q-91 0 -91 104v229h93v-200q0 -33 6 -42q8 -11 36 -11h44v253z" />
    <glyph glyph-name="uni0448" unicode="&#x448;" horiz-adv-x="573" 
d="M44 0v599h102v-517h91v517h102v-517h91v517h102v-599h-488z" />
    <glyph glyph-name="uni0449" unicode="&#x449;" horiz-adv-x="593" 
d="M480 0h-436v599h102v-517h91v517h102v-517h91v517h102v-517h50v-156h-102v74z" />
    <glyph glyph-name="uni044A" unicode="&#x44a;" horiz-adv-x="376" 
d="M201 74q27 0 35 11q6 10 6 46v94q0 33 -6 42q-8 11 -36 11q-33 0 -44 -6v-196q8 -2 45 -2zM57 516h-44v83h143v-245q34 7 88 4q91 0 91 -104v-148q0 -74 -25 -96q-23 -20 -101 -20q-112 0 -152 10v516z" />
    <glyph glyph-name="uni044B" unicode="&#x44b;" horiz-adv-x="500" 
d="M457 0h-101v599h101v-599zM180 74q27 0 35 11q6 10 6 46v94q0 33 -6 42q-8 11 -36 11q-33 0 -44 -6v-196q8 -2 45 -2zM314 106q0 -74 -25 -96q-23 -20 -101 -20q-112 0 -152 10v599h99v-245q34 7 88 4q91 0 91 -104v-148z" />
    <glyph glyph-name="uni044C" unicode="&#x44c;" horiz-adv-x="355" 
d="M180 74q27 0 35 11q6 10 6 46v94q0 33 -6 42q-8 11 -36 11q-33 0 -44 -6v-196q8 -2 45 -2zM314 106q0 -74 -25 -96q-23 -20 -101 -20q-112 0 -152 10v599h99v-245q34 7 88 4q91 0 91 -104v-148z" />
    <glyph glyph-name="uni044D" unicode="&#x44d;" horiz-adv-x="355" 
d="M221 346v125q-1 27 -8 35q-8 8 -37 8q-27 0 -35 -8t-8 -35v-45h-99v55q0 83 27 106q25 22 115 22q91 0 117 -22q27 -23 27 -106v-363q0 -84 -26 -106q-25 -22 -116 -22t-116 22q-28 23 -28 106v92h100v-81q0 -27 8 -35q8 -9 36 -9t36 9q7 8 7 35v135h-122v82h122z" />
    <glyph glyph-name="uni044E" unicode="&#x44e;" horiz-adv-x="556" 
d="M423 471q0 26 -8 34t-36 8q-27 0 -36 -9q-8 -8 -8 -33v-344q0 -26 8 -35q9 -8 36 -8t36 10q8 8 8 33v344zM236 264h-90v-264h-102v599h102v-253h90v136q0 82 27 106q26 21 116 21t115 -21q28 -24 28 -106v-365q0 -82 -28 -105q-25 -22 -115 -22t-116 22q-27 23 -27 105
v147z" />
    <glyph glyph-name="uni044F" unicode="&#x44f;" horiz-adv-x="355" 
d="M170 525q-27 0 -35 -11q-6 -10 -6 -46v-69q0 -33 6 -42q8 -11 36 -11h44v177q-8 2 -45 2zM129 -2l-93 1v206q0 92 65 98v4q-65 6 -65 98v88q0 74 25 96q23 20 101 20h152v-609h-99v263h-44q-28 0 -36 -11q-6 -9 -6 -42v-212z" />
    <glyph glyph-name="uni0451" unicode="&#x451;" horiz-adv-x="351" 
d="M136 264v-141q0 -29 7.5 -37.5t35.5 -8.5q27 0 35 8.5t8 37.5v81h92v-87q0 -42 -5.5 -67t-20.5 -38.5t-41 -17.5t-68 -4q-44 0 -72 4t-44 17.5t-21.5 38.5t-5.5 67v365q0 42 5.5 67t21.5 38.5t44 17.5t72 4q42 0 68 -4t41 -17.5t20.5 -38.5t5.5 -67v-218h-178zM136 346
h86v128q0 29 -8 37t-35 8q-28 0 -35.5 -8t-7.5 -37v-128zM316 651h-102v104h102v-104zM135 651h-101v104h101v-104z" />
    <glyph glyph-name="uni0486" unicode="&#x486;" horiz-adv-x="0" 
d="M-175 700q0 -42 -21 -64.5t-73 -22.5h-11v47h13q16 0 24 8t8 29v22h-45v132h105v-151z" />
    <glyph glyph-name="Wgrave" unicode="&#x1e80;" horiz-adv-x="579" 
d="M124 790l33 -621h4l53 621h147l45 -621h4l43 621h116l-92 -790h-146l-42 627h-4l-55 -627h-148l-73 790h115zM346 830h-77l-96 166h110z" />
    <glyph glyph-name="wgrave" unicode="&#x1e81;" horiz-adv-x="536" 
d="M114 599l31 -448h4l51 448h133l46 -448h4l37 448h109l-83 -599h-138l-40 455h-4l-51 -455h-139l-69 599h109zM324 639h-77l-96 166h110z" />
    <glyph glyph-name="Wacute" unicode="&#x1e82;" horiz-adv-x="579" 
d="M124 790l33 -621h4l53 621h147l45 -621h4l43 621h116l-92 -790h-146l-42 627h-4l-55 -627h-148l-73 790h115zM296 996h110l-95 -166h-78z" />
    <glyph glyph-name="wacute" unicode="&#x1e83;" horiz-adv-x="536" 
d="M114 599l31 -448h4l51 448h133l46 -448h4l37 448h109l-83 -599h-138l-40 455h-4l-51 -455h-139l-69 599h109zM274 805h110l-95 -166h-78z" />
    <glyph glyph-name="Wdieresis" unicode="&#x1e84;" horiz-adv-x="579" 
d="M124 790l33 -621h4l53 621h147l45 -621h4l43 621h116l-92 -790h-146l-42 627h-4l-55 -627h-148l-73 790h115zM430 877h-102v104h102v-104zM249 877h-101v104h101v-104z" />
    <glyph glyph-name="wdieresis" unicode="&#x1e85;" horiz-adv-x="536" 
d="M114 599l31 -448h4l51 448h133l46 -448h4l37 448h109l-83 -599h-138l-40 455h-4l-51 -455h-139l-69 599h109zM409 686h-102v104h102v-104zM228 686h-101v104h101v-104z" />
    <glyph glyph-name="Ygrave" unicode="&#x1ef2;" horiz-adv-x="354" 
d="M350 790l-118 -511v-279h-115v279l-114 511h114l57 -357h4l60 357h112zM233 830h-77l-96 166h110z" />
    <glyph glyph-name="ygrave" unicode="&#x1ef3;" horiz-adv-x="380" 
d="M233 599h102v-609q0 -73 -32 -108t-108 -35h-134v86h109q34 0 47.5 11.5t13.5 45.5v77q-11 -20 -32.5 -30.5t-55.5 -10.5q-30 0 -49.5 5.5t-31.5 19.5t-17 37.5t-5 59.5v451h102v-432q0 -30 10 -40t36 -10q17 0 27.5 8.5t17.5 22.5v451zM246 639h-77l-96 166h110z" />
    <glyph glyph-name="uni1F14" unicode="&#x1f14;" horiz-adv-x="323" 
d="M287 208v-135q0 -44 -19 -61q-20 -17 -41 -22q-7 -2 -19 -2l-18 -2l-64 1q-50 0 -68 18.5t-21 40.5l-1 14v170l1 13q0 6 4 19t18.5 24t46.5 11v7q-14 0 -26 4t-20 9.5t-11.5 11t-7.5 13.5t-4 15l-1 14v147l1 17l4 21q6 19 24.5 33.5t59.5 14.5h65q47 0 67.5 -17t24.5 -35
q5 -11 5 -20v-126h-101v118l-2 4q-4 7 -9.5 9.5t-16.5 2.5q-11 -1 -16 -6t-5 -14v-160l1 -9q4 -11 13.5 -18.5t31.5 -7.5h34v-59h-36l-7 -1l-13 -2q-9 -3 -15 -11q-9 -8 -9 -25v-154q1 -12 6.5 -17.5t9.5 -5.5h10l7 1q6 2 11 7t5 15v135h101zM53 794q69 -20 69 -45
q4 0 7 -23v-34q-14 -50 -28 -50q-14 -13 -27 -13h-2q-23 0 -32 30v2q0 14 19 31q6 4 6 13v15q0 5 -31 13q-15 12 -15 27v2q0 26 34 32zM245 792h2q30 -5 30 -30v-4q0 -17 -24 -49q-19 -61 -48 -61h-4q-30 5 -30 30v2q0 9 27 59q0 9 15 25q10 28 32 28z" />
    <glyph glyph-name="endash" unicode="&#x2013;" horiz-adv-x="355" 
d="M334 288h-313v90h313v-90z" />
    <glyph glyph-name="emdash" unicode="&#x2014;" horiz-adv-x="582" 
d="M561 288h-540v90h540v-90z" />
    <glyph glyph-name="quoteleft" unicode="&#x2018;" horiz-adv-x="193" 
d="M44 769q0 27 3.5 48t13.5 35.5t29 21.5t51 7h8v-47h-13q-17 0 -24.5 -10t-7.5 -37v-12h45v-131h-105v125z" />
    <glyph glyph-name="quoteright" unicode="&#x2019;" horiz-adv-x="193" 
d="M149 711q0 -42 -21 -64.5t-73 -22.5h-11v47h13q16 0 24 8t8 29v22h-45v132h105v-151z" />
    <glyph glyph-name="quotesinglbase" unicode="&#x201a;" horiz-adv-x="193" 
d="M149 -19q0 -42 -21 -64.5t-73 -22.5h-11v47h13q16 0 24 8t8 29v22h-45v132h105v-151z" />
    <glyph glyph-name="quotedblleft" unicode="&#x201c;" horiz-adv-x="386" 
d="M44 769q0 27 3.5 48t13.5 35.5t29 21.5t51 7h8v-47h-13q-17 0 -24.5 -10t-7.5 -37v-12h45v-131h-105v125zM237 769q0 27 3.5 48t13.5 35.5t29 21.5t51 7h8v-47h-13q-17 0 -24.5 -10t-7.5 -37v-12h45v-131h-105v125z" />
    <glyph glyph-name="quotedblright" unicode="&#x201d;" horiz-adv-x="386" 
d="M149 711q0 -42 -21 -64.5t-73 -22.5h-11v47h13q16 0 24 8t8 29v22h-45v132h105v-151zM342 711q0 -42 -21 -64.5t-73 -22.5h-11v47h13q16 0 24 8t8 29v22h-45v132h105v-151z" />
    <glyph glyph-name="quotedblbase" unicode="&#x201e;" horiz-adv-x="386" 
d="M149 -19q0 -42 -21 -64.5t-73 -22.5h-11v47h13q16 0 24 8t8 29v22h-45v132h105v-151zM342 -19q0 -42 -21 -64.5t-73 -22.5h-11v47h13q16 0 24 8t8 29v22h-45v132h105v-151z" />
    <glyph glyph-name="dagger" unicode="&#x2020;" 
d="M162 0v541h-139v76h139v173h76v-173h139v-76h-139v-541h-76z" />
    <glyph glyph-name="daggerdbl" unicode="&#x2021;" 
d="M162 0v173h-139v77h139v291h-139v76h139v173h76v-173h139v-76h-139v-291h139v-77h-139v-173h-76z" />
    <glyph glyph-name="bullet" unicode="&#x2022;" horiz-adv-x="324" 
d="M287 413q0 -38 -5 -61t-18.5 -35t-38 -16t-62.5 -4t-62 4t-38 16t-19.5 35t-5.5 61v29q0 38 5.5 60.5t19.5 34.5t38 15.5t62 3.5t62.5 -3.5t38 -15.5t18.5 -34.5t5 -60.5v-29z" />
    <glyph glyph-name="ellipsis" unicode="&#x2026;" horiz-adv-x="772" 
d="M152 0h-105v132h105v-132zM438 0h-105v132h105v-132zM724 0h-105v132h105v-132z" />
    <glyph glyph-name="perthousand" unicode="&#x2030;" horiz-adv-x="1019" 
d="M259 443q0 -32 -4.5 -50.5t-16.5 -28.5t-33.5 -13t-55.5 -3t-55.5 3t-33.5 13t-16 28.5t-4 50.5v259q0 31 4 49.5t16 28.5t33.5 13t55.5 3t55.5 -3t33.5 -13t16.5 -28.5t4.5 -49.5v-259zM179 702q0 20 -5 25t-25 5t-25 -5.5t-5 -24.5v-259q0 -20 5 -25.5t25 -5.5t25 5.5
t5 25.5v259zM563 790l-330 -790h-78l330 790h78zM676 89q0 -32 -4.5 -50.5t-16.5 -28.5t-33.5 -13t-55.5 -3t-55.5 3t-33.5 13t-16 28.5t-4 50.5v259q0 31 4 49.5t16 28.5t33.5 13t55.5 3t55.5 -3t33.5 -13t16.5 -28.5t4.5 -49.5v-259zM596 348q0 20 -5 25t-25 5t-25 -5.5
t-5 -24.5v-259q0 -20 5 -25.5t25 -5.5t25 5.5t5 25.5v259zM977 89q0 -32 -4.5 -50.5t-16.5 -28.5t-33.5 -13t-55.5 -3t-55.5 3t-33.5 13t-16 28.5t-4 50.5v259q0 31 4 49.5t16 28.5t33.5 13t55.5 3t55.5 -3t33.5 -13t16.5 -28.5t4.5 -49.5v-259zM897 348q0 20 -5 25t-25 5
t-25 -5.5t-5 -24.5v-259q0 -20 5 -25.5t25 -5.5t25 5.5t5 25.5v259z" />
    <glyph glyph-name="guilsinglleft" unicode="&#x2039;" horiz-adv-x="234" 
d="M194 514v-78l-98 -68l98 -69v-78l-156 105v83z" />
    <glyph glyph-name="guilsinglright" unicode="&#x203a;" horiz-adv-x="234" 
d="M196 409v-83l-156 -105v78l98 69l-98 68v78z" />
    <glyph glyph-name="fraction" unicode="&#x2044;" horiz-adv-x="116" 
d="M262 790l-330 -790h-78l330 790h78z" />
    <glyph glyph-name="uni2070" unicode="&#x2070;" horiz-adv-x="301" 
d="M259 443q0 -32 -4.5 -50.5t-16.5 -28.5t-33.5 -13t-55.5 -3t-55.5 3t-33.5 13t-16 28.5t-4 50.5v259q0 31 4 49.5t16 28.5t33.5 13t55.5 3t55.5 -3t33.5 -13t16.5 -28.5t4.5 -49.5v-259zM179 702q0 20 -5 25t-25 5t-25 -5.5t-5 -24.5v-259q0 -20 5 -25.5t25 -5.5t25 5.5
t5 25.5v259z" />
    <glyph glyph-name="uni2074" unicode="&#x2074;" horiz-adv-x="313" 
d="M279 538v-62h-29v-122h-81v122h-125v317h72v-255h53v188h81v-188h29z" />
    <glyph glyph-name="uni2075" unicode="&#x2075;" horiz-adv-x="304" 
d="M179 645v91h-59v-117h55q47 0 65.5 -19t18.5 -70v-87q0 -32 -4.5 -50.5t-16.5 -28.5t-33.5 -13t-55.5 -3q-32 0 -52.5 3t-32 13t-16 28.5t-4.5 50.5v81h76v-81q0 -20 4.5 -25.5t24.5 -5.5t25 5.5t5 25.5v77q0 26 -5 36t-31 10h-97v225h213v-146h-80z" />
    <glyph glyph-name="uni2076" unicode="&#x2076;" horiz-adv-x="301" 
d="M259 443q0 -32 -4.5 -50.5t-16.5 -28.5t-33.5 -13t-55.5 -3t-55.5 3t-33.5 13t-16 28.5t-4 50.5v259q0 31 4 49.5t16 28.5t33.5 13t55.5 3q32 0 52.5 -3t32 -13t16 -28.5t4.5 -49.5v-47h-76v47q0 20 -4.5 25t-24.5 5t-25 -6t-5 -24v-106q20 20 64 20q24 0 39 -5t23 -16
t11 -29t3 -44v-79zM179 520q0 26 -6 32.5t-20 6.5q-17 0 -24.5 -5t-9.5 -15v-91q0 -24 6 -30t24 -6t24 5.5t6 25.5v77z" />
    <glyph glyph-name="uni2077" unicode="&#x2077;" horiz-adv-x="254" 
d="M217 738l-98 -384h-81l100 377h-105v60h184v-53z" />
    <glyph glyph-name="uni2078" unicode="&#x2078;" horiz-adv-x="302" 
d="M150 796q34 0 55 -3.5t33 -13t16.5 -27.5t4.5 -48v-54q0 -29 -10.5 -42t-24.5 -19q17 -6 26 -21.5t9 -51.5v-75q0 -30 -4.5 -48.5t-16.5 -28t-33 -13t-55 -3.5t-55.5 3.5t-33.5 13t-16.5 28t-4.5 48.5v75q0 38 9 53t26 22q-14 5 -24.5 18t-10.5 41v54q0 30 4.5 48
t16.5 27.5t33.5 13t55.5 3.5zM179 528q0 21 -5 27t-24 6q-20 0 -25 -5.5t-5 -27.5v-87q0 -19 5.5 -24t24.5 -5q20 0 24.5 5t4.5 24v87zM150 732q-21 0 -25.5 -6t-4.5 -28v-53q0 -15 5 -20.5t25 -5.5t24.5 5.5t4.5 20.5v53q0 22 -4.5 28t-24.5 6z" />
    <glyph glyph-name="uni2079" unicode="&#x2079;" horiz-adv-x="301" 
d="M40 701q0 31 4 50t16 29t33.5 13t55.5 3t55.5 -3t33.5 -13t16.5 -29t4.5 -50v-258q0 -32 -4.5 -50.5t-16.5 -28.5t-33.5 -13t-55.5 -3q-32 0 -52.5 3t-32 13t-16 28.5t-4.5 50.5v36h76v-36q0 -20 6 -25.5t23 -5.5q20 0 25 6t5 25v93q-16 -20 -64 -20q-24 0 -38.5 5
t-22.5 16t-11 29.5t-3 44.5v90zM119 623q0 -31 3.5 -41t24.5 -10q15 0 22.5 4.5t9.5 17.5v107q0 20 -5 25.5t-25 5.5t-25 -5.5t-5 -25.5v-78z" />
    <glyph glyph-name="uni2080" unicode="&#x2080;" horiz-adv-x="301" 
d="M259 89q0 -32 -4.5 -50.5t-16.5 -28.5t-33.5 -13t-55.5 -3t-55.5 3t-33.5 13t-16 28.5t-4 50.5v259q0 31 4 49.5t16 28.5t33.5 13t55.5 3t55.5 -3t33.5 -13t16.5 -28.5t4.5 -49.5v-259zM179 348q0 20 -5 25t-25 5t-25 -5.5t-5 -24.5v-259q0 -20 5 -25.5t25 -5.5t25 5.5
t5 25.5v259z" />
    <glyph glyph-name="uni2081" unicode="&#x2081;" horiz-adv-x="199" 
d="M28 437h125v-437h-79v375h-46v62z" />
    <glyph glyph-name="uni2082" unicode="&#x2082;" horiz-adv-x="310" 
d="M44 0v152q0 21 2 34.5t8 23t17 17.5t29 17l58 29q15 8 20.5 15t5.5 19v42q0 19 -5.5 24t-24.5 5q-20 0 -25.5 -6t-5.5 -24v-57h-77v57q0 31 4.5 49.5t16.5 28.5t33 13t55 3t55.5 -3t33.5 -13t16 -28t4 -49v-44q0 -18 -2.5 -30.5t-8.5 -21.5t-16.5 -16.5t-26.5 -15.5
l-62 -31q-15 -8 -20 -15t-5 -22v-90h60v104h81v-167h-220z" />
    <glyph glyph-name="uni2083" unicode="&#x2083;" horiz-adv-x="295" 
d="M114 175v-87q0 -19 6 -24.5t24 -5.5q19 0 24 6.5t5 23.5v73q0 25 -4 34t-25 9h-44v64h44q20 0 24.5 5.5t4.5 19.5v55q0 20 -6 25t-24 5q-22 0 -25.5 -6.5t-3.5 -23.5v-54h-76v54q0 31 4.5 49.5t16 28.5t32 13t52.5 3q34 0 55.5 -3.5t33.5 -13t16.5 -28t4.5 -48.5v-53
q0 -30 -10 -43t-24 -18q17 -5 25.5 -20.5t8.5 -52.5v-75q0 -30 -4.5 -48.5t-16.5 -28t-33.5 -13t-55.5 -3.5q-32 0 -52.5 3t-32 13t-16 28.5t-4.5 49.5v87h76z" />
    <glyph glyph-name="uni2084" unicode="&#x2084;" horiz-adv-x="313" 
d="M279 184v-62h-29v-122h-81v122h-125v317h72v-255h53v188h81v-188h29z" />
    <glyph glyph-name="uni2085" unicode="&#x2085;" horiz-adv-x="304" 
d="M179 291v91h-59v-117h55q47 0 65.5 -19t18.5 -70v-87q0 -32 -4.5 -50.5t-16.5 -28.5t-33.5 -13t-55.5 -3q-32 0 -52.5 3t-32 13t-16 28.5t-4.5 50.5v81h76v-81q0 -20 4.5 -25.5t24.5 -5.5t25 5.5t5 25.5v77q0 26 -5 36t-31 10h-97v225h213v-146h-80z" />
    <glyph glyph-name="uni2086" unicode="&#x2086;" horiz-adv-x="301" 
d="M259 89q0 -32 -4.5 -50.5t-16.5 -28.5t-33.5 -13t-55.5 -3t-55.5 3t-33.5 13t-16 28.5t-4 50.5v259q0 31 4 49.5t16 28.5t33.5 13t55.5 3q32 0 52.5 -3t32 -13t16 -28.5t4.5 -49.5v-47h-76v47q0 20 -4.5 25t-24.5 5t-25 -6t-5 -24v-106q20 20 64 20q24 0 39 -5t23 -16
t11 -29t3 -44v-79zM179 166q0 26 -6 32.5t-20 6.5q-17 0 -24.5 -5t-9.5 -15v-91q0 -24 6 -30t24 -6t24 5.5t6 25.5v77z" />
    <glyph glyph-name="uni2087" unicode="&#x2087;" horiz-adv-x="254" 
d="M217 384l-98 -384h-81l100 377h-105v60h184v-53z" />
    <glyph glyph-name="uni2088" unicode="&#x2088;" horiz-adv-x="302" 
d="M150 442q34 0 55 -3.5t33 -13t16.5 -27.5t4.5 -48v-54q0 -29 -10.5 -42t-24.5 -19q17 -6 26 -21.5t9 -51.5v-75q0 -30 -4.5 -48.5t-16.5 -28t-33 -13t-55 -3.5t-55.5 3.5t-33.5 13t-16.5 28t-4.5 48.5v75q0 38 9 53t26 22q-14 5 -24.5 18t-10.5 41v54q0 30 4.5 48
t16.5 27.5t33.5 13t55.5 3.5zM179 174q0 21 -5 27t-24 6q-20 0 -25 -5.5t-5 -27.5v-87q0 -19 5.5 -24t24.5 -5q20 0 24.5 5t4.5 24v87zM150 378q-21 0 -25.5 -6t-4.5 -28v-53q0 -15 5 -20.5t25 -5.5t24.5 5.5t4.5 20.5v53q0 22 -4.5 28t-24.5 6z" />
    <glyph glyph-name="uni2089" unicode="&#x2089;" horiz-adv-x="301" 
d="M40 347q0 31 4 50t16 29t33.5 13t55.5 3t55.5 -3t33.5 -13t16.5 -29t4.5 -50v-258q0 -32 -4.5 -50.5t-16.5 -28.5t-33.5 -13t-55.5 -3q-32 0 -52.5 3t-32 13t-16 28.5t-4.5 50.5v36h76v-36q0 -20 6 -25.5t23 -5.5q20 0 25 6t5 25v93q-16 -20 -64 -20q-24 0 -38.5 5
t-22.5 16t-11 29.5t-3 44.5v90zM119 269q0 -31 3.5 -41t24.5 -10q15 0 22.5 4.5t9.5 17.5v107q0 20 -5 25.5t-25 5.5t-25 -5.5t-5 -25.5v-78z" />
    <glyph glyph-name="Euro" unicode="&#x20ac;" horiz-adv-x="414" 
d="M35 509h27v125q0 54 7 87t25.5 50.5t50.5 23t81 5.5q48 0 79 -5.5t49 -23t24.5 -50t6.5 -87.5v-48h-111v51q0 20 -2 32.5t-7 19t-14.5 9t-24.5 2.5q-18 0 -28 -4t-14.5 -13t-5.5 -23t-1 -35v-116h186l-20 -72h-166v-86h142l-21 -71h-121v-115q0 -24 1 -39t6 -23.5t15 -11
t27 -2.5q16 0 25.5 2.5t14.5 9.5t6.5 19.5t1.5 32.5v53h111v-49q0 -55 -6.5 -88t-24.5 -50.5t-49 -23t-79 -5.5q-51 0 -83 5.5t-50 23t-24.5 50.5t-6.5 88v123h-39l12 71h27v86h-39z" />
    <glyph glyph-name="uni20B9" unicode="&#x20b9;" horiz-adv-x="400" 
d="M35 790h341l-14 -100h-64q8 -7 12 -21t4 -40v-38h62l-14 -100h-48v-40q0 -28 -7 -46t-17.5 -29.5t-23 -16.5t-24.5 -7v-4q18 -5 31.5 -13.5t22.5 -25t13.5 -44.5t4.5 -73v-192h-114v221q0 21 -0.5 36t-5 25.5t-14 15.5t-27.5 5h-52l17 91h21q38 0 49.5 8.5t11.5 37.5v51
h-179l14 100h165v38q0 39 -14.5 50t-52.5 11h-112z" />
    <glyph glyph-name="trademark" unicode="&#x2122;" horiz-adv-x="590" 
d="M551 790v-399h-60v280h-5l-50 -280h-65l-51 283h-4v-283h-60v399h101l44 -270h3l47 270h100zM218 739h-55v-348h-76v348h-55v51h186v-51z" />
    <glyph glyph-name="onethird" unicode="&#x2153;" horiz-adv-x="610" 
d="M28 791h125v-437h-79v375h-46v62zM461 790l-330 -790h-78l330 790h78zM429 175v-87q0 -19 6 -24.5t24 -5.5q19 0 24 6.5t5 23.5v73q0 25 -4 34t-25 9h-44v64h44q20 0 24.5 5.5t4.5 19.5v55q0 20 -6 25t-24 5q-22 0 -25.5 -6.5t-3.5 -23.5v-54h-76v54q0 31 4.5 49.5
t16 28.5t32 13t52.5 3q34 0 55.5 -3.5t33.5 -13t16.5 -28t4.5 -48.5v-53q0 -30 -10 -43t-24 -18q17 -5 25.5 -20.5t8.5 -52.5v-75q0 -30 -4.5 -48.5t-16.5 -28t-33.5 -13t-55.5 -3.5q-32 0 -52.5 3t-32 13t-16 28.5t-4.5 49.5v87h76z" />
    <glyph glyph-name="twothirds" unicode="&#x2154;" horiz-adv-x="721" 
d="M44 354v152q0 21 2 34.5t8 23t17 17.5t29 17l58 29q15 8 20.5 15t5.5 19v42q0 19 -5.5 24t-24.5 5q-20 0 -25.5 -6t-5.5 -24v-57h-77v57q0 31 4.5 49.5t16.5 28.5t33 13t55 3t55.5 -3t33.5 -13t16 -28t4 -49v-44q0 -18 -2.5 -30.5t-8.5 -21.5t-16.5 -16.5t-26.5 -15.5
l-62 -31q-15 -8 -20 -15t-5 -22v-90h60v104h81v-167h-220zM572 790l-330 -790h-78l330 790h78zM540 175v-87q0 -19 6 -24.5t24 -5.5q19 0 24 6.5t5 23.5v73q0 25 -4 34t-25 9h-44v64h44q20 0 24.5 5.5t4.5 19.5v55q0 20 -6 25t-24 5q-22 0 -25.5 -6.5t-3.5 -23.5v-54h-76v54
q0 31 4.5 49.5t16 28.5t32 13t52.5 3q34 0 55.5 -3.5t33.5 -13t16.5 -28t4.5 -48.5v-53q0 -30 -10 -43t-24 -18q17 -5 25.5 -20.5t8.5 -52.5v-75q0 -30 -4.5 -48.5t-16.5 -28t-33.5 -13t-55.5 -3.5q-32 0 -52.5 3t-32 13t-16 28.5t-4.5 49.5v87h76z" />
    <glyph glyph-name="oneeighth" unicode="&#x215b;" horiz-adv-x="617" 
d="M28 791h125v-437h-79v375h-46v62zM461 790l-330 -790h-78l330 790h78zM465 442q34 0 55 -3.5t33 -13t16.5 -27.5t4.5 -48v-54q0 -29 -10.5 -42t-24.5 -19q17 -6 26 -21.5t9 -51.5v-75q0 -30 -4.5 -48.5t-16.5 -28t-33 -13t-55 -3.5t-55.5 3.5t-33.5 13t-16.5 28
t-4.5 48.5v75q0 38 9 53t26 22q-14 5 -24.5 18t-10.5 41v54q0 30 4.5 48t16.5 27.5t33.5 13t55.5 3.5zM494 174q0 21 -5 27t-24 6q-20 0 -25 -5.5t-5 -27.5v-87q0 -19 5.5 -24t24.5 -5q20 0 24.5 5t4.5 24v87zM465 378q-21 0 -25.5 -6t-4.5 -28v-53q0 -15 5 -20.5t25 -5.5
t24.5 5.5t4.5 20.5v53q0 22 -4.5 28t-24.5 6z" />
    <glyph glyph-name="threeeighths" unicode="&#x215c;" horiz-adv-x="713" 
d="M114 529v-87q0 -19 6 -24.5t24 -5.5q19 0 24 6.5t5 23.5v73q0 25 -4 34t-25 9h-44v64h44q20 0 24.5 5.5t4.5 19.5v55q0 20 -6 25t-24 5q-22 0 -25.5 -6.5t-3.5 -23.5v-54h-76v54q0 31 4.5 49.5t16 28.5t32 13t52.5 3q34 0 55.5 -3.5t33.5 -13t16.5 -28t4.5 -48.5v-53
q0 -30 -10 -43t-24 -18q17 -5 25.5 -20.5t8.5 -52.5v-75q0 -30 -4.5 -48.5t-16.5 -28t-33.5 -13t-55.5 -3.5q-32 0 -52.5 3t-32 13t-16 28.5t-4.5 49.5v87h76zM557 790l-330 -790h-78l330 790h78zM561 442q34 0 55 -3.5t33 -13t16.5 -27.5t4.5 -48v-54q0 -29 -10.5 -42
t-24.5 -19q17 -6 26 -21.5t9 -51.5v-75q0 -30 -4.5 -48.5t-16.5 -28t-33 -13t-55 -3.5t-55.5 3.5t-33.5 13t-16.5 28t-4.5 48.5v75q0 38 9 53t26 22q-14 5 -24.5 18t-10.5 41v54q0 30 4.5 48t16.5 27.5t33.5 13t55.5 3.5zM590 174q0 21 -5 27t-24 6q-20 0 -25 -5.5t-5 -27.5
v-87q0 -19 5.5 -24t24.5 -5q20 0 24.5 5t4.5 24v87zM561 378q-21 0 -25.5 -6t-4.5 -28v-53q0 -15 5 -20.5t25 -5.5t24.5 5.5t4.5 20.5v53q0 22 -4.5 28t-24.5 6z" />
    <glyph glyph-name="fiveeighths" unicode="&#x215d;" horiz-adv-x="722" 
d="M179 645v91h-59v-117h55q47 0 65.5 -19t18.5 -70v-87q0 -32 -4.5 -50.5t-16.5 -28.5t-33.5 -13t-55.5 -3q-32 0 -52.5 3t-32 13t-16 28.5t-4.5 50.5v81h76v-81q0 -20 4.5 -25.5t24.5 -5.5t25 5.5t5 25.5v77q0 26 -5 36t-31 10h-97v225h213v-146h-80zM566 790l-330 -790
h-78l330 790h78zM570 442q34 0 55 -3.5t33 -13t16.5 -27.5t4.5 -48v-54q0 -29 -10.5 -42t-24.5 -19q17 -6 26 -21.5t9 -51.5v-75q0 -30 -4.5 -48.5t-16.5 -28t-33 -13t-55 -3.5t-55.5 3.5t-33.5 13t-16.5 28t-4.5 48.5v75q0 38 9 53t26 22q-14 5 -24.5 18t-10.5 41v54
q0 30 4.5 48t16.5 27.5t33.5 13t55.5 3.5zM599 174q0 21 -5 27t-24 6q-20 0 -25 -5.5t-5 -27.5v-87q0 -19 5.5 -24t24.5 -5q20 0 24.5 5t4.5 24v87zM570 378q-21 0 -25.5 -6t-4.5 -28v-53q0 -15 5 -20.5t25 -5.5t24.5 5.5t4.5 20.5v53q0 22 -4.5 28t-24.5 6z" />
    <glyph glyph-name="seveneighths" unicode="&#x215e;" horiz-adv-x="634" 
d="M226 738l-98 -384h-81l100 377h-105v60h184v-53zM478 790l-330 -790h-78l330 790h78zM482 442q34 0 55 -3.5t33 -13t16.5 -27.5t4.5 -48v-54q0 -29 -10.5 -42t-24.5 -19q17 -6 26 -21.5t9 -51.5v-75q0 -30 -4.5 -48.5t-16.5 -28t-33 -13t-55 -3.5t-55.5 3.5t-33.5 13
t-16.5 28t-4.5 48.5v75q0 38 9 53t26 22q-14 5 -24.5 18t-10.5 41v54q0 30 4.5 48t16.5 27.5t33.5 13t55.5 3.5zM511 174q0 21 -5 27t-24 6q-20 0 -25 -5.5t-5 -27.5v-87q0 -19 5.5 -24t24.5 -5q20 0 24.5 5t4.5 24v87zM482 378q-21 0 -25.5 -6t-4.5 -28v-53q0 -15 5 -20.5
t25 -5.5t24.5 5.5t4.5 20.5v53q0 22 -4.5 28t-24.5 6z" />
    <glyph glyph-name="partialdiff" unicode="&#x2202;" horiz-adv-x="360" 
d="M40 790h112l107 -190q21 -38 33.5 -65t19.5 -50.5t9 -47.5t2 -54v-266q0 -42 -6 -67t-21.5 -38.5t-43.5 -17.5t-72 -4t-72 4t-44 17.5t-21.5 38.5t-5.5 67v301q0 60 16.5 87.5t61.5 27.5q30 0 48 -8t41 -28q-2 6 -4.5 11l-6 12t-9 17t-14.5 26zM173 457q-27 0 -31.5 -17
t-4.5 -51v-233q0 -22 0.5 -36t4.5 -22t13 -11t25 -3q14 0 23 3t13.5 11t6 22t1.5 35v249q-7 26 -16 39.5t-35 13.5z" />
    <glyph glyph-name="product" unicode="&#x220f;" horiz-adv-x="419" 
d="M375 -153h-115v846h-101v-846h-115v943h331v-943z" />
    <glyph glyph-name="summation" unicode="&#x2211;" horiz-adv-x="319" 
d="M282 -66v-87h-248v87l132 416l-131 363v77h247v-84h-150l125 -356l-122 -416h147z" />
    <glyph glyph-name="minus" unicode="&#x2212;" horiz-adv-x="496" 
d="M44 354v91h407v-91h-407z" />
    <glyph glyph-name="radical" unicode="&#x221a;" horiz-adv-x="409" 
d="M126 0l-45 332h-63v90h160l29 -278h4l73 646h107l-106 -790h-159z" />
    <glyph glyph-name="infinity" unicode="&#x221e;" horiz-adv-x="583" 
d="M183 548q46 0 70.5 -18t35.5 -51q11 34 35 51.5t71 17.5h41q63 0 91 -28.5t28 -103.5v-132q0 -76 -28 -104.5t-91 -28.5h-41q-47 0 -71 17.5t-35 50.5q-11 -32 -35.5 -50t-70.5 -18h-41q-62 0 -90.5 28.5t-28.5 104.5v132q0 75 28.5 103.5t90.5 28.5h41zM255 378
q0 49 -13.5 74.5t-60.5 25.5h-29q-35 0 -49.5 -15.5t-14.5 -60.5v-105q0 -45 14.5 -61t49.5 -16h29q42 0 58 20t16 61v77zM324 301q0 -40 16 -60.5t56 -20.5h31q35 0 49 16t14 61v105q0 45 -15 60.5t-53 15.5h-26q-40 0 -56 -20.5t-16 -60.5v-96z" />
    <glyph glyph-name="integral" unicode="&#x222b;" horiz-adv-x="247" 
d="M82 791q0 35 7 59.5t22.5 39.5t40.5 22t62 7h13v-74h-15q-28 0 -38 -13.5t-10 -46.5v-840q0 -68 -29 -99t-103 -31h-14v74h15q27 0 38 13.5t11 45.5v843v0z" />
    <glyph glyph-name="approxequal" unicode="&#x2248;" horiz-adv-x="512" 
d="M44 304q8 27 36.5 44.5t68.5 17.5q25 0 50.5 -9t50.5 -20.5t49.5 -20.5t48.5 -9q43 0 66 19t37 51v-86q-7 -26 -36.5 -43.5t-68.5 -17.5q-27 0 -53.5 9t-51.5 20t-48.5 20t-45.5 9q-44 0 -66 -19.5t-37 -49.5v85zM52 503q8 27 36.5 44.5t68.5 17.5q25 0 50.5 -9
t50.5 -20.5t49.5 -20.5t48.5 -9q43 0 66 19t37 51v-86q-7 -26 -36.5 -43.5t-68.5 -17.5q-27 0 -53.5 9t-51.5 20t-48.5 20t-45.5 9q-44 0 -66 -19.5t-37 -49.5v85z" />
    <glyph glyph-name="notequal" unicode="&#x2260;" horiz-adv-x="496" 
d="M316 465l-53 -128h189v-90h-227l-103 -247h-78l103 247h-103v90h140l54 128h-194v90h231l99 235h78l-98 -235h98v-90h-136z" />
    <glyph glyph-name="lessequal" unicode="&#x2264;" horiz-adv-x="496" 
d="M451 613v-91l-308 -122l308 -123v-91l-407 165v97zM44 1v91h407v-91h-407z" />
    <glyph glyph-name="greaterequal" unicode="&#x2265;" horiz-adv-x="496" 
d="M452 448v-97l-407 -165v91l308 123l-308 122v91zM44 1v91h407v-91h-407z" />
    <glyph glyph-name="lozenge" unicode="&#x25ca;" horiz-adv-x="455" 
d="M428 395l-153 -395h-96l-153 395l153 395h96zM116 395q28 -76 55 -151.5t55 -150.5l112 302l-112 300z" />
    <glyph glyph-name="uniA657" unicode="&#xa657;" horiz-adv-x="542" 
d="M353 74q22 0 32 0.5t13 1.5v196q-7 4 -17 5t-27 1q-29 0 -35.5 -11t-6.5 -42v-94q0 -17 1 -28t5 -17.5t12.5 -9t22.5 -2.5zM147 257v-257h-101v599h101v-252h116q19 8 47 8h19q34 0 48 -2.5t21 -6.5v124q0 33 -8.5 42.5t-36.5 9.5q-27 0 -34 -11t-7 -41v-59h-93v71
q0 42 5.5 67t20.5 38.5t41 17.5t67 4q45 0 73 -4t43.5 -17.5t21.5 -38.5t6 -67v-482q-18 -5 -55 -7.5t-97 -2.5q-38 0 -62.5 4t-38.5 16t-19.5 35t-5.5 61v151h-72z" />
    <glyph glyph-name="bullet.1" unicode="&#xe020;" horiz-adv-x="521" 
d="M261 663l216 -165l-83 -268h-268l-82 268zM392 468l-131 101l-132 -101l50 -163h163z" />
    <glyph glyph-name="bullet.2" unicode="&#xe021;" horiz-adv-x="347" 
d="M253 305h-160l-49 160l129 99l129 -99z" />
    <glyph glyph-name="four.1" unicode="&#xe022;" horiz-adv-x="412" 
d="M388 323v-99h-37v-224h-117v224h-197v566h100v-467h97v139h117v-139h37z" />
    <glyph glyph-name="uniE2B1" unicode="&#xe2b1;" horiz-adv-x="146" 
d="M122 633l-15 -479h-69l-15 479h99zM117 7h-88v113h88v-113z" />
    <glyph glyph-name="uniE2B6" unicode="&#xe2b6;" horiz-adv-x="306" 
d="M272 329v-322h-117q-39 0 -64 4.5t-39.5 19t-19.5 40.5t-5 67v136q0 27 4.5 44.5t12 28.5t18 17t18.5 9v-4q-5 1 -15.5 5.5t-19 14.5t-13.5 26.5t-5 41.5v46q0 41 5 67t19.5 40t39.5 18.5t64 4.5h18v-88h-18q-11 0 -17 -1.5t-9.5 -5.5t-4.5 -12.5t-1 -22.5v-54
q0 -23 5.5 -31t25.5 -8h28v87h90v-87h28v-81h-28zM182 329h-28q-20 0 -25.5 -8t-5.5 -31v-152q0 -16 1 -24.5t4.5 -12.5t9.5 -5.5t17 -1.5h27v235z" />
    <glyph glyph-name="uniE2CF" unicode="&#xe2cf;" horiz-adv-x="300" 
d="M187 7h-89v112h89v-112zM100 209q0 19 1 32.5t3.5 26t7.5 23t12 23.5l42 68q8 14 10.5 26t2.5 36v63q0 15 -1.5 24t-4 12.5t-8.5 5.5t-17 2q-13 0 -18.5 -2t-8.5 -6t-4 -13t-1 -23v-83h-94v83q0 43 5 69.5t19.5 41t39 19t62.5 4.5t63 -4.5t39.5 -19t20 -41t5.5 -69.5v-56
q0 -20 -1 -34.5t-4 -26.5t-8.5 -24t-14.5 -26l-52 -86q-4 -7 -6.5 -12t-4 -10t-2 -11t-0.5 -16v-51h-83v55z" />
    <glyph glyph-name="uniE2F1" unicode="&#xe2f1;" horiz-adv-x="308" 
d="M184 7v137h-62v-137h-94v500q0 43 5 69.5t19.5 41t39 19t61.5 4.5t62 -5t40 -20t20.5 -41.5t5.5 -67.5v-500h-97zM153 551q-11 0 -17 -2t-9 -5.5t-4 -12.5t-1 -24v-279h62v279q0 15 -1.5 24t-4 12.5t-9 5.5t-16.5 2z" />
    <glyph glyph-name="uniE2F2" unicode="&#xe2f2;" horiz-adv-x="316" 
d="M237 373q8 -2 19 -8t18.5 -18.5t11.5 -31t4 -46.5v-131q0 -41 -5 -67t-20 -40.5t-40 -19t-64 -4.5h-128v626h128q39 0 64 -4.5t40 -18.5t20 -40t5 -67v-46q0 -25 -6 -41.5t-14.5 -27t-19 -15.5t-13.5 -5v5zM129 94h32q11 0 17 1.5t9 5.5t4.5 13t1.5 24v151q0 24 -5 32
t-25 8h-34v-235zM129 410h34q19 0 24.5 7t5.5 28v58q0 13 -1 22t-4 13t-9.5 5.5t-17.5 1.5h-32v-135z" />
    <glyph glyph-name="uniE2F3" unicode="&#xe2f3;" horiz-adv-x="306" 
d="M186 362v145q0 15 -1 24t-4 12.5t-9 5.5t-17 2t-17 -2t-9.5 -6t-4.5 -13t-1 -23v-373q0 -16 1 -24.5t4.5 -13t9.5 -6t17 -1.5t17 1.5t9 6t4 13t1 24.5v148h93v-148q0 -43 -5 -69.5t-19.5 -41.5t-39 -19.5t-60.5 -4.5q-39 0 -64 4.5t-39.5 19.5t-19.5 41.5t-5 69.5v373
q0 42 5.5 69t20.5 41.5t40 19t62 4.5q36 0 60.5 -4.5t39 -19t19.5 -41t5 -69.5v-145h-93z" />
    <glyph glyph-name="uniE2F4" unicode="&#xe2f4;" horiz-adv-x="317" 
d="M290 138q0 -41 -5 -67t-20 -40.5t-40 -19t-64 -4.5h-128v626h128q39 0 64 -4.5t40 -18.5t20 -40t5 -67v-365zM193 503q0 14 -1.5 22.5t-4.5 13t-9 5.5t-17 1h-32v-451h32q11 0 17 1.5t9 5.5t4.5 13t1.5 24v365z" />
    <glyph glyph-name="uniE2F5" unicode="&#xe2f5;" horiz-adv-x="230" 
d="M213 7h-180v626h179v-84h-83v-80h81v-81h-81v-294h84v-87z" />
    <glyph glyph-name="uniE2F6" unicode="&#xe2f6;" horiz-adv-x="225" 
d="M33 7v626h183v-84h-87v-81h84v-84h-84v-377h-96z" />
    <glyph glyph-name="uniE2F7" unicode="&#xe2f7;" horiz-adv-x="309" 
d="M186 445v62q0 15 -1 24t-4 12.5t-9 5.5t-17 2t-17 -2t-9.5 -6t-4.5 -13t-1 -23v-373q0 -15 1 -24t4.5 -13t9.5 -6t17 -2q15 0 24 0.5l9 0.5v285h91v-367q-14 -3 -44 -6t-80 -3q-39 0 -64 5.5t-39.5 21t-19.5 41.5t-5 67v373q0 42 5.5 69t20.5 41.5t40 19t62 4.5
q36 0 60.5 -4.5t39 -19t19.5 -41t5 -69.5v-62h-93z" />
    <glyph glyph-name="uniE2F8" unicode="&#xe2f8;" horiz-adv-x="324" 
d="M291 7h-97v337h-65v-337h-96v626h96v-203h65v203h97v-626z" />
    <glyph glyph-name="uniE2F9" unicode="&#xe2f9;" horiz-adv-x="165" 
d="M130 7h-96v626h96v-626z" />
    <glyph glyph-name="uniE2FA" unicode="&#xe2fa;" horiz-adv-x="290" 
d="M10 282h88v-148q0 -30 5.5 -37.5t25.5 -7.5q19 0 24.5 8t5.5 37v499h97v-499q0 -43 -5 -69.5t-19.5 -41.5t-39 -19.5t-62.5 -4.5q-36 0 -59.5 4.5t-37 19.5t-18.5 41.5t-5 69.5v148z" />
    <glyph glyph-name="uniE2FB" unicode="&#xe2fb;" horiz-adv-x="316" 
d="M299 633l-90 -261l102 -365h-104l-82 324h5v-324h-97v625h97v-232h-5l73 233h101z" />
    <glyph glyph-name="uniE2FC" unicode="&#xe2fc;" horiz-adv-x="228" 
d="M218 7h-185v626h96v-538h89v-88z" />
    <glyph glyph-name="uniE2FD" unicode="&#xe2fd;" horiz-adv-x="410" 
d="M378 633v-626h-81v435h6l-54 -435h-86l-55 438h6v-438h-81v626h130l45 -414h-6l46 414h130z" />
    <glyph glyph-name="uniE2FE" unicode="&#xe2fe;" horiz-adv-x="336" 
d="M201 7l-90 385h6v-385h-84v626h104l86 -395h-6v395h85v-626h-101z" />
    <glyph glyph-name="uniE2FF" unicode="&#xe2ff;" horiz-adv-x="311" 
d="M284 134q0 -43 -5 -69.5t-20 -41.5t-40 -19.5t-64 -4.5t-64 4.5t-39.5 19.5t-19.5 41.5t-5 69.5v373q0 43 5 69.5t19.5 41t39.5 19t64 4.5t64 -4.5t40 -19t20 -41t5 -69.5v-373zM187 507q0 29 -5.5 36.5t-26.5 7.5q-11 0 -17 -2t-9.5 -6t-4.5 -13t-1 -23v-373
q0 -16 1 -24.5t4.5 -13t9.5 -6t17 -1.5t17 1.5t9.5 6t4.5 13.5t1 24v373z" />
    <glyph glyph-name="uniE300" unicode="&#xe300;" horiz-adv-x="308" 
d="M129 240v-233h-96v626h128q39 0 64 -4.5t40 -18.5t20 -40t5 -67v-132q0 -42 -5.5 -68t-20.5 -40.5t-40 -18.5t-63 -4h-32zM129 545v-222h32q11 0 17 1.5t9 5.5t4.5 13t1.5 25v135q0 14 -1 22.5t-4 12.5t-9 5.5t-18 1.5h-32z" />
    <glyph glyph-name="uniE301" unicode="&#xe301;" horiz-adv-x="315" 
d="M201 -52l-40 66q-40 0 -67 4t-42.5 17.5t-20 38.5t-4.5 65v368q0 43 5 69.5t19.5 41t39.5 19t64 4.5t64 -4.5t40 -19t20 -41t5 -69.5v-368q0 -54 -9.5 -81t-32.5 -35l46 -75h-87zM187 507q0 29 -5.5 36.5t-26.5 7.5q-11 0 -17 -2t-9.5 -6t-4.5 -13t-1 -23v-368
q0 -16 1 -24.5t4.5 -12.5t9.5 -5.5t17 -1.5t17 1.5t9.5 5.5t4.5 13t1 24v368z" />
    <glyph glyph-name="uniE302" unicode="&#xe302;" horiz-adv-x="319" 
d="M129 7h-96v626h128q39 0 64 -4.5t40 -19t20 -40t5 -66.5v-65q0 -25 -5.5 -41t-14 -26.5t-18.5 -15t-15 -5.5v4q8 -2 18.5 -7.5t18.5 -17t12 -28.5t4 -43v-251h-97v265q0 23 -5 31t-25 8h-34v-304zM129 392h34q19 0 24.5 7t5.5 28v76q0 14 -1 22.5t-4 12.5t-9.5 5.5
t-17.5 1.5h-32v-153z" />
    <glyph glyph-name="uniE303" unicode="&#xe303;" horiz-adv-x="308" 
d="M185 424v81q0 16 -1 25.5t-3.5 13t-9 5.5t-17.5 2q-13 0 -19 -2t-8.5 -5.5t-3.5 -13t-1 -25.5v-61q0 -11 1 -18t5.5 -12.5t13.5 -11.5t25 -14q39 -21 62 -36.5t35 -31.5t15 -36t3 -50v-100q0 -43 -5 -69.5t-19.5 -41.5t-40 -19.5t-63.5 -4.5q-37 0 -61 4.5t-39 19.5
t-20 41.5t-5 69.5v128h94v-128q0 -16 1 -25t3.5 -13t8.5 -5.5t18 -1.5q21 0 26 7.5t5 37.5v93q0 16 -1 25t-5 16t-13.5 13.5t-25.5 15.5q-39 21 -62 36t-34.5 31t-14.5 35.5t-3 46.5v59q0 43 5 70t19.5 42t39.5 19.5t64 4.5q37 0 62 -4.5t39 -19.5t19 -42t5 -70v-81h-94z
" />
    <glyph glyph-name="uniE304" unicode="&#xe304;" horiz-adv-x="245" 
d="M235 548h-64v-541h-97v541h-65v85h226v-85z" />
    <glyph glyph-name="uniE305" unicode="&#xe305;" horiz-adv-x="314" 
d="M157 -1q-38 0 -62.5 4.5t-39 19.5t-20 41.5t-5.5 69.5v499h96v-499q0 -16 1.5 -24.5t4.5 -12.5t9 -5.5t18 -1.5q10 0 16 1.5t9 5.5t4.5 12.5t1.5 24.5v499h94v-499q0 -43 -5.5 -69.5t-20 -41.5t-39.5 -19.5t-62 -4.5z" />
    <glyph glyph-name="uniE306" unicode="&#xe306;" horiz-adv-x="292" 
d="M74 7l-68 626h99l41 -504h-6l46 504h99l-76 -626h-135z" />
    <glyph glyph-name="uniE307" unicode="&#xe307;" horiz-adv-x="446" 
d="M104 633l25 -484h-7l40 484h119l34 -484h-6l32 484h97l-70 -626h-118l-32 489h6l-41 -489h-120l-56 626h97z" />
    <glyph glyph-name="uniE308" unicode="&#xe308;" horiz-adv-x="295" 
d="M279 633l-61 -298l72 -328h-100l-45 252l-44 -252h-97l69 328l-64 298h99l42 -214l39 214h90z" />
    <glyph glyph-name="uniE309" unicode="&#xe309;" horiz-adv-x="278" 
d="M275 633l-90 -404v-222h-96v222l-87 404h96l43 -278h-6l45 278h95z" />
    <glyph glyph-name="uniE30A" unicode="&#xe30a;" horiz-adv-x="245" 
d="M231 7h-217v84l117 457h-105v85h204v-66l-115 -473h116v-87z" />
    <glyph glyph-name="uniE331" unicode="&#xe331;" horiz-adv-x="146" 
d="M23 7l15 479h69l15 -479h-99zM28 633h89v-113h-89v113z" />
    <glyph glyph-name="uniE34F" unicode="&#xe34f;" horiz-adv-x="300" 
d="M111 633h89v-112h-89v112zM198 431q0 -19 -1 -32.5t-3.5 -25.5t-7.5 -23t-12 -24l-42 -68q-8 -14 -10.5 -26t-2.5 -36v-62q0 -16 1.5 -24.5t4 -12.5t8.5 -5.5t18 -1.5t17.5 1.5t8.5 5.5t4 13t1 24v83h94v-83q0 -44 -5 -70t-19.5 -41t-39 -19.5t-61.5 -4.5q-39 0 -64 4.5
t-39.5 19.5t-20 41t-5.5 70v55q0 21 1 35t4 26.5t8.5 24t14.5 25.5l52 86q4 7 6.5 12t4 10t2 11.5t0.5 15.5v51h83v-55z" />
    <glyph glyph-name="uniFB01" unicode="&#xfb01;" horiz-adv-x="436" 
d="M228 516h-76v-516h-102v516h-37v83h37v64q0 66 33 96.5t112 30.5h32v-76h-25q-50 0 -50 -56v-59h76v-83zM389 686h-101v104h101v-104zM389 0h-101v599h101v-599z" />
    <glyph glyph-name="uniFB02" unicode="&#xfb02;" horiz-adv-x="433" 
d="M228 516h-76v-516h-102v516h-37v83h37v64q0 66 33 96.5t112 30.5h32v-76h-25q-50 0 -50 -56v-59h76v-83zM388 0h-102v790h102v-790z" />
    </font>
</defs>
</svg>
