<svg version="1" xmlns="http://www.w3.org/2000/svg" width="933.333" height="933.333" viewBox="0 0 700.000000 700.000000"><path d="M653.9 11.2c-5.3 1.6-13.9 7.7-17.5 12.5-5.3 6.9-7.6 14.6-7.2 23.3 1.5 34.3 45.7 46.6 64.9 18 9.6-14.1 7.2-34.2-5.2-45.4-7.5-6.7-13-9-22.9-9.2-4.7-.2-10.1.2-12.1.8zM521 61.1c-21.6 2.5-43.7 12.8-60.3 27.9-14.2 13.1-26.3 33.3-31.3 52.5-3.1 12-4.2 31-2.5 42.5 4.4 28.7 19.7 54.2 42.6 71.3 54.3 40.4 131.8 21.8 161.6-38.8 33.1-67.3-10-146.5-84.6-155.4-10.1-1.2-14.7-1.2-25.5 0zM222 186.5c-45.8 5.7-88.8 23.5-126 52.4-10.4 8-32.5 29.9-40.6 40.1-25 31.7-42.7 69.2-50.5 107.4-6.8 33.1-6.5 73.1.7 105.5C13.9 529 30.1 563.3 53.9 594c8.4 10.9 31.2 33.7 42.1 42.1 30.7 23.8 65 40 102.1 48.3 32.5 7.2 72.4 7.5 105.7.7 65.8-13.5 124-53.6 161.5-111.1 15.9-24.5 28.7-55.9 34.8-85.2 6.6-32.2 6.6-70.4 0-102.6-13.5-65.8-53.6-124-111.1-161.5-31-20.2-68.7-33.6-107-38.3-14.2-1.7-45.9-1.6-60 .1zM408 360v26H279v239h-50V386H97v-52h311v26z"/></svg>