<?xml version="1.0" encoding="UTF-8"?>
<svg id="ttnet-logo" width="310" height="70" version="1.1" viewBox="0 0 310 70" xmlns="http://www.w3.org/2000/svg"><g transform="translate(-133.33 -20.981)"><g><circle cx="409.17" cy="51.538" r="19" fill="#036336"/><path d="m316 90.981h78.386v-19.683h-78.386v19.683z"/><text transform="scale(.89103 1.1223)" x="362.28064" y="76.647133" fill="#ffffff" font-family="Candara" style="line-height:0%"><tspan x="362.28064" y="76.647133" font-size="13.619px" style="line-height:1.25">ИНТЕРНЕТ</tspan></text></g><g><path d="m306.71 43.424 9.841.02011v17.924h3.7981v-17.915l9.6589-.01479v-3.953h-23.298v3.9391"/><path d="m204.03 43.424 9.8407.02011v17.924h3.799v-17.915l9.6598-.01479v-3.953h-23.299v3.9391"/><path d="m282.59 61.369h19.812v-3.7561l-15.991.02708-.14263-5.6717h9.8682v-3.5155l-9.8723.01913v-5.047h16.134v-3.9391h-19.812v21.576"/><path d="m231.23 61.369h19.813v-3.7561l-15.991.02708-.14383-5.6717h9.8666l.0109-3.5155-9.8731.01913v-5.047h16.135v-3.9391h-19.813v21.576"/><path d="m254.22 61.182 11.422-21.697h2.4683l11.644 21.883h-4.9725l-7.7956-15.887-7.8661 15.887h-5.0437"/><path d="m332.42 61.18 11.427-21.694h2.9066l11.599 21.883h-5.0523l-7.9141-16.136-7.9916 16.136h-5.1216"/><path d="m341.12 53.168h8.1641l1.7625 3.5984h-11.368l1.4418-3.5984"/><path d="m364.01 39.485h3.6635v15.482l15.551-15.482h4.3362v21.883h-3.813l-.0747-15.664-15.551 15.664h-4.112v-21.883"/></g><g><g><path d="m396.16 61.369v-21.883h4.5604l8.5229 11.753 8.4481-11.753h4.487v21.883h-4.188l-.072-13.943-8.1506 11.066-1.4948.14812-7.8761-11.234-.12501 13.962h-4.112" fill="#fff"/><path d="m371.23 39.799h9.0827v-3.5506h-9.0827v3.5506z"/><path d="m203.54 90.981h106.29v-19.683h-106.29v19.683z" fill="#036336"/><text transform="scale(.89103 1.1223)" x="237.85309" y="76.583954" fill="#ffffff" font-family="Candara" style="line-height:0%"><tspan x="237.85309" y="76.583954" font-size="13.619px" style="line-height:1.25">КАБЕЛЬНОЕ ТВ</tspan></text></g><path d="m158.6 55.969 15.85-31.088h16.856l-15.786 31.088 15.815 31.088h-16.888z" fill="#036336"/><path d="m133.33 56.013 15.85-31.088h16.855l-15.786 31.088 15.815 31.088h-16.888z"/></g><g fill="#197254" fill-rule="evenodd"><path d="m175.45 30.375 4.6144-2.1292v1.1033h4.6493v2.0053h-4.6493v1.1497z"/><path d="m175.45 82.1 4.6144-2.1292v1.1033h4.6493v2.0053h-4.6493v1.1497z"/><path d="m168.44 69.169 4.6144-2.1292v1.1033h4.6493v2.0053h-4.6493v1.1497z"/><path d="m168.44 43.306 4.6144-2.1292v1.1033h4.6493v2.0053h-4.6493v1.1497z"/><path d="m162.83 56.238 4.6144-2.1292v1.1033h4.6493v2.0053h-4.6493v1.1497z"/></g><g fill="#1a1a1a" fill-rule="evenodd"><path d="m150.22 30.375 4.6144-2.1292v1.1033h4.6493v2.0053h-4.6493v1.1497z"/><path d="m150.22 82.1 4.6144-2.1292v1.1033h4.6493v2.0053h-4.6493v1.1497z"/><path d="m143.21 69.169 4.6144-2.1292v1.1033h4.6493v2.0053h-4.6493v1.1497z"/><path d="m143.21 43.306 4.6144-2.1292v1.1033h4.6493v2.0053h-4.6493v1.1497z"/><path d="m137.61 56.238 4.6144-2.1292v1.1033h4.6493v2.0053h-4.6493v1.1497z"/></g><circle cx="440.85" cy="23.461" r="2.48" fill="#036336"/><circle cx="430.27" cy="31.392" r="8.1" fill="#036336"/></g></svg>
