<?xml version="1.0" standalone="no"?>
<!DOCTYPE svg PUBLIC "-//W3C//DTD SVG 1.1//EN" "http://www.w3.org/Graphics/SVG/1.1/DTD/svg11.dtd" >
<svg xmlns="http://www.w3.org/2000/svg" xmlns:xlink="http://www.w3.org/1999/xlink" version="1.1">
<metadata>
Created by FontForge 20161116 at Wed Jul 20 21:39:14 2005
 By Jimmy Wärting
\251 DoubleAlex Team. All rights reserved.
</metadata>
<defs>
<font id="Partner-Bold" horiz-adv-x="500" >
  <font-face 
    font-family="Partner"
    font-weight="700"
    font-stretch="normal"
    units-per-em="1000"
    panose-1="0 0 8 0 0 0 0 0 0 0"
    ascent="19"
    descent="-981"
    x-height="502"
    cap-height="722"
    bbox="-30 -981 1121 942"
    underline-thickness="56"
    underline-position="-96"
    stemh="116"
    stemv="156"
    unicode-range="U+0020-25CA"
  />
<missing-glyph horiz-adv-x="1000" 
 />
    <glyph glyph-name=".notdef" horiz-adv-x="1000" 
 />
    <glyph glyph-name="_0000" 
 />
    <glyph glyph-name="space" unicode=" " horiz-adv-x="278" 
 />
    <glyph glyph-name="exclam" unicode="!" horiz-adv-x="389" 
d="M262 723l-13 -526h-103l-18 526h134zM262 0h-127v133h127v-133z" />
    <glyph glyph-name="quotedbl" unicode="&#x22;" horiz-adv-x="400" 
d="M49 722h140v-260h-140v260zM285 722h140v-260h-140v260z" />
    <glyph glyph-name="numbersign" unicode="#" horiz-adv-x="556" 
d="M201 692h100l-37 -193h97l37 193h99l-37 -193h76v-100h-93l-23 -133h90v-100h-113l-31 -166h-100l31 166h-97l-31 -166h-100l31 166h-88v100h109l23 133h-93v100h113zM244 399l-23 -133h98l25 133h-100z" />
    <glyph glyph-name="dollar" unicode="$" horiz-adv-x="556" 
d="M305 269v-169c36 4 71 25 71 82c0 55 -29 73 -71 87zM305 737v-45c121 -11 213 -68 211 -199h-145c-2 55 -19 96 -66 99v-185c113 -26 226 -67 226 -203c0 -126 -115 -206 -226 -204v-45h-55v45c-142 -2 -229 76 -226 215h145c-3 -56 25 -112 81 -115v181
c-131 37 -219 64 -219 212c0 112 114 194 219 199v45h55zM250 422v170c-42 0 -64 -46 -64 -91c0 -49 28 -66 64 -79z" />
    <glyph glyph-name="percent" unicode="%" horiz-adv-x="889" 
d="M677 769l-380 -780h-75l380 780h75zM682 369c123 0 165 -80 165 -192s-42 -192 -165 -192s-165 80 -165 192s42 192 165 192zM626 177c0 -43 8 -111 56 -104c48 0 56 68 56 104s-8 104 -56 104c-48 7 -56 -61 -56 -104zM227 707c123 0 165 -80 165 -192
s-42 -192 -165 -192s-165 80 -165 192s42 192 165 192zM171 515c0 -43 8 -111 56 -104c48 0 56 68 56 104s-8 104 -56 104c-48 7 -56 -61 -56 -104z" />
    <glyph glyph-name="ampersand" unicode="&#x26;" horiz-adv-x="778" 
d="M315 475c32 22 73 63 73 105s-36 57 -77 57s-71 -27 -71 -62c0 -32 51 -80 75 -100zM594 0l-56 65c-56 -52 -153 -80 -228 -80c-129 0 -284 57 -284 209c0 106 70 178 156 231c-48 37 -87 94 -87 156c0 117 123 156 219 156s219 -39 219 -156c0 -84 -71 -149 -141 -184
l146 -147c25 41 32 86 36 129c2 23 5 47 5 70h155c2 -26 -3 -52 -8 -77c-14 -80 -48 -156 -92 -222l147 -150h-187zM447 145l-188 191c-40 -34 -68 -76 -68 -131c0 -69 59 -108 123 -108c41 0 104 22 133 48z" />
    <glyph glyph-name="quotesingle" unicode="'" horiz-adv-x="278" 
d="M49 722h140v-260h-140v260z" />
    <glyph glyph-name="parenleft" unicode="(" horiz-adv-x="333" 
d="M171 722h102c-46 -140 -75 -280 -75 -428c0 -116 40 -277 74 -390h-101c-50 128 -93 261 -93 399c0 154 41 278 93 419z" />
    <glyph glyph-name="parenright" unicode=")" horiz-adv-x="333" 
d="M162 -96h-102c46 140 75 280 75 428c0 116 -40 277 -74 390h101c50 -128 93 -261 93 -399c0 -154 -41 -278 -93 -419z" />
    <glyph glyph-name="asterisk" unicode="*" horiz-adv-x="556" 
d="M222 485l-151 -20v106l152 -22l-94 119l93 51l56 -138l59 141l93 -55l-98 -118l153 18l-2 -106l-149 23l94 -123l-93 -51l-58 141l-58 -142l-90 54z" />
    <glyph glyph-name="plus" unicode="+" horiz-adv-x="584" 
d="M232 484h120v-182h182v-120h-182v-182h-120v182h-182v120h182v182z" />
    <glyph glyph-name="comma" unicode="," horiz-adv-x="278" 
d="M28 -112l74 245h148l-119 -245h-103z" />
    <glyph glyph-name="hyphen" unicode="-" horiz-adv-x="333" 
d="M291 208h-248v112h248v-112z" />
    <glyph glyph-name="hyphen" unicode="&#xad;" horiz-adv-x="333" 
d="M291 208h-248v112h248v-112z" />
    <glyph glyph-name="period" unicode="." horiz-adv-x="278" 
d="M203 0h-127v133h127v-133z" />
    <glyph glyph-name="slash" unicode="/" horiz-adv-x="278" 
d="M402 722l-243 -818h-117l244 818h116z" />
    <glyph glyph-name="zero" unicode="0" horiz-adv-x="556" 
d="M367 345c0 17 8 262 -89 262s-89 -245 -89 -262s-8 -260 89 -260s89 243 89 260zM522 345c0 -168 -51 -360 -247 -360c-190 0 -241 192 -241 360s51 362 241 362c196 0 247 -194 247 -362z" />
    <glyph glyph-name="one" unicode="1" horiz-adv-x="556" 
d="M95 453v138c62 26 121 61 174 101h140v-692h-150v542c-51 -36 -106 -66 -164 -89z" />
    <glyph glyph-name="two" unicode="2" horiz-adv-x="556" 
d="M25 0v141c63 69 335 271 335 375c0 50 -35 91 -85 91c-56 0 -87 -56 -87 -107h-153c-5 143 108 207 237 207c121 0 238 -57 238 -194c0 -171 -237 -302 -335 -413h2h338v-100h-490z" />
    <glyph glyph-name="three" unicode="3" horiz-adv-x="556" 
d="M22 190h152c-2 -48 36 -105 86 -105c56 0 92 51 92 108c0 97 -94 114 -170 111v100c72 4 168 12 168 108c0 53 -29 95 -83 95c-45 0 -85 -49 -83 -95h-153c6 137 109 195 235 195c97 0 234 -57 234 -175c0 -97 -57 -156 -133 -172v-2c84 -24 135 -79 135 -187
c0 -109 -128 -186 -244 -186c-138 0 -235 54 -236 205z" />
    <glyph glyph-name="four" unicode="4" horiz-adv-x="556" 
d="M298 252v233h-2l-128 -233h130zM539 140h-96v-140h-145v140h-258v112l253 440h150v-440h96v-112z" />
    <glyph glyph-name="five" unicode="5" horiz-adv-x="556" 
d="M31 172h148c4 -48 40 -87 88 -87c76 0 100 88 100 149c0 57 -31 125 -96 125c-46 0 -77 -36 -89 -79l-145 4l16 408h423v-100h-291l-9 -182c34 34 80 49 128 49c124 0 213 -75 213 -237c0 -128 -111 -237 -254 -237c-121 0 -226 54 -232 187z" />
    <glyph glyph-name="six" unicode="6" horiz-adv-x="556" 
d="M379 220c0 61 -23 129 -94 129c-65 0 -94 -74 -94 -129c0 -57 24 -135 94 -135c69 0 94 76 94 135zM517 525h-148c-1 29 -10 50 -23 63c-14 13 -33 19 -57 19c-90 0 -98 -148 -98 -209c35 38 79 51 130 51c129 0 213 -89 213 -214c0 -72 -23 -131 -56 -168
c-36 -41 -116 -82 -201 -82c-163 0 -241 101 -241 302c0 196 28 420 271 420c113 0 211 -61 210 -182z" />
    <glyph glyph-name="seven" unicode="7" horiz-adv-x="556" 
d="M37 692h446v-130l-213 -562h-147l220 580h-306v112z" />
    <glyph glyph-name="eight" unicode="8" horiz-adv-x="556" 
d="M178 194c0 -62 37 -109 103 -109c55 0 97 46 97 109s-38 109 -100 109c-54 0 -100 -42 -100 -109zM178 514c0 -56 44 -91 108 -91c50 0 92 35 92 91s-42 93 -106 93c-50 0 -94 -37 -94 -93zM172 365v2c-83 22 -134 69 -134 158c0 114 129 182 241 182
c111 0 239 -51 239 -182c0 -80 -62 -146 -137 -157v1v-2c87 -20 147 -86 147 -176c0 -128 -127 -206 -249 -206c-125 0 -251 65 -251 206c0 91 67 153 144 174z" />
    <glyph glyph-name="nine" unicode="9" horiz-adv-x="556" 
d="M32 170h152c6 -44 29 -85 74 -85c109 0 109 142 104 221c-40 -34 -77 -43 -135 -43c-114 0 -207 98 -207 208c0 142 108 236 247 236c192 0 250 -134 250 -308c0 -186 -15 -414 -257 -414c-128 0 -224 41 -228 185zM175 481c0 -64 25 -118 97 -118c65 0 90 54 90 118
s-25 126 -90 126c-72 0 -97 -62 -97 -126z" />
    <glyph glyph-name="colon" unicode=":" horiz-adv-x="278" 
d="M203 0h-127v133h127v-133zM203 370h-127v133h127v-133z" />
    <glyph glyph-name="semicolon" unicode=";" horiz-adv-x="278" 
d="M28 -112l74 245h148l-119 -245h-103zM222 373h-127v133h127v-133z" />
    <glyph glyph-name="less" unicode="&#x3c;" horiz-adv-x="584" 
d="M40 182v120l489 182v-130l-314 -111v-2l314 -111v-130z" />
    <glyph glyph-name="equal" unicode="=" horiz-adv-x="584" 
d="M50 412h484v-120h-484v120zM50 172h484v-120h-484v120z" />
    <glyph glyph-name="greater" unicode="&#x3e;" horiz-adv-x="584" 
d="M529 302v-120l-489 -182v130l314 111v2l-314 111v130z" />
    <glyph glyph-name="question" unicode="?" 
d="M255 162h-112v102c-6 61 53 97 81 130c24 29 75 93 75 133c0 77 -47 109 -119 109c-45 0 -90 -11 -133 -24v104c55 15 112 20 169 20c107 0 238 -53 238 -179c0 -100 -68 -158 -137 -218c-40 -35 -56 -49 -62 -86v-91zM260 0h-127v133h127v-133z" />
    <glyph glyph-name="at" unicode="@" horiz-adv-x="1015" 
d="M644 501h90l-84 -302c-5 -34 1 -54 38 -61c109 -20 160 145 160 228c0 187 -173 278 -340 271c-226 -9 -372 -191 -365 -389c7 -188 147 -291 333 -299c79 -3 151 14 215 41l29 -89c-74 -38 -166 -52 -247 -52c-239 0 -444 155 -445 404c-2 257 231 493 533 484
c219 -7 393 -162 387 -394c-4 -137 -109 -304 -262 -293c-56 4 -87 19 -115 67c-68 -55 -104 -71 -149 -71c-100 0 -166 63 -162 162c5 129 100 297 244 304c48 2 107 -20 124 -70h2zM592 300c16 86 -34 141 -92 135c-69 0 -125 -124 -130 -189c-6 -72 14 -98 58 -108
c89 -20 152 97 164 162z" />
    <glyph glyph-name="A" unicode="A" horiz-adv-x="722" 
d="M161 0h-148l261 722h184l251 -722h-156l-52 153h-286zM255 273h207l-99 308h-2z" />
    <glyph glyph-name="B" unicode="B" horiz-adv-x="667" 
d="M223 120h121c73 0 123 13 123 96s-50 96 -123 96h-121v-192zM223 432h121c65 0 101 27 101 85s-36 85 -101 85h-121v-170zM341 0h-273v722h271c129 0 261 -46 261 -187c0 -79 -55 -134 -127 -158v-2c91 -19 159 -82 159 -188c0 -143 -180 -187 -291 -187z" />
    <glyph glyph-name="C" unicode="C" horiz-adv-x="667" 
d="M640 488h-165c1 76 -45 137 -138 137c-110 0 -138 -163 -138 -264s28 -264 138 -264c93 0 139 61 138 137h165c-7 -181 -137 -249 -303 -249c-209 0 -303 165 -303 376s94 376 303 376c166 0 296 -68 303 -249z" />
    <glyph glyph-name="D" unicode="D" horiz-adv-x="722" 
d="M220 602v-482h80c184 0 211 126 211 241s-27 241 -211 241h-80zM65 0v722h246c225 0 365 -110 365 -361s-140 -361 -365 -361h-246z" />
    <glyph glyph-name="E" unicode="E" horiz-adv-x="611" 
d="M58 0v722h484v-120h-329v-169h308v-120h-308v-193h340v-120h-495z" />
    <glyph glyph-name="F" unicode="F" horiz-adv-x="556" 
d="M224 0h-155v722h466v-120h-311v-174h290v-120h-290v-308z" />
    <glyph glyph-name="G" unicode="G" horiz-adv-x="778" 
d="M550 265h-141v120h296v-361c-53 -17 -106 -27 -162 -32c-35 -3 -71 -7 -166 -7c-143 0 -339 89 -339 376s196 376 339 376c209 0 338 -63 339 -235h-165c0 92 -60 123 -145 123c-137 0 -203 -101 -203 -264s66 -264 203 -264c62 0 103 8 144 16v152z" />
    <glyph glyph-name="H" unicode="H" horiz-adv-x="722" 
d="M224 0h-155v722h155v-285h275v285h155v-722h-155v317h-275v-317z" />
    <glyph glyph-name="I" unicode="I" horiz-adv-x="278" 
d="M217 722v-722h-155v722h155z" />
    <glyph glyph-name="J" unicode="J" horiz-adv-x="556" 
d="M338 722h155v-482c0 -178 -110 -255 -242 -255c-181 0 -230 102 -242 246h155c1 -52 11 -134 87 -134c83 0 87 94 87 146v479z" />
    <glyph glyph-name="K" unicode="K" horiz-adv-x="667" 
d="M222 722v-312h2l240 312h181l-265 -323l288 -399h-193l-251 368h-2v-368h-155v722h155z" />
    <glyph glyph-name="L" unicode="L" horiz-adv-x="556" 
d="M537 0h-468v722h155v-602h313v-120z" />
    <glyph glyph-name="M" unicode="M" horiz-adv-x="944" 
d="M729 620l-202 -620h-129l-191 620l-2 -2v-618h-145v722h254l151 -525h2l164 525h245v-722h-145v618z" />
    <glyph glyph-name="N" unicode="N" horiz-adv-x="778" 
d="M718 0h-220l-285 600l-2 -2v-598h-145v722h230l275 -568l2 2v566h145v-722z" />
    <glyph glyph-name="O" unicode="O" horiz-adv-x="778" 
d="M389 -15c-239 0 -347 163 -347 376s108 376 347 376s347 -163 347 -376s-108 -376 -347 -376zM389 625c-153 0 -182 -140 -182 -264s29 -264 182 -264s182 140 182 264s-29 264 -182 264z" />
    <glyph glyph-name="P" unicode="P" horiz-adv-x="611" 
d="M220 0h-155v722h223c160 0 295 -39 295 -222c0 -131 -89 -222 -250 -222h-113v-278zM220 602v-204c86 4 198 -26 198 102s-112 98 -198 102z" />
    <glyph glyph-name="Q" unicode="Q" horiz-adv-x="778" 
d="M389 97c153 0 182 140 182 264s-29 264 -182 264s-182 -140 -182 -264s29 -264 182 -264zM770 112v-112h-304c-12 -4 -25 -8 -38 -10c-13 -3 -26 -5 -39 -5c-239 0 -347 163 -347 376s108 376 347 376s346 -163 347 -376c0 -79 -53 -207 -108 -255l2 -2c15 5 52 8 89 8
h51z" />
    <glyph glyph-name="R" unicode="R" horiz-adv-x="667" 
d="M215 602v-191h130c68 0 108 35 108 99s-40 92 -108 92h-130zM215 291v-291h-155v722h307c124 0 251 -41 251 -188c0 -94 -61 -156 -150 -175v-2c119 -13 118 -86 132 -186c6 -46 13 -131 42 -171h-171c-13 64 -20 129 -27 194c-4 40 -14 97 -65 97h-164z" />
    <glyph glyph-name="S" unicode="S" horiz-adv-x="667" 
d="M603 516h-149c-6 73 -45 109 -120 109c-57 0 -115 -30 -115 -93c0 -78 70 -87 132 -102c110 -28 272 -59 272 -204c0 -179 -156 -241 -311 -241c-165 0 -282 64 -277 246h158c-6 -80 40 -134 121 -134c62 0 144 19 144 96c0 85 -103 91 -165 107
c-101 25 -239 71 -239 199c0 165 152 238 300 238c140 0 249 -76 249 -221z" />
    <glyph glyph-name="T" unicode="T" horiz-adv-x="611" 
d="M13 602v120h585v-120h-215v-602h-155v602h-215z" />
    <glyph glyph-name="U" unicode="U" horiz-adv-x="778" 
d="M547 722h155v-452c0 -192 -138 -285 -313 -285s-313 93 -313 285v452h155v-392c0 -122 6 -233 158 -233s158 111 158 233v392z" />
    <glyph glyph-name="V" unicode="V" horiz-adv-x="667" 
d="M277 0l-266 722h169l188 -569h2l189 569h153l-266 -722h-169z" />
    <glyph glyph-name="W" unicode="W" horiz-adv-x="1000" 
d="M283 179l140 543h175l126 -543h2l116 543h148l-184 -722h-172l-130 550h-2l-140 -550h-176l-176 722h160l111 -543h2z" />
    <glyph glyph-name="X" unicode="X" horiz-adv-x="722" 
d="M355 272l-173 -272h-166l254 374l-237 348h191l146 -245l156 245h166l-238 -347l252 -375h-190z" />
    <glyph glyph-name="Y" unicode="Y" horiz-adv-x="667" 
d="M256 0v236l-243 486h181l149 -331l152 331h159l-243 -486v-236h-155z" />
    <glyph glyph-name="Z" unicode="Z" horiz-adv-x="611" 
d="M29 0v120l358 482h-335v120h523v-120l-357 -482h365v-120h-554z" />
    <glyph glyph-name="bracketleft" unicode="[" horiz-adv-x="333" 
d="M58 722h214v-90h-94v-638h94v-90h-214v818z" />
    <glyph glyph-name="backslash" unicode="\" horiz-adv-x="278" 
d="M-30 722h112l226 -722h-112z" />
    <glyph glyph-name="bracketright" unicode="]" horiz-adv-x="333" 
d="M275 -96h-214v90h94v638h-94v90h214v-818z" />
    <glyph glyph-name="asciicircum" unicode="^" horiz-adv-x="584" 
d="M62 267l167 425h124l170 -425h-113l-118 299l-117 -299h-113z" />
    <glyph glyph-name="underscore" unicode="_" 
d="M500 -68v-56h-500v56h500z" />
    <glyph glyph-name="grave" unicode="`" horiz-adv-x="278" 
d="M-18 722h134l83 -144h-80z" />
    <glyph glyph-name="a" unicode="a" horiz-adv-x="556" 
d="M344 236c-52 1 -159 2 -159 -79c0 -42 31 -72 73 -72c83 0 86 92 86 151zM208 360h-144c1 63 28 102 68 125c41 24 94 32 148 32c101 0 214 -37 214 -188v-274c0 -25 5 -40 7 -55h-135c-3 23 -5 46 -5 67h-2c-34 -58 -86 -82 -154 -82c-94 0 -164 54 -164 152
c0 35 16 120 107 159c60 26 136 29 196 27v47c0 21 -16 62 -69 62c-52 0 -69 -49 -67 -72z" />
    <glyph glyph-name="b" unicode="b" horiz-adv-x="611" 
d="M200 251c0 -69 27 -166 108 -166c96 0 108 89 108 166s-12 166 -108 166c-81 0 -108 -97 -108 -166zM50 100v622h150v-278h2c28 42 82 73 134 73c156 0 235 -131 235 -266c0 -129 -69 -266 -216 -266c-65 0 -121 27 -154 86h-2c0 -24 -2 -47 -4 -71h-150c2 33 5 67 5 100
z" />
    <glyph glyph-name="c" unicode="c" 
d="M479 326h-148c-1 41 -18 91 -76 91c-64 0 -67 -129 -67 -159c0 -27 4 -173 69 -173c58 0 75 57 76 98h146c-5 -128 -84 -198 -222 -198c-149 0 -224 133 -224 266s75 266 224 266c128 0 223 -73 222 -191z" />
    <glyph glyph-name="d" unicode="d" horiz-adv-x="611" 
d="M195 251c0 -77 12 -166 108 -166c81 0 108 97 108 166s-27 166 -108 166c-96 0 -108 -89 -108 -166zM411 444v278h150v-622c0 -33 3 -67 5 -100h-150c-2 24 -4 47 -4 71h-2c-33 -59 -89 -86 -154 -86c-147 0 -216 137 -216 266c0 135 79 266 235 266
c52 0 106 -31 134 -73h2z" />
    <glyph glyph-name="e" unicode="e" horiz-adv-x="556" 
d="M526 211h-329c0 -65 9 -126 86 -126c52 0 78 19 92 65h135c-13 -124 -110 -165 -227 -165c-172 0 -241 97 -241 265c0 151 88 267 241 267c94 0 172 -32 214 -120c14 -28 21 -58 25 -90c4 -31 4 -63 4 -96zM197 311h174c0 55 -15 106 -88 106c-69 0 -84 -51 -86 -106z
" />
    <glyph glyph-name="f" unicode="f" horiz-adv-x="333" 
d="M329 730v-93c-106 12 -108 -36 -104 -135h91v-100h-91v-402h-150v402h-75v100h75c-4 143 9 235 172 235c27 0 55 -3 82 -7z" />
    <glyph glyph-name="g" unicode="g" horiz-adv-x="611" 
d="M205 259c0 -65 15 -149 97 -149s97 84 97 149c0 74 -15 158 -97 158s-97 -84 -97 -158zM549 502v-457c0 -117 -26 -244 -246 -243c-111 1 -230 27 -233 162h142c2 -45 42 -62 83 -62c114 0 110 104 104 177h-2c-31 -49 -84 -69 -141 -69c-136 0 -206 128 -206 250
c0 128 73 257 213 257c67 0 110 -22 134 -73h2v58h150z" />
    <glyph glyph-name="h" unicode="h" horiz-adv-x="611" 
d="M216 0h-150v722h149v-279l2 -2c31 46 78 76 154 76c50 0 147 -37 165 -110c8 -31 10 -63 10 -80v-327h-150v302c0 54 -16 115 -90 115c-47 0 -90 -42 -90 -115v-302z" />
    <glyph glyph-name="i" unicode="i" horiz-adv-x="278" 
d="M64 502h150v-502h-150v502zM59 722h160v-129h-160v129z" />
    <glyph glyph-name="j" unicode="j" horiz-adv-x="278" 
d="M215 502v-521c0 -120 -38 -177 -165 -177c-17 0 -34 0 -51 4v95c38 -2 66 22 66 63v536h150zM60 722h160v-129h-160v129z" />
    <glyph glyph-name="k" unicode="k" 
d="M217 722v-423l2 -2l148 211h167l-173 -220l184 -288h-175l-151 275l-2 -2v-273h-150v722h150z" />
    <glyph glyph-name="l" unicode="l" horiz-adv-x="278" 
d="M64 722h150v-722h-150v722z" />
    <glyph glyph-name="m" unicode="m" horiz-adv-x="944" 
d="M216 502v-59h2c31 44 78 74 154 74c56 0 139 -40 160 -95c47 65 94 95 170 95c56 0 138 -40 160 -95c15 -38 15 -80 15 -120v-302h-150v302c0 54 -16 115 -90 115c-47 0 -90 -42 -90 -115v-302h-150v302c0 54 -16 115 -90 115c-47 0 -90 -42 -90 -115v-302h-150v502h149z
" />
    <glyph glyph-name="n" unicode="n" horiz-adv-x="611" 
d="M215 502v-58l2 -3c31 46 78 76 154 76c50 0 147 -37 165 -110c8 -31 10 -63 10 -80v-327h-150v302c0 54 -16 115 -90 115c-47 0 -90 -42 -90 -115v-302h-150v502h149z" />
    <glyph glyph-name="o" unicode="o" horiz-adv-x="611" 
d="M568 251c0 -158 -98 -266 -262 -266s-262 108 -262 266s98 266 262 266s262 -108 262 -266zM199 251c0 -80 15 -166 107 -166s107 86 107 166s-15 166 -107 166s-107 -86 -107 -166z" />
    <glyph glyph-name="p" unicode="p" horiz-adv-x="611" 
d="M197 502l3 -58h2c28 42 82 73 134 73c156 0 235 -131 235 -266c0 -129 -69 -266 -216 -266c-65 0 -121 27 -153 86h-2v-263h-150v594c0 33 -3 67 -5 100h152zM200 251c0 -69 27 -166 108 -166c96 0 108 89 108 166s-12 166 -108 166c-81 0 -108 -97 -108 -166z" />
    <glyph glyph-name="q" unicode="q" horiz-adv-x="611" 
d="M411 251c0 69 -27 166 -108 166c-96 0 -108 -89 -108 -166s12 -166 108 -166c81 0 108 97 108 166zM561 401v-594h-150v264h-2c-32 -59 -88 -86 -153 -86c-147 0 -216 137 -216 266c0 135 79 266 235 266c52 0 106 -31 134 -73l2 -1l3 59h152c-2 -34 -5 -68 -5 -101z" />
    <glyph glyph-name="r" unicode="r" horiz-adv-x="389" 
d="M53 502h137l3 -91h2c32 79 96 99 171 97v-133h-65c-25 0 -58 -16 -73 -37c-16 -28 -20 -56 -20 -89v-249h-149l-1 402c0 21 -3 63 -5 100z" />
    <glyph glyph-name="s" unicode="s" 
d="M453 368h-135c-2 34 -34 49 -68 49c-41 0 -60 -12 -60 -45c0 -79 287 -34 287 -222c0 -110 -134 -165 -227 -165c-117 0 -219 46 -221 161h139c3 -39 38 -61 82 -61c41 0 72 17 72 56c0 40 -72 57 -102 64c-96 23 -185 44 -185 161c0 105 127 151 215 151
c106 0 196 -38 203 -149z" />
    <glyph glyph-name="t" unicode="t" horiz-adv-x="333" 
d="M1 502h101v99l150 54v-153h113v-100h-113v-233c0 -66 10 -84 62 -84c16 0 32 2 48 3v-88c-17 -8 -97 -15 -118 -15c-117 0 -142 61 -142 170v247h-101v100z" />
    <glyph glyph-name="u" unicode="u" horiz-adv-x="611" 
d="M398 0l-6 62c-32 -46 -79 -77 -155 -77c-50 0 -147 38 -165 111c-8 31 -10 63 -10 80v326h150v-301c0 -54 16 -116 90 -116c47 0 90 43 90 116v301h150v-412c0 -30 3 -60 6 -90h-150z" />
    <glyph glyph-name="v" unicode="v" horiz-adv-x="556" 
d="M198 0l-185 502h159l112 -340h2l115 340h143l-182 -502h-164z" />
    <glyph glyph-name="w" unicode="w" horiz-adv-x="833" 
d="M529 502l105 -378h2l98 378h147l-173 -502h-161l-103 374h-2l-105 -374h-163l-165 502h157l92 -378h2l106 378h163z" />
    <glyph glyph-name="x" unicode="x" horiz-adv-x="556" 
d="M375 259l169 -259h-175l-102 185l-103 -185h-155l169 271l-162 231h175l95 -162l99 162h154z" />
    <glyph glyph-name="y" unicode="y" horiz-adv-x="556" 
d="M286 155l112 347h147l-252 -693h-149l64 190l-194 503h160l110 -347h2z" />
    <glyph glyph-name="z" unicode="z" horiz-adv-x="444" 
d="M466 0h-431v100l276 302h-269v100h414v-100l-276 -302h286v-100z" />
    <glyph glyph-name="braceleft" unicode="{" horiz-adv-x="334" 
d="M54 277v80c18 0 72 -2 72 43v202c0 83 68 120 99 120h75v-90h-19c-43 0 -40 -22 -43 -45v-185c0 -67 -54 -82 -81 -84v-2c27 -3 81 -9 81 -92v-185c0 -23 3 -45 43 -45h19v-90h-75c-31 0 -99 37 -99 120v202c0 54 -54 51 -72 51z" />
    <glyph glyph-name="bar" unicode="|" horiz-adv-x="260" 
d="M199 722v-722h-120v722h120z" />
    <glyph glyph-name="braceright" unicode="}" horiz-adv-x="334" 
d="M279 349v-80c-18 0 -72 2 -72 -43v-202c0 -83 -68 -120 -99 -120h-75v90h19c43 0 40 22 43 45v185c0 67 54 82 81 84v2c-27 3 -81 9 -81 92v185c0 23 -3 45 -43 45h-19v90h75c31 0 99 -37 99 -120v-202c0 -54 54 -51 72 -51z" />
    <glyph glyph-name="asciitilde" unicode="~" horiz-adv-x="584" 
d="M146 192h-83c3 92 55 165 122 168c49 3 113 -52 173 -82c73 -37 84 17 81 46h83c-3 -93 -55 -166 -122 -169c-49 -3 -113 52 -173 82c-73 37 -84 -16 -81 -45z" />
    <glyph glyph-name="afii10051" unicode="&#x402;" horiz-adv-x="795" 
d="M763 163c0 -192 -84 -285 -303 -285v122c117 0 148 49 148 170c0 104 -22 143 -103 143h-122v-313h-155v602h-215v120h585v-120h-215v-169l150 -1c146 -1 230 -76 230 -269z" />
    <glyph glyph-name="afii10052" unicode="&#x403;" horiz-adv-x="540" 
d="M224 0h-155v722h458v-120h-303v-602zM324 942h134l-137 -144h-80z" />
    <glyph glyph-name="afii10100" unicode="&#x453;" horiz-adv-x="449" 
d="M431 392h-215v-392h-150v502h365v-110zM252 722h134l-137 -144h-80z" />
    <glyph glyph-name="quotedblbase" unicode="&#x201e;" horiz-adv-x="556" 
d="M266 -112l74 245h148l-119 -245h-103zM69 -112l74 245h148l-119 -245h-103z" />
    <glyph glyph-name="ellipsis" unicode="&#x2026;" horiz-adv-x="1000" 
d="M231 0h-127v133h127v-133zM564 0h-127v133h127v-133zM897 0h-127v133h127v-133z" />
    <glyph glyph-name="dagger" unicode="&#x2020;" horiz-adv-x="556" 
d="M220 0v465h-162v100h162v157h120v-157h158v-100h-158v-465h-120z" />
    <glyph glyph-name="afii10058" unicode="&#x409;" horiz-adv-x="1073" 
d="M1047 222c0 -183 -135 -222 -295 -222h-253v602h-179v-145c0 -344 -75 -467 -218 -467c-39 0 -73 17 -73 17v140s26 -20 53 -20c41 0 83 30 83 401v194h489v-278h143c161 0 250 -91 250 -222zM882 222c0 81 -49 102 -100 102h-128v-204h132c47 0 96 23 96 102z" />
    <glyph glyph-name="afii10059" unicode="&#x40a;" horiz-adv-x="1073" 
d="M1047 222c0 -183 -135 -222 -295 -222h-253v317h-275v-317h-155v722h155v-285h275v285h155v-278h143c161 0 250 -91 250 -222zM882 222c0 81 -49 102 -100 102h-128v-204h132c47 0 96 23 96 102z" />
    <glyph glyph-name="afii10061" unicode="&#x40c;" horiz-adv-x="667" 
d="M222 722v-312h2l240 312h181l-265 -323l288 -399h-193l-251 368h-2v-368h-155v722h155zM384 942h134l-137 -144h-80z" />
    <glyph glyph-name="afii10060" unicode="&#x40b;" horiz-adv-x="799" 
d="M383 0h-155v602h-215v120h585v-120h-215v-169h150c146 0 230 -76 230 -270v-163h-155v170c0 104 -22 143 -103 143h-122v-313z" />
    <glyph glyph-name="afii10145" unicode="&#x40f;" horiz-adv-x="722" 
d="M289 0h-220v722h155v-602h275v602h155v-722h-210v-161h-155v161z" />
    <glyph glyph-name="afii10099" unicode="&#x452;" horiz-adv-x="597" 
d="M546 0c0 -77 -29 -144 -65 -190h-149c39 58 64 135 64 190v302c0 54 -16 115 -90 115c-47 0 -90 -42 -90 -115v-302h-150v558h-59v100h59v64h149v-64h108v-100h-108v-115l2 -2c31 46 78 76 154 76c50 0 147 -37 165 -110c8 -31 10 -63 10 -80v-327z" />
    <glyph glyph-name="quoteleft" unicode="&#x2018;" horiz-adv-x="278" 
d="M243 722l-74 -245h-148l119 245h103z" />
    <glyph glyph-name="quoteright" unicode="&#x2019;" horiz-adv-x="278" 
d="M35 477l74 245h148l-119 -245h-103z" />
    <glyph glyph-name="quotedblleft" unicode="&#x201c;" horiz-adv-x="556" 
d="M481 722l-74 -245h-148l119 245h103zM284 722l-74 -245h-148l119 245h103z" />
    <glyph glyph-name="quotedblright" unicode="&#x201d;" horiz-adv-x="556" 
d="M272 477l74 245h148l-119 -245h-103zM75 477l74 245h148l-119 -245h-103z" />
    <glyph glyph-name="bullet" unicode="&#x2022;" horiz-adv-x="350" 
d="M300 300c0 -69 -56 -125 -125 -125s-124 55 -125 125c0 69 55 125 125 125c69 0 125 -56 125 -125z" />
    <glyph glyph-name="endash" unicode="&#x2013;" 
d="M500 213h-500v112h500v-112z" />
    <glyph glyph-name="emdash" unicode="&#x2014;" horiz-adv-x="1000" 
d="M1000 213h-1000v112h1000v-112z" />
    <glyph glyph-name="trademark" unicode="&#x2122;" horiz-adv-x="1000" 
d="M931 722v-404h-90v324h-2l-115 -324h-56l-115 324h-2v-324h-90v404h142l93 -239l89 239h146zM414 722v-80h-121v-324h-100v324h-122v80h343z" />
    <glyph glyph-name="afii10106" unicode="&#x459;" horiz-adv-x="869" 
d="M842 170c0 -124 -85 -170 -180 -170h-277v392h-116v-65c0 -179 -35 -259 -68 -291c-26 -25 -66 -46 -125 -46c-24 0 -62 10 -62 10v124s8 -3 17 -3c13 0 40 1 55 26c28 47 33 130 33 277v78h416v-157h119c99 0 188 -57 188 -175zM687 172c0 52 -31 63 -63 63h-89v-125h94
c31 0 58 20 58 62z" />
    <glyph glyph-name="afii10107" unicode="&#x45a;" horiz-adv-x="880" 
d="M853 170c0 -124 -85 -170 -180 -170h-277v211h-180v-211h-150v502h150v-181h180v181h150v-157h119c99 0 188 -57 188 -175zM698 172c0 52 -31 63 -63 63h-89v-125h94c31 0 58 20 58 62z" />
    <glyph glyph-name="afii10109" unicode="&#x45c;" 
d="M217 502v-225h2l148 225h167l-173 -236l184 -266h-175l-151 251h-2v-251h-150v502h150zM292 722h134l-137 -144h-80z" />
    <glyph glyph-name="afii10108" unicode="&#x45b;" horiz-adv-x="611" 
d="M7 558v100h59v64h149v-64h108v-100h-108v-115l2 -2c31 46 78 76 154 76c50 0 147 -37 165 -110c8 -31 10 -63 10 -80v-327h-150v302c0 54 -16 115 -90 115c-47 0 -90 -42 -90 -115v-302h-150v558h-59z" />
    <glyph glyph-name="afii10193" unicode="&#x45f;" horiz-adv-x="611" 
d="M231 0h-165v502h150v-392h180v392h150v-502h-165v-151h-150v151z" />
    <glyph glyph-name="uni00A0" unicode="&#xa0;" 
 />
    <glyph glyph-name="afii10062" unicode="&#x40e;" horiz-adv-x="667" 
d="M358 356h2l180 366h176l-389 -722h-176l128 202l-268 520h173zM362 785c-86 0 -151 56 -151 145h69c5 -48 43 -69 83 -69c44 0 78 21 83 69h69c0 -89 -64 -146 -153 -145z" />
    <glyph glyph-name="afii10110" unicode="&#x45e;" horiz-adv-x="556" 
d="M286 155l112 347h147l-252 -693h-149l64 190l-194 503h160l110 -347h2zM288 577c-86 0 -151 56 -151 145h69c5 -48 43 -69 83 -69c44 0 78 21 83 69h69c0 -89 -64 -146 -153 -145z" />
    <glyph glyph-name="afii10057" unicode="&#x408;" horiz-adv-x="556" 
d="M338 722h155v-482c0 -178 -110 -255 -242 -255c-181 0 -230 102 -242 246h155c1 -52 11 -134 87 -134c83 0 87 94 87 146v479z" />
    <glyph glyph-name="currency" unicode="&#xa4;" horiz-adv-x="556" 
d="M447 248l77 -77l-64 -65l-77 76c-22 -16 -60 -30 -102 -32c-44 -2 -84 16 -108 34l-80 -79l-64 67l78 76c-14 22 -37 58 -36 116c1 48 19 73 33 93l-78 76l69 69l78 -78c24 18 64 36 108 34c42 -2 80 -16 102 -32l79 78l68 -68l-80 -79c14 -20 32 -45 33 -93
c1 -58 -22 -94 -36 -116zM383 354c2 36 -28 104 -106 104s-108 -68 -106 -104c-2 -36 28 -104 106 -104s108 68 106 104z" />
    <glyph glyph-name="afii10050" unicode="&#x490;" horiz-adv-x="556" 
d="M253 -14l-33 -133h-68l36 145c-99 35 -149 144 -149 253c0 133 75 266 224 266c19 0 37 -2 54 -5l31 125h70l-37 -145c64 -31 105 -89 104 -166h-148c-1 41 -18 91 -76 91c-64 0 -65 -120 -67 -159c4 -46 5 -173 69 -173c58 0 75 57 76 98h146
c-5 -128 -84 -198 -222 -198c-4 0 -7 0 -10 1z" />
    <glyph glyph-name="brokenbar" unicode="&#xa6;" 
 />
    <glyph glyph-name="section" unicode="&#xa7;" horiz-adv-x="556" 
d="M269 440c-26 0 -58 -45 -58 -81c0 -33 38 -60 66 -67c31 7 65 43 65 77c0 47 -42 71 -73 71zM444 708v-111c-50 21 -97 40 -147 40c-27 0 -55 -10 -55 -44c0 -92 235 -45 235 -206c0 -60 -34 -106 -89 -130c51 -27 93 -64 93 -124c0 -97 -103 -148 -217 -148
c-55 0 -111 16 -164 29v112c51 -24 93 -41 147 -41c38 0 79 7 79 49c0 39 -48 49 -77 58c-81 27 -173 56 -173 157c0 60 43 104 97 127c-53 24 -86 65 -86 121c0 91 115 140 191 140c57 0 112 -7 166 -29z" />
    <glyph glyph-name="afii10023" unicode="&#x401;" horiz-adv-x="611" 
d="M58 0v722h484v-120h-329v-169h308v-120h-308v-193h340v-120h-495zM443 823h-102v119h102v-119zM271 823h-102v119h102v-119z" />
    <glyph glyph-name="copyright" unicode="&#xa9;" horiz-adv-x="800" 
d="M400 -15c-208 0 -376 168 -376 376s168 376 376 376c207 0 376 -168 376 -376s-169 -376 -376 -376zM400 637c-147 0 -276 -115 -276 -276c0 -160 129 -276 276 -276c145 0 276 116 276 276c0 161 -131 276 -276 276zM500 294h91c-10 -92 -88 -146 -175 -146
c-126 0 -208 95 -208 216c0 125 78 217 206 217c90 0 162 -52 177 -142h-91c-8 40 -40 67 -87 67c-72 0 -110 -65 -110 -140c0 -71 43 -143 113 -143c45 0 81 24 84 71z" />
    <glyph glyph-name="afii10053" unicode="&#x404;" horiz-adv-x="667" 
d="M641 234c-7 -181 -137 -249 -303 -249c-209 0 -303 165 -303 376s94 376 303 376c166 0 296 -68 303 -249h-165c1 76 -45 137 -138 137c-90 0 -125 -109 -135 -204h224v-120h-224c10 -95 45 -204 135 -204c93 0 139 61 138 137h165z" />
    <glyph glyph-name="guillemotleft" unicode="&#xab;" horiz-adv-x="556" 
d="M139 76l-111 193l111 193h132l-103 -193l103 -193h-132zM382 76l-111 193l111 193h132l-103 -193l103 -193h-132z" />
    <glyph glyph-name="logicalnot" unicode="&#xac;" horiz-adv-x="584" 
d="M414 121v171h-364v120h484v-291h-120z" />
    <glyph glyph-name="registered" unicode="&#xae;" horiz-adv-x="800" 
d="M400 -15c-208 0 -376 169 -376 376s168 376 376 376c206 0 376 -169 376 -376s-170 -376 -376 -376zM400 637c-147 0 -276 -115 -276 -276c0 -160 129 -276 276 -276c145 0 276 116 276 276c0 161 -131 276 -276 276zM332 334v-167h-90v410h196c35 0 80 -1 110 -19
c37 -23 48 -68 48 -110c0 -75 -39 -105 -111 -114l99 -167h-103l-90 167h-59zM332 409h108c45 0 61 10 61 51c0 42 -42 42 -81 42h-88v-93z" />
    <glyph glyph-name="afii10056" unicode="&#x407;" horiz-adv-x="278" 
d="M217 722v-722h-155v722h155zM276 823h-102v119h102v-119zM104 823h-102v119h102v-119z" />
    <glyph glyph-name="degree" unicode="&#xb0;" horiz-adv-x="400" 
d="M350 575c0 -83 -68 -150 -150 -150c-83 0 -149 67 -150 150c0 82 67 150 150 150c82 0 150 -68 150 -150zM120 575c1 -45 36 -80 80 -80c43 0 80 35 80 80c0 44 -37 80 -81 80c-43 0 -79 -36 -79 -80z" />
    <glyph glyph-name="plusminus" unicode="&#xb1;" horiz-adv-x="584" 
d="M232 484h120v-97h172v-120h-172v-97h-120v97h-172v120h172v97zM50 0v120h484v-120h-484z" />
    <glyph glyph-name="afii10055" unicode="&#x406;" horiz-adv-x="278" 
d="M199 823h-122v119h122v-119zM217 0h-155v722h155v-722z" />
    <glyph glyph-name="afii10103" unicode="&#x456;" horiz-adv-x="278" 
d="M64 502h150v-502h-150v502zM59 722h160v-129h-160v129z" />
    <glyph glyph-name="afii10098" unicode="&#x491;" horiz-adv-x="611" 
d="M191 251c0 -80 15 -166 107 -166s107 86 107 166c0 65 -15 151 -107 151s-107 -86 -107 -151zM36 251c0 268 251 246 314 251c-11 27 -48 59 -85 87c-56 43 -126 66 -166 77l80 56c47 -14 118 -36 180 -80c129 -92 193 -245 201 -351c14 -197 -98 -306 -262 -306
s-262 108 -262 266z" />
    <glyph glyph-name="mu" unicode="&#xb5;" horiz-adv-x="611" 
d="M393 0l-6 62c-32 -46 -79 -77 -180 -62v-192h-150v694h150v-301c0 -54 16 -116 90 -116c47 0 90 43 90 116v301h150v-412c0 -30 3 -60 6 -90h-150z" />
    <glyph glyph-name="mu" unicode="&#x3bc;" horiz-adv-x="611" 
d="M393 0l-6 62c-32 -46 -79 -77 -180 -62v-192h-150v694h150v-301c0 -54 16 -116 90 -116c47 0 90 43 90 116v301h150v-412c0 -30 3 -60 6 -90h-150z" />
    <glyph glyph-name="paragraph" unicode="&#xb6;" horiz-adv-x="537" 
d="M529 722v-69h-56v-855h-90v854h-65v-854h-90v460c-142 1 -215 137 -207 232c-8 95 65 232 205 232h303zM228 -202h90h-90z" />
    <glyph glyph-name="afii10071" unicode="&#x451;" horiz-adv-x="556" 
d="M526 211h-329c0 -65 9 -126 86 -126c52 0 78 19 92 65h135c-13 -124 -110 -165 -227 -165c-172 0 -241 97 -241 265c0 151 88 267 241 267c94 0 172 -32 214 -120c14 -28 21 -58 25 -90c4 -31 4 -63 4 -96zM197 311h174c0 55 -15 106 -88 106c-69 0 -84 -51 -86 -106z
M415 603h-102v119h102v-119zM243 603h-102v119h102v-119z" />
    <glyph glyph-name="afii61352" unicode="&#x2116;" horiz-adv-x="1160" 
d="M718 0h-220l-285 600l-2 -2v-598h-145v722h230l275 -568l2 2v566h145v-722zM1121 278c0 -95 -63 -160 -170 -160s-170 65 -170 160c0 94 63 159 170 159s170 -65 170 -159zM888 278c0 -43 9 -90 63 -90s63 47 63 90s-9 89 -63 89s-63 -46 -63 -89zM1121 80v-80h-340v80
h340z" />
    <glyph glyph-name="afii10101" unicode="&#x454;" 
d="M471 183c-5 -128 -84 -198 -222 -198c-149 0 -224 133 -224 266s75 266 224 266c128 0 223 -73 222 -191h-148c-1 41 -18 91 -76 91c-44 0 -58 -58 -63 -106h118v-100h-118c5 -55 17 -126 65 -126c58 0 75 57 76 98h146z" />
    <glyph glyph-name="guillemotright" unicode="&#xbb;" horiz-adv-x="556" 
d="M174 462l111 -193l-111 -193h-132l103 193l-103 193h132zM417 462l111 -193l-111 -193h-132l103 193l-103 193h132z" />
    <glyph glyph-name="afii10105" unicode="&#x458;" horiz-adv-x="278" 
d="M215 502v-521c0 -120 -38 -177 -165 -177c-17 0 -34 0 -51 4v95c38 -2 66 22 66 63v536h150zM60 722h160v-129h-160v129z" />
    <glyph glyph-name="afii10054" unicode="&#x405;" horiz-adv-x="667" 
d="M603 516h-149c-6 73 -45 109 -120 109c-57 0 -115 -30 -115 -93c0 -78 70 -87 132 -102c110 -28 272 -59 272 -204c0 -179 -156 -241 -311 -241c-165 0 -282 64 -277 246h158c-6 -80 40 -134 121 -134c62 0 144 19 144 96c0 85 -103 91 -165 107
c-101 25 -239 71 -239 199c0 165 152 238 300 238c140 0 249 -76 249 -221z" />
    <glyph glyph-name="afii10102" unicode="&#x455;" 
d="M453 368h-135c-2 34 -34 49 -68 49c-41 0 -60 -12 -60 -45c0 -79 287 -34 287 -222c0 -110 -134 -165 -227 -165c-117 0 -219 46 -221 161h139c3 -39 38 -61 82 -61c41 0 72 17 72 56c0 40 -72 57 -102 64c-96 23 -185 44 -185 161c0 105 127 151 215 151
c106 0 196 -38 203 -149z" />
    <glyph glyph-name="afii10104" unicode="&#x457;" horiz-adv-x="278" 
d="M214 0h-150v502h150v-502zM276 603h-102v119h102v-119zM104 603h-102v119h102v-119z" />
    <glyph glyph-name="afii10017" unicode="&#x410;" horiz-adv-x="722" 
d="M161 0h-148l261 722h184l251 -722h-156l-52 153h-286zM255 273h207l-99 308h-2z" />
    <glyph glyph-name="afii10018" unicode="&#x411;" horiz-adv-x="667" 
d="M223 120h121c73 0 123 13 123 96s-50 96 -123 96h-121v-192zM632 212c0 -166 -125 -212 -281 -212h-283v722h484v-120h-329v-170h171c126 0 238 -64 238 -220z" />
    <glyph glyph-name="afii10019" unicode="&#x412;" horiz-adv-x="667" 
d="M223 120h121c73 0 123 13 123 96s-50 96 -123 96h-121v-192zM223 432h121c65 0 101 27 101 85s-36 85 -101 85h-121v-170zM341 0h-273v722h271c129 0 261 -46 261 -187c0 -79 -55 -134 -127 -158v-2c91 -19 159 -82 159 -188c0 -143 -180 -187 -291 -187z" />
    <glyph glyph-name="afii10020" unicode="&#x413;" horiz-adv-x="540" 
d="M224 0h-155v722h458v-120h-303v-602z" />
    <glyph glyph-name="afii10021" unicode="&#x414;" horiz-adv-x="722" 
d="M713 -161h-155v161h-392v-161h-155v281h46c66 100 124 261 124 602h466v-602h66v-281zM492 120v482h-156c0 -177 -54 -397 -106 -482h262z" />
    <glyph glyph-name="afii10022" unicode="&#x415;" horiz-adv-x="611" 
d="M58 0v722h484v-120h-329v-169h308v-120h-308v-193h340v-120h-495z" />
    <glyph glyph-name="afii10024" unicode="&#x416;" horiz-adv-x="1050" 
d="M1044 0h-193l-251 368h-2v-368h-155v368h-2l-251 -368h-193l288 399l-265 323h181l240 -312h2v312h155v-312h2l240 312h181l-265 -323z" />
    <glyph glyph-name="afii10025" unicode="&#x417;" horiz-adv-x="667" 
d="M338 625c-75 0 -118 -30 -124 -103h-149c0 145 144 215 275 215c133 0 259 -70 259 -182c0 -98 -51 -162 -130 -179v-2c87 -25 138 -70 138 -182c0 -120 -124 -208 -273 -208c-169 0 -294 71 -289 235h158c-6 -76 42 -122 123 -122c67 0 116 44 116 104
c0 54 -31 91 -65 105c-29 12 -75 13 -112 12v111h69c56 0 106 37 106 105c0 58 -46 91 -102 91z" />
    <glyph glyph-name="afii10026" unicode="&#x418;" horiz-adv-x="722" 
d="M234 0h-165v722h155v-477h3l260 477h167v-722h-155v479h-3z" />
    <glyph glyph-name="afii10027" unicode="&#x419;" horiz-adv-x="722" 
d="M654 0h-155v479h-3l-262 -479h-165v722h155v-477h3l260 477h167v-722zM362 785c-86 0 -151 56 -151 145h69c5 -48 43 -69 83 -69c44 0 78 21 83 69h69c0 -89 -64 -146 -153 -145z" />
    <glyph glyph-name="afii10028" unicode="&#x41a;" horiz-adv-x="667" 
d="M222 722v-312h2l240 312h181l-265 -323l288 -399h-193l-251 368h-2v-368h-155v722h155z" />
    <glyph glyph-name="afii10029" unicode="&#x41b;" horiz-adv-x="722" 
d="M654 0h-155v602h-179v-145c0 -344 -75 -467 -218 -467c-39 0 -73 17 -73 17v140s26 -20 53 -20c41 0 83 30 83 401v194h489v-722z" />
    <glyph glyph-name="afii10030" unicode="&#x41c;" horiz-adv-x="944" 
d="M729 620l-202 -620h-129l-191 620l-2 -2v-618h-145v722h254l151 -525h2l164 525h245v-722h-145v618z" />
    <glyph glyph-name="afii10031" unicode="&#x41d;" horiz-adv-x="722" 
d="M224 0h-155v722h155v-285h275v285h155v-722h-155v317h-275v-317z" />
    <glyph glyph-name="afii10032" unicode="&#x41e;" horiz-adv-x="778" 
d="M389 -15c-239 0 -347 163 -347 376s108 376 347 376s347 -163 347 -376s-108 -376 -347 -376zM389 625c-153 0 -182 -140 -182 -264s29 -264 182 -264s182 140 182 264s-29 264 -182 264z" />
    <glyph glyph-name="afii10033" unicode="&#x41f;" horiz-adv-x="722" 
d="M224 0h-155v722h585v-722h-155v602h-275v-602z" />
    <glyph glyph-name="afii10034" unicode="&#x420;" horiz-adv-x="611" 
d="M220 0h-155v722h223c160 0 295 -39 295 -222c0 -131 -89 -222 -250 -222h-113v-278zM220 602v-204c86 4 198 -26 198 102s-112 98 -198 102z" />
    <glyph glyph-name="afii10035" unicode="&#x421;" horiz-adv-x="667" 
d="M640 488h-165c1 76 -45 137 -138 137c-110 0 -138 -163 -138 -264s28 -264 138 -264c93 0 139 61 138 137h165c-7 -181 -137 -249 -303 -249c-209 0 -303 165 -303 376s94 376 303 376c166 0 296 -68 303 -249z" />
    <glyph glyph-name="afii10036" unicode="&#x422;" horiz-adv-x="611" 
d="M13 602v120h585v-120h-215v-602h-155v602h-215z" />
    <glyph glyph-name="afii10037" unicode="&#x423;" horiz-adv-x="667" 
d="M358 356h2l180 366h176l-389 -722h-176l128 202l-268 520h173z" />
    <glyph glyph-name="afii10038" unicode="&#x424;" horiz-adv-x="833" 
d="M801 376c0 -169 -103 -285 -275 -285c-9 0 -21 1 -28 3v-94h-149v94c-7 -2 -19 -3 -28 -3c-172 0 -275 116 -275 285s103 285 275 285c10 0 22 -1 28 -3v64h149v-64c6 2 18 3 28 3c172 0 275 -116 275 -285zM638 376c0 84 -15 174 -112 174c-10 0 -20 -1 -28 -3v-342
c8 -2 18 -3 28 -3c97 0 112 90 112 174zM349 205v342c-8 2 -18 3 -28 3c-97 0 -112 -90 -112 -174s15 -174 112 -174c10 0 20 1 28 3z" />
    <glyph glyph-name="afii10039" unicode="&#x425;" horiz-adv-x="722" 
d="M355 272l-173 -272h-166l254 374l-237 348h191l146 -245l156 245h166l-238 -347l252 -375h-190z" />
    <glyph glyph-name="afii10040" unicode="&#x426;" horiz-adv-x="722" 
d="M565 0h-496v722h155v-602h275v602h155v-602h66v-281h-155v161z" />
    <glyph glyph-name="afii10041" unicode="&#x427;" horiz-adv-x="667" 
d="M444 289h-150c-146 0 -230 76 -230 270v163h155v-170c0 -104 22 -143 103 -143h122v313h155v-722h-155v289z" />
    <glyph glyph-name="afii10042" unicode="&#x428;" horiz-adv-x="1075" 
d="M1006 0h-937v722h155v-602h236v602h155v-602h236v602h155v-722z" />
    <glyph glyph-name="afii10043" unicode="&#x429;" horiz-adv-x="1075" 
d="M1072 -161h-155v161h-848v722h155v-602h236v602h155v-602h236v602h155v-602h66v-281z" />
    <glyph glyph-name="afii10044" unicode="&#x42a;" horiz-adv-x="767" 
d="M565 222c0 81 -49 102 -100 102h-128v-204h132c47 0 96 23 96 102zM182 602h-169v120h324v-278h143c161 0 250 -91 250 -222c0 -183 -135 -222 -295 -222h-253v602z" />
    <glyph glyph-name="afii10045" unicode="&#x42b;" horiz-adv-x="900" 
d="M598 222c0 -183 -135 -222 -295 -222h-238v722h155v-278h128c161 0 250 -91 250 -222zM433 222c0 81 -49 102 -100 102h-113v-204h117c47 0 96 23 96 102zM679 722h155v-722h-155v722z" />
    <glyph glyph-name="afii10046" unicode="&#x42c;" horiz-adv-x="650" 
d="M613 222c0 -183 -135 -222 -295 -222h-253v722h155v-278h143c161 0 250 -91 250 -222zM448 222c0 81 -49 102 -100 102h-128v-204h132c47 0 96 23 96 102z" />
    <glyph glyph-name="afii10047" unicode="&#x42d;" horiz-adv-x="667" 
d="M475 421c-10 95 -45 204 -135 204c-93 0 -139 -61 -138 -137h-165c7 181 137 249 303 249c209 0 303 -165 303 -376s-94 -376 -303 -376c-166 0 -296 68 -303 249h165c-1 -76 45 -137 138 -137c90 0 125 109 135 204h-224v120h224z" />
    <glyph glyph-name="afii10048" unicode="&#x42e;" horiz-adv-x="1028" 
d="M636 625c-153 0 -182 -140 -182 -264s29 -264 182 -264s182 140 182 264s-29 264 -182 264zM291 317h-67v-317h-155v722h155v-285h70c24 175 132 300 342 300c239 0 347 -163 347 -376s-108 -376 -347 -376c-222 0 -331 141 -345 332z" />
    <glyph glyph-name="afii10049" unicode="&#x42f;" horiz-adv-x="667" 
d="M598 0h-155v291h-164c-51 0 -61 -57 -65 -97c-7 -65 -14 -130 -27 -194h-171c29 40 36 125 42 171c14 100 13 173 132 186v2c-89 19 -150 81 -150 175c0 147 127 188 251 188h307v-722zM443 411v191h-130c-68 0 -108 -28 -108 -92s40 -99 108 -99h130z" />
    <glyph glyph-name="afii10065" unicode="&#x430;" horiz-adv-x="556" 
d="M344 236c-52 1 -159 2 -159 -79c0 -42 31 -72 73 -72c83 0 86 92 86 151zM208 360h-144c1 63 28 102 68 125c41 24 94 32 148 32c101 0 214 -37 214 -188v-274c0 -25 5 -40 7 -55h-135c-3 23 -5 46 -5 67h-2c-34 -58 -86 -82 -154 -82c-94 0 -164 54 -164 152
c0 35 16 120 107 159c60 26 136 29 196 27v47c0 21 -16 62 -69 62c-52 0 -69 -49 -67 -72z" />
    <glyph glyph-name="afii10066" unicode="&#x431;" horiz-adv-x="611" 
d="M568 251c0 -158 -98 -266 -262 -266c-90 0 -164 34 -209 94c-37 49 -53 127 -53 200c0 114 38 215 77 277c34 52 113 105 185 122c32 8 62 24 70 44h152c-7 -60 -63 -120 -138 -130c-62 -8 -98 -24 -138 -45c-35 -18 -64 -52 -90 -95l3 -4c25 24 94 52 154 52
c164 0 249 -91 249 -249zM413 251c0 80 -15 166 -107 166s-107 -86 -107 -166s15 -166 107 -166s107 86 107 166z" />
    <glyph glyph-name="afii10067" unicode="&#x432;" horiz-adv-x="556" 
d="M346 348c0 34 -17 44 -42 44h-100v-90h95c26 0 47 6 47 46zM366 160c0 44 -27 52 -56 52h-106v-102h111c28 0 51 14 51 50zM447 277v-2c26 -8 74 -46 74 -123c0 -104 -85 -152 -175 -152h-286v502h290c78 0 151 -48 151 -134c0 -45 -29 -82 -54 -91z" />
    <glyph glyph-name="afii10068" unicode="&#x433;" horiz-adv-x="449" 
d="M431 392h-215v-392h-150v502h365v-110z" />
    <glyph glyph-name="afii10069" unicode="&#x434;" horiz-adv-x="611" 
d="M606 -151h-150v151h-300v-151h-150v261h53c89 108 79 274 79 392h403v-392h65v-261zM391 110v282h-105c0 -94 -26 -240 -65 -282h170z" />
    <glyph glyph-name="afii10070" unicode="&#x435;" horiz-adv-x="556" 
d="M526 211h-329c0 -65 9 -126 86 -126c52 0 78 19 92 65h135c-13 -124 -110 -165 -227 -165c-172 0 -241 97 -241 265c0 151 88 267 241 267c94 0 172 -32 214 -120c14 -28 21 -58 25 -90c4 -31 4 -63 4 -96zM197 311h174c0 55 -15 106 -88 106c-69 0 -84 -51 -86 -106z
" />
    <glyph glyph-name="afii10072" unicode="&#x436;" horiz-adv-x="765" 
d="M802 0h-175l-151 251h-2v-251h-150v251h-2l-151 -251h-175l184 266l-173 242h167l148 -231h2v231h150v-231h2l148 231h167l-173 -242z" />
    <glyph glyph-name="afii10073" unicode="&#x437;" 
d="M395 268c32 -7 79 -49 79 -119c0 -105 -95 -165 -213 -165s-239 41 -232 170h137c8 -56 43 -69 85 -69c50 0 72 26 72 55c0 40 -22 71 -82 71h-39v100h43c37 0 75 15 75 54c0 41 -39 51 -69 51c-38 0 -69 -22 -74 -60h-135c5 139 124 161 238 161c106 0 183 -58 183 -139
c0 -57 -42 -98 -68 -108v-2z" />
    <glyph glyph-name="afii10074" unicode="&#x438;" horiz-adv-x="611" 
d="M546 0h-150v122l9 209h-3l-156 -331h-180v502h150v-171l-10 -162h3l157 333h180v-502z" />
    <glyph glyph-name="afii10075" unicode="&#x439;" horiz-adv-x="611" 
d="M546 0h-150v122l9 209h-3l-156 -331h-180v502h150v-171l-10 -162h3l157 333h180v-502zM308 577c-86 0 -151 56 -151 145h69c5 -48 43 -69 83 -69c44 0 78 21 83 69h69c0 -89 -64 -146 -153 -145z" />
    <glyph glyph-name="afii10076" unicode="&#x43a;" 
d="M217 502v-225h2l148 225h167l-173 -236l184 -266h-175l-151 251h-2v-251h-150v502h150z" />
    <glyph glyph-name="afii10077" unicode="&#x43b;" horiz-adv-x="600" 
d="M535 502v-502h-150v392h-116v-65c0 -179 -35 -259 -68 -291c-26 -25 -66 -46 -125 -46c-24 0 -62 10 -62 10v124s8 -3 17 -3c13 0 40 1 55 26c28 47 33 130 33 277v78h416z" />
    <glyph glyph-name="afii10078" unicode="&#x43c;" horiz-adv-x="732" 
d="M526 271l-107 -271h-99l-108 272h-3l7 -272h-150v502h180l122 -317h2l122 317h180v-502h-150l7 271h-3z" />
    <glyph glyph-name="afii10079" unicode="&#x43d;" horiz-adv-x="611" 
d="M546 0h-150v211h-180v-211h-150v502h150v-181h180v181h150v-502z" />
    <glyph glyph-name="afii10080" unicode="&#x43e;" horiz-adv-x="611" 
d="M568 251c0 -158 -98 -266 -262 -266s-262 108 -262 266s98 266 262 266s262 -108 262 -266zM199 251c0 -80 15 -166 107 -166s107 86 107 166s-15 166 -107 166s-107 -86 -107 -166z" />
    <glyph glyph-name="afii10081" unicode="&#x43f;" horiz-adv-x="611" 
d="M546 0h-150v392h-180v-392h-150v502h480v-502z" />
    <glyph glyph-name="afii10082" unicode="&#x440;" horiz-adv-x="611" 
d="M197 502l3 -58h2c28 42 82 73 134 73c156 0 235 -131 235 -266c0 -129 -69 -266 -216 -266c-65 0 -121 27 -153 86h-2v-263h-150v594c0 33 -3 67 -5 100h152zM200 251c0 -69 27 -166 108 -166c96 0 108 89 108 166s-12 166 -108 166c-81 0 -108 -97 -108 -166z" />
    <glyph glyph-name="afii10083" unicode="&#x441;" 
d="M479 326h-148c-1 41 -18 91 -76 91c-64 0 -67 -129 -67 -159c0 -27 4 -173 69 -173c58 0 75 57 76 98h146c-5 -128 -84 -198 -222 -198c-149 0 -224 133 -224 266s75 266 224 266c128 0 223 -73 222 -191z" />
    <glyph glyph-name="afii10084" unicode="&#x442;" 
d="M482 392h-155v-392h-150v392h-155v110h460v-110z" />
    <glyph glyph-name="afii10085" unicode="&#x443;" horiz-adv-x="556" 
d="M286 155l112 347h147l-252 -693h-149l64 190l-194 503h160l110 -347h2z" />
    <glyph glyph-name="afii10086" unicode="&#x444;" horiz-adv-x="804" 
d="M765 251c0 -141 -77 -266 -204 -266c-37 0 -74 28 -83 39v-216h-145v216c-9 -13 -46 -39 -83 -39c-127 0 -204 125 -204 266c0 143 81 266 204 266c35 0 72 -24 82 -39v244h147v-244c11 14 47 39 82 39c123 0 204 -123 204 -266zM610 258c0 46 -3 165 -67 165
c-38 0 -56 -13 -64 -23v-294c10 -14 30 -25 62 -25c65 0 69 134 69 177zM332 106v294c-8 10 -26 23 -64 23c-64 0 -67 -119 -67 -165c0 -41 4 -177 69 -177c32 0 52 11 62 25z" />
    <glyph glyph-name="afii10087" unicode="&#x445;" horiz-adv-x="556" 
d="M375 259l169 -259h-175l-102 185l-103 -185h-155l169 271l-162 231h175l95 -162l99 162h154z" />
    <glyph glyph-name="afii10088" unicode="&#x446;" horiz-adv-x="611" 
d="M461 0h-395v502h150v-392h180v392h150v-392h65v-261h-150v151z" />
    <glyph glyph-name="afii10089" unicode="&#x447;" horiz-adv-x="556" 
d="M341 193c-15 -8 -67 -25 -111 -25c-112 0 -180 77 -180 189v145h150v-147c0 -53 24 -89 74 -89c23 0 52 3 67 7v229h150v-502h-150v193z" />
    <glyph glyph-name="afii10090" unicode="&#x448;" horiz-adv-x="855" 
d="M66 0v502h150v-392h153v392h150v-392h153v392h150v-502h-756z" />
    <glyph glyph-name="afii10091" unicode="&#x449;" horiz-adv-x="855" 
d="M66 0v502h150v-392h153v392h150v-392h153v392h150v-392h65v-261h-150v151h-671z" />
    <glyph glyph-name="afii10092" unicode="&#x44a;" horiz-adv-x="656" 
d="M623 170c0 -124 -85 -170 -180 -170h-277v392h-144v110h294v-157h119c99 0 188 -57 188 -175zM468 172c0 52 -31 63 -63 63h-89v-125h94c31 0 58 20 58 62z" />
    <glyph glyph-name="afii10093" unicode="&#x44b;" horiz-adv-x="758" 
d="M512 170c0 -124 -85 -170 -180 -170h-274v502h150v-157h116c99 0 188 -57 188 -175zM357 172c0 52 -31 63 -63 63h-86v-125h91c31 0 58 20 58 62zM574 502h150v-502h-150v502z" />
    <glyph glyph-name="afii10094" unicode="&#x44c;" horiz-adv-x="556" 
d="M523 170c0 -124 -85 -170 -180 -170h-277v502h150v-157h119c99 0 188 -57 188 -175zM368 172c0 52 -31 63 -63 63h-89v-125h94c31 0 58 20 58 62z" />
    <glyph glyph-name="afii10095" unicode="&#x44d;" 
d="M315 311c-5 48 -19 106 -63 106c-58 0 -75 -50 -76 -91h-148c-1 118 94 191 222 191c149 0 224 -133 224 -266s-75 -266 -224 -266c-138 0 -217 70 -222 198h146c1 -41 18 -98 76 -98c48 0 60 71 65 126h-118v100h118z" />
    <glyph glyph-name="afii10096" unicode="&#x44e;" horiz-adv-x="811" 
d="M768 251c0 -158 -98 -266 -262 -266c-150 0 -245 90 -260 226h-40v-211h-150v502h150v-181h45c25 119 117 196 255 196c164 0 262 -108 262 -266zM613 251c0 80 -15 166 -107 166s-107 -86 -107 -166s15 -166 107 -166s107 86 107 166z" />
    <glyph glyph-name="afii10097" unicode="&#x44f;" horiz-adv-x="556" 
d="M348 284v108h-108c-26 0 -49 -13 -49 -53c0 -49 26 -55 54 -55h103zM112 232c-25 14 -67 56 -67 118c0 96 69 152 162 152h291v-502h-150v184h-101c-13 0 -26 2 -34 -7c-13 -14 -9 -41 -12 -68c-2 -24 -9 -62 -19 -109h-163c30 77 31 123 38 159c3 33 31 67 55 73z" />
    <glyph glyph-name="sterling" unicode="&#xa3;" horiz-adv-x="556" 
d="M521 0h-491v100h77v206h-88v100h89v117c0 123 117 184 226 184c46 0 115 -17 150 -49c47 -42 49 -83 57 -142h-150c-1 43 -19 91 -68 91c-92 0 -63 -135 -66 -201h169v-100h-169v-206h264v-100z" />
    <glyph glyph-name="florin" unicode="&#x192;" horiz-adv-x="556" 
d="M352 451h72l-15 -100h-76l-89 -442c-15 -76 -97 -109 -166 -106c-23 1 -43 5 -56 5l21 112c28 -3 61 -1 68 35l79 396h-65l19 100h65c16 71 40 247 141 253c16 1 31 3 47 3c26 0 52 -3 78 -7l-22 -105c-98 12 -82 -65 -101 -144z" />
    <glyph glyph-name="Lslash" unicode="&#x141;" 
 />
    <glyph glyph-name="lslash" unicode="&#x142;" horiz-adv-x="855" 
 />
    <glyph glyph-name="onesuperior" unicode="&#xb9;" 
 />
    <glyph glyph-name="Eth" unicode="&#xd0;" 
 />
    <glyph glyph-name="onehalf" unicode="&#xbd;" 
 />
    <glyph glyph-name="Thorn" unicode="&#xde;" 
 />
    <glyph glyph-name="onequarter" unicode="&#xbc;" 
 />
    <glyph glyph-name="divide" unicode="&#xf7;" horiz-adv-x="584" 
d="M534 292v-120h-484v120h484zM232 -10v120h120v-120h-120zM232 354v120h120v-120h-120z" />
    <glyph glyph-name="thorn" unicode="&#xfe;" 
 />
    <glyph glyph-name="threequarters" unicode="&#xbe;" 
 />
    <glyph glyph-name="twosuperior" unicode="&#xb2;" 
 />
    <glyph glyph-name="minus" unicode="&#x2212;" 
 />
    <glyph glyph-name="eth" unicode="&#xf0;" 
 />
    <glyph glyph-name="multiply" unicode="&#xd7;" 
 />
    <glyph glyph-name="threesuperior" unicode="&#xb3;" 
 />
    <glyph glyph-name="Scaron" unicode="&#x160;" horiz-adv-x="667" 
 />
    <glyph glyph-name="Yacute" unicode="&#xdd;" 
 />
    <glyph glyph-name="Zcaron" unicode="&#x17d;" 
 />
    <glyph glyph-name="scaron" unicode="&#x161;" horiz-adv-x="750" 
 />
    <glyph glyph-name="yacute" unicode="&#xfd;" 
 />
    <glyph glyph-name="zcaron" unicode="&#x17e;" 
 />
    <glyph glyph-name="CR" 
 />
    <glyph glyph-name="DC1" 
d="M-3 -979h25v5h-17l-1 -1c5 6 17 13 18 21c0 7 -6 10 -13 10c-6 0 -12 -3 -11 -10l7 -1c0 3 2 6 5 6c2 0 4 -2 4 -5c0 -5 -14 -15 -17 -18v-7zM22 -979h25v5h-17l-1 -1c5 6 17 13 18 21c0 7 -6 10 -13 10c-6 0 -12 -3 -11 -10l7 -1c0 3 2 6 5 6c2 0 4 -2 4 -5
c0 -5 -14 -15 -17 -18v-7zM49 -970c0 -7 5 -10 11 -9c7 0 13 5 12 11c0 8 -4 12 -11 12c-2 0 -4 -1 -5 -3v10h15v5h-21l-1 -21h6c1 2 3 4 5 4c3 0 5 -3 5 -7c0 -3 -1 -7 -5 -7c-2 0 -4 2 -4 5h-7zM82 -969c0 3 2 5 5 5s5 -2 5 -6c0 -3 -2 -5 -5 -4c-3 0 -5 2 -5 5zM82 -953
v-1c0 3 2 5 5 5s5 -2 5 -4c0 -3 -2 -5 -5 -5s-5 2 -5 5zM82 -962h-1c-4 -1 -7 -4 -6 -9c0 -7 6 -10 12 -10s12 4 12 11c0 4 -3 7 -7 8v0v0c4 1 7 4 6 7c0 7 -6 10 -11 10c-6 0 -12 -3 -13 -10c0 -4 3 -6 8 -7v0z" />
    <glyph glyph-name="DC2" 
 />
    <glyph glyph-name="DC3" 
 />
    <glyph glyph-name="DC4" 
 />
    <glyph glyph-name="DEL" 
 />
    <glyph glyph-name="DLE" 
 />
    <glyph glyph-name="Delta" unicode="&#x394;" 
 />
    <glyph glyph-name="Delta" unicode="&#x2206;" 
 />
    <glyph glyph-name="HT" horiz-adv-x="571" 
 />
    <glyph glyph-name="LF" 
 />
    <glyph glyph-name="RS" 
 />
    <glyph glyph-name="US" 
 />
    <glyph glyph-name="_300" 
 />
    <glyph glyph-name="approxequal" unicode="&#x2248;" 
 />
    <glyph glyph-name="greaterequal" unicode="&#x2265;" horiz-adv-x="584" 
d="M539 402v120l-489 182v-130l314 -111v-2l-314 -111v-130zM50 130v-130l489 182v120z" />
    <glyph glyph-name="infinity" unicode="&#x221e;" 
 />
    <glyph glyph-name="lessequal" unicode="&#x2264;" horiz-adv-x="584" 
d="M40 402v120l489 182v-130l-314 -111v-2l314 -111v-130zM529 130v-130l-489 182v120z" />
    <glyph glyph-name="lozenge" unicode="&#x25ca;" horiz-adv-x="556" 
d="M266 -112l74 245h148l-119 -245h-103zM69 -112l74 245h148l-119 -245h-103z" />
    <glyph glyph-name="notequal" unicode="&#x2260;" 
 />
    <glyph glyph-name="radical" unicode="&#x221a;" 
 />
    <glyph glyph-name="Euro" unicode="&#x20ac;" horiz-adv-x="556" 
d="M512 671v-127c-23 22 -66 44 -134 44c-86 0 -131 -43 -145 -121h247l-32 -92h-227c0 -7 -1 -16 -1 -26c0 -11 1 -24 1 -32h206l-31 -92h-162c13 -79 61 -121 145 -121c64 0 109 21 133 43v-127c-19 -15 -72 -34 -154 -34c-143 0 -234 75 -261 239h-79l31 92h39
c-1 8 -1 18 -1 31c0 11 0 19 1 27h-70l31 92h47c25 145 103 240 262 240c75 0 132 -20 154 -36z" />
    </font>
</defs>
</svg>
