<?xml version="1.0" standalone="no"?>
<!DOCTYPE svg PUBLIC "-//W3C//DTD SVG 1.1//EN" "http://www.w3.org/Graphics/SVG/1.1/DTD/svg11.dtd" >
<svg xmlns="http://www.w3.org/2000/svg" xmlns:xlink="http://www.w3.org/1999/xlink" version="1.1">
<metadata>
Created by FontForge 20161116 at Wed Jul 20 21:39:14 2005
 By Jimmy Wärting
Copr. DoubleAlex Team. All rights reserved.
</metadata>
<defs>
<font id="Partner" horiz-adv-x="556" >
  <font-face 
    font-family="Partner"
    font-weight="400"
    font-stretch="normal"
    units-per-em="1000"
    panose-1="0 0 5 0 0 0 0 0 0 0"
    ascent="20"
    descent="-980"
    x-height="502"
    cap-height="722"
    bbox="-24 -980 1099 942"
    underline-thickness="56"
    underline-position="-96"
    stemh="68"
    stemv="100"
    unicode-range="U+0020-25CA"
  />
<missing-glyph horiz-adv-x="1000" 
 />
    <glyph glyph-name=".notdef" horiz-adv-x="1000" 
 />
    <glyph glyph-name="space" unicode=" " horiz-adv-x="278" 
 />
    <glyph glyph-name="exclam" unicode="!" horiz-adv-x="389" 
d="M140 722h111l-22 -555h-71zM249 0h-106v100h106v-100z" />
    <glyph glyph-name="quotedbl" unicode="&#x22;" horiz-adv-x="400" 
d="M73 708h95v-246h-95v246zM232 708h95v-246h-95v246z" />
    <glyph glyph-name="numbersign" unicode="#" 
d="M206 698h82l-38 -209h119l37 209h79l-37 -209h94v-66h-107l-29 -168h103v-66h-117l-38 -209h-76l37 209h-118l-40 -209h-80l37 209h-100v66h113l29 168h-105v66h117zM239 423l-29 -168h118l29 168h-118z" />
    <glyph glyph-name="dollar" unicode="$" 
d="M252 419v200c-64 -3 -106 -40 -106 -109c0 -53 66 -76 106 -91zM300 301v-230c70 2 125 39 125 120c0 65 -69 96 -125 110zM253 706v69h48v-68c114 -3 209 -52 219 -177h-105c-2 65 -57 89 -115 91v-217c110 -30 230 -72 230 -204c0 -146 -107 -207 -232 -215v-88h-48v88
c-100 0 -224 48 -222 205h105c1 -81 49 -118 117 -119v243c-111 36 -209 63 -209 200c0 115 108 190 212 192z" />
    <glyph glyph-name="percent" unicode="%" horiz-adv-x="889" 
d="M678 731l-441 -769h-66l441 769h66zM667 343c118 0 163 -79 163 -179s-45 -179 -163 -179s-163 79 -163 179s45 179 163 179zM667 283c-71 0 -85 -67 -85 -119s14 -119 85 -119s85 67 85 119s-14 119 -85 119zM201 707c118 0 163 -79 163 -179s-45 -179 -163 -179
s-163 79 -163 179s45 179 163 179zM201 647c-71 0 -85 -67 -85 -119s14 -119 85 -119s85 67 85 119s-14 119 -85 119z" />
    <glyph glyph-name="ampersand" unicode="&#x26;" horiz-adv-x="778" 
d="M483 149l-212 209c-60 -45 -111 -85 -111 -166c0 -82 78 -121 155 -121c67 0 123 35 168 78zM307 469c41 28 99 73 99 112c0 49 -47 70 -90 70c-41 0 -87 -32 -87 -75c0 -34 45 -75 78 -107zM636 0l-88 89c-82 -78 -157 -104 -269 -104c-117 0 -224 79 -224 203
c0 111 68 173 152 233c-43 43 -83 98 -83 162c0 109 93 154 192 154c95 0 195 -36 195 -154c0 -68 -71 -135 -140 -179l177 -175c41 73 53 156 48 239h105c-5 -105 -22 -217 -91 -301l171 -165l-2 -2h-143z" />
    <glyph glyph-name="quotesingle" unicode="'" horiz-adv-x="278" 
d="M92 708h95v-246h-95v246z" />
    <glyph glyph-name="parenleft" unicode="(" horiz-adv-x="333" 
d="M192 722h67c-47 -142 -89 -288 -89 -409s42 -267 89 -409h-67c-47 128 -117 284 -117 409s70 281 117 409z" />
    <glyph glyph-name="parenright" unicode=")" horiz-adv-x="333" 
d="M141 -96h-67c47 142 89 288 89 409s-42 267 -89 409h67c47 -128 117 -284 117 -409s-70 -281 -117 -409z" />
    <glyph glyph-name="asterisk" unicode="*" 
d="M308 545l171 19v-75l-172 19l102 -138l-65 -40l-67 158l-72 -156l-68 37l106 139l-166 -14v73l169 -22l-102 141l66 36l67 -156l69 156l67 -37z" />
    <glyph glyph-name="plus" unicode="+" horiz-adv-x="584" 
d="M257 484h70v-207h207v-70h-207v-207h-70v207h-207v70h207v207z" />
    <glyph glyph-name="comma" unicode="," horiz-adv-x="278" 
d="M49 -125l64 245h116l-112 -245h-68z" />
    <glyph glyph-name="hyphen" unicode="-" horiz-adv-x="333" 
d="M292 232h-251v70h251v-70z" />
    <glyph glyph-name="hyphen" unicode="&#xad;" horiz-adv-x="333" 
d="M292 232h-251v70h251v-70z" />
    <glyph glyph-name="period" unicode="." horiz-adv-x="278" 
d="M197 0h-116v120h116v-120z" />
    <glyph glyph-name="slash" unicode="/" horiz-adv-x="278" 
d="M236 722h66l-260 -818h-66z" />
    <glyph glyph-name="zero" unicode="0" 
d="M278 707c199 0 232 -211 232 -361s-33 -361 -232 -361s-232 211 -232 361s33 361 232 361zM278 621c-130 0 -127 -186 -127 -275c0 -86 -2 -275 127 -275s127 189 127 275c0 89 3 275 -127 275z" />
    <glyph glyph-name="one" unicode="1" 
d="M390 692v-692h-100v587c-53 -36 -104 -75 -162 -101l-4 101c26 13 130 77 166 105h100z" />
    <glyph glyph-name="two" unicode="2" 
d="M493 86v-86h-440v91c98 96 199 188 285 296c31 40 48 75 48 127c0 72 -41 107 -111 107c-69 0 -111 -52 -107 -118h-105c-1 124 90 204 211 204c132 0 217 -73 217 -185c0 -83 -23 -120 -73 -183c-59 -76 -177 -194 -241 -251v-2h316z" />
    <glyph glyph-name="three" unicode="3" 
d="M213 313v86c84 -6 184 15 184 119c0 77 -55 103 -125 103c-62 0 -116 -40 -118 -105h-105c-2 121 105 191 216 191c122 0 237 -59 237 -195c0 -79 -66 -142 -141 -156v-2c91 -8 151 -79 151 -168c0 -130 -112 -201 -258 -201c-118 0 -218 67 -216 193h105
c-2 -69 56 -107 126 -107c69 0 138 39 138 111c0 118 -96 137 -194 131z" />
    <glyph glyph-name="four" unicode="4" 
d="M159 231h169v308h-6zM418 0h-90v145h-260v86l248 461h102v-461h107v-86h-107v-145z" />
    <glyph glyph-name="five" unicode="5" 
d="M83 692h389v-86h-303l-13 -213c48 45 83 62 150 62c131 0 207 -109 207 -232c0 -143 -107 -238 -248 -238c-115 0 -203 57 -209 179h105c2 -65 60 -93 122 -93c90 0 125 77 125 156c0 70 -34 142 -115 142c-71 0 -115 -18 -137 -89h-91z" />
    <glyph glyph-name="six" unicode="6" 
d="M156 221c0 -79 44 -150 132 -150c87 0 130 63 130 144c0 85 -33 153 -127 153c-83 0 -135 -69 -135 -147zM288 -15c-201 0 -237 165 -237 337c0 175 50 385 262 385c107 0 197 -67 197 -179h-105c1 63 -42 93 -103 93c-137 0 -145 -161 -146 -252l2 -2
c29 54 83 87 153 87c133 0 212 -102 212 -229c0 -136 -97 -240 -235 -240z" />
    <glyph glyph-name="seven" unicode="7" 
d="M35 606v86h457l-254 -692h-97l223 606h-329z" />
    <glyph glyph-name="eight" unicode="8" 
d="M278 324c-75 0 -144 -53 -144 -127c0 -73 60 -143 144 -143c74 0 144 52 144 143c0 86 -68 127 -144 127zM412 519c0 72 -59 119 -134 119c-60 0 -130 -45 -130 -114c0 -74 60 -114 130 -114c66 0 134 37 134 109zM192 364v2c-86 14 -139 77 -139 164
c0 108 107 177 225 177c102 0 229 -52 229 -177c0 -85 -57 -153 -142 -164v1v-2c94 -20 152 -78 152 -176c0 -135 -114 -204 -239 -204c-117 0 -239 62 -239 197c0 99 61 158 153 182z" />
    <glyph glyph-name="nine" unicode="9" 
d="M397 488c0 73 -44 133 -132 133c-77 0 -123 -52 -123 -133c0 -85 36 -144 120 -144c83 0 135 60 135 144zM263 707c201 0 239 -165 239 -337c0 -175 -50 -385 -262 -385c-107 0 -197 67 -197 179h105c-1 -63 42 -93 103 -93c137 0 145 161 146 276l-1 2
c-26 -67 -86 -93 -154 -91c-122 4 -199 92 -205 214c-6 131 88 235 226 235z" />
    <glyph glyph-name="colon" unicode=":" horiz-adv-x="278" 
d="M197 389h-116v120h116v-120zM197 0h-116v120h116v-120z" />
    <glyph glyph-name="semicolon" unicode=";" horiz-adv-x="278" 
d="M49 -125l64 245h116l-112 -245h-68zM229 387h-116v120h116v-120z" />
    <glyph glyph-name="less" unicode="&#x3c;" horiz-adv-x="584" 
d="M534 484v-80l-395 -162l395 -162v-80l-489 207v70z" />
    <glyph glyph-name="equal" unicode="=" horiz-adv-x="584" 
d="M50 362h484v-70h-484v70zM50 192h484v-70h-484v70z" />
    <glyph glyph-name="greater" unicode="&#x3e;" horiz-adv-x="584" 
d="M539 277v-70l-489 -207v80l391 162l-391 162v80z" />
    <glyph glyph-name="question" unicode="?" horiz-adv-x="500" 
d="M63 625v90c46 15 93 22 141 22c112 0 233 -46 233 -177c0 -96 -78 -159 -132 -221c-48 -55 -34 -30 -45 -80v-95h-100v74c0 28 -5 58 21 98c38 47 151 123 151 214c0 76 -62 101 -129 101c-48 0 -96 -7 -140 -26zM263 0h-106v100h106v-100z" />
    <glyph glyph-name="at" unicode="@" horiz-adv-x="1015" 
d="M606 377c-5 55 -58 77 -108 70c-91 -14 -144 -120 -146 -204c-1 -57 40 -126 104 -122c100 7 158 175 150 256zM643 432l21 66h83l-97 -299c-11 -35 -4 -71 38 -75c53 0 116 46 142 92c39 68 47 128 40 170c-25 150 -152 245 -297 270c-130 22 -235 -31 -299 -83
c-96 -79 -151 -171 -155 -294c-6 -208 168 -353 373 -349c79 1 116 12 192 34l29 -67c-81 -30 -152 -45 -238 -43c-58 1 -92 6 -147 24c-184 59 -304 210 -296 406c5 128 98 281 199 355c81 59 205 104 302 98c102 -6 245 -50 328 -143c104 -116 112 -260 42 -394
c-49 -94 -161 -176 -273 -141c-42 13 -61 47 -64 70c-44 -44 -84 -75 -150 -71c-93 5 -152 83 -156 172c-4 92 50 191 123 245c31 24 85 45 125 47c55 3 119 -35 133 -90h2z" />
    <glyph glyph-name="A" unicode="A" horiz-adv-x="722" 
d="M112 0h-103l304 722h107l292 -722h-109l-78 188h-335zM362 623l-138 -349h269z" />
    <glyph glyph-name="B" unicode="B" horiz-adv-x="667" 
d="M195 636v-218h124c95 0 162 14 162 109s-67 109 -162 109h-124zM353 0h-258v722h258c124 0 233 -48 233 -188c0 -75 -51 -136 -122 -156v-2c93 -14 144 -97 144 -187c0 -84 -55 -147 -131 -175c-37 -14 -81 -14 -124 -14zM195 332v-246h167c77 0 141 34 141 123
s-64 123 -141 123h-167z" />
    <glyph glyph-name="C" unicode="C" horiz-adv-x="667" 
d="M630 536h-105c-5 69 -79 115 -153 115c-178 0 -211 -163 -211 -290c0 -149 45 -290 202 -290c77 0 147 38 159 115h105c-10 -121 -132 -201 -273 -201c-213 0 -298 174 -298 376c0 101 23 206 87 281c48 55 119 95 223 95c144 0 253 -72 264 -201z" />
    <glyph glyph-name="D" unicode="D" horiz-adv-x="722" 
d="M192 636v-550h146c101 0 155 41 183 82c43 62 55 126 55 193s-12 131 -55 193c-28 41 -82 82 -183 82h-146zM92 0v722h240c67 0 138 -7 196 -44c105 -67 153 -180 153 -317s-48 -250 -153 -317c-58 -37 -129 -44 -196 -44h-240z" />
    <glyph glyph-name="E" unicode="E" horiz-adv-x="611" 
d="M536 0h-461v722h453v-86h-353v-225h336v-86h-336v-239h361v-86z" />
    <glyph glyph-name="F" unicode="F" 
d="M179 0h-100v722h428v-86h-328v-227h309v-86h-309v-323z" />
    <glyph glyph-name="G" unicode="G" horiz-adv-x="778" 
d="M685 542h-105c-18 86 -93 109 -170 109c-177 0 -242 -155 -237 -290c7 -185 64 -287 271 -290c49 -1 98 8 144 23v204h-164v86h264v-357c-83 -25 -166 -42 -248 -42c-102 0 -185 13 -264 83c-80 70 -108 191 -108 293c0 75 25 157 62 222c63 110 169 154 292 154
c122 0 257 -56 263 -195z" />
    <glyph glyph-name="H" unicode="H" horiz-adv-x="722" 
d="M190 0h-100v722h100v-310h343v310h100v-722h-100v326h-343v-326z" />
    <glyph glyph-name="I" unicode="I" horiz-adv-x="278" 
d="M189 0h-100v722h100v-722z" />
    <glyph glyph-name="J" unicode="J" 
d="M453 722v-522c0 -133 -92 -209 -217 -209c-136 0 -217 72 -215 205h105c6 -88 56 -119 113 -119s113 31 113 119l1 526h100z" />
    <glyph glyph-name="K" unicode="K" horiz-adv-x="667" 
d="M192 0h-100v722h100v-313l301 313h137l-323 -323l359 -399h-141l-333 383v-383z" />
    <glyph glyph-name="L" unicode="L" 
d="M529 0h-436v722h100v-636h336v-86z" />
    <glyph glyph-name="M" unicode="M" horiz-adv-x="944" 
d="M752 0v650h-2l-231 -650h-94l-231 650h-2v-650h-100v722h174l208 -595h2l204 595h172v-722h-100z" />
    <glyph glyph-name="N" unicode="N" horiz-adv-x="778" 
d="M590 722h89v-722h-124l-365 613h-2v-613h-89v722h137l352 -597h2v597z" />
    <glyph glyph-name="O" unicode="O" horiz-adv-x="778" 
d="M59 361c0 211 105 376 330 376s330 -165 330 -376s-105 -376 -330 -376s-330 165 -330 376zM164 361c0 -150 42 -290 225 -290s225 140 225 290c0 154 -42 290 -225 290s-225 -136 -225 -290z" />
    <glyph glyph-name="P" unicode="P" horiz-adv-x="611" 
d="M88 0v722h242c134 0 250 -44 250 -202c0 -151 -122 -202 -256 -202h-136v-318h-100zM188 404h157c12 0 130 -6 130 116s-118 116 -130 116h-157v-232z" />
    <glyph glyph-name="Q" unicode="Q" horiz-adv-x="778" 
d="M607 361c0 138 -47 290 -218 290s-218 -153 -218 -290c0 -138 47 -290 218 -290s218 153 218 290zM761 76v-76c-86 2 -173 2 -259 0c-19 -3 -38 -7 -56 -9c-19 -3 -38 -6 -57 -6c-224 -1 -323 172 -323 376s99 376 323 376s323 -172 323 -376c0 -104 -36 -220 -132 -294
l2 -2c36 8 74 15 113 15c22 0 44 0 66 -4z" />
    <glyph glyph-name="R" unicode="R" horiz-adv-x="667" 
d="M184 636v-224h165c111 0 136 55 136 112s-25 112 -136 112h-165zM326 326h-140v-326h-100v722h258c121 0 246 -38 246 -181c0 -87 -52 -154 -136 -174v-2c87 -21 98 -67 110 -148c10 -72 19 -149 45 -217h-107c-9 43 -21 90 -25 133c-8 65 -9 124 -42 160
c-29 33 -69 33 -109 33z" />
    <glyph glyph-name="S" unicode="S" horiz-adv-x="667" 
d="M56 211h105c2 -102 61 -140 158 -140c82 0 182 24 182 125c0 70 -58 98 -118 111c-119 25 -317 53 -317 215c0 157 143 215 278 215c123 0 244 -55 244 -195h-105c-4 81 -72 109 -144 109c-71 0 -168 -26 -168 -112c0 -82 58 -87 121 -107c133 -43 314 -43 314 -225
c0 -164 -147 -222 -293 -222c-151 0 -261 64 -257 226z" />
    <glyph glyph-name="T" unicode="T" horiz-adv-x="611" 
d="M256 0v636h-242v86h584v-86h-242v-636h-100z" />
    <glyph glyph-name="U" unicode="U" horiz-adv-x="778" 
d="M680 722v-436c0 -186 -95 -301 -291 -301s-291 115 -291 301v436h100v-460c0 -124 77 -191 191 -191s191 67 191 191v460h100z" />
    <glyph glyph-name="V" unicode="V" horiz-adv-x="667" 
d="M550 722h100l-266 -722h-110l-257 722h100l215 -617h2z" />
    <glyph glyph-name="W" unicode="W" horiz-adv-x="1000" 
d="M213 0l-205 722h100l162 -594h2l171 594h124l162 -599h2l161 599h100l-214 -722h-111l-166 617h-2l-178 -617h-108z" />
    <glyph glyph-name="X" unicode="X" horiz-adv-x="722" 
d="M361 310l-220 -310h-121l280 378l-250 344h128l195 -278l195 278h121l-257 -346l270 -376h-126z" />
    <glyph glyph-name="Y" unicode="Y" horiz-adv-x="667" 
d="M114 722l224 -354l216 354h112l-282 -466v-256h-100v256l-282 466h112z" />
    <glyph glyph-name="Z" unicode="Z" horiz-adv-x="611" 
d="M49 722h540v-86l-446 -550h438v-86h-558v86l444 550h-418v86z" />
    <glyph glyph-name="bracketleft" unicode="[" horiz-adv-x="333" 
d="M253 -96h-173v818h173v-66h-87v-686h87v-66z" />
    <glyph glyph-name="backslash" unicode="\" horiz-adv-x="278" 
d="M230 0l-237 722h66l237 -722h-66z" />
    <glyph glyph-name="bracketright" unicode="]" horiz-adv-x="333" 
d="M253 -96h-173v66h87v686h-87v66h173v-818z" />
    <glyph glyph-name="asciicircum" unicode="^" horiz-adv-x="584" 
d="M102 327l154 380h73l154 -380h-70l-121 296l-121 -296h-69z" />
    <glyph glyph-name="underscore" unicode="_" horiz-adv-x="500" 
d="M500 -68v-56h-500v56h500z" />
    <glyph glyph-name="grave" unicode="`" horiz-adv-x="278" 
d="M-8 722h104l82 -144h-65z" />
    <glyph glyph-name="a" unicode="a" 
d="M383 244h-95c-58 0 -135 -24 -135 -97c0 -62 43 -93 99 -93c112 0 133 97 131 190zM297 310h86c0 87 -5 138 -106 138c-48 0 -93 -28 -94 -80h-100c5 110 91 149 190 149c103 0 205 -31 205 -171v-240c0 -22 1 -64 4 -106h-64c-9 0 -26 -5 -27 7c-2 23 -4 45 -5 68h-2
c-31 -63 -87 -90 -156 -90c-87 0 -175 45 -175 143c0 141 125 182 244 182z" />
    <glyph glyph-name="b" unicode="b" horiz-adv-x="611" 
d="M465 251c0 94 -28 197 -142 197c-108 0 -142 -106 -142 -197c0 -94 27 -197 142 -197c107 0 142 103 142 197zM183 75l-4 -75h-98c2 30 5 60 5 80v642h95v-288h2c29 60 92 83 156 83c156 0 226 -130 226 -266c0 -129 -60 -266 -209 -266c-73 0 -139 25 -173 95h-2z" />
    <glyph glyph-name="c" unicode="c" horiz-adv-x="500" 
d="M463 341h-95c-5 63 -35 107 -103 107c-91 0 -126 -79 -126 -197s35 -197 126 -197c63 0 102 41 107 113h95c-8 -113 -92 -182 -203 -182c-161 0 -225 114 -225 262c0 147 74 270 233 270c106 0 186 -67 191 -176z" />
    <glyph glyph-name="d" unicode="d" horiz-adv-x="611" 
d="M154 252c0 -94 35 -201 142 -201c115 0 142 107 142 201c0 91 -34 199 -142 199c-114 0 -142 -105 -142 -199zM437 434v288h95v-633c0 -30 3 -60 5 -89h-97l-3 75v5h-2c-34 -70 -100 -95 -173 -95c-149 0 -208 137 -208 266c0 136 69 266 225 266c64 0 127 -23 156 -83h2
z" />
    <glyph glyph-name="e" unicode="e" 
d="M505 233h-354c-7 -88 29 -179 126 -179c74 0 111 29 122 102h100c-15 -114 -103 -171 -223 -171c-161 0 -225 114 -225 262c0 147 74 272 233 270c150 -1 221 -98 221 -237v-47zM151 299h254c2 84 -36 149 -128 149c-79 0 -126 -67 -126 -149z" />
    <glyph glyph-name="f" unicode="f" horiz-adv-x="333" 
d="M209 0h-95v436h-98v66h98v96c0 110 86 139 157 139c23 0 45 -6 68 -10v-79c-16 1 -32 3 -48 3c-54 0 -82 -14 -82 -69v-80h116v-66h-116v-436z" />
    <glyph glyph-name="g" unicode="g" horiz-adv-x="611" 
d="M151 263c0 -79 30 -185 141 -185c103 0 141 88 141 185s-38 185 -141 185c-111 0 -141 -106 -141 -185zM433 427l3 75h98c-3 -30 -6 -60 -6 -90v-353c0 -184 -80 -259 -264 -259c-108 0 -185 46 -186 162h100c4 -67 50 -93 117 -93c135 0 135 112 138 225h-3
c-30 -60 -103 -85 -165 -85c-153 0 -214 108 -214 249c0 145 81 259 233 259c49 0 103 -20 134 -66c2 -2 15 -31 15 -24z" />
    <glyph glyph-name="h" unicode="h" horiz-adv-x="611" 
d="M185 0h-95v722h95v-287h2c36 56 90 82 163 82c131 0 172 -87 172 -177v-340h-95v297c0 88 -23 145 -112 147c-38 1 -96 -28 -114 -70c-22 -52 -16 -88 -16 -116v-258z" />
    <glyph glyph-name="i" unicode="i" horiz-adv-x="278" 
d="M187 0h-95v502h95v-502zM83 619v103h113v-103h-113z" />
    <glyph glyph-name="j" unicode="j" horiz-adv-x="278" 
d="M191 502v-533c0 -86 -19 -161 -124 -161c-21 0 -41 0 -61 3v66c96 -9 90 40 90 67v558h95zM200 619h-113v103h113v-103z" />
    <glyph glyph-name="k" unicode="k" horiz-adv-x="500" 
d="M174 0h-95v722h95v-425l188 205h123l-212 -213l225 -289h-123l-199 271h-2v-271z" />
    <glyph glyph-name="l" unicode="l" horiz-adv-x="278" 
d="M187 0h-95v722h95v-722z" />
    <glyph glyph-name="m" unicode="m" horiz-adv-x="944" 
d="M181 502v-72h2c30 63 92 87 143 87c95 0 151 -32 177 -94c36 62 93 94 167 94c116 0 187 -73 187 -163v-354h-95v297c0 69 -10 147 -121 147c-29 0 -93 -16 -111 -78c-13 -46 -10 -96 -10 -108v-258h-95v297c0 87 -20 147 -111 147c-39 0 -95 -15 -124 -82
c-11 -26 -7 -92 -7 -104v-258h-95v502h93z" />
    <glyph glyph-name="n" unicode="n" horiz-adv-x="611" 
d="M183 502v-74h2c32 63 102 89 152 89c35 0 190 -9 190 -170v-347h-95v316c0 83 -35 128 -115 128c0 0 -52 3 -92 -37c-14 -14 -40 -36 -40 -134v-273h-95v502h93z" />
    <glyph glyph-name="o" unicode="o" horiz-adv-x="611" 
d="M306 517c165 0 250 -110 250 -266s-85 -266 -250 -266s-250 110 -250 266s85 266 250 266zM156 251c0 -107 37 -197 150 -197s150 90 150 197s-37 197 -150 197s-150 -90 -150 -197z" />
    <glyph glyph-name="p" unicode="p" horiz-adv-x="611" 
d="M465 251c0 94 -28 197 -142 197c-108 0 -142 -106 -142 -197c0 -94 27 -197 133 -197c116 0 151 103 151 197zM86 -192v604c0 30 -3 60 -5 90h97l3 -80h2c29 72 92 95 171 95c141 0 211 -130 211 -266c0 -129 -60 -266 -241 -266c-41 0 -107 20 -140 72h-3v-249h-95z" />
    <glyph glyph-name="q" unicode="q" horiz-adv-x="611" 
d="M292 54c123 0 140 115 140 201c0 95 -37 193 -146 193c-107 0 -139 -98 -139 -193c0 -86 24 -201 145 -201zM430 426l5 76h97c-2 -30 -5 -60 -5 -90v-604h-95v248h-2c-42 -50 -96 -71 -174 -71c-144 0 -209 149 -209 271c0 128 65 261 209 261c72 0 135 -27 172 -91h2z
" />
    <glyph glyph-name="r" unicode="r" horiz-adv-x="389" 
d="M188 249v-249h-95v502h95v-97h2c14 69 78 104 147 104c12 0 22 -1 33 -1v-90c-13 5 -28 5 -41 5c-120 -4 -141 -68 -141 -174z" />
    <glyph glyph-name="s" unicode="s" horiz-adv-x="500" 
d="M53 365c0 105 106 152 197 152c95 0 202 -40 195 -154h-100c4 64 -45 85 -100 85c-51 0 -92 -24 -92 -80s86 -59 122 -71c85 -27 183 -38 183 -151c0 -123 -120 -161 -223 -161c-105 0 -193 48 -192 164h100c2 -62 44 -95 102 -95c56 0 113 22 113 87
c0 112 -305 28 -305 224z" />
    <glyph glyph-name="t" unicode="t" horiz-adv-x="333" 
d="M9 505l86 -3v107l95 30v-137l116 3v-71l-116 1v-324c0 -36 28 -53 62 -53c15 0 35 2 50 6v-73c-22 -1 -43 -6 -65 -6c-23 0 -41 1 -64 5c-15 3 -40 11 -56 33c-17 24 -22 26 -22 93v319l-86 -1v71z" />
    <glyph glyph-name="u" unicode="u" horiz-adv-x="611" 
d="M427 244v258h95v-502h-93v74h-2c-38 -63 -102 -89 -172 -89c-105 0 -165 80 -165 181v336h95v-297c0 -87 20 -151 111 -151c39 0 92 20 112 72c18 47 19 106 19 118z" />
    <glyph glyph-name="v" unicode="v" 
d="M321 0h-95l-210 502h105l160 -398l156 398h104z" />
    <glyph glyph-name="w" unicode="w" horiz-adv-x="833" 
d="M725 502h97l-177 -502h-108l-117 413h-2l-130 -413h-111l-166 502h103l121 -404h2l125 404h123l113 -396h2z" />
    <glyph glyph-name="x" unicode="x" 
d="M538 502l-197 -245l197 -257h-124l-143 201l-142 -201h-110l199 263l-188 239h123l134 -189l140 189h111z" />
    <glyph glyph-name="y" unicode="y" 
d="M541 502l-295 -694h-97l76 194l-209 500h106l157 -396l160 396h102z" />
    <glyph glyph-name="z" unicode="z" horiz-adv-x="444" 
d="M405 66v-66h-365v66l253 370h-249v66h351v-66l-252 -370h262z" />
    <glyph glyph-name="braceleft" unicode="{" horiz-adv-x="334" 
d="M47 277v71c76 7 88 50 88 121l-1 144c0 66 60 109 110 109h61v-66h-40c-33 -6 -50 -28 -50 -64v-138c0 -95 -70 -135 -80 -142c10 -6 80 -46 80 -141v-137c0 -36 17 -58 50 -64h40v-66h-61c-50 0 -110 43 -110 109l1 143c0 71 -12 114 -88 121z" />
    <glyph glyph-name="bar" unicode="|" horiz-adv-x="260" 
d="M165 722v-722h-70v722h70z" />
    <glyph glyph-name="braceright" unicode="}" horiz-adv-x="334" 
d="M287 349v-71c-76 -7 -88 -50 -88 -121l1 -144c0 -66 -60 -109 -110 -109h-61v66h40c33 6 50 28 50 64v138c0 95 70 135 80 142c-10 6 -80 46 -80 141v137c0 36 -17 58 -50 64h-40v66h61c50 0 110 -43 110 -109l-1 -143c0 -71 12 -114 88 -121z" />
    <glyph glyph-name="asciitilde" unicode="~" horiz-adv-x="584" 
d="M130 181h-54c3 66 27 147 107 147c24 0 44 -8 52 -13l131 -79c26 -16 56 -14 72 -1c20 15 20 49 18 66h52c5 -59 -28 -136 -94 -144c-25 -3 -56 4 -89 25l-107 68c-50 40 -94 -12 -88 -69z" />
    <glyph glyph-name="afii10051" unicode="&#x402;" horiz-adv-x="795" 
d="M756 216h-1c0 -173 -138 -270 -292 -270v91c110 0 188 86 188 187c0 116 -68 159 -168 159c-73 0 -127 -20 -127 -20v-363h-100v636h-242v86h584v-86h-242v-187s63 20 127 20c168 0 273 -76 273 -253z" />
    <glyph glyph-name="afii10052" unicode="&#x403;" horiz-adv-x="540" 
d="M179 0h-100v722h428v-86h-328v-636zM344 942h104l-121 -144h-65z" />
    <glyph glyph-name="afii10100" unicode="&#x453;" horiz-adv-x="449" 
d="M185 432v-432h-95v502h322v-70h-227zM302 722h104l-121 -144h-65z" />
    <glyph glyph-name="ellipsis" unicode="&#x2026;" horiz-adv-x="1000" 
d="M224 0h-116v120h116v-120zM558 0h-116v120h116v-120zM892 0h-116v120h116v-120z" />
    <glyph glyph-name="dagger" unicode="&#x2020;" 
d="M326 0h-95v483h-159v66h159v173h95v-173h159v-66h-159v-483z" />
    <glyph glyph-name="afii10058" unicode="&#x409;" horiz-adv-x="1073" 
d="M533 0v636h-268v-187c0 -220 -19 -321 -86 -400c-34 -40 -76 -59 -112 -59c-31 0 -52 18 -52 18v97s23 -15 37 -15c29 0 57 32 71 57c41 74 42 151 42 375v200h468v-304h164c145 0 249 -58 249 -209c0 -109 -55 -167 -131 -195c-37 -14 -124 -14 -124 -14h-258zM633 332
v-246h167c77 0 141 34 141 123s-64 123 -141 123h-167z" />
    <glyph glyph-name="afii10059" unicode="&#x40a;" horiz-adv-x="1073" 
d="M533 0v326h-343v-326h-100v722h100v-310h343v310h100v-304h164c145 0 249 -58 249 -209c0 -109 -55 -167 -131 -195c-37 -14 -124 -14 -124 -14h-258zM633 332v-246h167c77 0 141 34 141 123s-64 123 -141 123h-167z" />
    <glyph glyph-name="afii10061" unicode="&#x40c;" horiz-adv-x="667" 
d="M192 0h-100v722h100v-313l301 313h137l-323 -323l359 -399h-141l-333 383v-383zM404 942h104l-121 -144h-65z" />
    <glyph glyph-name="afii10060" unicode="&#x40b;" horiz-adv-x="799" 
d="M598 636h-242v-167h109c196 0 291 -86 291 -301v-168h-100v192c0 146 -77 191 -191 191h-109v-383h-100v636h-242v86h584v-86z" />
    <glyph glyph-name="afii10145" unicode="&#x40f;" horiz-adv-x="722" 
d="M317 0h-227v722h100v-636h343v636h100v-722h-216v-161h-100v161z" />
    <glyph glyph-name="afii10099" unicode="&#x452;" horiz-adv-x="598" 
d="M522 115v1c0 -142 -83 -268 -123 -308h-126c77 68 154 192 154 322v167c0 88 -23 145 -112 147c-38 1 -96 -28 -114 -70c-22 -52 -16 -88 -16 -116v-258h-95v575h-81v66h81v81h95v-81h133v-66h-133v-140h2c36 56 90 82 163 82c131 0 172 -87 172 -177v-225z" />
    <glyph glyph-name="quoteleft" unicode="&#x2018;" horiz-adv-x="278" 
d="M229 722l-64 -245h-116l112 245h68z" />
    <glyph glyph-name="quoteright" unicode="&#x2019;" horiz-adv-x="278" 
d="M49 477l64 245h116l-112 -245h-68z" />
    <glyph glyph-name="quotedblleft" unicode="&#x201c;" 
d="M275 722l-64 -245h-116l112 245h68zM461 722l-64 -245h-116l112 245h68z" />
    <glyph glyph-name="quotedblright" unicode="&#x201d;" 
d="M281 477l64 245h116l-112 -245h-68zM95 477l64 245h116l-112 -245h-68z" />
    <glyph glyph-name="bullet" unicode="&#x2022;" horiz-adv-x="350" 
d="M300 345c0 -69 -56 -125 -125 -125s-124 55 -125 125c0 69 55 125 125 125c69 0 125 -56 125 -125z" />
    <glyph glyph-name="endash" unicode="&#x2013;" horiz-adv-x="500" 
d="M500 232h-500v70h500v-70z" />
    <glyph glyph-name="emdash" unicode="&#x2014;" horiz-adv-x="1000" 
d="M1000 232h-1000v70h1000v-70z" />
    <glyph glyph-name="trademark" unicode="&#x2122;" horiz-adv-x="1000" 
d="M938 722v-421h-66v361h-2l-144 -361h-39l-140 361h-2v-361h-66v421h107l121 -297l125 297h106zM404 722v-60h-135v-361h-70v361h-136v60h341z" />
    <glyph glyph-name="afii10106" unicode="&#x459;" horiz-adv-x="869" 
d="M422 432h-193v-105c0 -158 -27 -266 -60 -298c-26 -25 -69 -36 -92 -36c-20 0 -48 7 -48 7v74s8 -3 17 -3c13 0 38 2 53 27c28 47 35 136 35 276v128h383v-177h140c96 0 184 -53 184 -166c0 -117 -83 -159 -175 -159h-244v432zM642 70c53 0 99 30 99 92
c0 73 -50 93 -105 93h-119v-185h125z" />
    <glyph glyph-name="afii10107" unicode="&#x45a;" horiz-adv-x="880" 
d="M432 225h-247v-225h-95v502h95v-207h247v207h95v-177h140c96 0 184 -53 184 -166c0 -117 -83 -159 -175 -159h-244v225zM652 70c53 0 99 30 99 92c0 73 -50 93 -105 93h-119v-185h125z" />
    <glyph glyph-name="afii10109" unicode="&#x45c;" horiz-adv-x="500" 
d="M174 0h-95v502h95v-229l188 229h123l-212 -237l225 -265h-123l-199 247h-2v-247zM312 722h104l-121 -144h-65z" />
    <glyph glyph-name="afii10108" unicode="&#x45b;" horiz-adv-x="611" 
d="M318 641v-66h-133v-140h2c36 56 90 82 163 82c131 0 172 -87 172 -177v-340h-95v297c0 88 -23 145 -112 147c-38 1 -96 -28 -114 -70c-22 -52 -16 -88 -16 -116v-258h-95v575h-81v66h81v81h95v-81h133z" />
    <glyph glyph-name="afii10193" unicode="&#x45f;" horiz-adv-x="611" 
d="M527 0h-168v-161h-95v161h-174v502h95v-432h247v432h95v-502z" />
    <glyph glyph-name="uni00A0" unicode="&#xa0;" horiz-adv-x="500" 
 />
    <glyph glyph-name="afii10062" unicode="&#x40e;" horiz-adv-x="667" 
d="M284 188l-256 534h111l195 -428h2l197 428h113l-358 -722h-110zM251 907c7 -43 43 -71 90 -71c49 0 86 26 95 71h49c0 -79 -55 -138 -145 -138c-88 0 -137 63 -137 138h48z" />
    <glyph glyph-name="afii10110" unicode="&#x45e;" 
d="M541 502l-295 -694h-97l76 194l-209 500h106l157 -396l160 396h102zM193 722c7 -43 43 -71 90 -71c49 0 86 26 95 71h49c0 -79 -55 -138 -145 -138c-88 0 -137 63 -137 138h48z" />
    <glyph glyph-name="afii10057" unicode="&#x408;" 
d="M453 722v-522c0 -133 -92 -209 -217 -209c-136 0 -217 72 -215 205h105c6 -88 56 -119 113 -119s113 31 113 119l1 526h100z" />
    <glyph glyph-name="currency" unicode="&#xa4;" 
d="M67 497l54 57l58 -59c41 20 71 28 101 28c30 -1 58 -10 94 -28l56 54l59 -61l-58 -55c11 -17 23 -39 29 -85c2 -50 -20 -84 -33 -106l57 -57l-58 -55l-53 55c-33 -21 -63 -32 -93 -33s-62 8 -100 25l-54 -51l-55 59l49 51c-22 28 -33 68 -32 106c0 38 13 75 37 95z
M376 340c0 69 -61 99 -104 99s-100 -30 -100 -102s57 -101 100 -101s104 29 104 104z" />
    <glyph glyph-name="afii10050" unicode="&#x490;" 
d="M230 77l104 366c-9 3 -21 5 -35 5c-91 0 -126 -79 -126 -197c0 -82 17 -145 57 -174zM387 630h48l-38 -133c58 -26 97 -81 100 -156h-95c-2 31 -11 58 -27 76l-102 -360c8 -2 17 -3 26 -3c63 0 102 41 107 113h95c-8 -113 -92 -182 -203 -182c-16 0 -31 1 -44 4l-38 -134
h-49l41 146c-95 34 -135 130 -135 246c0 147 74 270 233 270c17 0 33 -2 48 -5z" />
    <glyph glyph-name="section" unicode="&#xa7;" 
d="M281 287c4 0 74 32 74 87c0 59 -70 79 -87 79c-8 0 -71 -28 -71 -93c0 -39 49 -73 84 -73zM121 5v86c35 -18 88 -37 127 -37c45 0 106 24 106 79c0 115 -252 54 -252 210c0 72 48 111 112 132v2c-58 18 -97 54 -97 116c0 105 102 144 190 144c38 0 76 -6 112 -17v-78
c-38 15 -73 26 -114 26c-46 0 -88 -22 -88 -74c0 -99 233 -43 233 -202c0 -63 -51 -109 -108 -127v-2c70 -19 112 -56 112 -132c0 -103 -113 -146 -200 -146c-45 0 -90 8 -133 20z" />
    <glyph glyph-name="afii10023" unicode="&#x401;" horiz-adv-x="611" 
d="M536 0h-461v722h453v-86h-353v-225h336v-86h-336v-239h361v-86zM444 840h-91v102h91v-102zM256 840h-91v102h91v-102z" />
    <glyph glyph-name="copyright" unicode="&#xa9;" horiz-adv-x="800" 
d="M401 -15c-209 0 -377 168 -377 377c0 207 168 375 377 375c208 0 375 -168 375 -375c0 -209 -167 -377 -375 -377zM401 51c171 0 309 139 309 311c0 170 -138 309 -309 309c-172 0 -311 -139 -311 -309c0 -172 139 -311 311 -311zM590 440h-86c-4 57 -31 96 -92 96
c-82 0 -118 -71 -118 -177s36 -177 118 -177c57 0 92 37 92 101h86c-4 -101 -79 -163 -179 -163c-145 0 -203 102 -203 235s67 243 210 243c96 0 167 -60 172 -158z" />
    <glyph glyph-name="afii10053" unicode="&#x404;" horiz-adv-x="667" 
d="M626 536h-105c-5 69 -79 115 -153 115c-155 0 -200 -124 -209 -240h302v-86h-303c7 -135 57 -254 201 -254c77 0 147 38 159 115h105c-10 -121 -132 -201 -273 -201c-213 0 -298 174 -298 376c0 177 72 376 314 376c141 0 249 -72 260 -201z" />
    <glyph glyph-name="guillemotleft" unicode="&#xab;" 
d="M379 267l94 -195h-77l-112 195l112 195h79zM181 267l94 -195h-77l-112 195l112 195h79z" />
    <glyph glyph-name="logicalnot" unicode="&#xac;" horiz-adv-x="584" 
d="M464 82v200h-414v70h484v-270h-70z" />
    <glyph glyph-name="registered" unicode="&#xae;" horiz-adv-x="800" 
d="M401 -15c-209 0 -377 168 -377 377c0 207 168 375 377 375c208 0 375 -168 375 -375c0 -209 -167 -377 -375 -377zM401 51c171 0 309 139 309 311c0 170 -138 309 -309 309c-172 0 -311 -139 -311 -309c0 -172 139 -311 311 -311zM379 337h-58v-191h-69v442h143
c81 0 165 -22 165 -122c0 -51 -31 -91 -90 -103v-2c61 -12 68 -39 75 -87c6 -42 11 -88 26 -128h-88c-5 25 -12 53 -15 79c-5 38 -5 73 -25 94c-17 18 -40 18 -64 18zM321 406h73c65 0 80 29 80 63c0 33 -15 50 -70 50h-83v-113z" />
    <glyph glyph-name="afii10056" unicode="&#x407;" horiz-adv-x="278" 
d="M189 0h-100v722h100v-722zM277 840h-91v102h91v-102zM89 840h-91v102h91v-102z" />
    <glyph glyph-name="degree" unicode="&#xb0;" horiz-adv-x="400" 
d="M350 557c0 -83 -68 -150 -150 -150c-83 0 -149 67 -150 150c0 82 67 150 150 150c82 0 150 -68 150 -150zM294 557c0 51 -43 94 -94 94s-94 -43 -94 -94c0 -52 43 -94 94 -94s94 42 94 94z" />
    <glyph glyph-name="plusminus" unicode="&#xb1;" horiz-adv-x="584" 
d="M257 484h70v-140h197v-70h-197v-140h-70v140h-197v70h197v140zM50 0v70h484v-70h-484z" />
    <glyph glyph-name="afii10055" unicode="&#x406;" horiz-adv-x="278" 
d="M189 0h-100v722h100v-722zM183 840h-91v102h91v-102z" />
    <glyph glyph-name="afii10103" unicode="&#x456;" horiz-adv-x="278" 
d="M187 0h-95v502h95v-502zM83 619v103h113v-103h-113z" />
    <glyph glyph-name="afii10098" unicode="&#x491;" horiz-adv-x="611" 
d="M156 251c0 -107 37 -197 150 -197s151 90 151 197c0 87 -38 182 -151 182s-150 -95 -150 -182zM56 251c0 189 138 262 302 251c-16 35 -46 66 -87 96c-51 37 -110 53 -151 57l47 67c54 -12 116 -29 179 -71c128 -85 185 -196 206 -335c31 -200 -81 -331 -246 -331
s-250 110 -250 266z" />
    <glyph glyph-name="mu" unicode="&#xb5;" horiz-adv-x="611" 
d="M422 0v74h-2c-38 -63 -102 -89 -172 -89c-26 0 -50 5 -70 14v-191h-95v694h95v-297c0 -87 20 -151 111 -151c39 0 92 20 112 72c18 47 19 106 19 118v258h95v-502h-93z" />
    <glyph glyph-name="mu" unicode="&#x3bc;" horiz-adv-x="611" 
d="M422 0v74h-2c-38 -63 -102 -89 -172 -89c-26 0 -50 5 -70 14v-191h-95v694h95v-297c0 -87 20 -151 111 -151c39 0 92 20 112 72c18 47 19 106 19 118v258h95v-502h-93z" />
    <glyph glyph-name="paragraph" unicode="&#xb6;" horiz-adv-x="537" 
d="M521 722v-66h-57v-841h-66v841h-80v-841h-66v436c-121 20 -198 80 -205 214c-6 121 82 257 214 257h260zM252 -185h66h-66z" />
    <glyph glyph-name="afii10071" unicode="&#x451;" 
d="M505 233h-354c-7 -88 29 -179 126 -179c74 0 111 29 122 102h100c-15 -114 -103 -171 -223 -171c-161 0 -225 114 -225 262c0 147 74 272 233 270c150 -1 221 -98 221 -237v-47zM151 299h254c2 84 -36 149 -128 149c-79 0 -126 -67 -126 -149zM416 620h-91v102h91v-102z
M228 620h-91v102h91v-102z" />
    <glyph glyph-name="afii61352" unicode="&#x2116;" horiz-adv-x="1160" 
d="M590 722h89v-722h-124l-365 613h-2v-613h-89v722h137l352 -597h2v597zM937 419c107 0 162 -66 162 -159c0 -94 -55 -160 -162 -160s-163 66 -163 160c0 93 56 159 163 159zM852 260c0 -57 21 -104 85 -104c63 0 83 47 83 104c0 56 -20 103 -83 103
c-64 0 -85 -47 -85 -103zM1097 63v-63h-311v63h311z" />
    <glyph glyph-name="afii10101" unicode="&#x454;" horiz-adv-x="500" 
d="M466 167c-8 -113 -92 -182 -203 -182c-161 0 -225 114 -225 262c0 147 74 270 233 270c106 0 186 -67 191 -176h-95c-5 63 -35 107 -103 107c-81 0 -118 -63 -125 -160h181v-66h-181c5 -102 42 -168 125 -168c63 0 102 41 107 113h95z" />
    <glyph glyph-name="guillemotright" unicode="&#xbb;" 
d="M177 267l-94 195h77l112 -195l-112 -195h-79zM375 267l-94 195h77l112 -195l-112 -195h-79z" />
    <glyph glyph-name="afii10105" unicode="&#x458;" horiz-adv-x="278" 
d="M191 502v-533c0 -86 -19 -161 -124 -161c-21 0 -41 0 -61 3v66c96 -9 90 40 90 67v558h95zM200 619h-113v103h113v-103z" />
    <glyph glyph-name="afii10054" unicode="&#x405;" horiz-adv-x="667" 
d="M56 211h105c2 -102 61 -140 158 -140c82 0 182 24 182 125c0 70 -58 98 -118 111c-119 25 -317 53 -317 215c0 157 143 215 278 215c123 0 244 -55 244 -195h-105c-4 81 -72 109 -144 109c-71 0 -168 -26 -168 -112c0 -82 58 -87 121 -107c133 -43 314 -43 314 -225
c0 -164 -147 -222 -293 -222c-151 0 -261 64 -257 226z" />
    <glyph glyph-name="afii10102" unicode="&#x455;" horiz-adv-x="500" 
d="M53 365c0 105 106 152 197 152c95 0 202 -40 195 -154h-100c4 64 -45 85 -100 85c-51 0 -92 -24 -92 -80s86 -59 122 -71c85 -27 183 -38 183 -151c0 -123 -120 -161 -223 -161c-105 0 -193 48 -192 164h100c2 -62 44 -95 102 -95c56 0 113 22 113 87
c0 112 -305 28 -305 224z" />
    <glyph glyph-name="afii10104" unicode="&#x457;" horiz-adv-x="278" 
d="M187 0h-95v502h95v-502zM277 620h-91v102h91v-102zM89 620h-91v102h91v-102z" />
    <glyph glyph-name="afii10017" unicode="&#x410;" horiz-adv-x="722" 
d="M112 0h-103l304 722h107l292 -722h-109l-78 188h-335zM362 623l-138 -349h269z" />
    <glyph glyph-name="afii10018" unicode="&#x411;" horiz-adv-x="667" 
d="M195 332v-246h167c77 0 141 34 141 123s-64 123 -141 123h-167zM608 209c0 -109 -55 -167 -131 -195c-37 -14 -81 -14 -124 -14h-258v722h438v-86h-338v-218h164c145 0 249 -58 249 -209z" />
    <glyph glyph-name="afii10019" unicode="&#x412;" horiz-adv-x="667" 
d="M195 636v-218h124c95 0 162 14 162 109s-67 109 -162 109h-124zM353 0h-258v722h258c124 0 233 -48 233 -188c0 -75 -51 -136 -122 -156v-2c93 -14 144 -97 144 -187c0 -84 -55 -147 -131 -175c-37 -14 -81 -14 -124 -14zM195 332v-246h167c77 0 141 34 141 123
s-64 123 -141 123h-167z" />
    <glyph glyph-name="afii10020" unicode="&#x413;" horiz-adv-x="540" 
d="M179 0h-100v722h428v-86h-328v-636z" />
    <glyph glyph-name="afii10021" unicode="&#x414;" horiz-adv-x="722" 
d="M705 -161h-100v161h-494v-161h-100v247h63c36 46 73 118 90 173c35 114 58 233 58 463h411v-636h72v-247zM533 86v550h-211c0 -140 -25 -299 -54 -391c-28 -89 -62 -142 -73 -159h338z" />
    <glyph glyph-name="afii10022" unicode="&#x415;" horiz-adv-x="611" 
d="M536 0h-461v722h453v-86h-353v-225h336v-86h-336v-239h361v-86z" />
    <glyph glyph-name="afii10024" unicode="&#x416;" horiz-adv-x="1050" 
d="M1049 0h-141l-333 383v-383h-100v383l-333 -383h-141l359 399l-323 323h137l301 -313v313h100v-313l301 313h137l-323 -323z" />
    <glyph glyph-name="afii10025" unicode="&#x417;" horiz-adv-x="667" 
d="M499 190c0 108 -84 139 -175 139c-12 0 -24 0 -36 -1v89c87 -6 201 16 201 124c0 80 -71 110 -149 110c-77 0 -153 -28 -157 -109h-105c0 140 124 195 254 195c147 0 266 -61 266 -203c0 -82 -69 -147 -147 -162v-2c95 -8 157 -83 157 -176c0 -135 -116 -209 -278 -209
c-154 0 -271 68 -267 220h105c2 -89 75 -134 168 -134c85 0 163 44 163 119z" />
    <glyph glyph-name="afii10026" unicode="&#x418;" horiz-adv-x="722" 
d="M196 0h-106v722h100v-550h2l335 550h106v-722h-100v551h-2z" />
    <glyph glyph-name="afii10027" unicode="&#x419;" horiz-adv-x="722" 
d="M196 0h-106v722h100v-550h2l335 550h106v-722h-100v551h-2zM282 907c7 -43 43 -71 90 -71c49 0 86 26 95 71h49c0 -79 -55 -138 -145 -138c-88 0 -137 63 -137 138h48z" />
    <glyph glyph-name="afii10028" unicode="&#x41a;" horiz-adv-x="667" 
d="M192 0h-100v722h100v-313l301 313h137l-323 -323l359 -399h-141l-333 383v-383z" />
    <glyph glyph-name="afii10029" unicode="&#x41b;" horiz-adv-x="722" 
d="M265 449c0 -220 -19 -321 -86 -400c-34 -40 -76 -59 -112 -59c-31 0 -52 18 -52 18v97s23 -15 37 -15c29 0 57 32 71 57c41 74 42 151 42 375v200h468v-722h-100v636h-268v-187z" />
    <glyph glyph-name="afii10030" unicode="&#x41c;" horiz-adv-x="944" 
d="M752 0v650h-2l-231 -650h-94l-231 650h-2v-650h-100v722h174l208 -595h2l204 595h172v-722h-100z" />
    <glyph glyph-name="afii10031" unicode="&#x41d;" horiz-adv-x="722" 
d="M190 0h-100v722h100v-310h343v310h100v-722h-100v326h-343v-326z" />
    <glyph glyph-name="afii10032" unicode="&#x41e;" horiz-adv-x="778" 
d="M59 361c0 211 105 376 330 376s330 -165 330 -376s-105 -376 -330 -376s-330 165 -330 376zM164 361c0 -150 42 -290 225 -290s225 140 225 290c0 154 -42 290 -225 290s-225 -136 -225 -290z" />
    <glyph glyph-name="afii10033" unicode="&#x41f;" horiz-adv-x="722" 
d="M190 0h-100v722h543v-722h-100v636h-343v-636z" />
    <glyph glyph-name="afii10034" unicode="&#x420;" horiz-adv-x="611" 
d="M88 0v722h242c134 0 250 -44 250 -202c0 -151 -122 -202 -256 -202h-136v-318h-100zM188 404h157c12 0 130 -6 130 116s-118 116 -130 116h-157v-232z" />
    <glyph glyph-name="afii10035" unicode="&#x421;" horiz-adv-x="667" 
d="M630 536h-105c-5 69 -79 115 -153 115c-178 0 -211 -163 -211 -290c0 -149 45 -290 202 -290c77 0 147 38 159 115h105c-10 -121 -132 -201 -273 -201c-213 0 -298 174 -298 376c0 101 23 206 87 281c48 55 119 95 223 95c144 0 253 -72 264 -201z" />
    <glyph glyph-name="afii10036" unicode="&#x422;" horiz-adv-x="611" 
d="M256 0v636h-242v86h584v-86h-242v-636h-100z" />
    <glyph glyph-name="afii10037" unicode="&#x423;" horiz-adv-x="667" 
d="M284 188l-256 534h111l195 -428h2l197 428h113l-358 -722h-110z" />
    <glyph glyph-name="afii10038" unicode="&#x424;" horiz-adv-x="833" 
d="M777 369c0 -172 -89 -293 -262 -293c-17 0 -37 3 -48 6v-82h-100v82c-11 -3 -31 -6 -48 -6c-173 0 -262 121 -262 293s89 293 262 293c17 0 38 -3 48 -5v65h100v-65c10 2 31 5 48 5c173 0 262 -121 262 -293zM672 369c0 112 -38 207 -157 207c-18 0 -34 -2 -48 -6v-402
c14 -4 30 -6 48 -6c119 0 157 95 157 207zM367 168v402c-14 4 -30 6 -48 6c-119 0 -157 -95 -157 -207s38 -207 157 -207c18 0 34 2 48 6z" />
    <glyph glyph-name="afii10039" unicode="&#x425;" horiz-adv-x="722" 
d="M361 310l-220 -310h-121l280 378l-250 344h128l195 -278l195 278h121l-257 -346l270 -376h-126z" />
    <glyph glyph-name="afii10040" unicode="&#x426;" horiz-adv-x="722" 
d="M705 -161h-100v161h-515v722h100v-636h343v636h100v-636h72v-247z" />
    <glyph glyph-name="afii10041" unicode="&#x427;" horiz-adv-x="667" 
d="M478 304h-176c-140 0 -217 81 -217 279v139h100v-134c0 -148 38 -198 145 -198h148v332h100v-722h-100v304z" />
    <glyph glyph-name="afii10042" unicode="&#x428;" horiz-adv-x="1075" 
d="M90 0v722h100v-636h298v636h100v-636h298v636h100v-722h-896z" />
    <glyph glyph-name="afii10043" unicode="&#x429;" horiz-adv-x="1075" 
d="M1058 -161h-100v161h-868v722h100v-636h298v636h100v-636h298v636h100v-636h72v-247z" />
    <glyph glyph-name="afii10044" unicode="&#x42a;" horiz-adv-x="767" 
d="M623 209c0 89 -64 123 -141 123h-167v-246h167c77 0 141 34 141 123zM215 636h-201v86h301v-304h164c145 0 249 -58 249 -209c0 -109 -55 -167 -131 -195c-37 -14 -81 -14 -124 -14h-258v636z" />
    <glyph glyph-name="afii10045" unicode="&#x42b;" horiz-adv-x="900" 
d="M195 332v-246h167c77 0 141 34 141 123s-64 123 -141 123h-167zM608 209c0 -109 -55 -167 -131 -195c-37 -14 -81 -14 -124 -14h-258v722h100v-304h164c145 0 249 -58 249 -209zM711 722h100v-722h-100v722z" />
    <glyph glyph-name="afii10046" unicode="&#x42c;" horiz-adv-x="650" 
d="M195 332v-246h167c77 0 141 34 141 123s-64 123 -141 123h-167zM608 209c0 -109 -55 -167 -131 -195c-37 -14 -81 -14 -124 -14h-258v722h100v-304h164c145 0 249 -58 249 -209z" />
    <glyph glyph-name="afii10047" unicode="&#x42d;" horiz-adv-x="667" 
d="M614 361c0 -202 -85 -376 -298 -376c-141 0 -263 80 -273 201h105c12 -77 82 -115 159 -115c144 0 194 119 201 254h-303v86h302c-9 116 -54 240 -209 240c-74 0 -148 -46 -153 -115h-105c11 129 119 201 260 201c242 0 314 -199 314 -376z" />
    <glyph glyph-name="afii10048" unicode="&#x42e;" horiz-adv-x="1028" 
d="M969 361c0 -211 -105 -376 -330 -376c-212 0 -318 147 -329 341h-120v-326h-100v722h100v-310h121c16 186 122 325 328 325c225 0 330 -165 330 -376zM864 361c0 154 -42 290 -225 290s-225 -136 -225 -290c0 -150 42 -290 225 -290s225 140 225 290z" />
    <glyph glyph-name="afii10049" unicode="&#x42f;" horiz-adv-x="667" 
d="M584 0h-100v326h-140c-40 0 -80 0 -108 -33c-33 -36 -34 -95 -42 -160c-5 -43 -17 -90 -26 -133h-107c26 68 35 145 45 217c12 81 23 127 110 148v2c-84 20 -136 87 -136 174c0 143 125 181 246 181h258v-722zM486 412v224h-165c-111 0 -136 -55 -136 -112
s25 -112 136 -112h165z" />
    <glyph glyph-name="afii10065" unicode="&#x430;" 
d="M383 244h-95c-58 0 -135 -24 -135 -97c0 -62 43 -93 99 -93c112 0 133 97 131 190zM297 310h86c0 87 -5 138 -106 138c-48 0 -93 -28 -94 -80h-100c5 110 91 149 190 149c103 0 205 -31 205 -171v-240c0 -22 1 -64 4 -106h-64c-9 0 -26 -5 -27 7c-2 23 -4 45 -5 68h-2
c-31 -63 -87 -90 -156 -90c-87 0 -175 45 -175 143c0 141 125 182 244 182z" />
    <glyph glyph-name="afii10066" unicode="&#x431;" horiz-adv-x="611" 
d="M156 251c0 -107 37 -197 150 -197s150 90 150 197s-37 197 -150 197s-150 -90 -150 -197zM56 259c0 123 22 241 66 302c35 49 84 93 153 111c42 11 110 18 110 50h108c0 -34 -44 -85 -101 -96c-47 -9 -110 -14 -165 -54c-35 -26 -66 -81 -75 -119l2 -1
c18 27 78 65 172 65c45 0 105 -23 140 -49c62 -45 90 -128 90 -217c0 -156 -85 -266 -250 -266c-75 0 -134 22 -176 64c-50 50 -74 125 -74 210z" />
    <glyph glyph-name="afii10067" unicode="&#x432;" 
d="M502 149c0 -97 -78 -149 -170 -149h-254v502h231c92 0 170 -42 170 -129c0 -49 -32 -91 -64 -103v-2c32 -7 87 -48 87 -119zM379 362c0 47 -31 70 -84 70h-122v-141h116c54 0 90 15 90 71zM402 147c0 60 -45 78 -100 78h-129v-155h135c53 0 94 25 94 77z" />
    <glyph glyph-name="afii10068" unicode="&#x433;" horiz-adv-x="449" 
d="M185 432v-432h-95v502h322v-70h-227z" />
    <glyph glyph-name="afii10069" unicode="&#x434;" horiz-adv-x="611" 
d="M591 -161h-95v161h-374v-161h-95v231h51c89 108 79 280 79 432h370v-432h64v-231zM432 70v362h-180c0 -192 -28 -320 -67 -362h247z" />
    <glyph glyph-name="afii10070" unicode="&#x435;" 
d="M505 233h-354c-7 -88 29 -179 126 -179c74 0 111 29 122 102h100c-15 -114 -103 -171 -223 -171c-161 0 -225 114 -225 262c0 147 74 272 233 270c150 -1 221 -98 221 -237v-47zM151 299h254c2 84 -36 149 -128 149c-79 0 -126 -67 -126 -149z" />
    <glyph glyph-name="afii10072" unicode="&#x436;" horiz-adv-x="765" 
d="M753 0h-123l-199 247h-2v-247h-95v247h-2l-199 -247h-123l225 265l-212 237h123l188 -229v229h95v-229l188 229h123l-212 -237z" />
    <glyph glyph-name="afii10073" unicode="&#x437;" horiz-adv-x="500" 
d="M447 149c0 -100 -80 -164 -196 -164c-117 0 -202 36 -209 150h100c9 -54 45 -80 101 -80c55 0 104 38 104 84c0 65 -58 85 -112 85h-37v74h32c53 0 109 18 109 80c0 46 -28 69 -84 69c-63 0 -96 -20 -104 -78h-99c0 55 29 97 76 122c35 18 80 26 122 26
c104 0 189 -37 189 -140c0 -58 -43 -97 -100 -107v-2c72 -6 108 -66 108 -119z" />
    <glyph glyph-name="afii10074" unicode="&#x438;" horiz-adv-x="611" 
d="M195 0h-105v502h95v-373h2l235 373h105v-502h-95v374h-2z" />
    <glyph glyph-name="afii10075" unicode="&#x439;" horiz-adv-x="611" 
d="M195 0h-105v502h95v-373h2l235 373h105v-502h-95v374h-2zM217 722c7 -43 43 -71 90 -71c49 0 86 26 95 71h49c0 -79 -55 -138 -145 -138c-88 0 -137 63 -137 138h48z" />
    <glyph glyph-name="afii10076" unicode="&#x43a;" horiz-adv-x="500" 
d="M174 0h-95v502h95v-229l188 229h123l-212 -237l225 -265h-123l-199 247h-2v-247z" />
    <glyph glyph-name="afii10077" unicode="&#x43b;" horiz-adv-x="600" 
d="M29 74c0 0 8 -3 17 -3c13 0 38 2 53 27c28 47 35 136 35 276v128h383v-502h-95v432h-193v-105c0 -158 -27 -266 -60 -298c-26 -25 -69 -36 -92 -36c-20 0 -48 7 -48 7v74z" />
    <glyph glyph-name="afii10078" unicode="&#x43c;" horiz-adv-x="732" 
d="M647 0h-95v382h-2l-146 -382h-71l-146 382h-2v-382h-95v502h137l141 -386h1l141 386h137v-502z" />
    <glyph glyph-name="afii10079" unicode="&#x43d;" horiz-adv-x="611" 
d="M185 225v-225h-95v502h95v-207h247v207h95v-502h-95v225h-247z" />
    <glyph glyph-name="afii10080" unicode="&#x43e;" horiz-adv-x="611" 
d="M306 517c165 0 250 -110 250 -266s-85 -266 -250 -266s-250 110 -250 266s85 266 250 266zM156 251c0 -107 37 -197 150 -197s150 90 150 197s-37 197 -150 197s-150 -90 -150 -197z" />
    <glyph glyph-name="afii10081" unicode="&#x43f;" horiz-adv-x="611" 
d="M185 432v-432h-95v502h437v-502h-95v432h-247z" />
    <glyph glyph-name="afii10082" unicode="&#x440;" horiz-adv-x="611" 
d="M465 251c0 94 -28 197 -142 197c-108 0 -142 -106 -142 -197c0 -94 27 -197 133 -197c116 0 151 103 151 197zM86 -192v604c0 30 -3 60 -5 90h97l3 -80h2c29 72 92 95 171 95c141 0 211 -130 211 -266c0 -129 -60 -266 -241 -266c-41 0 -107 20 -140 72h-3v-249h-95z" />
    <glyph glyph-name="afii10083" unicode="&#x441;" horiz-adv-x="500" 
d="M463 341h-95c-5 63 -35 107 -103 107c-91 0 -126 -79 -126 -197s35 -197 126 -197c63 0 102 41 107 113h95c-8 -113 -92 -182 -203 -182c-161 0 -225 114 -225 262c0 147 74 270 233 270c106 0 186 -67 191 -176z" />
    <glyph glyph-name="afii10084" unicode="&#x442;" horiz-adv-x="500" 
d="M481 502v-70h-182v-432h-95v432h-182v70h459z" />
    <glyph glyph-name="afii10085" unicode="&#x443;" 
d="M541 502l-295 -694h-97l76 194l-209 500h106l157 -396l160 396h102z" />
    <glyph glyph-name="afii10086" unicode="&#x444;" horiz-adv-x="804" 
d="M753 247c0 -148 -66 -262 -215 -262c-36 0 -75 23 -86 35v-212h-95v212c-11 -12 -50 -35 -86 -35c-149 0 -215 114 -215 262c0 147 78 270 213 270c40 0 76 -20 88 -38v243h95v-243c12 18 48 38 88 38c135 0 213 -123 213 -270zM653 251c0 118 -35 197 -126 197
c-51 0 -69 -23 -75 -30v-338c15 -16 41 -29 75 -29c91 0 126 82 126 200zM357 80v338c-6 7 -24 30 -75 30c-91 0 -126 -79 -126 -197s35 -200 126 -200c34 0 60 13 75 29z" />
    <glyph glyph-name="afii10087" unicode="&#x445;" 
d="M538 502l-197 -245l197 -257h-124l-143 201l-142 -201h-110l199 263l-188 239h123l134 -189l140 189h111z" />
    <glyph glyph-name="afii10088" unicode="&#x446;" horiz-adv-x="611" 
d="M591 -161h-95v161h-406v502h95v-432h247v432h95v-432h64v-231z" />
    <glyph glyph-name="afii10089" unicode="&#x447;" 
d="M382 269v233h95v-502h-95v215c-20 -15 -91 -38 -144 -38c-110 0 -176 74 -176 181v144h95v-121c0 -80 38 -130 115 -130c42 0 95 9 110 18z" />
    <glyph glyph-name="afii10090" unicode="&#x448;" horiz-adv-x="855" 
d="M773 0h-683v502h95v-432h199v432h95v-432h199v432h95v-502z" />
    <glyph glyph-name="afii10091" unicode="&#x449;" horiz-adv-x="855" 
d="M837 -161h-95v161h-652v502h95v-432h199v432h95v-432h199v432h95v-432h64v-231z" />
    <glyph glyph-name="afii10092" unicode="&#x44a;" horiz-adv-x="656" 
d="M609 159c0 -117 -83 -159 -175 -159h-244v432h-171v70h266v-177h140c96 0 184 -53 184 -166zM509 162c0 73 -50 93 -105 93h-119v-185h125c53 0 99 30 99 92z" />
    <glyph glyph-name="afii10093" unicode="&#x44b;" horiz-adv-x="758" 
d="M86 0v502h95v-177h140c96 0 184 -53 184 -166c0 -117 -83 -159 -175 -159h-244zM306 70c53 0 99 30 99 92c0 73 -50 93 -105 93h-119v-185h125zM586 502h95v-502h-95v502z" />
    <glyph glyph-name="afii10094" unicode="&#x44c;" 
d="M90 0v502h95v-177h140c96 0 184 -53 184 -166c0 -117 -83 -159 -175 -159h-244zM310 70c53 0 99 30 99 92c0 73 -50 93 -105 93h-119v-185h125z" />
    <glyph glyph-name="afii10095" unicode="&#x44d;" horiz-adv-x="500" 
d="M461 247c0 -148 -64 -262 -225 -262c-111 0 -195 69 -203 182h95c5 -72 44 -113 107 -113c83 0 120 66 125 168h-181v66h181c-7 97 -44 160 -125 160c-68 0 -98 -44 -103 -107h-95c5 109 85 176 191 176c159 0 233 -123 233 -270z" />
    <glyph glyph-name="afii10096" unicode="&#x44e;" horiz-adv-x="811" 
d="M756 251c0 -156 -85 -266 -250 -266c-156 0 -240 98 -249 240h-72v-225h-95v502h95v-207h73c15 132 99 222 248 222c165 0 250 -110 250 -266zM656 251c0 107 -37 197 -150 197s-150 -90 -150 -197s37 -197 150 -197s150 90 150 197z" />
    <glyph glyph-name="afii10097" unicode="&#x44f;" 
d="M379 277v155h-127c-53 0 -94 -25 -94 -77c0 -60 45 -78 100 -78h121zM58 363c0 90 78 139 170 139h246v-502h-95v210h-131c-27 0 -49 0 -67 -20c-20 -22 -19 -57 -23 -96c-3 -26 -10 -69 -16 -94h-99c17 41 22 97 29 141c7 48 29 82 81 94v1c-60 14 -95 59 -95 127z" />
    <glyph glyph-name="sterling" unicode="&#xa3;" 
d="M206 416h139v-66h-139v-264h317v-86h-484v87h67v263h-74v66h74v88c0 150 116 203 219 203c111 0 209 -40 216 -162h-105c-4 59 -44 93 -106 93c-137 0 -124 -140 -124 -222z" />
    <glyph glyph-name="florin" unicode="&#x192;" 
d="M471 701l-12 -66c-12 1 -23 3 -35 3c-95 -19 -91 -133 -109 -217h105l-14 -66h-103l-61 -327c-14 -73 -22 -175 -113 -210c-25 -10 -69 -10 -95 -10l12 69c79 -3 83 28 111 176l58 302h-90l12 66h91c25 122 29 286 192 286c17 0 34 -2 51 -6z" />
    <glyph glyph-name="divide" unicode="&#xf7;" horiz-adv-x="584" 
d="M534 277v-70h-484v70h484zM344 0h-104v104h104v-104zM344 380h-104v104h104v-104z" />
    <glyph glyph-name="DC1" horiz-adv-x="0" 
d="M21 -975h-16v0l13 13c2 3 3 5 2 8c0 6 -4 10 -10 10s-11 -4 -11 -10h5c0 3 2 6 6 6c3 0 5 -2 5 -5s-1 -5 -2 -7c-4 -5 -9 -10 -14 -14v-5h22v4zM46 -975h-16v0l13 13c2 3 3 5 2 8c0 6 -4 10 -10 10s-11 -4 -11 -10h5c0 3 2 6 6 6c3 0 5 -2 5 -5s-1 -5 -2 -7
c-4 -5 -9 -10 -14 -14v-5h22v4zM51 -944l-1 -21l5 -1c1 4 3 5 6 6c4 0 6 -4 7 -7c0 -4 -2 -8 -7 -8c-3 0 -6 1 -6 4h-5c0 -6 4 -9 11 -9s12 5 12 13c0 6 -4 11 -11 11c-3 0 -5 -1 -7 -3v10h16v5h-20zM87 -963c4 0 7 -2 7 -5c0 -5 -3 -8 -7 -8s-7 3 -7 6c0 4 3 7 7 7z
M94 -953h-1c0 -4 -3 -6 -7 -6c-3 0 -6 2 -5 7c0 3 3 5 6 5c4 0 7 -2 7 -6zM82 -961c-5 -1 -8 -4 -8 -9c0 -7 6 -10 12 -9c6 0 12 3 12 9c0 5 -3 8 -8 9v0v0c4 1 7 4 7 8c0 6 -6 9 -11 9c-6 0 -11 -3 -12 -9c0 -4 3 -7 8 -8v0z" />
    <glyph glyph-name="lessequal" unicode="&#x2264;" horiz-adv-x="584" 
d="M534 644v-80l-395 -162l395 -162v-80l-489 207v70zM534 80v-80l-489 207v74z" />
    <glyph glyph-name="greaterequal" unicode="&#x2265;" horiz-adv-x="584" 
d="M45 644v-80l395 -162l-395 -162v-80l489 207v70zM45 80v-80l489 207v74z" />
    <glyph glyph-name="lozenge" unicode="&#x25ca;" 
d="M101 -134l64 245h116l-112 -245h-68zM287 -134l64 245h116l-112 -245h-68z" />
    <glyph glyph-name="Euro" unicode="&#x20ac;" 
d="M513 666v-100c-27 26 -75 50 -147 50c-101 0 -155 -63 -168 -157h277l-26 -77h-261c-1 -9 -2 -20 -2 -32c0 -13 1 -27 2 -35h237l-27 -78h-200c15 -103 73 -160 169 -160c70 0 117 23 146 50v-101c-22 -18 -77 -40 -159 -40c-138 0 -229 79 -255 251h-77l27 78h42
c-1 8 -1 22 -1 35c0 12 0 23 1 32h-69l27 77h49c23 146 100 248 256 248c75 0 134 -22 159 -41z" />
    </font>
</defs>
</svg>
